<?xml version="1.0" encoding="utf-8" standalone="no"?>
<!DOCTYPE svg PUBLIC "-//W3C//DTD SVG 1.1//EN"
  "http://www.w3.org/Graphics/SVG/1.1/DTD/svg11.dtd">
<svg xmlns:xlink="http://www.w3.org/1999/xlink" width="460.8pt" height="345.6pt" viewBox="0 0 460.8 345.6" xmlns="http://www.w3.org/2000/svg" version="1.1">
 <metadata>
  <rdf:RDF xmlns:dc="http://purl.org/dc/elements/1.1/" xmlns:cc="http://creativecommons.org/ns#" xmlns:rdf="http://www.w3.org/1999/02/22-rdf-syntax-ns#">
   <cc:Work>
    <dc:type rdf:resource="http://purl.org/dc/dcmitype/StillImage"/>
    <dc:date>2025-02-27T17:14:57.478229</dc:date>
    <dc:format>image/svg+xml</dc:format>
    <dc:creator>
     <cc:Agent>
      <dc:title>Matplotlib v3.6.3, https://matplotlib.org/</dc:title>
     </cc:Agent>
    </dc:creator>
   </cc:Work>
  </rdf:RDF>
 </metadata>
 <defs>
  <style type="text/css">*{stroke-linejoin: round; stroke-linecap: butt}</style>
 </defs>
 <g id="figure_1">
  <g id="patch_1">
   <path d="M 0 345.6 
L 460.8 345.6 
L 460.8 0 
L 0 0 
z
" style="fill: #ffffff"/>
  </g>
  <g id="axes_1">
   <g id="patch_2">
    <path d="M 57.6 307.584 
L 414.72 307.584 
L 414.72 41.472 
L 57.6 41.472 
z
" style="fill: #ffffff"/>
   </g>
   <g id="matplotlib.axis_1">
    <g id="xtick_1">
     <g id="line2d_1">
      <defs>
       <path id="m0102d934b0" d="M 0 0 
L 0 3.5 
" style="stroke: #000000; stroke-width: 0.8"/>
      </defs>
      <g>
       <use xlink:href="#m0102d934b0" x="80.076084" y="307.584" style="stroke: #000000; stroke-width: 0.8"/>
      </g>
     </g>
     <g id="text_1">
      <!-- 500 -->
      <g transform="translate(70.532334 322.182437) scale(0.1 -0.1)">
       <defs>
        <path id="DejaVuSans-35" d="M 691 4666 
L 3169 4666 
L 3169 4134 
L 1269 4134 
L 1269 2991 
Q 1406 3038 1543 3061 
Q 1681 3084 1819 3084 
Q 2600 3084 3056 2656 
Q 3513 2228 3513 1497 
Q 3513 744 3044 326 
Q 2575 -91 1722 -91 
Q 1428 -91 1123 -41 
Q 819 9 494 109 
L 494 744 
Q 775 591 1075 516 
Q 1375 441 1709 441 
Q 2250 441 2565 725 
Q 2881 1009 2881 1497 
Q 2881 1984 2565 2268 
Q 2250 2553 1709 2553 
Q 1456 2553 1204 2497 
Q 953 2441 691 2322 
L 691 4666 
z
" transform="scale(0.015625)"/>
        <path id="DejaVuSans-30" d="M 2034 4250 
Q 1547 4250 1301 3770 
Q 1056 3291 1056 2328 
Q 1056 1369 1301 889 
Q 1547 409 2034 409 
Q 2525 409 2770 889 
Q 3016 1369 3016 2328 
Q 3016 3291 2770 3770 
Q 2525 4250 2034 4250 
z
M 2034 4750 
Q 2819 4750 3233 4129 
Q 3647 3509 3647 2328 
Q 3647 1150 3233 529 
Q 2819 -91 2034 -91 
Q 1250 -91 836 529 
Q 422 1150 422 2328 
Q 422 3509 836 4129 
Q 1250 4750 2034 4750 
z
" transform="scale(0.015625)"/>
       </defs>
       <use xlink:href="#DejaVuSans-35"/>
       <use xlink:href="#DejaVuSans-30" x="63.623047"/>
       <use xlink:href="#DejaVuSans-30" x="127.246094"/>
      </g>
     </g>
    </g>
    <g id="xtick_2">
     <g id="line2d_2">
      <g>
       <use xlink:href="#m0102d934b0" x="142.50965" y="307.584" style="stroke: #000000; stroke-width: 0.8"/>
      </g>
     </g>
     <g id="text_2">
      <!-- 600 -->
      <g transform="translate(132.9659 322.182437) scale(0.1 -0.1)">
       <defs>
        <path id="DejaVuSans-36" d="M 2113 2584 
Q 1688 2584 1439 2293 
Q 1191 2003 1191 1497 
Q 1191 994 1439 701 
Q 1688 409 2113 409 
Q 2538 409 2786 701 
Q 3034 994 3034 1497 
Q 3034 2003 2786 2293 
Q 2538 2584 2113 2584 
z
M 3366 4563 
L 3366 3988 
Q 3128 4100 2886 4159 
Q 2644 4219 2406 4219 
Q 1781 4219 1451 3797 
Q 1122 3375 1075 2522 
Q 1259 2794 1537 2939 
Q 1816 3084 2150 3084 
Q 2853 3084 3261 2657 
Q 3669 2231 3669 1497 
Q 3669 778 3244 343 
Q 2819 -91 2113 -91 
Q 1303 -91 875 529 
Q 447 1150 447 2328 
Q 447 3434 972 4092 
Q 1497 4750 2381 4750 
Q 2619 4750 2861 4703 
Q 3103 4656 3366 4563 
z
" transform="scale(0.015625)"/>
       </defs>
       <use xlink:href="#DejaVuSans-36"/>
       <use xlink:href="#DejaVuSans-30" x="63.623047"/>
       <use xlink:href="#DejaVuSans-30" x="127.246094"/>
      </g>
     </g>
    </g>
    <g id="xtick_3">
     <g id="line2d_3">
      <g>
       <use xlink:href="#m0102d934b0" x="204.943217" y="307.584" style="stroke: #000000; stroke-width: 0.8"/>
      </g>
     </g>
     <g id="text_3">
      <!-- 700 -->
      <g transform="translate(195.399467 322.182437) scale(0.1 -0.1)">
       <defs>
        <path id="DejaVuSans-37" d="M 525 4666 
L 3525 4666 
L 3525 4397 
L 1831 0 
L 1172 0 
L 2766 4134 
L 525 4134 
L 525 4666 
z
" transform="scale(0.015625)"/>
       </defs>
       <use xlink:href="#DejaVuSans-37"/>
       <use xlink:href="#DejaVuSans-30" x="63.623047"/>
       <use xlink:href="#DejaVuSans-30" x="127.246094"/>
      </g>
     </g>
    </g>
    <g id="xtick_4">
     <g id="line2d_4">
      <g>
       <use xlink:href="#m0102d934b0" x="267.376783" y="307.584" style="stroke: #000000; stroke-width: 0.8"/>
      </g>
     </g>
     <g id="text_4">
      <!-- 800 -->
      <g transform="translate(257.833033 322.182437) scale(0.1 -0.1)">
       <defs>
        <path id="DejaVuSans-38" d="M 2034 2216 
Q 1584 2216 1326 1975 
Q 1069 1734 1069 1313 
Q 1069 891 1326 650 
Q 1584 409 2034 409 
Q 2484 409 2743 651 
Q 3003 894 3003 1313 
Q 3003 1734 2745 1975 
Q 2488 2216 2034 2216 
z
M 1403 2484 
Q 997 2584 770 2862 
Q 544 3141 544 3541 
Q 544 4100 942 4425 
Q 1341 4750 2034 4750 
Q 2731 4750 3128 4425 
Q 3525 4100 3525 3541 
Q 3525 3141 3298 2862 
Q 3072 2584 2669 2484 
Q 3125 2378 3379 2068 
Q 3634 1759 3634 1313 
Q 3634 634 3220 271 
Q 2806 -91 2034 -91 
Q 1263 -91 848 271 
Q 434 634 434 1313 
Q 434 1759 690 2068 
Q 947 2378 1403 2484 
z
M 1172 3481 
Q 1172 3119 1398 2916 
Q 1625 2713 2034 2713 
Q 2441 2713 2670 2916 
Q 2900 3119 2900 3481 
Q 2900 3844 2670 4047 
Q 2441 4250 2034 4250 
Q 1625 4250 1398 4047 
Q 1172 3844 1172 3481 
z
" transform="scale(0.015625)"/>
       </defs>
       <use xlink:href="#DejaVuSans-38"/>
       <use xlink:href="#DejaVuSans-30" x="63.623047"/>
       <use xlink:href="#DejaVuSans-30" x="127.246094"/>
      </g>
     </g>
    </g>
    <g id="xtick_5">
     <g id="line2d_5">
      <g>
       <use xlink:href="#m0102d934b0" x="329.81035" y="307.584" style="stroke: #000000; stroke-width: 0.8"/>
      </g>
     </g>
     <g id="text_5">
      <!-- 900 -->
      <g transform="translate(320.2666 322.182437) scale(0.1 -0.1)">
       <defs>
        <path id="DejaVuSans-39" d="M 703 97 
L 703 672 
Q 941 559 1184 500 
Q 1428 441 1663 441 
Q 2288 441 2617 861 
Q 2947 1281 2994 2138 
Q 2813 1869 2534 1725 
Q 2256 1581 1919 1581 
Q 1219 1581 811 2004 
Q 403 2428 403 3163 
Q 403 3881 828 4315 
Q 1253 4750 1959 4750 
Q 2769 4750 3195 4129 
Q 3622 3509 3622 2328 
Q 3622 1225 3098 567 
Q 2575 -91 1691 -91 
Q 1453 -91 1209 -44 
Q 966 3 703 97 
z
M 1959 2075 
Q 2384 2075 2632 2365 
Q 2881 2656 2881 3163 
Q 2881 3666 2632 3958 
Q 2384 4250 1959 4250 
Q 1534 4250 1286 3958 
Q 1038 3666 1038 3163 
Q 1038 2656 1286 2365 
Q 1534 2075 1959 2075 
z
" transform="scale(0.015625)"/>
       </defs>
       <use xlink:href="#DejaVuSans-39"/>
       <use xlink:href="#DejaVuSans-30" x="63.623047"/>
       <use xlink:href="#DejaVuSans-30" x="127.246094"/>
      </g>
     </g>
    </g>
    <g id="xtick_6">
     <g id="line2d_6">
      <g>
       <use xlink:href="#m0102d934b0" x="392.243916" y="307.584" style="stroke: #000000; stroke-width: 0.8"/>
      </g>
     </g>
     <g id="text_6">
      <!-- 1000 -->
      <g transform="translate(379.518916 322.182437) scale(0.1 -0.1)">
       <defs>
        <path id="DejaVuSans-31" d="M 794 531 
L 1825 531 
L 1825 4091 
L 703 3866 
L 703 4441 
L 1819 4666 
L 2450 4666 
L 2450 531 
L 3481 531 
L 3481 0 
L 794 0 
L 794 531 
z
" transform="scale(0.015625)"/>
       </defs>
       <use xlink:href="#DejaVuSans-31"/>
       <use xlink:href="#DejaVuSans-30" x="63.623047"/>
       <use xlink:href="#DejaVuSans-30" x="127.246094"/>
       <use xlink:href="#DejaVuSans-30" x="190.869141"/>
      </g>
     </g>
    </g>
   </g>
   <g id="matplotlib.axis_2">
    <g id="ytick_1">
     <g id="line2d_7">
      <defs>
       <path id="me4647549d0" d="M 0 0 
L -3.5 0 
" style="stroke: #000000; stroke-width: 0.8"/>
      </defs>
      <g>
       <use xlink:href="#me4647549d0" x="57.6" y="302.573232" style="stroke: #000000; stroke-width: 0.8"/>
      </g>
     </g>
     <g id="text_7">
      <!-- 0.0 -->
      <g transform="translate(34.696875 306.372451) scale(0.1 -0.1)">
       <defs>
        <path id="DejaVuSans-2e" d="M 684 794 
L 1344 794 
L 1344 0 
L 684 0 
L 684 794 
z
" transform="scale(0.015625)"/>
       </defs>
       <use xlink:href="#DejaVuSans-30"/>
       <use xlink:href="#DejaVuSans-2e" x="63.623047"/>
       <use xlink:href="#DejaVuSans-30" x="95.410156"/>
      </g>
     </g>
    </g>
    <g id="ytick_2">
     <g id="line2d_8">
      <g>
       <use xlink:href="#me4647549d0" x="57.6" y="249.457535" style="stroke: #000000; stroke-width: 0.8"/>
      </g>
     </g>
     <g id="text_8">
      <!-- 0.2 -->
      <g transform="translate(34.696875 253.256754) scale(0.1 -0.1)">
       <defs>
        <path id="DejaVuSans-32" d="M 1228 531 
L 3431 531 
L 3431 0 
L 469 0 
L 469 531 
Q 828 903 1448 1529 
Q 2069 2156 2228 2338 
Q 2531 2678 2651 2914 
Q 2772 3150 2772 3378 
Q 2772 3750 2511 3984 
Q 2250 4219 1831 4219 
Q 1534 4219 1204 4116 
Q 875 4013 500 3803 
L 500 4441 
Q 881 4594 1212 4672 
Q 1544 4750 1819 4750 
Q 2544 4750 2975 4387 
Q 3406 4025 3406 3419 
Q 3406 3131 3298 2873 
Q 3191 2616 2906 2266 
Q 2828 2175 2409 1742 
Q 1991 1309 1228 531 
z
" transform="scale(0.015625)"/>
       </defs>
       <use xlink:href="#DejaVuSans-30"/>
       <use xlink:href="#DejaVuSans-2e" x="63.623047"/>
       <use xlink:href="#DejaVuSans-32" x="95.410156"/>
      </g>
     </g>
    </g>
    <g id="ytick_3">
     <g id="line2d_9">
      <g>
       <use xlink:href="#me4647549d0" x="57.6" y="196.341838" style="stroke: #000000; stroke-width: 0.8"/>
      </g>
     </g>
     <g id="text_9">
      <!-- 0.4 -->
      <g transform="translate(34.696875 200.141057) scale(0.1 -0.1)">
       <defs>
        <path id="DejaVuSans-34" d="M 2419 4116 
L 825 1625 
L 2419 1625 
L 2419 4116 
z
M 2253 4666 
L 3047 4666 
L 3047 1625 
L 3713 1625 
L 3713 1100 
L 3047 1100 
L 3047 0 
L 2419 0 
L 2419 1100 
L 313 1100 
L 313 1709 
L 2253 4666 
z
" transform="scale(0.015625)"/>
       </defs>
       <use xlink:href="#DejaVuSans-30"/>
       <use xlink:href="#DejaVuSans-2e" x="63.623047"/>
       <use xlink:href="#DejaVuSans-34" x="95.410156"/>
      </g>
     </g>
    </g>
    <g id="ytick_4">
     <g id="line2d_10">
      <g>
       <use xlink:href="#me4647549d0" x="57.6" y="143.22614" style="stroke: #000000; stroke-width: 0.8"/>
      </g>
     </g>
     <g id="text_10">
      <!-- 0.6 -->
      <g transform="translate(34.696875 147.025359) scale(0.1 -0.1)">
       <use xlink:href="#DejaVuSans-30"/>
       <use xlink:href="#DejaVuSans-2e" x="63.623047"/>
       <use xlink:href="#DejaVuSans-36" x="95.410156"/>
      </g>
     </g>
    </g>
    <g id="ytick_5">
     <g id="line2d_11">
      <g>
       <use xlink:href="#me4647549d0" x="57.6" y="90.110443" style="stroke: #000000; stroke-width: 0.8"/>
      </g>
     </g>
     <g id="text_11">
      <!-- 0.8 -->
      <g transform="translate(34.696875 93.909662) scale(0.1 -0.1)">
       <use xlink:href="#DejaVuSans-30"/>
       <use xlink:href="#DejaVuSans-2e" x="63.623047"/>
       <use xlink:href="#DejaVuSans-38" x="95.410156"/>
      </g>
     </g>
    </g>
   </g>
   <g id="line2d_12">
    <path d="M 73.832727 124.307556 
L 74.457063 154.210688 
L 75.081399 196.118123 
L 75.705734 251.714384 
L 76.33007 260.304325 
L 76.954406 262.089711 
L 77.578741 268.680543 
L 78.203077 150.431773 
L 78.827413 154.591324 
L 79.451748 170.427 
L 80.70042 245.683031 
L 81.324755 247.310937 
L 81.949091 244.84903 
L 82.573427 247.946417 
L 83.197762 241.389024 
L 83.822098 241.54774 
L 84.446434 247.131059 
L 85.070769 255.850466 
L 85.695105 220.00739 
L 86.319441 213.224614 
L 86.943776 229.49936 
L 87.568112 250.410763 
L 88.192448 179.372752 
L 88.816783 183.500918 
L 89.441119 170.559748 
L 90.065455 195.142955 
L 90.68979 146.068786 
L 91.314126 146.232897 
L 91.938462 149.365642 
L 92.562797 151.193814 
L 93.187133 150.50748 
L 93.811469 151.751496 
L 94.435804 154.62546 
L 95.06014 159.690515 
L 95.684476 143.788387 
L 96.308811 145.411028 
L 96.933147 146.377712 
L 97.557483 154.152006 
L 98.181818 141.363232 
L 98.806154 144.377943 
L 99.43049 153.541052 
L 100.054825 180.602424 
L 101.303497 242.059103 
L 101.927832 241.072253 
L 102.552168 251.535561 
L 103.176503 252.011884 
L 103.800839 228.907703 
L 104.425175 225.298371 
L 105.04951 219.352426 
L 105.673846 252.491029 
L 106.298182 236.645685 
L 106.922517 231.748697 
L 107.546853 229.078838 
L 108.171189 240.886814 
L 109.41986 252.072951 
L 110.044196 262.035466 
L 110.668531 88.51962 
L 111.292867 82.399149 
L 111.917203 98.465716 
L 112.541538 135.445004 
L 113.165874 130.749202 
L 113.79021 159.799043 
L 115.038881 247.819927 
L 115.663217 165.575849 
L 116.287552 154.387532 
L 116.911888 199.654665 
L 117.536224 225.012384 
L 118.160559 197.542889 
L 118.784895 215.570744 
L 120.033566 235.729268 
L 120.657902 256.964059 
L 121.282238 242.287821 
L 121.906573 245.746626 
L 122.530909 223.734533 
L 123.155245 247.287451 
L 123.77958 265.031112 
L 124.403916 260.877226 
L 125.028252 249.214562 
L 125.652587 268.748532 
L 126.276923 224.898654 
L 126.901259 201.850248 
L 127.525594 196.853873 
L 128.14993 207.094493 
L 128.774266 203.515113 
L 129.398601 205.605897 
L 130.022937 214.646448 
L 130.647273 261.843245 
L 131.271608 239.588357 
L 131.895944 230.17036 
L 132.52028 215.225673 
L 133.144615 213.681295 
L 133.768951 203.163982 
L 134.393287 204.821565 
L 135.017622 214.885727 
L 135.641958 243.797499 
L 136.266294 256.694495 
L 136.890629 251.147747 
L 137.514965 244.307481 
L 138.139301 266.037838 
L 138.763636 231.545727 
L 140.012308 207.776607 
L 140.636643 246.316757 
L 141.260979 210.637452 
L 142.50965 197.129659 
L 143.133986 265.153402 
L 143.758322 249.719993 
L 144.382657 250.107302 
L 145.006993 241.513505 
L 145.631329 53.568 
L 146.255664 60.789357 
L 146.88 71.96919 
L 147.504336 108.355123 
L 148.128671 54.087298 
L 149.377343 71.265225 
L 150.001678 101.250152 
L 150.626014 71.727856 
L 151.25035 70.654308 
L 151.874685 91.501886 
L 152.499021 141.875037 
L 153.123357 151.333393 
L 153.747692 169.138296 
L 154.372028 234.546377 
L 154.996364 246.280331 
L 155.620699 280.114182 
L 156.245035 252.985094 
L 157.493706 185.345757 
L 158.118042 276.309993 
L 158.742378 263.767309 
L 159.366713 237.442516 
L 159.991049 197.037588 
L 160.615385 275.238707 
L 161.23972 262.890643 
L 162.488392 198.172887 
L 163.112727 256.066827 
L 163.737063 253.145594 
L 164.361399 256.687877 
L 164.985734 230.517477 
L 165.61007 132.728356 
L 166.234406 120.206108 
L 166.858741 121.427967 
L 167.483077 124.38994 
L 168.107413 89.799115 
L 168.731748 95.432739 
L 169.356084 112.55829 
L 169.98042 154.63651 
L 170.604755 126.192956 
L 171.229091 125.206814 
L 173.102098 270.106887 
L 174.350769 263.738289 
L 174.975105 207.278575 
L 175.599441 199.229028 
L 176.223776 196.585626 
L 176.848112 237.923312 
L 177.472448 259.464439 
L 178.096783 60.391622 
L 178.721119 56.450554 
L 179.345455 63.973773 
L 180.594126 103.412978 
L 181.218462 108.910142 
L 181.842797 171.44452 
L 182.467133 255.440794 
L 183.091469 163.681126 
L 183.715804 234.219651 
L 184.34014 266.050474 
L 184.964476 249.715886 
L 185.588811 269.43046 
L 186.213147 268.407805 
L 186.837483 227.322953 
L 187.461818 197.734474 
L 188.086154 253.29597 
L 189.334825 272.848792 
L 189.959161 205.143991 
L 191.207832 260.251806 
L 191.832168 268.213749 
L 192.456503 212.721639 
L 193.080839 245.74576 
L 193.705175 263.244895 
L 194.32951 254.978089 
L 194.953846 200.38317 
L 195.578182 233.532936 
L 196.202517 250.829 
L 196.826853 274.007484 
L 197.451189 215.051202 
L 198.075524 62.422626 
L 198.69986 65.389258 
L 199.324196 91.587873 
L 199.948531 178.123374 
L 200.572867 68.701051 
L 201.197203 58.193978 
L 201.821538 72.799711 
L 202.445874 122.837465 
L 203.694545 83.511865 
L 204.318881 114.526184 
L 204.943217 199.016851 
L 205.567552 195.544417 
L 206.191888 241.570699 
L 206.816224 267.533188 
L 207.440559 200.311997 
L 208.064895 221.002825 
L 208.689231 154.070949 
L 209.313566 139.452749 
L 209.937902 135.958202 
L 210.562238 58.918227 
L 211.186573 61.446286 
L 211.810909 74.404698 
L 212.435245 126.491447 
L 213.05958 130.401545 
L 213.683916 246.894128 
L 214.308252 285.298146 
L 214.932587 239.740175 
L 215.556923 252.981961 
L 216.181259 275.937859 
L 216.805594 215.009427 
L 217.42993 181.685215 
L 218.054266 225.886718 
L 218.678601 146.303259 
L 219.302937 129.354725 
L 219.927273 121.450664 
L 220.551608 237.284726 
L 221.175944 168.431549 
L 221.80028 145.2196 
L 222.424615 136.998889 
L 223.048951 244.170665 
L 223.673287 174.498264 
L 224.297622 148.849115 
L 224.921958 133.923286 
L 225.546294 66.413598 
L 226.170629 63.539175 
L 226.794965 73.027125 
L 227.419301 118.742134 
L 228.043636 119.657912 
L 228.667972 235.401379 
L 229.292308 285.272947 
L 229.916643 228.607678 
L 230.540979 248.711366 
L 231.165315 168.046064 
L 231.78965 141.143931 
L 232.413986 132.2328 
L 233.038322 153.397221 
L 233.662657 122.870995 
L 234.286993 121.459077 
L 235.535664 162.628829 
L 236.16 113.454159 
L 236.784336 108.353827 
L 237.408671 117.518516 
L 238.033007 138.521065 
L 238.657343 112.739872 
L 239.281678 116.788742 
L 239.906014 140.731331 
L 240.53035 114.409131 
L 241.154685 132.735456 
L 241.779021 134.659231 
L 242.403357 153.982139 
L 243.027692 213.644938 
L 243.652028 188.452665 
L 244.276364 176.420152 
L 244.900699 179.936558 
L 245.525035 66.2863 
L 246.149371 61.034071 
L 246.773706 67.838857 
L 247.398042 93.486129 
L 248.022378 61.229331 
L 248.646713 62.921892 
L 249.271049 68.998732 
L 249.895385 93.986431 
L 250.51972 100.161581 
L 251.768392 265.408685 
L 252.392727 260.796632 
L 253.017063 233.980579 
L 253.641399 197.714972 
L 254.265734 176.566265 
L 255.514406 165.635064 
L 256.138741 118.547081 
L 256.763077 109.43778 
L 257.387413 111.067037 
L 258.011748 163.492164 
L 258.636084 105.680904 
L 259.26042 104.384288 
L 259.884755 120.795023 
L 260.509091 108.058393 
L 261.133427 112.399252 
L 261.757762 114.177033 
L 262.382098 132.155829 
L 263.006434 107.219535 
L 263.630769 115.30482 
L 264.255105 118.068221 
L 264.879441 136.279877 
L 265.503776 105.887616 
L 266.128112 120.866677 
L 266.752448 122.853981 
L 268.001119 155.281322 
L 268.625455 107.391666 
L 269.24979 105.252555 
L 269.874126 110.343478 
L 270.498462 167.767542 
L 271.122797 113.497274 
L 271.747133 111.551846 
L 272.371469 106.383588 
L 272.995804 162.52343 
L 273.62014 114.715839 
L 274.244476 113.447128 
L 274.868811 131.17427 
L 275.493147 183.015174 
L 276.117483 118.685643 
L 276.741818 114.854703 
L 277.366154 113.735752 
L 277.99049 180.352837 
L 278.614825 120.930746 
L 279.239161 119.250564 
L 279.863497 137.423557 
L 280.487832 123.587821 
L 281.112168 135.134194 
L 281.736503 139.803841 
L 282.360839 157.670585 
L 282.985175 166.19873 
L 283.60951 120.784562 
L 284.233846 120.807375 
L 284.858182 122.912283 
L 285.482517 135.557848 
L 286.106853 127.736092 
L 286.731189 132.016115 
L 287.355524 153.681271 
L 287.97986 129.224457 
L 288.604196 142.135984 
L 289.228531 142.729028 
L 289.852867 162.464693 
L 290.477203 204.971289 
L 291.101538 139.302597 
L 292.35021 128.076486 
L 292.974545 190.898564 
L 293.598881 134.718055 
L 294.223217 134.383172 
L 294.847552 152.74255 
L 295.471888 144.141841 
L 296.096224 144.98769 
L 296.720559 150.695483 
L 297.344895 171.996842 
L 297.969231 205.055875 
L 298.593566 142.948851 
L 299.217902 139.359514 
L 299.842238 139.192706 
L 300.466573 240.890812 
L 301.090909 176.058507 
L 301.715245 161.162432 
L 302.33958 138.17956 
L 302.963916 218.429607 
L 303.588252 161.31821 
L 304.212587 151.574033 
L 304.836923 146.525412 
L 305.461259 212.674482 
L 306.085594 159.124389 
L 306.70993 153.783789 
L 307.334266 144.977939 
L 307.958601 181.308372 
L 308.582937 155.512271 
L 309.207273 159.370269 
L 309.831608 179.979537 
L 310.455944 186.537029 
L 311.08028 153.156448 
L 311.704615 150.541031 
L 312.953287 169.593666 
L 313.577622 163.276365 
L 314.201958 169.080588 
L 314.826294 185.631381 
L 315.450629 188.072192 
L 316.074965 156.354906 
L 316.699301 152.706356 
L 317.323636 159.015011 
L 317.947972 173.747169 
L 318.572308 164.426947 
L 319.196643 168.929281 
L 319.820979 189.090536 
L 320.445315 215.657441 
L 321.06965 163.149616 
L 321.693986 162.579964 
L 322.318322 162.734151 
L 322.942657 245.25575 
L 323.566993 189.717367 
L 324.191329 176.711908 
L 324.815664 160.663417 
L 325.44 237.159111 
L 326.064336 186.044574 
L 326.688671 175.68777 
L 327.313007 168.569976 
L 327.937343 253.361601 
L 328.561678 201.653382 
L 329.186014 189.052692 
L 329.81035 167.997704 
L 330.434685 207.547344 
L 331.059021 180.196457 
L 331.683357 181.137894 
L 332.307692 203.596393 
L 332.932028 216.224928 
L 333.556364 179.962244 
L 334.180699 181.293077 
L 334.805035 187.611373 
L 335.429371 223.880563 
L 336.053706 182.297296 
L 336.678042 179.199912 
L 337.302378 178.81108 
L 337.926713 227.293218 
L 338.551049 183.22876 
L 339.175385 181.273357 
L 339.79972 185.336714 
L 340.424056 222.424627 
L 341.048392 186.256559 
L 342.297063 182.371254 
L 342.921399 222.858653 
L 343.545734 190.087837 
L 344.17007 186.50298 
L 344.794406 205.758516 
L 345.418741 213.564936 
L 346.043077 184.49065 
L 346.667413 184.825024 
L 347.291748 190.960503 
L 347.916084 201.327685 
L 348.54042 194.496363 
L 349.164755 197.961971 
L 349.789091 215.190758 
L 350.413427 199.794415 
L 351.037762 217.943564 
L 351.662098 214.759408 
L 352.286434 226.30516 
L 352.910769 206.722371 
L 353.535105 191.071251 
L 354.159441 189.728558 
L 354.783776 200.793883 
L 355.408112 228.009252 
L 356.032448 196.059497 
L 356.656783 197.133431 
L 357.905455 231.82181 
L 358.52979 197.139862 
L 359.154126 196.693646 
L 359.778462 201.706398 
L 360.402797 226.702086 
L 361.027133 197.563174 
L 361.651469 204.049904 
L 362.275804 219.162945 
L 362.90014 251.683842 
L 363.524476 207.160202 
L 364.148811 204.748499 
L 364.773147 203.135323 
L 365.397483 246.427202 
L 366.021818 210.22301 
L 366.646154 204.007187 
L 367.27049 200.863879 
L 367.894825 244.2358 
L 368.519161 210.020641 
L 369.143497 205.948423 
L 369.767832 208.19765 
L 370.392168 257.163916 
L 371.016503 219.708995 
L 371.640839 214.489676 
L 372.265175 202.433565 
L 372.88951 269.871458 
L 373.513846 234.067923 
L 374.138182 215.932829 
L 374.762517 220.372265 
L 375.386853 216.91051 
L 376.011189 222.358038 
L 376.635524 226.534437 
L 377.25986 236.225039 
L 377.884196 250.728797 
L 378.508531 213.610001 
L 379.132867 214.040975 
L 380.381538 221.987787 
L 381.005874 218.392452 
L 381.63021 223.894688 
L 382.254545 236.021688 
L 382.878881 215.819816 
L 383.503217 226.009955 
L 384.127552 230.176195 
L 384.751888 241.889073 
L 385.376224 126.214054 
L 386.000559 115.4048 
L 386.624895 123.961623 
L 387.249231 145.749865 
L 387.873566 78.691179 
L 388.497902 71.215788 
L 389.122238 81.411562 
L 389.746573 104.450954 
L 390.370909 159.360233 
L 390.995245 195.222855 
L 391.61958 254.029627 
L 392.243916 295.488 
L 392.868252 213.692031 
L 393.492587 275.187931 
L 394.116923 293.07525 
L 394.741259 271.501778 
L 395.365594 162.424814 
L 395.98993 166.935825 
L 396.614266 170.499661 
L 397.238601 184.821468 
L 397.862937 127.063813 
L 398.487273 114.588395 
L 398.487273 114.588395 
" clip-path="url(#p275f8f67e9)" style="fill: none; stroke: #ff0000; stroke-width: 1.5; stroke-linecap: square"/>
   </g>
   <g id="line2d_13">
    <path d="M 73.832727 131.997592 
L 74.457063 159.264976 
L 75.081399 197.895444 
L 75.705734 252.068055 
L 76.33007 260.862556 
L 76.954406 263.740219 
L 77.578741 271.94183 
L 78.203077 149.580066 
L 78.827413 153.001975 
L 79.451748 167.732323 
L 80.076084 204.493978 
L 80.70042 250.263926 
L 81.324755 249.728608 
L 81.949091 247.020097 
L 82.573427 248.672897 
L 83.197762 256.898398 
L 83.822098 255.738329 
L 84.446434 256.733282 
L 85.070769 248.164718 
L 85.695105 225.2047 
L 86.319441 217.772704 
L 86.943776 230.873508 
L 87.568112 248.894387 
L 88.192448 180.633474 
L 88.816783 184.195725 
L 89.441119 170.101023 
L 90.065455 193.473655 
L 90.68979 146.453386 
L 91.314126 146.696576 
L 91.938462 149.433605 
L 92.562797 151.068757 
L 93.187133 151.069459 
L 93.811469 152.067021 
L 94.435804 154.672231 
L 95.06014 159.443069 
L 95.684476 146.540158 
L 96.308811 148.0553 
L 96.933147 148.810789 
L 97.557483 156.010039 
L 98.181818 152.141395 
L 98.806154 155.738818 
L 99.43049 164.292049 
L 100.054825 189.36187 
L 100.679161 222.059127 
L 101.303497 233.475632 
L 101.927832 237.779752 
L 102.552168 252.759483 
L 103.176503 251.948073 
L 103.800839 229.49409 
L 104.425175 228.019011 
L 105.04951 224.577688 
L 105.673846 252.597689 
L 106.298182 237.638489 
L 106.922517 235.299962 
L 107.546853 234.131773 
L 108.171189 241.148749 
L 109.41986 251.014997 
L 110.044196 264.33945 
L 110.668531 94.98725 
L 111.292867 88.600828 
L 111.917203 103.597434 
L 112.541538 137.94238 
L 113.165874 138.410509 
L 113.79021 165.889539 
L 115.038881 248.126388 
L 115.663217 169.929255 
L 116.287552 159.062448 
L 116.911888 201.717294 
L 117.536224 225.889328 
L 118.160559 198.653828 
L 119.409231 230.250344 
L 120.033566 244.140713 
L 120.657902 265.728269 
L 121.282238 253.393359 
L 121.906573 254.38246 
L 122.530909 232.303476 
L 123.155245 245.806817 
L 123.77958 262.399388 
L 124.403916 269.337409 
L 125.028252 257.111021 
L 125.652587 272.887638 
L 126.276923 231.651504 
L 126.901259 209.754419 
L 127.525594 204.22421 
L 128.14993 215.736225 
L 128.774266 211.554891 
L 129.398601 213.242452 
L 130.022937 220.987487 
L 130.647273 268.800852 
L 131.271608 248.956984 
L 131.895944 239.833957 
L 132.52028 223.725249 
L 133.144615 223.517897 
L 133.768951 211.738235 
L 134.393287 212.356734 
L 135.017622 220.844624 
L 135.641958 252.113651 
L 136.266294 262.827775 
L 137.514965 248.810539 
L 138.139301 271.685126 
L 138.763636 239.655398 
L 140.012308 215.80964 
L 140.636643 251.984642 
L 141.260979 218.452642 
L 142.50965 205.506662 
L 143.133986 271.63973 
L 143.758322 259.230675 
L 144.382657 256.313504 
L 145.006993 247.460333 
L 145.631329 56.995 
L 146.255664 63.594131 
L 146.88 74.313835 
L 147.504336 110.002542 
L 148.128671 56.77783 
L 149.377343 72.885087 
L 150.001678 102.070601 
L 150.626014 72.562696 
L 151.25035 71.296732 
L 151.874685 90.471592 
L 152.499021 139.137143 
L 153.123357 148.229963 
L 153.747692 163.88056 
L 154.372028 227.406345 
L 155.620699 284.805465 
L 156.245035 260.529489 
L 157.493706 193.130631 
L 158.118042 281.38579 
L 158.742378 275.413201 
L 159.366713 245.566057 
L 159.991049 205.609073 
L 160.615385 283.426987 
L 161.23972 272.480512 
L 162.488392 205.711774 
L 163.112727 252.485172 
L 163.737063 258.450804 
L 164.361399 266.218392 
L 164.985734 236.110282 
L 165.61007 132.827159 
L 166.234406 120.355337 
L 166.858741 122.190516 
L 167.483077 125.862343 
L 168.107413 89.69384 
L 168.731748 94.973839 
L 169.356084 111.412318 
L 169.98042 153.518543 
L 170.604755 123.724182 
L 171.229091 121.76262 
L 171.853427 170.743973 
L 172.477762 231.03659 
L 173.102098 266.51467 
L 173.726434 271.403193 
L 174.350769 270.942601 
L 174.975105 215.192404 
L 175.599441 195.595811 
L 176.223776 191.671503 
L 177.472448 267.858708 
L 178.096783 59.34865 
L 178.721119 55.280193 
L 179.345455 61.881432 
L 180.594126 101.035054 
L 181.218462 106.117973 
L 181.842797 167.124936 
L 182.467133 261.022086 
L 183.091469 162.437462 
L 183.715804 232.142608 
L 184.34014 270.689238 
L 184.964476 252.252469 
L 185.588811 270.276995 
L 186.213147 270.445453 
L 186.837483 228.734474 
L 187.461818 200.264182 
L 188.086154 253.68615 
L 189.334825 275.705287 
L 189.959161 208.366554 
L 191.207832 258.274578 
L 191.832168 271.017109 
L 192.456503 216.165443 
L 193.080839 243.104075 
L 193.705175 259.932753 
L 194.32951 260.108981 
L 194.953846 204.907263 
L 195.578182 235.118436 
L 196.202517 252.283872 
L 196.826853 274.153033 
L 197.451189 216.428176 
L 198.075524 71.436852 
L 198.69986 75.161417 
L 199.324196 100.389076 
L 199.948531 184.034884 
L 200.572867 77.524193 
L 201.197203 68.030789 
L 201.821538 82.641682 
L 202.445874 131.475761 
L 203.694545 91.55984 
L 204.318881 121.315446 
L 204.943217 203.586865 
L 205.567552 198.890248 
L 206.191888 244.881871 
L 206.816224 267.611769 
L 207.440559 202.199358 
L 208.064895 225.044062 
L 208.689231 159.305212 
L 209.313566 145.385638 
L 209.937902 140.959802 
L 210.562238 68.423712 
L 211.186573 71.30713 
L 211.810909 84.1644 
L 212.435245 134.957162 
L 213.05958 138.29367 
L 213.683916 251.023945 
L 214.308252 282.483666 
L 214.932587 239.928804 
L 215.556923 255.324625 
L 216.181259 275.307463 
L 216.805594 216.762311 
L 217.42993 184.492919 
L 218.054266 230.24061 
L 218.678601 152.896464 
L 219.302937 136.214268 
L 219.927273 127.07081 
L 220.551608 240.203681 
L 221.175944 173.171088 
L 221.80028 150.552039 
L 222.424615 141.294566 
L 223.048951 246.914747 
L 223.673287 178.46211 
L 224.297622 154.632696 
L 224.921958 139.27164 
L 225.546294 75.676219 
L 226.170629 73.205264 
L 226.794965 83.051663 
L 227.419301 127.686091 
L 228.043636 126.946359 
L 228.667972 239.556297 
L 229.292308 284.278297 
L 229.916643 230.002635 
L 230.540979 251.427235 
L 231.165315 173.052452 
L 231.78965 145.898721 
L 232.413986 137.525811 
L 233.038322 159.695305 
L 233.662657 128.755621 
L 234.286993 127.319424 
L 235.535664 168.011503 
L 236.16 119.487032 
L 236.784336 114.694361 
L 237.408671 123.119803 
L 238.033007 145.49221 
L 238.657343 119.039891 
L 239.281678 123.562057 
L 239.906014 145.735482 
L 240.53035 121.044742 
L 241.154685 137.909398 
L 241.779021 139.64508 
L 242.403357 157.915535 
L 243.027692 216.402805 
L 243.652028 191.977276 
L 244.276364 179.700998 
L 244.900699 183.216969 
L 245.525035 75.159745 
L 246.149371 70.386796 
L 246.773706 77.135603 
L 247.398042 102.191084 
L 248.022378 70.89124 
L 248.646713 72.821957 
L 249.271049 78.869895 
L 249.895385 103.740116 
L 250.51972 109.277371 
L 251.768392 268.942535 
L 252.392727 260.106176 
L 253.017063 235.324836 
L 253.641399 200.433929 
L 254.265734 180.303349 
L 254.89007 174.709324 
L 255.514406 171.187693 
L 256.138741 124.551044 
L 256.763077 116.056262 
L 257.387413 117.541895 
L 258.011748 170.522174 
L 258.636084 113.498017 
L 259.26042 111.551244 
L 259.884755 127.507007 
L 260.509091 115.574107 
L 261.133427 118.742854 
L 261.757762 120.188734 
L 262.382098 137.352659 
L 263.006434 114.417403 
L 263.630769 121.500311 
L 264.255105 124.036895 
L 264.879441 141.181379 
L 265.503776 112.329086 
L 266.128112 126.366197 
L 266.752448 128.861904 
L 267.376783 144.000673 
L 268.001119 162.405346 
L 268.625455 115.063518 
L 269.24979 113.064073 
L 269.874126 117.883971 
L 270.498462 173.628982 
L 271.122797 120.927833 
L 271.747133 118.86142 
L 272.371469 113.467693 
L 272.995804 169.316706 
L 273.62014 122.633346 
L 274.244476 120.578362 
L 274.868811 136.973444 
L 275.493147 188.352735 
L 276.117483 126.252278 
L 276.741818 122.077094 
L 277.366154 119.949584 
L 277.99049 186.625477 
L 278.614825 128.292308 
L 279.239161 126.31701 
L 279.863497 142.894573 
L 280.487832 130.848622 
L 281.112168 140.204002 
L 281.736503 145.314732 
L 282.360839 161.639101 
L 282.985175 172.391749 
L 283.60951 127.526556 
L 284.233846 127.577999 
L 284.858182 129.097262 
L 285.482517 141.439338 
L 286.106853 133.690004 
L 286.731189 137.197501 
L 287.355524 157.933714 
L 287.97986 135.435637 
L 288.604196 147.576125 
L 289.228531 148.559538 
L 289.852867 166.925019 
L 290.477203 210.611046 
L 291.101538 146.250189 
L 292.35021 133.694938 
L 292.974545 196.474719 
L 293.598881 140.715987 
L 294.223217 140.544435 
L 294.847552 158.072188 
L 295.471888 150.721632 
L 296.096224 149.789977 
L 296.720559 155.708345 
L 297.344895 175.641596 
L 297.969231 210.682996 
L 298.593566 149.296985 
L 299.217902 146.107633 
L 299.842238 145.557004 
L 300.466573 244.886939 
L 301.090909 181.130699 
L 301.715245 166.626044 
L 302.33958 143.836459 
L 302.963916 222.964937 
L 303.588252 167.362073 
L 304.212587 157.683994 
L 304.836923 152.246891 
L 305.461259 217.182566 
L 306.085594 164.817693 
L 306.70993 159.177084 
L 307.334266 150.479451 
L 307.958601 187.427833 
L 308.582937 161.138985 
L 309.207273 164.758918 
L 309.831608 183.969028 
L 310.455944 192.724792 
L 311.08028 158.509461 
L 311.704615 156.482754 
L 312.328951 164.120463 
L 312.953287 175.677307 
L 313.577622 168.00179 
L 314.201958 173.655054 
L 314.826294 189.106004 
L 315.450629 193.40702 
L 316.074965 161.082253 
L 316.699301 157.698608 
L 317.323636 164.196956 
L 317.947972 179.327272 
L 318.572308 169.508021 
L 319.196643 173.918713 
L 319.820979 192.411539 
L 320.445315 220.789494 
L 321.06965 168.725823 
L 321.693986 167.99912 
L 322.318322 167.788951 
L 322.942657 249.229892 
L 323.566993 194.857833 
L 324.191329 182.604895 
L 324.815664 165.914865 
L 325.44 241.248058 
L 326.064336 190.34348 
L 326.688671 180.515142 
L 327.313007 173.296031 
L 327.937343 257.057934 
L 328.561678 206.69941 
L 329.186014 194.3237 
L 329.81035 173.021542 
L 330.434685 212.047502 
L 331.059021 184.8317 
L 331.683357 184.797322 
L 332.307692 206.681769 
L 332.932028 221.299023 
L 333.556364 185.547909 
L 334.180699 186.318679 
L 334.805035 191.689271 
L 335.429371 228.34487 
L 336.053706 187.076237 
L 336.678042 183.52008 
L 337.302378 182.627991 
L 337.926713 232.621761 
L 338.551049 188.701341 
L 339.175385 186.948732 
L 339.79972 189.503414 
L 340.424056 226.846753 
L 341.048392 190.716188 
L 342.297063 187.145119 
L 342.921399 227.381698 
L 343.545734 195.295695 
L 344.17007 190.922524 
L 344.794406 208.249547 
L 345.418741 217.206627 
L 346.043077 188.898987 
L 346.667413 188.709568 
L 347.291748 194.616966 
L 347.916084 205.941578 
L 348.54042 198.579321 
L 349.164755 201.750312 
L 349.789091 217.673655 
L 350.413427 202.979048 
L 351.037762 220.930914 
L 351.662098 216.711359 
L 352.286434 228.182344 
L 353.535105 195.146403 
L 354.159441 195.239388 
L 354.783776 203.531231 
L 355.408112 232.021368 
L 356.032448 200.177763 
L 356.656783 200.652625 
L 357.281119 216.567934 
L 357.905455 236.371329 
L 358.52979 203.010427 
L 359.154126 201.849841 
L 359.778462 206.168498 
L 360.402797 230.707381 
L 361.027133 202.243568 
L 361.651469 207.971062 
L 362.275804 221.208213 
L 362.90014 255.638939 
L 363.524476 212.298848 
L 364.148811 209.374121 
L 364.773147 207.412048 
L 365.397483 249.469649 
L 366.021818 214.175503 
L 366.646154 208.25874 
L 367.27049 203.734456 
L 367.894825 248.386751 
L 368.519161 214.476395 
L 369.143497 210.965548 
L 369.767832 211.727378 
L 370.392168 260.756094 
L 371.016503 224.619742 
L 371.640839 218.814977 
L 372.265175 206.094876 
L 372.88951 273.243915 
L 373.513846 238.410729 
L 374.138182 220.403112 
L 374.762517 223.605567 
L 375.386853 220.066286 
L 376.011189 224.844425 
L 376.635524 228.606072 
L 377.25986 237.81717 
L 377.884196 254.697369 
L 378.508531 218.125287 
L 379.132867 218.744174 
L 379.757203 221.194342 
L 380.381538 225.114334 
L 381.005874 220.917022 
L 381.63021 225.783917 
L 382.254545 237.662692 
L 382.878881 218.674197 
L 383.503217 227.609352 
L 384.127552 232.587833 
L 384.751888 242.981267 
L 385.376224 134.950139 
L 386.000559 124.979846 
L 386.624895 133.283233 
L 387.249231 154.383895 
L 387.873566 87.658783 
L 388.497902 80.841558 
L 389.122238 90.483669 
L 389.746573 112.67714 
L 390.370909 164.584853 
L 390.995245 198.527832 
L 391.61958 256.940888 
L 392.243916 295.005165 
L 392.868252 215.784362 
L 393.492587 276.247179 
L 394.116923 292.910436 
L 394.741259 272.345866 
L 395.365594 165.702118 
L 395.98993 170.168849 
L 396.614266 173.706132 
L 397.238601 187.850012 
L 397.862937 125.422824 
L 398.487273 113.204743 
L 398.487273 113.204743 
" clip-path="url(#p275f8f67e9)" style="fill: none; stroke: #808080; stroke-width: 1.5; stroke-linecap: square"/>
   </g>
   <g id="patch_3">
    <path d="M 57.6 307.584 
L 57.6 41.472 
" style="fill: none; stroke: #000000; stroke-width: 0.8; stroke-linejoin: miter; stroke-linecap: square"/>
   </g>
   <g id="patch_4">
    <path d="M 414.72 307.584 
L 414.72 41.472 
" style="fill: none; stroke: #000000; stroke-width: 0.8; stroke-linejoin: miter; stroke-linecap: square"/>
   </g>
   <g id="patch_5">
    <path d="M 57.6 307.584 
L 414.72 307.584 
" style="fill: none; stroke: #000000; stroke-width: 0.8; stroke-linejoin: miter; stroke-linecap: square"/>
   </g>
   <g id="patch_6">
    <path d="M 57.6 41.472 
L 414.72 41.472 
" style="fill: none; stroke: #000000; stroke-width: 0.8; stroke-linejoin: miter; stroke-linecap: square"/>
   </g>
  </g>
 </g>
 <defs>
  <clipPath id="p275f8f67e9">
   <rect x="57.6" y="41.472" width="357.12" height="266.112"/>
  </clipPath>
 </defs>
</svg>
