<?xml version="1.0" encoding="utf-8" standalone="no"?>
<!DOCTYPE svg PUBLIC "-//W3C//DTD SVG 1.1//EN"
  "http://www.w3.org/Graphics/SVG/1.1/DTD/svg11.dtd">
<svg xmlns:xlink="http://www.w3.org/1999/xlink" width="460.8pt" height="345.6pt" viewBox="0 0 460.8 345.6" xmlns="http://www.w3.org/2000/svg" version="1.1">
 <metadata>
  <rdf:RDF xmlns:dc="http://purl.org/dc/elements/1.1/" xmlns:cc="http://creativecommons.org/ns#" xmlns:rdf="http://www.w3.org/1999/02/22-rdf-syntax-ns#">
   <cc:Work>
    <dc:type rdf:resource="http://purl.org/dc/dcmitype/StillImage"/>
    <dc:date>2024-10-14T20:59:13.591906</dc:date>
    <dc:format>image/svg+xml</dc:format>
    <dc:creator>
     <cc:Agent>
      <dc:title>Matplotlib v3.6.3, https://matplotlib.org/</dc:title>
     </cc:Agent>
    </dc:creator>
   </cc:Work>
  </rdf:RDF>
 </metadata>
 <defs>
  <style type="text/css">*{stroke-linejoin: round; stroke-linecap: butt}</style>
 </defs>
 <g id="figure_1">
  <g id="patch_1">
   <path d="M 0 345.6 
L 460.8 345.6 
L 460.8 0 
L 0 0 
z
" style="fill: #ffffff"/>
  </g>
  <g id="axes_1">
   <g id="patch_2">
    <path d="M 57.6 307.584 
L 414.72 307.584 
L 414.72 41.472 
L 57.6 41.472 
z
" style="fill: #ffffff"/>
   </g>
   <g id="matplotlib.axis_1">
    <g id="xtick_1">
     <g id="line2d_1">
      <defs>
       <path id="m50a9858c0d" d="M 0 0 
L 0 3.5 
" style="stroke: #000000; stroke-width: 0.8"/>
      </defs>
      <g>
       <use xlink:href="#m50a9858c0d" x="73.832727" y="307.584" style="stroke: #000000; stroke-width: 0.8"/>
      </g>
     </g>
     <g id="text_1">
      <!-- 0 -->
      <g transform="translate(70.651477 322.182437) scale(0.1 -0.1)">
       <defs>
        <path id="DejaVuSans-30" d="M 2034 4250 
Q 1547 4250 1301 3770 
Q 1056 3291 1056 2328 
Q 1056 1369 1301 889 
Q 1547 409 2034 409 
Q 2525 409 2770 889 
Q 3016 1369 3016 2328 
Q 3016 3291 2770 3770 
Q 2525 4250 2034 4250 
z
M 2034 4750 
Q 2819 4750 3233 4129 
Q 3647 3509 3647 2328 
Q 3647 1150 3233 529 
Q 2819 -91 2034 -91 
Q 1250 -91 836 529 
Q 422 1150 422 2328 
Q 422 3509 836 4129 
Q 1250 4750 2034 4750 
z
" transform="scale(0.015625)"/>
       </defs>
       <use xlink:href="#DejaVuSans-30"/>
      </g>
     </g>
    </g>
    <g id="xtick_2">
     <g id="line2d_2">
      <g>
       <use xlink:href="#m50a9858c0d" x="114.424693" y="307.584" style="stroke: #000000; stroke-width: 0.8"/>
      </g>
     </g>
     <g id="text_2">
      <!-- 500 -->
      <g transform="translate(104.880943 322.182437) scale(0.1 -0.1)">
       <defs>
        <path id="DejaVuSans-35" d="M 691 4666 
L 3169 4666 
L 3169 4134 
L 1269 4134 
L 1269 2991 
Q 1406 3038 1543 3061 
Q 1681 3084 1819 3084 
Q 2600 3084 3056 2656 
Q 3513 2228 3513 1497 
Q 3513 744 3044 326 
Q 2575 -91 1722 -91 
Q 1428 -91 1123 -41 
Q 819 9 494 109 
L 494 744 
Q 775 591 1075 516 
Q 1375 441 1709 441 
Q 2250 441 2565 725 
Q 2881 1009 2881 1497 
Q 2881 1984 2565 2268 
Q 2250 2553 1709 2553 
Q 1456 2553 1204 2497 
Q 953 2441 691 2322 
L 691 4666 
z
" transform="scale(0.015625)"/>
       </defs>
       <use xlink:href="#DejaVuSans-35"/>
       <use xlink:href="#DejaVuSans-30" x="63.623047"/>
       <use xlink:href="#DejaVuSans-30" x="127.246094"/>
      </g>
     </g>
    </g>
    <g id="xtick_3">
     <g id="line2d_3">
      <g>
       <use xlink:href="#m50a9858c0d" x="155.01666" y="307.584" style="stroke: #000000; stroke-width: 0.8"/>
      </g>
     </g>
     <g id="text_3">
      <!-- 1000 -->
      <g transform="translate(142.29166 322.182437) scale(0.1 -0.1)">
       <defs>
        <path id="DejaVuSans-31" d="M 794 531 
L 1825 531 
L 1825 4091 
L 703 3866 
L 703 4441 
L 1819 4666 
L 2450 4666 
L 2450 531 
L 3481 531 
L 3481 0 
L 794 0 
L 794 531 
z
" transform="scale(0.015625)"/>
       </defs>
       <use xlink:href="#DejaVuSans-31"/>
       <use xlink:href="#DejaVuSans-30" x="63.623047"/>
       <use xlink:href="#DejaVuSans-30" x="127.246094"/>
       <use xlink:href="#DejaVuSans-30" x="190.869141"/>
      </g>
     </g>
    </g>
    <g id="xtick_4">
     <g id="line2d_4">
      <g>
       <use xlink:href="#m50a9858c0d" x="195.608626" y="307.584" style="stroke: #000000; stroke-width: 0.8"/>
      </g>
     </g>
     <g id="text_4">
      <!-- 1500 -->
      <g transform="translate(182.883626 322.182437) scale(0.1 -0.1)">
       <use xlink:href="#DejaVuSans-31"/>
       <use xlink:href="#DejaVuSans-35" x="63.623047"/>
       <use xlink:href="#DejaVuSans-30" x="127.246094"/>
       <use xlink:href="#DejaVuSans-30" x="190.869141"/>
      </g>
     </g>
    </g>
    <g id="xtick_5">
     <g id="line2d_5">
      <g>
       <use xlink:href="#m50a9858c0d" x="236.200592" y="307.584" style="stroke: #000000; stroke-width: 0.8"/>
      </g>
     </g>
     <g id="text_5">
      <!-- 2000 -->
      <g transform="translate(223.475592 322.182437) scale(0.1 -0.1)">
       <defs>
        <path id="DejaVuSans-32" d="M 1228 531 
L 3431 531 
L 3431 0 
L 469 0 
L 469 531 
Q 828 903 1448 1529 
Q 2069 2156 2228 2338 
Q 2531 2678 2651 2914 
Q 2772 3150 2772 3378 
Q 2772 3750 2511 3984 
Q 2250 4219 1831 4219 
Q 1534 4219 1204 4116 
Q 875 4013 500 3803 
L 500 4441 
Q 881 4594 1212 4672 
Q 1544 4750 1819 4750 
Q 2544 4750 2975 4387 
Q 3406 4025 3406 3419 
Q 3406 3131 3298 2873 
Q 3191 2616 2906 2266 
Q 2828 2175 2409 1742 
Q 1991 1309 1228 531 
z
" transform="scale(0.015625)"/>
       </defs>
       <use xlink:href="#DejaVuSans-32"/>
       <use xlink:href="#DejaVuSans-30" x="63.623047"/>
       <use xlink:href="#DejaVuSans-30" x="127.246094"/>
       <use xlink:href="#DejaVuSans-30" x="190.869141"/>
      </g>
     </g>
    </g>
    <g id="xtick_6">
     <g id="line2d_6">
      <g>
       <use xlink:href="#m50a9858c0d" x="276.792558" y="307.584" style="stroke: #000000; stroke-width: 0.8"/>
      </g>
     </g>
     <g id="text_6">
      <!-- 2500 -->
      <g transform="translate(264.067558 322.182437) scale(0.1 -0.1)">
       <use xlink:href="#DejaVuSans-32"/>
       <use xlink:href="#DejaVuSans-35" x="63.623047"/>
       <use xlink:href="#DejaVuSans-30" x="127.246094"/>
       <use xlink:href="#DejaVuSans-30" x="190.869141"/>
      </g>
     </g>
    </g>
    <g id="xtick_7">
     <g id="line2d_7">
      <g>
       <use xlink:href="#m50a9858c0d" x="317.384524" y="307.584" style="stroke: #000000; stroke-width: 0.8"/>
      </g>
     </g>
     <g id="text_7">
      <!-- 3000 -->
      <g transform="translate(304.659524 322.182437) scale(0.1 -0.1)">
       <defs>
        <path id="DejaVuSans-33" d="M 2597 2516 
Q 3050 2419 3304 2112 
Q 3559 1806 3559 1356 
Q 3559 666 3084 287 
Q 2609 -91 1734 -91 
Q 1441 -91 1130 -33 
Q 819 25 488 141 
L 488 750 
Q 750 597 1062 519 
Q 1375 441 1716 441 
Q 2309 441 2620 675 
Q 2931 909 2931 1356 
Q 2931 1769 2642 2001 
Q 2353 2234 1838 2234 
L 1294 2234 
L 1294 2753 
L 1863 2753 
Q 2328 2753 2575 2939 
Q 2822 3125 2822 3475 
Q 2822 3834 2567 4026 
Q 2313 4219 1838 4219 
Q 1578 4219 1281 4162 
Q 984 4106 628 3988 
L 628 4550 
Q 988 4650 1302 4700 
Q 1616 4750 1894 4750 
Q 2613 4750 3031 4423 
Q 3450 4097 3450 3541 
Q 3450 3153 3228 2886 
Q 3006 2619 2597 2516 
z
" transform="scale(0.015625)"/>
       </defs>
       <use xlink:href="#DejaVuSans-33"/>
       <use xlink:href="#DejaVuSans-30" x="63.623047"/>
       <use xlink:href="#DejaVuSans-30" x="127.246094"/>
       <use xlink:href="#DejaVuSans-30" x="190.869141"/>
      </g>
     </g>
    </g>
    <g id="xtick_8">
     <g id="line2d_8">
      <g>
       <use xlink:href="#m50a9858c0d" x="357.97649" y="307.584" style="stroke: #000000; stroke-width: 0.8"/>
      </g>
     </g>
     <g id="text_8">
      <!-- 3500 -->
      <g transform="translate(345.25149 322.182437) scale(0.1 -0.1)">
       <use xlink:href="#DejaVuSans-33"/>
       <use xlink:href="#DejaVuSans-35" x="63.623047"/>
       <use xlink:href="#DejaVuSans-30" x="127.246094"/>
       <use xlink:href="#DejaVuSans-30" x="190.869141"/>
      </g>
     </g>
    </g>
    <g id="xtick_9">
     <g id="line2d_9">
      <g>
       <use xlink:href="#m50a9858c0d" x="398.568457" y="307.584" style="stroke: #000000; stroke-width: 0.8"/>
      </g>
     </g>
     <g id="text_9">
      <!-- 4000 -->
      <g transform="translate(385.843457 322.182437) scale(0.1 -0.1)">
       <defs>
        <path id="DejaVuSans-34" d="M 2419 4116 
L 825 1625 
L 2419 1625 
L 2419 4116 
z
M 2253 4666 
L 3047 4666 
L 3047 1625 
L 3713 1625 
L 3713 1100 
L 3047 1100 
L 3047 0 
L 2419 0 
L 2419 1100 
L 313 1100 
L 313 1709 
L 2253 4666 
z
" transform="scale(0.015625)"/>
       </defs>
       <use xlink:href="#DejaVuSans-34"/>
       <use xlink:href="#DejaVuSans-30" x="63.623047"/>
       <use xlink:href="#DejaVuSans-30" x="127.246094"/>
       <use xlink:href="#DejaVuSans-30" x="190.869141"/>
      </g>
     </g>
    </g>
   </g>
   <g id="matplotlib.axis_2">
    <g id="ytick_1">
     <g id="line2d_10">
      <defs>
       <path id="m0a3bad33ea" d="M 0 0 
L -3.5 0 
" style="stroke: #000000; stroke-width: 0.8"/>
      </defs>
      <g>
       <use xlink:href="#m0a3bad33ea" x="57.6" y="295.514765" style="stroke: #000000; stroke-width: 0.8"/>
      </g>
     </g>
     <g id="text_10">
      <!-- 0.0 -->
      <g transform="translate(34.696875 299.313984) scale(0.1 -0.1)">
       <defs>
        <path id="DejaVuSans-2e" d="M 684 794 
L 1344 794 
L 1344 0 
L 684 0 
L 684 794 
z
" transform="scale(0.015625)"/>
       </defs>
       <use xlink:href="#DejaVuSans-30"/>
       <use xlink:href="#DejaVuSans-2e" x="63.623047"/>
       <use xlink:href="#DejaVuSans-30" x="95.410156"/>
      </g>
     </g>
    </g>
    <g id="ytick_2">
     <g id="line2d_11">
      <g>
       <use xlink:href="#m0a3bad33ea" x="57.6" y="237.88716" style="stroke: #000000; stroke-width: 0.8"/>
      </g>
     </g>
     <g id="text_11">
      <!-- 0.2 -->
      <g transform="translate(34.696875 241.686379) scale(0.1 -0.1)">
       <use xlink:href="#DejaVuSans-30"/>
       <use xlink:href="#DejaVuSans-2e" x="63.623047"/>
       <use xlink:href="#DejaVuSans-32" x="95.410156"/>
      </g>
     </g>
    </g>
    <g id="ytick_3">
     <g id="line2d_12">
      <g>
       <use xlink:href="#m0a3bad33ea" x="57.6" y="180.259554" style="stroke: #000000; stroke-width: 0.8"/>
      </g>
     </g>
     <g id="text_12">
      <!-- 0.4 -->
      <g transform="translate(34.696875 184.058773) scale(0.1 -0.1)">
       <use xlink:href="#DejaVuSans-30"/>
       <use xlink:href="#DejaVuSans-2e" x="63.623047"/>
       <use xlink:href="#DejaVuSans-34" x="95.410156"/>
      </g>
     </g>
    </g>
    <g id="ytick_4">
     <g id="line2d_13">
      <g>
       <use xlink:href="#m0a3bad33ea" x="57.6" y="122.631949" style="stroke: #000000; stroke-width: 0.8"/>
      </g>
     </g>
     <g id="text_13">
      <!-- 0.6 -->
      <g transform="translate(34.696875 126.431168) scale(0.1 -0.1)">
       <defs>
        <path id="DejaVuSans-36" d="M 2113 2584 
Q 1688 2584 1439 2293 
Q 1191 2003 1191 1497 
Q 1191 994 1439 701 
Q 1688 409 2113 409 
Q 2538 409 2786 701 
Q 3034 994 3034 1497 
Q 3034 2003 2786 2293 
Q 2538 2584 2113 2584 
z
M 3366 4563 
L 3366 3988 
Q 3128 4100 2886 4159 
Q 2644 4219 2406 4219 
Q 1781 4219 1451 3797 
Q 1122 3375 1075 2522 
Q 1259 2794 1537 2939 
Q 1816 3084 2150 3084 
Q 2853 3084 3261 2657 
Q 3669 2231 3669 1497 
Q 3669 778 3244 343 
Q 2819 -91 2113 -91 
Q 1303 -91 875 529 
Q 447 1150 447 2328 
Q 447 3434 972 4092 
Q 1497 4750 2381 4750 
Q 2619 4750 2861 4703 
Q 3103 4656 3366 4563 
z
" transform="scale(0.015625)"/>
       </defs>
       <use xlink:href="#DejaVuSans-30"/>
       <use xlink:href="#DejaVuSans-2e" x="63.623047"/>
       <use xlink:href="#DejaVuSans-36" x="95.410156"/>
      </g>
     </g>
    </g>
    <g id="ytick_5">
     <g id="line2d_14">
      <g>
       <use xlink:href="#m0a3bad33ea" x="57.6" y="65.004343" style="stroke: #000000; stroke-width: 0.8"/>
      </g>
     </g>
     <g id="text_14">
      <!-- 0.8 -->
      <g transform="translate(34.696875 68.803562) scale(0.1 -0.1)">
       <defs>
        <path id="DejaVuSans-38" d="M 2034 2216 
Q 1584 2216 1326 1975 
Q 1069 1734 1069 1313 
Q 1069 891 1326 650 
Q 1584 409 2034 409 
Q 2484 409 2743 651 
Q 3003 894 3003 1313 
Q 3003 1734 2745 1975 
Q 2488 2216 2034 2216 
z
M 1403 2484 
Q 997 2584 770 2862 
Q 544 3141 544 3541 
Q 544 4100 942 4425 
Q 1341 4750 2034 4750 
Q 2731 4750 3128 4425 
Q 3525 4100 3525 3541 
Q 3525 3141 3298 2862 
Q 3072 2584 2669 2484 
Q 3125 2378 3379 2068 
Q 3634 1759 3634 1313 
Q 3634 634 3220 271 
Q 2806 -91 2034 -91 
Q 1263 -91 848 271 
Q 434 634 434 1313 
Q 434 1759 690 2068 
Q 947 2378 1403 2484 
z
M 1172 3481 
Q 1172 3119 1398 2916 
Q 1625 2713 2034 2713 
Q 2441 2713 2670 2916 
Q 2900 3119 2900 3481 
Q 2900 3844 2670 4047 
Q 2441 4250 2034 4250 
Q 1625 4250 1398 4047 
Q 1172 3844 1172 3481 
z
" transform="scale(0.015625)"/>
       </defs>
       <use xlink:href="#DejaVuSans-30"/>
       <use xlink:href="#DejaVuSans-2e" x="63.623047"/>
       <use xlink:href="#DejaVuSans-38" x="95.410156"/>
      </g>
     </g>
    </g>
   </g>
   <g id="line2d_15">
    <path d="M 73.832727 284.010885 
L 73.995095 279.538454 
L 74.076279 273.95574 
L 74.157463 274.562722 
L 74.238647 275.752729 
L 74.319831 288.669195 
L 74.401015 277.550004 
L 74.482199 293.97973 
L 74.563383 279.239662 
L 74.644567 290.702688 
L 74.725751 287.367189 
L 74.806934 292.83645 
L 74.888118 287.790992 
L 74.969302 288.531124 
L 75.050486 292.115425 
L 75.13167 287.548091 
L 75.212854 291.883323 
L 75.294038 258.446069 
L 75.375222 279.657418 
L 75.456406 276.076578 
L 75.618774 242.310485 
L 75.699958 256.80781 
L 75.781142 247.85433 
L 75.862326 256.350351 
L 75.94351 254.164338 
L 76.024693 245.126265 
L 76.268245 291.25392 
L 76.349429 277.150693 
L 76.430613 292.242114 
L 76.511797 289.249828 
L 76.674165 283.641402 
L 76.755349 290.980198 
L 76.917717 276.454647 
L 76.998901 282.550412 
L 77.080085 275.916741 
L 77.242452 290.24598 
L 77.323636 284.052331 
L 77.40482 291.710909 
L 77.567188 269.344436 
L 77.648372 270.218293 
L 77.973108 259.016971 
L 78.135476 275.386631 
L 78.21666 279.560629 
L 78.297844 274.931311 
L 78.379027 289.77954 
L 78.541395 270.841222 
L 78.622579 265.434204 
L 78.703763 270.072925 
L 78.784947 284.903136 
L 78.866131 279.106835 
L 78.947315 283.348644 
L 79.028499 280.591319 
L 79.190867 246.071177 
L 79.353235 251.090614 
L 79.434419 278.770536 
L 79.515603 274.450391 
L 79.67797 268.401486 
L 79.840338 253.049811 
L 79.921522 258.023865 
L 80.165074 223.864465 
L 80.246258 228.886876 
L 80.408626 243.228007 
L 80.570994 278.282755 
L 80.652178 284.836218 
L 80.814545 151.38839 
L 80.895729 160.299876 
L 80.976913 211.612638 
L 81.139281 180.496959 
L 81.301649 192.855078 
L 81.382833 179.178821 
L 81.626385 224.263817 
L 81.788753 177.106361 
L 81.951121 188.401957 
L 82.032304 150.984377 
L 82.600592 285.925029 
L 82.681776 235.775923 
L 82.76296 250.769494 
L 82.925328 289.419898 
L 83.006512 229.934324 
L 83.087696 243.894721 
L 83.250063 294.799657 
L 83.412431 181.389967 
L 83.574799 233.196775 
L 83.655983 180.241238 
L 83.899535 261.101882 
L 83.980719 243.599974 
L 84.467822 294.256266 
L 84.549006 287.998891 
L 84.63019 290.213136 
L 84.711374 291.981665 
L 84.873742 276.855391 
L 85.198478 209.117579 
L 85.279662 283.112219 
L 85.360846 257.662707 
L 85.523214 220.704348 
L 85.604397 287.476829 
L 85.685581 284.52452 
L 86.091501 222.442242 
L 86.172685 233.562963 
L 86.416237 290.807691 
L 86.497421 277.521352 
L 86.578605 294.036037 
L 86.659789 293.825173 
L 86.740973 295.121923 
L 86.822156 292.483713 
L 86.90334 280.667583 
L 87.146892 293.659441 
L 87.228076 293.018944 
L 87.471628 265.977506 
L 87.552812 277.887302 
L 87.633996 274.975441 
L 87.796364 254.058595 
L 87.958732 291.66464 
L 88.121099 285.330458 
L 88.202283 172.468432 
L 88.283467 207.400869 
L 88.445835 238.3734 
L 88.527019 222.514735 
L 88.770571 245.970507 
L 88.851755 233.02851 
L 89.014123 155.875361 
L 89.257674 251.493597 
L 89.501226 294.125476 
L 89.58241 289.524198 
L 89.744778 260.525687 
L 89.825962 294.417076 
L 89.98833 251.058752 
L 90.069514 215.651954 
L 90.150698 295.195988 
L 90.231882 278.771964 
L 90.394249 224.600056 
L 90.556617 281.406831 
L 90.637801 269.388348 
L 90.718985 232.757631 
L 91.043721 294.520878 
L 91.206089 245.437601 
L 91.368457 284.186224 
L 91.449641 236.941799 
L 91.530825 249.801675 
L 91.612008 288.07379 
L 91.693192 280.771485 
L 91.774376 289.333478 
L 91.936744 271.372965 
L 92.017928 255.869733 
L 92.26148 277.485398 
L 92.342664 271.008075 
L 92.505032 53.568 
L 92.6674 122.616413 
L 92.748584 208.61016 
L 92.829767 147.5687 
L 92.992135 289.290633 
L 93.073319 273.34309 
L 93.316871 292.002347 
L 93.479239 287.768952 
L 93.560423 293.965349 
L 93.803975 278.268138 
L 93.885159 280.105157 
L 93.966342 227.998241 
L 94.047526 280.385003 
L 94.291078 204.867052 
L 94.453446 277.023554 
L 94.53463 277.208495 
L 94.615814 259.791277 
L 94.696998 291.765696 
L 94.778182 287.68805 
L 94.94055 277.755419 
L 95.021734 246.44832 
L 95.102918 249.623776 
L 95.265285 270.505792 
L 95.427653 222.060086 
L 95.590021 258.525016 
L 95.671205 235.766637 
L 95.914757 276.660643 
L 95.995941 276.584599 
L 96.158309 288.987407 
L 96.239493 248.192843 
L 96.320677 293.722567 
L 96.40186 288.591846 
L 96.564228 253.094652 
L 96.645412 67.23968 
L 96.726596 70.114441 
L 96.80778 85.846004 
L 96.888964 132.850542 
L 96.970148 84.801092 
L 97.2137 287.421414 
L 97.294884 231.566124 
L 97.457252 294.910895 
L 97.619619 257.401998 
L 97.863171 232.818299 
L 97.944355 293.797572 
L 98.025539 275.407115 
L 98.269091 241.457626 
L 98.431459 162.949246 
L 98.512643 150.842179 
L 98.675011 102.240924 
L 98.837378 141.599849 
L 98.999746 280.601903 
L 99.08093 295.226535 
L 99.162114 282.802013 
L 99.243298 294.50472 
L 99.48685 268.163673 
L 99.649218 241.874739 
L 99.811586 214.275048 
L 99.89277 266.471257 
L 99.973953 250.997959 
L 100.055137 242.633882 
L 100.136321 220.253794 
L 100.217505 167.090724 
L 100.298689 175.175864 
L 100.542241 215.582935 
L 100.623425 216.502611 
L 100.785793 293.640866 
L 100.866977 288.306969 
L 100.948161 271.708775 
L 101.110529 175.435662 
L 101.191712 284.360341 
L 101.272896 276.00717 
L 101.435264 252.982355 
L 101.516448 202.265172 
L 101.597632 208.332454 
L 102.003552 285.953603 
L 102.084736 244.321553 
L 102.16592 260.463373 
L 102.409471 227.285565 
L 102.571839 286.224467 
L 102.734207 278.11887 
L 102.815391 271.063272 
L 103.058943 206.848766 
L 103.140127 214.50304 
L 103.221311 224.877776 
L 103.383679 212.929706 
L 103.464863 187.096232 
L 103.62723 261.253589 
L 103.708414 258.139559 
L 103.870782 290.511826 
L 104.03315 280.62081 
L 104.114334 284.730377 
L 104.195518 283.456817 
L 104.520254 265.255197 
L 104.682622 232.310462 
L 104.844989 263.956028 
L 105.007357 255.779078 
L 105.088541 266.724653 
L 105.169725 265.806408 
L 105.413277 256.266848 
L 105.575645 153.143763 
L 105.738013 228.274125 
L 105.819197 226.009758 
L 105.900381 223.234859 
L 105.981564 203.731487 
L 106.062748 268.856469 
L 106.143932 267.162127 
L 106.3063 244.817571 
L 106.468668 261.151941 
L 106.631036 253.311091 
L 106.793404 217.215456 
L 107.11814 289.050675 
L 107.199323 287.449271 
L 107.280507 282.9653 
L 107.361691 291.485728 
L 107.442875 290.364081 
L 107.524059 289.296529 
L 107.605243 284.109492 
L 107.686427 291.51902 
L 107.848795 282.590041 
L 108.011163 261.264778 
L 108.173531 166.870672 
L 108.335899 214.830815 
L 108.498266 166.347746 
L 108.57945 174.423183 
L 108.741818 266.430095 
L 108.904186 259.461369 
L 109.147738 173.054938 
L 109.228922 179.201717 
L 109.310106 254.658232 
L 109.39129 248.737334 
L 109.472474 244.611825 
L 109.553658 232.28594 
L 109.716025 259.881469 
L 109.797209 260.407387 
L 109.878393 256.432762 
L 109.959577 273.260509 
L 110.040761 272.529381 
L 110.203129 261.467918 
L 110.284313 261.540831 
L 110.527865 242.985489 
L 110.690233 271.84085 
L 110.8526 265.613878 
L 110.933784 266.741156 
L 111.177336 224.518506 
L 111.25852 226.498153 
L 111.339704 227.995678 
L 111.583256 237.554283 
L 111.745624 188.648136 
L 111.826808 190.89562 
L 111.907992 224.50611 
L 111.989175 218.026657 
L 112.070359 218.221079 
L 112.313911 278.411018 
L 112.395095 270.597841 
L 112.476279 268.678543 
L 112.638647 286.99981 
L 112.719831 287.646178 
L 112.801015 281.421363 
L 112.963383 291.944212 
L 113.044567 291.186921 
L 113.125751 288.641574 
L 113.206934 293.560612 
L 113.450486 275.841204 
L 113.53167 289.035889 
L 113.612854 284.313986 
L 113.775222 267.332285 
L 113.856406 226.843281 
L 113.93759 261.76168 
L 114.018774 258.41089 
L 114.181142 271.276303 
L 114.262326 270.382654 
L 114.424693 265.483963 
L 114.587061 277.783036 
L 114.668245 277.38985 
L 114.749429 273.389197 
L 114.911797 277.15936 
L 115.074165 271.147407 
L 115.155349 246.798604 
L 115.236533 250.033148 
L 115.317717 253.188733 
L 115.398901 234.421689 
L 115.480085 246.791901 
L 115.642452 223.434227 
L 115.723636 228.154952 
L 115.80482 266.708025 
L 115.886004 264.184687 
L 116.129556 226.331103 
L 116.21074 231.014448 
L 116.291924 234.195721 
L 116.373108 254.020958 
L 116.454292 229.621278 
L 116.860211 295.384741 
L 116.941395 294.64659 
L 117.022579 294.464662 
L 117.103763 292.834366 
L 117.347315 295.16363 
L 117.509683 179.838291 
L 117.672051 193.921025 
L 117.753235 143.989247 
L 117.834419 148.198477 
L 117.996786 165.453689 
L 118.159154 274.786031 
L 118.321522 287.869358 
L 118.402706 278.760855 
L 118.646258 292.847586 
L 118.727442 282.831513 
L 118.808626 285.797909 
L 118.88981 286.91676 
L 118.970994 291.173649 
L 119.133362 174.341398 
L 119.214545 163.319827 
L 119.295729 173.341213 
L 119.701649 287.002082 
L 119.782833 293.704093 
L 119.945201 286.715837 
L 120.026385 292.914716 
L 120.188753 281.996067 
L 120.269937 276.090251 
L 120.351121 279.507784 
L 120.594672 268.957072 
L 120.675856 280.329244 
L 120.75704 277.049513 
L 120.919408 270.080214 
L 121.000592 273.51784 
L 121.081776 269.770367 
L 121.16296 269.816799 
L 121.244144 267.528404 
L 121.487696 292.806655 
L 121.568879 292.701429 
L 121.650063 213.797686 
L 121.731247 233.102284 
L 121.893615 275.282088 
L 121.974799 274.784295 
L 122.218351 288.171187 
L 122.299535 280.674693 
L 122.380719 283.336735 
L 122.624271 293.923657 
L 122.867822 285.073425 
L 122.949006 273.475692 
L 123.03019 276.178025 
L 123.354926 289.867003 
L 123.43611 289.335433 
L 123.517294 287.081286 
L 123.760846 295.135456 
L 124.166765 273.976322 
L 124.247949 283.401169 
L 124.491501 255.400652 
L 124.572685 284.274623 
L 124.816237 256.874344 
L 124.897421 276.178487 
L 125.222156 216.15417 
L 125.384524 199.588593 
L 125.628076 275.094218 
L 125.70926 267.489683 
L 125.790444 265.528473 
L 125.952812 235.253251 
L 126.033996 243.633058 
L 126.11518 251.110962 
L 126.196364 291.049435 
L 126.277548 290.66344 
L 126.358732 290.148388 
L 126.439915 285.942287 
L 126.602283 246.664223 
L 126.764651 262.608507 
L 126.845835 227.627722 
L 127.089387 267.278651 
L 127.332939 110.250398 
L 127.495307 198.797344 
L 127.657674 216.640301 
L 127.738858 228.872992 
L 127.820042 228.176869 
L 128.063594 247.581916 
L 128.144778 232.141728 
L 128.307146 252.364839 
L 128.469514 285.854057 
L 128.550698 280.702512 
L 128.713066 257.299611 
L 128.956617 292.306544 
L 129.037801 290.280012 
L 129.118985 267.577262 
L 129.200169 268.240753 
L 129.362537 290.311846 
L 129.443721 261.616359 
L 129.524905 265.041451 
L 129.687273 295.04856 
L 129.768457 241.946838 
L 129.849641 247.269791 
L 129.930825 252.200164 
L 130.012008 276.75446 
L 130.093192 257.306504 
L 130.25556 289.398801 
L 130.417928 282.832641 
L 130.66148 219.500723 
L 130.742664 262.733852 
L 130.905032 217.952319 
L 130.986216 225.986588 
L 131.148584 273.199735 
L 131.310951 259.932181 
L 131.392135 274.630258 
L 131.554503 242.9541 
L 131.635687 222.488252 
L 131.716871 250.428746 
L 131.798055 245.107869 
L 131.879239 242.973422 
L 131.960423 235.287169 
L 132.122791 257.702321 
L 132.203975 262.040593 
L 132.285159 249.712634 
L 132.366342 294.597476 
L 132.447526 288.301454 
L 132.691078 268.936265 
L 132.772262 266.855197 
L 132.93463 285.639848 
L 133.015814 284.589671 
L 133.096998 266.180765 
L 133.178182 266.826641 
L 133.34055 270.616648 
L 133.421734 282.090995 
L 133.502918 280.297287 
L 133.584101 280.859137 
L 133.827653 241.645155 
L 133.908837 238.378169 
L 133.990021 250.319997 
L 134.152389 288.600446 
L 134.233573 293.67448 
L 134.395941 244.876501 
L 134.558309 247.731841 
L 134.639493 252.772888 
L 134.720677 251.100105 
L 134.964228 261.24703 
L 135.20778 287.406934 
L 135.288964 274.410039 
L 135.370148 275.226701 
L 135.532516 279.376195 
L 135.6137 291.989843 
L 135.857252 276.538346 
L 135.938436 281.65884 
L 136.181987 272.912546 
L 136.263171 285.549675 
L 136.344355 284.066113 
L 136.506723 273.349317 
L 136.669091 290.150678 
L 136.750275 289.558297 
L 136.831459 290.530124 
L 136.912643 286.849813 
L 137.156195 292.490984 
L 137.237378 273.417449 
L 137.318562 275.924585 
L 137.399746 275.747416 
L 137.48093 277.797071 
L 137.562114 267.064441 
L 137.805666 286.449881 
L 137.968034 264.928127 
L 138.130402 274.178657 
L 138.211586 263.857009 
L 138.29277 264.780626 
L 138.455137 268.887334 
L 138.536321 267.587893 
L 138.779873 273.451998 
L 138.942241 294.700819 
L 139.023425 292.409919 
L 139.185793 279.391161 
L 139.266977 286.733268 
L 139.429345 242.351958 
L 139.510529 260.140736 
L 139.591712 258.307494 
L 139.75408 256.034848 
L 139.916448 257.742424 
L 140.078816 256.445548 
L 140.16 258.473047 
L 140.484736 289.470212 
L 140.56592 280.021034 
L 140.647104 281.195473 
L 140.728288 280.638662 
L 140.809471 282.0496 
L 140.971839 271.824303 
L 141.053023 270.915001 
L 141.215391 262.331111 
L 141.296575 262.619321 
L 141.458943 265.611076 
L 141.702495 275.731294 
L 141.783679 272.383851 
L 141.946047 257.369573 
L 142.02723 256.306336 
L 142.108414 258.420643 
L 142.189598 257.927271 
L 142.351966 256.548245 
L 142.43315 259.211915 
L 142.676702 256.426073 
L 142.757886 257.096009 
L 142.920254 255.468175 
L 143.001438 255.484678 
L 143.082622 287.247364 
L 143.244989 269.057682 
L 143.326173 267.457241 
L 143.488541 262.218242 
L 143.650909 262.65224 
L 143.813277 260.796606 
L 144.056829 261.658565 
L 144.219197 268.017353 
L 144.300381 277.14155 
L 144.381564 264.317385 
L 144.462748 264.498532 
L 144.625116 262.900029 
L 144.7063 256.672054 
L 144.787484 258.110323 
L 144.949852 259.112585 
L 145.11222 270.423307 
L 145.193404 270.264961 
L 145.274588 269.775008 
L 145.436956 292.999529 
L 145.924059 271.799948 
L 146.005243 289.18488 
L 146.167611 270.929046 
L 146.248795 270.304332 
L 146.329979 271.361567 
L 146.411163 271.004515 
L 146.573531 270.020327 
L 146.735899 278.716378 
L 146.817082 279.396986 
L 146.898266 278.402879 
L 147.060634 259.992874 
L 147.141818 259.647349 
L 147.223002 258.464386 
L 147.38537 265.706062 
L 147.466554 265.530746 
L 147.547738 264.88535 
L 147.79129 289.714233 
L 147.872474 292.374045 
L 148.197209 283.221141 
L 148.359577 259.729261 
L 148.521945 259.991331 
L 148.603129 260.030677 
L 148.684313 259.904292 
L 148.765497 260.013528 
L 148.846681 260.413106 
L 149.171416 272.918771 
L 149.2526 286.249797 
L 149.414968 257.557043 
L 149.496152 256.09019 
L 149.820888 260.690796 
L 149.902072 258.783556 
L 150.06444 262.243371 
L 150.145624 263.437588 
L 150.307992 267.709188 
L 150.470359 265.721883 
L 150.632727 255.575353 
L 150.713911 255.2347 
L 150.795095 253.657782 
L 150.876279 259.682991 
L 151.119831 290.220152 
L 151.282199 275.946703 
L 151.363383 275.969428 
L 151.444567 275.606724 
L 151.525751 288.551775 
L 151.769302 268.270467 
L 151.93167 265.872396 
L 152.094038 267.076299 
L 152.175222 265.384829 
L 152.418774 267.87355 
L 152.581142 261.995134 
L 152.662326 262.755024 
L 152.74351 265.204808 
L 152.824693 263.49279 
L 152.905877 291.537198 
L 152.987061 283.96518 
L 153.068245 274.184991 
L 153.149429 292.96493 
L 153.230613 273.592156 
L 153.311797 273.785875 
L 153.392981 274.946397 
L 153.798901 295.090205 
L 153.961268 283.723761 
L 154.042452 281.539253 
L 154.123636 285.48303 
L 154.367188 279.445293 
L 154.529556 287.995547 
L 154.691924 257.109052 
L 154.773108 259.202824 
L 155.01666 294.095342 
L 155.260211 256.735647 
L 155.666131 258.626323 
L 155.747315 256.877248 
L 155.828499 259.00911 
L 155.909683 258.532254 
L 155.990867 258.548154 
L 156.072051 272.133898 
L 156.153235 271.127055 
L 156.234419 271.524369 
L 156.315603 270.816222 
L 156.559154 288.441168 
L 156.88389 276.939242 
L 156.965074 275.630606 
L 157.127442 287.524701 
L 157.452178 260.945923 
L 157.533362 261.902729 
L 157.614545 262.715234 
L 157.695729 272.06401 
L 157.858097 265.042029 
L 158.020465 263.536576 
L 158.182833 266.136048 
L 158.264017 266.792506 
L 158.345201 263.463412 
L 158.426385 263.684828 
L 158.588753 264.602954 
L 158.832304 258.653074 
L 158.913488 258.261483 
L 159.075856 259.121809 
L 159.238224 258.82598 
L 159.400592 259.78646 
L 159.481776 259.776048 
L 159.56296 260.399235 
L 159.806512 269.184284 
L 159.887696 269.952768 
L 159.968879 286.039428 
L 160.131247 270.237857 
L 160.212431 267.571074 
L 160.293615 260.879409 
L 160.537167 271.834139 
L 160.618351 292.17707 
L 160.699535 288.877785 
L 161.024271 277.519457 
L 161.186638 277.083428 
L 161.349006 270.017258 
L 161.511374 269.92523 
L 161.673742 262.31621 
L 161.83611 261.05007 
L 162.160846 290.124501 
L 162.323214 287.871915 
L 162.404397 286.512553 
L 162.485581 286.567917 
L 162.566765 265.916704 
L 162.647949 267.018594 
L 162.810317 268.005103 
L 162.972685 260.606212 
L 163.053869 260.366318 
L 163.135053 259.730297 
L 163.216237 260.719627 
L 163.540973 268.18833 
L 163.70334 270.814513 
L 163.784524 272.851035 
L 163.946892 290.230456 
L 164.10926 284.55954 
L 164.352812 294.673109 
L 164.758732 289.57852 
L 165.083467 273.842882 
L 165.245835 284.184915 
L 165.651755 262.539695 
L 165.814123 261.339335 
L 166.057674 262.509313 
L 166.220042 268.668851 
L 166.301226 269.146393 
L 166.38241 269.076011 
L 166.463594 291.512637 
L 166.625962 264.07219 
L 166.78833 261.822263 
L 167.031882 267.996499 
L 167.113066 280.054935 
L 167.275433 268.571922 
L 167.356617 266.402527 
L 167.518985 259.806567 
L 167.681353 260.603596 
L 167.762537 261.700238 
L 168.006089 292.997405 
L 168.087273 258.356787 
L 168.168457 288.692019 
L 168.249641 285.275792 
L 168.493192 276.935861 
L 168.65556 265.256154 
L 168.980296 268.569635 
L 169.142664 287.004234 
L 169.305032 281.705442 
L 169.386216 289.059197 
L 169.4674 262.772898 
L 169.548584 263.609224 
L 169.629767 264.400339 
L 169.710951 267.862008 
L 170.035687 256.560783 
L 170.198055 261.547104 
L 170.279239 262.266405 
L 170.441607 269.160019 
L 170.522791 268.894269 
L 170.603975 269.103512 
L 170.685159 274.260331 
L 170.847526 295.430029 
L 171.009894 263.45036 
L 171.253446 272.877888 
L 171.415814 265.504022 
L 171.496998 265.632519 
L 171.578182 266.747227 
L 171.659366 261.862534 
L 171.74055 262.513129 
L 171.821734 262.982398 
L 171.902918 265.490837 
L 172.065285 275.281067 
L 172.146469 274.429254 
L 172.227653 275.684929 
L 172.308837 267.776907 
L 172.390021 269.176403 
L 172.552389 270.161478 
L 172.633573 294.64298 
L 172.795941 260.556777 
L 172.877125 259.653692 
L 173.120677 253.010808 
L 173.20186 251.996326 
L 173.283044 282.449339 
L 173.445412 264.964423 
L 173.526596 262.162355 
L 173.60778 263.23691 
L 173.688964 259.307616 
L 173.770148 259.913749 
L 173.851332 259.750142 
L 173.932516 263.624582 
L 174.0137 262.835825 
L 174.176068 259.147349 
L 174.257252 271.462596 
L 174.419619 257.76389 
L 174.500803 256.555395 
L 174.581987 260.488086 
L 174.825539 291.440093 
L 174.906723 274.200417 
L 175.150275 294.467503 
L 175.231459 295.481432 
L 175.312643 286.950954 
L 175.556195 294.892993 
L 175.718562 261.029972 
L 175.799746 256.340122 
L 175.88093 256.573198 
L 176.043298 274.641293 
L 176.124482 277.916382 
L 176.28685 291.472213 
L 176.449218 291.887746 
L 176.530402 289.684033 
L 176.773953 279.076216 
L 177.017505 294.52321 
L 177.098689 293.275229 
L 177.261057 285.935288 
L 177.504609 284.794688 
L 177.666977 268.952626 
L 177.748161 268.122171 
L 178.15408 275.696551 
L 178.397632 262.160304 
L 178.56 267.81017 
L 178.641184 267.559571 
L 178.722368 267.716797 
L 178.96592 249.559828 
L 179.047104 250.343015 
L 179.209471 284.782398 
L 179.371839 287.44303 
L 179.453023 277.83176 
L 179.534207 278.190695 
L 179.615391 277.150134 
L 179.696575 277.76651 
L 179.777759 265.338331 
L 179.858943 269.830754 
L 180.021311 275.218969 
L 180.102495 292.786282 
L 180.346047 265.344827 
L 180.42723 275.744961 
L 180.508414 263.677366 
L 180.589598 265.609709 
L 180.670782 269.639438 
L 180.914334 287.880749 
L 180.995518 292.284091 
L 181.157886 281.069199 
L 181.320254 280.316375 
L 181.482622 251.924853 
L 181.644989 252.917047 
L 181.726173 288.364491 
L 181.807357 276.006251 
L 181.969725 265.86311 
L 182.050909 251.922409 
L 182.132093 256.863108 
L 182.213277 256.295241 
L 182.294461 257.578308 
L 182.456829 268.987111 
L 182.619197 271.335464 
L 182.781564 292.900303 
L 182.943932 284.269179 
L 183.025116 285.677064 
L 183.268668 293.925803 
L 183.593404 284.158782 
L 183.674588 268.875739 
L 183.755772 273.174507 
L 183.91814 276.888753 
L 183.999323 295.421307 
L 184.324059 251.4945 
L 184.405243 252.735052 
L 184.567611 260.02415 
L 184.729979 273.969711 
L 184.892347 274.18059 
L 184.973531 288.735554 
L 185.054715 286.203083 
L 185.217082 284.285013 
L 185.298266 286.258255 
L 185.37945 286.061148 
L 185.541818 285.213439 
L 185.623002 286.793227 
L 185.78537 260.311289 
L 185.866554 257.876678 
L 186.110106 278.113299 
L 186.19129 279.483892 
L 186.272474 276.119518 
L 186.516025 282.625619 
L 186.597209 283.555734 
L 186.759577 294.819609 
L 186.840761 287.784324 
L 186.921945 248.6332 
L 187.003129 251.786157 
L 187.246681 259.427018 
L 187.571416 276.0847 
L 187.733784 278.221024 
L 187.814968 278.81959 
L 187.896152 293.434498 
L 188.139704 273.541477 
L 188.302072 284.858066 
L 188.383256 285.50341 
L 188.46444 284.448194 
L 188.545624 293.710139 
L 188.789175 284.923521 
L 189.113911 292.994681 
L 189.195095 281.578491 
L 189.276279 285.332353 
L 189.438647 287.612905 
L 189.519831 292.042683 
L 189.682199 289.286414 
L 189.763383 288.883582 
L 190.088118 268.787071 
L 190.250486 288.438441 
L 190.33167 288.091594 
L 190.412854 288.744955 
L 190.494038 288.688961 
L 190.575222 293.876488 
L 190.73759 286.793573 
L 190.981142 259.284489 
L 191.062326 257.783131 
L 191.468245 278.384456 
L 191.630613 266.113312 
L 191.711797 264.174784 
L 191.874165 247.53999 
L 191.955349 244.89963 
L 192.036533 245.569138 
L 192.117717 248.387401 
L 192.361268 270.204337 
L 192.523636 281.563886 
L 192.60482 281.645106 
L 192.686004 281.369823 
L 192.767188 283.18645 
L 192.848372 293.504784 
L 192.929556 292.334568 
L 193.091924 286.790443 
L 193.173108 291.201708 
L 193.254292 290.65105 
L 193.41666 291.363529 
L 193.579027 282.787018 
L 193.660211 280.751483 
L 193.903763 295.465918 
L 193.984947 292.428853 
L 194.309683 242.163607 
L 194.390867 243.347988 
L 194.796786 288.886217 
L 194.959154 294.043395 
L 195.040338 275.096573 
L 195.121522 275.432319 
L 195.28389 284.004692 
L 195.365074 279.069806 
L 195.527442 263.386154 
L 195.608626 262.202412 
L 195.68981 267.111169 
L 195.852178 294.219966 
L 196.258097 274.04169 
L 196.339281 272.907816 
L 196.501649 278.812432 
L 196.582833 279.832864 
L 196.745201 278.094778 
L 196.907569 283.658658 
L 196.988753 278.347399 
L 197.151121 259.607011 
L 197.232304 260.137906 
L 197.313488 258.927736 
L 197.475856 288.280473 
L 197.55704 291.434794 
L 197.638224 287.279002 
L 197.800592 258.054161 
L 197.881776 256.721021 
L 198.125328 271.282465 
L 198.206512 273.17546 
L 198.287696 292.490356 
L 198.450063 272.805589 
L 198.531247 271.055225 
L 198.612431 259.982384 
L 198.855983 295.428463 
L 198.937167 282.719696 
L 199.018351 284.665521 
L 199.180719 276.608194 
L 199.261903 280.723337 
L 199.424271 295.007251 
L 199.505455 292.623527 
L 199.586638 286.284669 
L 199.749006 260.73432 
L 199.83019 255.530966 
L 199.911374 260.287757 
L 200.073742 286.873957 
L 200.154926 290.315264 
L 200.23611 284.750669 
L 200.398478 294.928089 
L 200.479662 291.449722 
L 200.560846 277.678902 
L 200.804397 289.666285 
L 200.885581 283.691345 
L 200.966765 294.750464 
L 201.129133 283.222705 
L 201.210317 246.717177 
L 201.291501 247.783651 
L 201.372685 248.975716 
L 201.535053 260.874302 
L 201.778605 273.474693 
L 201.859789 276.755971 
L 201.940973 276.149488 
L 202.10334 275.518873 
L 202.265708 291.414537 
L 202.428076 293.263419 
L 202.671628 261.291084 
L 202.752812 257.754112 
L 202.91518 274.751182 
L 202.996364 274.338671 
L 203.077548 274.700118 
L 203.321099 294.913625 
L 203.402283 291.935258 
L 203.564651 295.17516 
L 203.808203 290.015169 
L 203.889387 291.823264 
L 204.051755 294.088952 
L 204.295307 266.627655 
L 204.457674 264.363629 
L 204.620042 279.072877 
L 204.701226 282.009563 
L 204.78241 280.87965 
L 204.863594 274.624057 
L 204.944778 275.828759 
L 205.025962 276.731831 
L 205.107146 272.100697 
L 205.269514 275.319068 
L 205.350698 275.537533 
L 205.431882 285.076042 
L 205.513066 282.202086 
L 205.594249 282.76137 
L 205.675433 284.341542 
L 205.756617 294.737488 
L 206.000169 286.491662 
L 206.081353 293.197132 
L 206.162537 288.934585 
L 206.243721 289.99626 
L 206.324905 289.635529 
L 206.406089 257.755996 
L 206.487273 258.899719 
L 206.568457 259.203507 
L 206.730825 264.07786 
L 206.974376 260.307998 
L 207.05556 260.710166 
L 207.299112 268.723478 
L 207.380296 292.645018 
L 207.46148 289.166408 
L 207.705032 278.735312 
L 207.786216 290.545804 
L 208.029767 267.718029 
L 208.192135 275.387518 
L 208.273319 277.432063 
L 208.435687 289.805014 
L 208.598055 292.419139 
L 208.841607 288.337373 
L 208.922791 288.089227 
L 209.085159 233.786741 
L 209.247526 236.804641 
L 209.409894 266.703258 
L 209.572262 272.472081 
L 209.73463 286.620044 
L 209.896998 285.315844 
L 209.978182 277.456349 
L 210.059366 279.42116 
L 210.14055 279.066945 
L 210.221734 279.915359 
L 210.302918 292.021442 
L 210.627653 269.370914 
L 210.790021 294.159555 
L 210.952389 287.959595 
L 211.114757 261.322448 
L 211.195941 255.359577 
L 211.277125 257.005694 
L 211.520677 266.462233 
L 211.60186 289.493538 
L 211.683044 283.089476 
L 211.926596 273.899421 
L 212.00778 291.708524 
L 212.170148 274.043727 
L 212.251332 287.86499 
L 212.494884 270.901593 
L 212.657252 294.669219 
L 212.738436 290.020132 
L 212.900803 284.64513 
L 213.144355 290.804924 
L 213.387907 243.347152 
L 213.469091 243.359092 
L 214.118562 285.403207 
L 214.28093 278.828506 
L 214.443298 280.748315 
L 214.524482 280.258552 
L 214.605666 293.533498 
L 214.68685 288.954756 
L 214.849218 276.864545 
L 214.930402 294.092235 
L 215.011586 292.339696 
L 215.09277 288.794988 
L 215.173953 278.266187 
L 215.336321 249.438482 
L 215.417505 248.828665 
L 215.579873 293.219468 
L 215.661057 290.021037 
L 216.066977 261.446122 
L 216.148161 245.03959 
L 216.391712 261.099294 
L 216.472896 291.558139 
L 216.635264 269.18324 
L 216.716448 267.221274 
L 216.878816 240.498127 
L 217.041184 250.009489 
L 217.203552 288.850976 
L 217.447104 277.998793 
L 217.690655 288.406887 
L 217.771839 289.150278 
L 217.853023 291.196114 
L 218.258943 278.356707 
L 218.340127 274.469032 
L 218.421311 283.518602 
L 218.664863 258.037961 
L 218.82723 286.327113 
L 218.989598 280.055757 
L 219.070782 292.353892 
L 219.151966 290.297058 
L 219.314334 287.603406 
L 219.395518 287.731657 
L 219.476702 287.314345 
L 219.63907 283.307777 
L 219.801438 242.360739 
L 219.963805 240.346621 
L 220.126173 267.307677 
L 220.288541 288.245679 
L 220.369725 283.931078 
L 220.613277 293.986678 
L 220.938013 286.988153 
L 221.019197 261.231457 
L 221.100381 269.419216 
L 221.181564 269.74947 
L 221.262748 272.996402 
L 221.343932 259.72579 
L 221.425116 260.654469 
L 221.587484 268.775419 
L 221.668668 241.56462 
L 221.749852 247.331692 
L 221.91222 253.168724 
L 222.074588 232.908481 
L 222.236956 233.535512 
L 222.561691 255.612164 
L 222.642875 285.91983 
L 222.724059 283.801892 
L 222.805243 284.659461 
L 222.886427 284.127636 
L 222.967611 276.599475 
L 223.129979 293.501543 
L 223.211163 290.509329 
L 223.373531 260.80384 
L 223.535899 253.745757 
L 223.698266 238.179879 
L 223.860634 236.013522 
L 223.941818 230.535905 
L 224.023002 232.244062 
L 224.18537 237.696617 
L 224.428922 274.897195 
L 224.510106 282.11904 
L 224.59129 262.173539 
L 224.834841 290.773951 
L 225.078393 275.184374 
L 225.240761 272.317472 
L 225.484313 279.376577 
L 225.565497 278.241641 
L 225.727865 247.830675 
L 225.809049 244.916209 
L 225.971416 256.096048 
L 226.133784 259.144586 
L 226.214968 279.700979 
L 226.296152 276.203501 
L 226.377336 275.542801 
L 226.539704 272.956906 
L 226.702072 264.123724 
L 226.783256 263.08863 
L 226.945624 280.861856 
L 227.189175 251.933166 
L 227.270359 252.437807 
L 227.432727 253.737223 
L 227.513911 250.790255 
L 227.676279 254.781096 
L 227.838647 255.526661 
L 228.082199 272.451459 
L 228.163383 273.371347 
L 228.325751 278.660611 
L 228.406934 281.156682 
L 228.569302 266.835947 
L 228.650486 266.006485 
L 228.73167 266.480424 
L 228.894038 263.333528 
L 228.975222 263.076239 
L 229.056406 263.920756 
L 229.13759 268.244086 
L 229.381142 294.078013 
L 229.462326 284.514366 
L 229.54351 287.12675 
L 229.705877 273.883329 
L 229.787061 292.402526 
L 229.868245 290.676929 
L 230.030613 286.733821 
L 230.111797 275.947596 
L 230.192981 275.956164 
L 230.436533 278.874244 
L 230.680085 285.11441 
L 230.923636 247.820057 
L 231.00482 248.731979 
L 231.167188 290.016622 
L 231.329556 282.153869 
L 231.654292 258.490996 
L 231.897844 266.138361 
L 231.979027 267.326129 
L 232.222579 242.482613 
L 232.303763 242.207777 
L 232.384947 231.903742 
L 232.466131 232.884623 
L 232.628499 235.186355 
L 232.872051 263.379256 
L 232.953235 265.191326 
L 233.115603 294.292776 
L 233.196786 288.228689 
L 233.359154 270.684965 
L 233.440338 279.097144 
L 233.521522 279.144742 
L 233.602706 280.689565 
L 233.846258 268.320285 
L 233.927442 266.740228 
L 234.08981 243.37958 
L 234.252178 247.505489 
L 234.333362 246.399236 
L 234.739281 295.410832 
L 234.901649 280.86675 
L 234.982833 286.536925 
L 235.145201 277.842193 
L 235.226385 277.093448 
L 235.307569 286.776448 
L 235.388753 285.944986 
L 235.551121 273.798698 
L 235.713488 250.150899 
L 235.794672 250.906683 
L 236.200592 260.66392 
L 236.281776 253.489926 
L 236.36296 255.410104 
L 236.525328 259.740299 
L 236.606512 258.091844 
L 236.850063 275.735612 
L 236.931247 275.697491 
L 237.093615 268.228481 
L 237.174799 268.897511 
L 237.418351 294.681371 
L 237.499535 291.851245 
L 237.580719 286.388031 
L 237.661903 293.724273 
L 237.743087 291.978839 
L 237.824271 293.01442 
L 237.986638 274.412081 
L 238.149006 283.607587 
L 238.311374 259.564938 
L 238.392558 260.104017 
L 238.473742 262.754639 
L 238.63611 244.683461 
L 238.717294 245.733309 
L 238.798478 251.345277 
L 238.960846 246.444623 
L 239.04203 245.842961 
L 239.123214 247.06478 
L 239.285581 238.576731 
L 239.447949 241.013555 
L 239.529133 250.089969 
L 239.610317 245.003908 
L 239.691501 247.689005 
L 239.772685 254.956271 
L 239.853869 285.169517 
L 239.935053 273.865264 
L 240.016237 274.001274 
L 240.097421 273.67341 
L 240.340973 285.207759 
L 240.584524 295.467304 
L 240.746892 294.276548 
L 240.990444 253.754095 
L 241.071628 250.802537 
L 241.233996 230.931372 
L 241.396364 238.267348 
L 241.477548 266.649097 
L 241.639915 243.926738 
L 241.802283 234.931305 
L 242.045835 246.627532 
L 242.208203 236.821549 
L 242.370571 243.92798 
L 242.451755 292.018455 
L 242.614123 252.734302 
L 242.695307 249.618812 
L 242.77649 235.796888 
L 243.101226 260.284607 
L 243.263594 255.258208 
L 243.344778 253.977075 
L 243.425962 256.288824 
L 243.669514 246.078374 
L 243.913066 292.549667 
L 244.075433 268.832371 
L 244.237801 270.244044 
L 244.318985 270.141495 
L 244.724905 295.413219 
L 244.887273 291.017418 
L 244.968457 290.996371 
L 245.049641 270.343059 
L 245.130825 277.574714 
L 245.45556 291.492615 
L 245.699112 274.747182 
L 245.780296 275.20125 
L 245.86148 275.042392 
L 245.942664 274.433606 
L 246.023848 269.534737 
L 246.186216 253.699858 
L 246.429767 246.312664 
L 246.592135 245.786008 
L 246.673319 245.856086 
L 246.754503 246.01875 
L 246.916871 248.797643 
L 247.160423 269.138684 
L 247.241607 273.314434 
L 247.322791 271.893653 
L 247.403975 271.684889 
L 247.566342 273.799232 
L 247.647526 286.563937 
L 247.72871 286.179349 
L 247.891078 283.596292 
L 247.972262 286.82277 
L 248.215814 274.003719 
L 248.378182 249.478766 
L 248.459366 248.468111 
L 248.54055 248.730764 
L 248.865285 260.069546 
L 249.027653 238.599007 
L 249.190021 236.466679 
L 249.352389 224.747529 
L 249.433573 224.629432 
L 249.514757 225.092982 
L 249.839493 243.154069 
L 250.00186 259.470156 
L 250.164228 263.931395 
L 250.326596 289.934087 
L 250.488964 281.413006 
L 250.732516 265.471205 
L 250.894884 262.043705 
L 251.219619 245.20001 
L 251.544355 236.5343 
L 251.869091 279.418734 
L 252.112643 265.958591 
L 252.356195 294.331159 
L 252.437378 293.976328 
L 252.599746 271.216722 
L 252.68093 270.99141 
L 252.762114 270.428962 
L 252.843298 273.474946 
L 253.005666 295.154582 
L 253.08685 290.055643 
L 253.168034 292.536109 
L 253.330402 274.368928 
L 253.411586 273.633311 
L 253.49277 269.487157 
L 253.817505 293.775855 
L 253.898689 287.993662 
L 254.142241 283.240605 
L 254.223425 278.755451 
L 254.304609 279.495746 
L 254.385793 279.923975 
L 254.466977 291.71931 
L 254.548161 272.026454 
L 254.629345 272.210307 
L 254.710529 271.967569 
L 254.872896 238.364407 
L 254.95408 238.157251 
L 255.035264 239.231354 
L 255.36 255.968778 
L 255.603552 243.766101 
L 255.684736 242.609175 
L 255.847104 228.774253 
L 256.090655 260.437993 
L 256.171839 248.933508 
L 256.253023 246.462414 
L 256.334207 246.603227 
L 256.415391 293.687638 
L 256.577759 268.685213 
L 256.658943 264.921412 
L 256.983679 294.396227 
L 257.308414 267.050754 
L 257.470782 247.174121 
L 257.63315 260.003385 
L 257.795518 294.820059 
L 257.876702 295.263313 
L 257.957886 293.593345 
L 258.120254 263.266935 
L 258.201438 265.348899 
L 258.282622 263.807383 
L 258.444989 293.496242 
L 258.526173 292.994287 
L 258.607357 293.637728 
L 259.013277 261.852636 
L 259.175645 292.670846 
L 259.256829 290.818546 
L 259.338013 284.77336 
L 259.419197 286.269548 
L 259.581564 287.827568 
L 259.743932 280.58139 
L 259.9063 281.801704 
L 259.987484 278.129136 
L 260.068668 278.30784 
L 260.231036 281.445068 
L 260.393404 292.471231 
L 260.474588 292.831546 
L 260.555772 294.132723 
L 260.636956 293.744312 
L 260.880507 292.198148 
L 261.124059 270.226665 
L 261.205243 268.305409 
L 261.286427 286.988607 
L 261.367611 283.583187 
L 261.611163 275.038905 
L 261.935899 284.095436 
L 262.098266 276.149623 
L 262.17945 274.768091 
L 262.504186 282.916216 
L 262.747738 248.964603 
L 262.828922 246.70845 
L 262.910106 259.880905 
L 262.99129 257.680243 
L 263.072474 257.733889 
L 263.153658 257.479571 
L 263.234841 266.427954 
L 263.640761 245.775969 
L 263.721945 244.16501 
L 263.803129 245.258237 
L 264.046681 292.788132 
L 264.209049 291.198578 
L 264.4526 295.002355 
L 264.533784 274.556108 
L 264.614968 277.991558 
L 264.85852 286.113275 
L 264.939704 284.852918 
L 265.102072 288.511568 
L 265.183256 287.803468 
L 265.345624 289.1845 
L 265.426808 288.001886 
L 265.507992 283.02204 
L 265.751543 290.273046 
L 265.832727 288.354387 
L 266.157463 258.890335 
L 266.319831 246.012249 
L 266.401015 244.143721 
L 266.563383 259.697343 
L 266.725751 261.727225 
L 266.888118 281.513549 
L 267.050486 278.63777 
L 267.13167 279.126748 
L 267.375222 291.146892 
L 267.618774 276.324409 
L 267.699958 274.853619 
L 267.781142 265.520965 
L 268.024693 275.135019 
L 268.105877 293.387539 
L 268.349429 279.507905 
L 268.430613 282.678168 
L 268.674165 277.869803 
L 268.755349 287.143232 
L 269.242452 258.183853 
L 269.323636 256.973741 
L 269.567188 289.661436 
L 269.648372 293.083821 
L 269.81074 283.780513 
L 269.891924 283.694468 
L 269.973108 283.392157 
L 270.135476 271.169127 
L 270.297844 270.240955 
L 270.379027 260.172431 
L 270.460211 262.011433 
L 270.622579 268.55015 
L 270.784947 293.63977 
L 270.866131 295.345597 
L 270.947315 294.045445 
L 271.190867 275.991371 
L 271.272051 273.679767 
L 271.353235 275.048856 
L 271.596786 262.609763 
L 272.002706 282.167834 
L 272.08389 291.495846 
L 272.165074 288.063591 
L 272.246258 282.34616 
L 272.327442 284.128622 
L 272.48981 289.292035 
L 272.570994 290.686367 
L 272.652178 288.044264 
L 272.976913 293.513655 
L 273.220465 294.24009 
L 273.464017 268.442541 
L 273.545201 266.730183 
L 273.788753 288.843464 
L 273.869937 290.750471 
L 273.951121 288.652553 
L 274.113488 281.126448 
L 274.194672 279.614986 
L 274.275856 282.071131 
L 274.438224 290.935789 
L 274.519408 292.697284 
L 274.844144 282.58696 
L 275.006512 264.727471 
L 275.168879 267.119108 
L 275.493615 291.257258 
L 275.574799 289.386442 
L 275.737167 295.184361 
L 275.818351 293.43293 
L 275.899535 295.066208 
L 275.980719 293.493796 
L 276.061903 295.293717 
L 276.143087 295.154313 
L 276.305455 277.627179 
L 276.467822 272.692155 
L 276.63019 243.012244 
L 276.711374 243.18252 
L 276.792558 242.31176 
L 277.03611 276.99229 
L 277.117294 280.3404 
L 277.198478 291.722339 
L 277.360846 281.858219 
L 277.44203 280.407537 
L 277.604397 293.492131 
L 277.685581 293.21892 
L 277.766765 293.926185 
L 278.091501 280.342515 
L 278.497421 294.698489 
L 278.659789 294.539712 
L 278.740973 293.364615 
L 278.90334 268.622104 
L 279.065708 271.058361 
L 279.146892 267.792552 
L 279.390444 285.553686 
L 279.552812 290.35585 
L 279.633996 290.874414 
L 279.796364 293.340322 
L 280.039915 269.93377 
L 280.202283 280.089957 
L 280.283467 278.662384 
L 280.364651 278.718173 
L 280.445835 276.405718 
L 280.689387 292.683793 
L 280.770571 294.551935 
L 280.932939 286.142178 
L 281.014123 285.007417 
L 281.095307 285.478434 
L 281.257674 294.78413 
L 281.338858 293.914252 
L 281.825962 266.794599 
L 282.069514 265.199394 
L 282.394249 294.747789 
L 282.556617 289.829628 
L 282.637801 289.558951 
L 282.718985 294.533029 
L 282.800169 292.919773 
L 282.881353 294.368834 
L 282.962537 294.302037 
L 283.043721 286.829892 
L 283.206089 294.918751 
L 283.287273 294.109767 
L 283.612008 265.5541 
L 283.936744 288.292779 
L 284.017928 280.435113 
L 284.26148 291.745329 
L 284.586216 278.154372 
L 284.6674 259.565801 
L 284.748584 264.433523 
L 284.910951 272.131993 
L 285.073319 290.215148 
L 285.560423 277.069511 
L 285.641607 277.7516 
L 286.12871 249.903778 
L 286.209894 249.620152 
L 286.53463 294.765787 
L 286.696998 275.78557 
L 286.94055 270.194786 
L 287.184101 282.199553 
L 287.265285 281.730793 
L 287.508837 284.730685 
L 287.590021 290.699002 
L 287.671205 289.881808 
L 287.833573 289.965981 
L 287.914757 280.763307 
L 287.995941 281.407702 
L 288.158309 283.489445 
L 288.239493 293.401732 
L 288.320677 292.754408 
L 288.40186 293.44173 
L 288.483044 293.3086 
L 288.888964 271.649458 
L 288.970148 271.772579 
L 289.132516 270.400859 
L 289.2137 263.823919 
L 289.294884 264.575709 
L 289.457252 269.607394 
L 289.619619 287.588979 
L 289.781987 295.060843 
L 289.863171 290.165161 
L 290.106723 294.781521 
L 290.187907 292.497896 
L 290.269091 294.813282 
L 290.512643 289.991239 
L 290.999746 270.737419 
L 291.08093 269.325716 
L 291.243298 293.579083 
L 291.324482 295.062389 
L 291.48685 291.569786 
L 291.89277 274.710628 
L 291.973953 274.509816 
L 292.055137 273.997113 
L 292.217505 287.352739 
L 292.379873 290.194799 
L 292.461057 295.026777 
L 292.623425 288.55026 
L 292.785793 286.623173 
L 292.866977 286.988811 
L 293.029345 289.533592 
L 293.191712 285.239702 
L 293.35408 286.470742 
L 293.435264 285.34619 
L 293.597632 278.306447 
L 293.678816 277.456721 
L 293.841184 259.136078 
L 293.922368 258.811355 
L 294.003552 259.286764 
L 294.084736 262.895765 
L 294.328288 284.341872 
L 294.571839 292.713103 
L 294.653023 293.526563 
L 294.734207 291.046699 
L 294.896575 280.037825 
L 294.977759 278.374361 
L 295.140127 271.172533 
L 295.221311 271.297093 
L 295.302495 271.006029 
L 295.383679 276.769289 
L 295.546047 295.422578 
L 295.62723 293.614206 
L 295.708414 295.036418 
L 295.870782 283.145545 
L 295.951966 282.71686 
L 296.195518 289.659633 
L 296.276702 290.603359 
L 296.357886 294.671912 
L 296.43907 293.887457 
L 296.601438 292.721865 
L 296.682622 295.209497 
L 296.926173 288.132721 
L 297.007357 294.723241 
L 297.088541 289.922599 
L 297.169725 291.000219 
L 297.250909 292.188431 
L 297.332093 289.907556 
L 297.575645 293.775228 
L 297.819197 287.27844 
L 297.900381 286.640417 
L 298.143932 277.004597 
L 298.225116 276.221266 
L 298.387484 249.836938 
L 298.549852 261.528523 
L 298.793404 286.799217 
L 298.874588 289.86673 
L 299.199323 265.7254 
L 299.442875 288.708994 
L 299.524059 289.998206 
L 299.686427 271.994634 
L 299.848795 270.798172 
L 299.929979 263.473149 
L 300.173531 285.47748 
L 300.254715 286.544398 
L 300.57945 295.435666 
L 300.660634 294.816516 
L 300.741818 295.445268 
L 300.823002 294.887078 
L 300.98537 286.016617 
L 301.066554 285.797869 
L 301.147738 286.147978 
L 301.310106 262.579477 
L 301.39129 263.30807 
L 301.472474 266.173312 
L 301.634841 281.704201 
L 301.878393 285.076929 
L 302.040761 274.457006 
L 302.121945 273.55746 
L 302.365497 287.930494 
L 302.446681 288.554123 
L 302.771416 271.964262 
L 302.8526 268.513677 
L 302.933784 269.237094 
L 303.096152 267.460388 
L 303.25852 278.367134 
L 303.502072 282.289916 
L 303.66444 294.820237 
L 303.826808 288.70541 
L 303.907992 295.119605 
L 303.989175 294.978258 
L 304.070359 292.178355 
L 304.232727 275.386414 
L 304.313911 273.961462 
L 304.395095 274.597019 
L 304.476279 256.419436 
L 304.557463 261.814779 
L 304.638647 263.30415 
L 304.719831 268.797138 
L 304.801015 253.912684 
L 304.882199 255.500888 
L 305.044567 269.124191 
L 305.206934 259.027497 
L 305.288118 260.364532 
L 305.450486 266.384776 
L 305.53167 265.537987 
L 305.694038 271.340996 
L 305.856406 282.332921 
L 306.018774 287.259166 
L 306.099958 284.826076 
L 306.34351 294.362125 
L 306.424693 291.741086 
L 306.668245 270.306301 
L 306.749429 275.495526 
L 306.992981 263.414592 
L 307.074165 263.959489 
L 307.236533 258.666282 
L 307.317717 257.596243 
L 307.642452 282.038139 
L 307.723636 287.866272 
L 307.886004 274.973274 
L 307.967188 272.904031 
L 308.129556 277.632193 
L 308.291924 277.39608 
L 308.454292 285.170973 
L 308.535476 284.419923 
L 308.61666 285.097301 
L 308.697844 286.778057 
L 308.779027 294.11304 
L 308.860211 292.344766 
L 309.347315 257.750218 
L 309.428499 259.048599 
L 309.509683 258.986009 
L 309.590867 259.562381 
L 309.753235 273.248763 
L 309.915603 275.518731 
L 310.07797 294.260853 
L 310.240338 292.43828 
L 310.48389 277.136269 
L 310.565074 276.418604 
L 310.727442 267.683824 
L 310.808626 266.788968 
L 310.88981 266.984785 
L 310.970994 262.136594 
L 311.214545 269.011156 
L 311.376913 293.322709 
L 311.458097 292.997571 
L 311.539281 288.004496 
L 311.701649 261.578749 
L 311.782833 261.494759 
L 311.864017 262.348495 
L 311.945201 266.247488 
L 312.026385 266.072644 
L 312.188753 265.362715 
L 312.269937 271.243178 
L 312.351121 269.894679 
L 312.432304 269.866073 
L 312.513488 269.426065 
L 312.675856 295.131892 
L 312.75704 289.605048 
L 313.16296 264.980687 
L 313.406512 289.543532 
L 313.568879 294.120772 
L 314.055983 270.069522 
L 314.137167 270.012236 
L 314.218351 257.295479 
L 314.461903 269.634623 
L 314.543087 293.620958 
L 314.624271 288.633801 
L 314.786638 284.630974 
L 314.949006 271.679119 
L 315.111374 270.667407 
L 315.192558 275.174631 
L 315.354926 273.319688 
L 315.43611 272.38657 
L 315.517294 277.817362 
L 315.598478 276.637087 
L 315.760846 277.673309 
L 315.84203 277.633891 
L 316.491501 294.667702 
L 316.653869 285.842153 
L 316.735053 283.861193 
L 316.897421 275.641466 
L 317.140973 267.80845 
L 317.30334 272.690041 
L 317.384524 274.515036 
L 317.465708 265.91076 
L 317.546892 268.265978 
L 317.70926 276.283308 
L 317.871628 292.031419 
L 318.033996 287.542678 
L 318.277548 267.041836 
L 318.358732 265.529992 
L 318.602283 288.75073 
L 318.683467 290.7816 
L 318.845835 281.499957 
L 319.008203 282.153878 
L 319.089387 295.321913 
L 319.170571 289.275032 
L 319.251755 290.903078 
L 319.332939 291.416543 
L 319.414123 279.412637 
L 319.495307 279.57961 
L 319.657674 282.211754 
L 319.820042 272.152805 
L 319.901226 271.902617 
L 319.98241 272.908817 
L 320.307146 292.817671 
L 320.469514 282.030947 
L 320.631882 283.196374 
L 320.713066 282.645588 
L 320.794249 283.212442 
L 320.875433 282.112894 
L 321.037801 284.059798 
L 321.200169 291.839818 
L 321.281353 294.168033 
L 321.362537 292.479979 
L 321.606089 280.329455 
L 321.687273 290.613902 
L 321.768457 287.226026 
L 322.66148 255.758114 
L 322.742664 257.697037 
L 322.905032 261.161481 
L 323.148584 294.973555 
L 323.310951 276.939189 
L 323.392135 285.347102 
L 323.716871 294.844778 
L 323.798055 293.626917 
L 323.879239 293.866935 
L 323.960423 289.104572 
L 324.041607 291.532714 
L 324.122791 291.197565 
L 324.203975 292.620978 
L 324.285159 287.891669 
L 324.447526 269.26272 
L 324.52871 267.488857 
L 324.609894 277.425293 
L 324.691078 269.206883 
L 324.772262 270.25659 
L 324.853446 270.319335 
L 325.015814 294.76164 
L 325.096998 294.896612 
L 325.178182 293.997228 
L 325.259366 282.878736 
L 325.34055 283.678811 
L 325.421734 282.942386 
L 325.502918 284.433599 
L 325.584101 268.107252 
L 325.827653 285.470207 
L 325.908837 282.957229 
L 326.071205 259.716354 
L 326.152389 258.280424 
L 326.233573 252.913513 
L 326.314757 253.007125 
L 326.477125 256.93929 
L 326.558309 267.452137 
L 326.639493 266.029248 
L 326.720677 265.797856 
L 326.80186 266.073491 
L 326.964228 284.089708 
L 327.045412 285.123833 
L 327.126596 287.946287 
L 327.20778 284.533704 
L 327.370148 272.738421 
L 327.532516 269.759814 
L 327.694884 272.602348 
L 327.776068 273.628701 
L 327.857252 272.512388 
L 328.100803 287.376267 
L 328.181987 289.92209 
L 328.344355 279.524709 
L 328.425539 278.016337 
L 328.506723 255.188193 
L 328.587907 261.187922 
L 328.750275 267.18816 
L 328.993827 292.752977 
L 329.075011 295.227576 
L 329.237378 277.892296 
L 329.318562 277.615616 
L 329.399746 277.662284 
L 329.562114 265.864477 
L 329.643298 265.527868 
L 329.724482 265.771838 
L 329.968034 256.778977 
L 330.049218 256.932006 
L 330.29277 282.675757 
L 330.536321 294.71231 
L 330.617505 293.775611 
L 330.698689 291.965414 
L 330.779873 293.668266 
L 331.023425 290.729806 
L 331.185793 295.223124 
L 331.429345 290.189867 
L 331.591712 284.093686 
L 331.672896 282.286858 
L 331.835264 269.12345 
L 331.997632 267.17734 
L 332.241184 278.488685 
L 332.322368 279.894314 
L 332.403552 277.69738 
L 332.56592 280.68735 
L 332.647104 281.384475 
L 332.728288 275.400133 
L 332.809471 276.382792 
L 332.890655 275.747838 
L 332.971839 276.042739 
L 333.053023 278.173909 
L 333.215391 277.015044 
L 333.296575 277.09866 
L 333.377759 284.95489 
L 333.458943 283.698783 
L 333.621311 284.986727 
L 333.702495 292.294799 
L 333.864863 282.881884 
L 333.946047 281.577611 
L 334.02723 283.743407 
L 334.189598 282.024503 
L 334.270782 282.111623 
L 334.351966 282.44866 
L 334.676702 269.423545 
L 334.757886 272.020219 
L 334.83907 271.602215 
L 334.920254 271.889661 
L 335.001438 288.295466 
L 335.082622 285.264708 
L 335.326173 272.106493 
L 335.650909 289.311423 
L 335.813277 286.480792 
L 335.894461 285.72012 
L 335.975645 285.89622 
L 336.056829 285.904093 
L 336.219197 286.627054 
L 336.300381 294.189083 
L 336.462748 276.139277 
L 336.543932 273.079935 
L 336.625116 291.372065 
L 336.7063 289.614363 
L 336.868668 286.63749 
L 336.949852 287.532093 
L 337.193404 293.203255 
L 337.274588 291.289104 
L 337.436956 294.595342 
L 337.51814 295.278439 
L 337.680507 286.499106 
L 337.842875 284.705494 
L 337.924059 292.91537 
L 338.086427 279.518283 
L 338.248795 273.043117 
L 338.411163 282.196787 
L 338.492347 284.347295 
L 338.735899 276.046389 
L 338.817082 275.204212 
L 338.97945 260.64524 
L 339.060634 260.454526 
L 339.141818 262.288661 
L 339.466554 294.324693 
L 339.547738 282.592201 
L 339.628922 286.611201 
L 339.79129 289.243583 
L 340.034841 274.136647 
L 340.116025 273.433104 
L 340.359577 292.749018 
L 340.440761 293.958584 
L 340.603129 277.884078 
L 340.765497 283.526932 
L 340.846681 292.337466 
L 341.009049 282.939019 
L 341.090233 280.428883 
L 341.2526 295.358105 
L 341.414968 291.707565 
L 341.577336 270.958856 
L 341.739704 276.399778 
L 341.820888 288.180856 
L 341.983256 281.46951 
L 342.06444 279.924588 
L 342.145624 286.78639 
L 342.389175 277.119601 
L 342.470359 280.165978 
L 342.632727 288.005521 
L 342.795095 294.679833 
L 342.957463 276.774125 
L 343.038647 272.233213 
L 343.363383 294.990209 
L 343.525751 290.192986 
L 343.688118 291.442935 
L 344.012854 259.993461 
L 344.175222 289.702911 
L 344.33759 278.607537 
L 344.418774 292.306483 
L 344.74351 266.289246 
L 345.149429 290.892974 
L 345.230613 291.788536 
L 345.311797 291.732719 
L 345.392981 295.156289 
L 345.555349 293.498976 
L 345.636533 293.372144 
L 345.717717 283.611152 
L 345.961268 291.411941 
L 346.367188 281.371675 
L 346.529556 269.706295 
L 346.61074 267.212856 
L 346.773108 282.854417 
L 346.935476 283.477033 
L 347.097844 259.485553 
L 347.260211 255.875882 
L 347.341395 256.660809 
L 347.584947 279.696049 
L 347.747315 277.09897 
L 347.909683 276.004374 
L 348.072051 257.026264 
L 348.234419 258.651904 
L 348.396786 251.992334 
L 348.559154 257.06961 
L 348.640338 272.29657 
L 348.721522 272.201842 
L 348.88389 274.038088 
L 348.965074 270.808139 
L 349.28981 288.310436 
L 349.370994 295.423044 
L 349.452178 292.9236 
L 349.858097 272.599593 
L 350.020465 277.757449 
L 350.182833 275.67834 
L 350.426385 284.16654 
L 350.507569 284.404212 
L 350.669937 289.756892 
L 350.913488 288.443128 
L 351.075856 281.500405 
L 351.15704 279.306402 
L 351.238224 280.482649 
L 351.400592 287.915633 
L 351.481776 288.490853 
L 351.56296 291.444862 
L 352.050063 264.933298 
L 352.131247 265.247373 
L 352.374799 272.960735 
L 352.455983 273.74148 
L 352.618351 266.510407 
L 352.780719 265.76953 
L 352.943087 284.241333 
L 353.105455 285.528448 
L 353.186638 293.301423 
L 353.267822 290.510629 
L 353.43019 285.822923 
L 353.754926 294.594943 
L 353.83611 290.407494 
L 354.079662 295.231802 
L 354.24203 283.0136 
L 354.404397 282.499927 
L 354.566765 268.352487 
L 354.647949 268.104544 
L 354.729133 268.394905 
L 354.810317 263.284518 
L 354.891501 263.418117 
L 354.972685 263.365978 
L 355.053869 264.026649 
L 355.297421 276.376565 
L 355.378605 278.594215 
L 355.459789 293.819986 
L 355.540973 292.282295 
L 355.70334 288.545322 
L 355.946892 276.756096 
L 356.028076 274.754191 
L 356.10926 261.19545 
L 356.190444 263.212868 
L 356.352812 265.840045 
L 356.596364 278.960556 
L 356.758732 282.337095 
L 356.921099 276.230491 
L 357.083467 275.379705 
L 357.408203 285.731271 
L 357.732939 292.390692 
L 357.814123 292.0823 
L 357.895307 292.200593 
L 357.97649 292.332581 
L 358.220042 295.383464 
L 358.301226 294.324483 
L 358.38241 286.760225 
L 358.625962 291.985916 
L 358.707146 292.600931 
L 358.950698 289.602574 
L 359.031882 289.751352 
L 359.194249 283.262339 
L 359.275433 281.797642 
L 359.518985 294.958127 
L 359.600169 293.296712 
L 359.681353 295.438884 
L 359.843721 292.825189 
L 359.924905 292.580453 
L 360.006089 293.599422 
L 360.087273 290.343726 
L 360.168457 290.449442 
L 360.249641 289.996137 
L 360.330825 293.683394 
L 360.574376 290.312551 
L 360.736744 271.189566 
L 360.817928 270.858758 
L 360.899112 270.943831 
L 360.980296 281.04382 
L 361.06148 280.15548 
L 361.223848 281.191057 
L 361.386216 273.904391 
L 361.548584 275.035186 
L 361.629767 270.155229 
L 361.710951 271.725871 
L 361.873319 273.894901 
L 361.954503 270.164427 
L 362.035687 270.835312 
L 362.441607 279.727331 
L 362.522791 281.040844 
L 362.603975 271.585641 
L 362.847526 281.919548 
L 362.92871 282.229209 
L 363.009894 281.430349 
L 363.091078 281.685182 
L 363.253446 285.010827 
L 363.33463 295.377938 
L 363.821734 269.96979 
L 363.902918 277.395743 
L 364.146469 267.196706 
L 364.227653 267.415185 
L 364.390021 261.734722 
L 364.471205 260.16918 
L 364.552389 265.411471 
L 364.633573 263.918804 
L 364.795941 262.927394 
L 364.877125 257.232955 
L 365.20186 265.435065 
L 365.364228 264.764004 
L 365.445412 264.83015 
L 365.526596 266.206382 
L 365.851332 287.004207 
L 366.094884 290.107457 
L 366.176068 291.476687 
L 366.257252 295.243517 
L 366.419619 291.272112 
L 366.581987 294.888099 
L 366.663171 294.804398 
L 366.744355 294.372145 
L 366.825539 294.516618 
L 367.069091 286.296429 
L 367.231459 282.711419 
L 367.312643 283.639938 
L 367.393827 283.260691 
L 367.475011 291.043282 
L 367.799746 279.560009 
L 367.962114 274.993733 
L 368.124482 273.753172 
L 368.28685 264.748811 
L 368.368034 262.666659 
L 368.611586 278.299136 
L 368.69277 279.07109 
L 368.773953 292.646019 
L 368.855137 291.994701 
L 368.936321 292.421735 
L 369.017505 292.292246 
L 369.261057 272.949541 
L 369.342241 272.07847 
L 369.423425 269.876517 
L 369.666977 287.868526 
L 369.910529 277.112321 
L 369.991712 276.218274 
L 370.15408 262.573589 
L 370.235264 262.033194 
L 370.316448 262.547633 
L 370.641184 279.387686 
L 370.722368 286.198311 
L 370.803552 285.959763 
L 370.884736 286.230814 
L 370.96592 286.149222 
L 371.290655 261.827448 
L 371.534207 294.58564 
L 371.615391 292.985505 
L 371.696575 287.985153 
L 371.777759 289.220696 
L 371.940127 290.11266 
L 372.021311 293.580222 
L 372.102495 293.477734 
L 372.183679 293.13951 
L 372.264863 292.046972 
L 372.508414 276.446135 
L 372.589598 274.573992 
L 372.751966 285.848387 
L 372.914334 287.976697 
L 373.076702 278.924231 
L 373.23907 277.797991 
L 373.320254 257.416083 
L 373.401438 261.096343 
L 373.644989 276.265152 
L 373.888541 289.72058 
L 374.132093 295.488 
L 374.213277 294.630191 
L 374.456829 279.884484 
L 374.781564 275.56646 
L 374.862748 275.854895 
L 375.1063 266.408413 
L 375.187484 266.304647 
L 375.268668 266.600426 
L 375.51222 273.916302 
L 375.836956 295.027057 
L 375.91814 293.406439 
L 376.080507 295.403752 
L 376.161691 293.578899 
L 376.242875 287.727395 
L 376.324059 294.518765 
L 376.405243 293.001935 
L 376.486427 288.474662 
L 376.567611 289.088161 
L 376.648795 290.192202 
L 376.729979 289.931777 
L 376.811163 289.43139 
L 376.892347 292.706363 
L 376.973531 292.666469 
L 377.135899 294.486587 
L 377.217082 288.454889 
L 377.298266 290.998329 
L 377.37945 290.656705 
L 377.460634 290.524566 
L 377.623002 287.558088 
L 377.704186 287.802746 
L 377.78537 288.287884 
L 377.866554 287.696304 
L 378.028922 293.939805 
L 378.110106 294.045069 
L 378.19129 295.38915 
L 378.434841 279.12535 
L 378.516025 275.515625 
L 378.597209 275.723896 
L 378.759577 275.348811 
L 378.921945 268.361042 
L 379.003129 268.669865 
L 379.165497 270.006341 
L 379.246681 268.488175 
L 379.409049 270.685593 
L 379.490233 262.243536 
L 379.571416 263.512842 
L 379.733784 267.690481 
L 379.814968 262.38557 
L 380.220888 294.713259 
L 380.302072 294.074102 
L 380.545624 289.89121 
L 380.707992 288.240974 
L 380.951543 277.262192 
L 381.032727 275.848235 
L 381.113911 282.434891 
L 381.195095 280.473893 
L 381.357463 278.789944 
L 381.601015 292.414688 
L 381.763383 293.5497 
L 381.925751 292.30931 
L 382.006934 292.031784 
L 382.088118 293.898806 
L 382.33167 289.712204 
L 382.494038 294.103706 
L 382.575222 294.395828 
L 382.656406 293.345374 
L 382.899958 277.501971 
L 382.981142 276.97379 
L 383.062326 278.092511 
L 383.14351 275.324994 
L 383.224693 275.895515 
L 383.305877 276.397438 
L 383.387061 274.683468 
L 383.468245 270.388515 
L 383.549429 271.244046 
L 383.630613 271.414897 
L 383.874165 283.913507 
L 384.036533 286.451625 
L 384.198901 273.539278 
L 384.280085 270.580386 
L 384.442452 277.994598 
L 384.60482 278.703741 
L 384.848372 257.047408 
L 384.929556 256.09369 
L 385.01074 256.949977 
L 385.41666 295.323197 
L 385.497844 293.99077 
L 385.579027 292.456233 
L 385.660211 288.586525 
L 385.903763 291.898242 
L 386.147315 295.414441 
L 386.228499 294.541071 
L 386.390867 276.347618 
L 386.634419 269.187111 
L 386.87797 287.846797 
L 386.959154 294.507025 
L 387.040338 289.258496 
L 387.121522 290.031799 
L 387.608626 280.352214 
L 387.852178 287.91869 
L 387.933362 292.055884 
L 388.095729 288.914013 
L 388.176913 288.165434 
L 388.258097 275.038065 
L 388.339281 276.96391 
L 388.501649 279.203564 
L 388.826385 272.182565 
L 388.988753 261.691057 
L 389.069937 261.918268 
L 389.151121 262.496824 
L 389.394672 293.666389 
L 389.475856 292.337354 
L 389.55704 288.801883 
L 389.719408 295.290363 
L 389.881776 294.263683 
L 390.044144 287.713806 
L 390.125328 286.270921 
L 390.287696 279.662549 
L 390.368879 279.812977 
L 390.450063 279.051715 
L 390.531247 286.299501 
L 390.612431 284.521307 
L 390.774799 281.016355 
L 390.855983 294.507529 
L 391.018351 285.21481 
L 391.099535 283.520423 
L 391.180719 275.476024 
L 391.424271 280.825289 
L 391.586638 276.817539 
L 391.667822 277.601801 
L 391.749006 278.20594 
L 391.83019 270.285945 
L 392.073742 277.475491 
L 392.23611 294.326732 
L 392.398478 290.694356 
L 392.64203 272.397599 
L 392.804397 270.112832 
L 392.966765 273.350555 
L 393.047949 273.71145 
L 393.453869 294.156712 
L 393.535053 293.235479 
L 393.697421 292.600165 
L 393.859789 285.341428 
L 393.940973 284.94671 
L 394.022156 285.412792 
L 394.10334 289.957073 
L 394.265708 285.918152 
L 394.346892 285.694146 
L 394.428076 283.24604 
L 394.671628 292.929458 
L 394.996364 265.109043 
L 395.077548 267.54666 
L 395.239915 274.714459 
L 395.402283 275.909038 
L 395.564651 269.539812 
L 395.645835 268.017132 
L 395.808203 273.306981 
L 395.970571 275.087915 
L 396.214123 289.357309 
L 396.295307 291.346369 
L 396.620042 281.347439 
L 396.701226 282.141353 
L 396.78241 279.249057 
L 396.863594 279.37832 
L 396.944778 278.375762 
L 397.025962 275.29651 
L 397.107146 276.429367 
L 397.269514 279.041642 
L 397.350698 294.536184 
L 397.513066 284.663764 
L 397.675433 278.219945 
L 397.756617 280.636851 
L 397.837801 281.022979 
L 397.918985 282.041259 
L 398.081353 276.052194 
L 398.162537 275.477548 
L 398.243721 275.996227 
L 398.324905 267.113111 
L 398.406089 269.731708 
L 398.487273 270.542035 
L 398.487273 270.542035 
" clip-path="url(#p052b584e01)" style="fill: none; stroke: #1f77b4; stroke-width: 0.8; stroke-linecap: square"/>
   </g>
   <g id="patch_3">
    <path d="M 57.6 307.584 
L 57.6 41.472 
" style="fill: none; stroke: #000000; stroke-width: 0.8; stroke-linejoin: miter; stroke-linecap: square"/>
   </g>
   <g id="patch_4">
    <path d="M 414.72 307.584 
L 414.72 41.472 
" style="fill: none; stroke: #000000; stroke-width: 0.8; stroke-linejoin: miter; stroke-linecap: square"/>
   </g>
   <g id="patch_5">
    <path d="M 57.6 307.584 
L 414.72 307.584 
" style="fill: none; stroke: #000000; stroke-width: 0.8; stroke-linejoin: miter; stroke-linecap: square"/>
   </g>
   <g id="patch_6">
    <path d="M 57.6 41.472 
L 414.72 41.472 
" style="fill: none; stroke: #000000; stroke-width: 0.8; stroke-linejoin: miter; stroke-linecap: square"/>
   </g>
  </g>
 </g>
 <defs>
  <clipPath id="p052b584e01">
   <rect x="57.6" y="41.472" width="357.12" height="266.112"/>
  </clipPath>
 </defs>
</svg>
