<?xml version="1.0" encoding="utf-8" standalone="no"?>
<!DOCTYPE svg PUBLIC "-//W3C//DTD SVG 1.1//EN"
  "http://www.w3.org/Graphics/SVG/1.1/DTD/svg11.dtd">
<svg xmlns:xlink="http://www.w3.org/1999/xlink" width="460.8pt" height="345.6pt" viewBox="0 0 460.8 345.6" xmlns="http://www.w3.org/2000/svg" version="1.1">
 <metadata>
  <rdf:RDF xmlns:dc="http://purl.org/dc/elements/1.1/" xmlns:cc="http://creativecommons.org/ns#" xmlns:rdf="http://www.w3.org/1999/02/22-rdf-syntax-ns#">
   <cc:Work>
    <dc:type rdf:resource="http://purl.org/dc/dcmitype/StillImage"/>
    <dc:date>2024-10-14T21:03:47.627604</dc:date>
    <dc:format>image/svg+xml</dc:format>
    <dc:creator>
     <cc:Agent>
      <dc:title>Matplotlib v3.6.3, https://matplotlib.org/</dc:title>
     </cc:Agent>
    </dc:creator>
   </cc:Work>
  </rdf:RDF>
 </metadata>
 <defs>
  <style type="text/css">*{stroke-linejoin: round; stroke-linecap: butt}</style>
 </defs>
 <g id="figure_1">
  <g id="patch_1">
   <path d="M 0 345.6 
L 460.8 345.6 
L 460.8 0 
L 0 0 
z
" style="fill: #ffffff"/>
  </g>
  <g id="axes_1">
   <g id="patch_2">
    <path d="M 57.6 307.584 
L 414.72 307.584 
L 414.72 41.472 
L 57.6 41.472 
z
" style="fill: #ffffff"/>
   </g>
   <g id="matplotlib.axis_1">
    <g id="xtick_1">
     <g id="line2d_1">
      <defs>
       <path id="m2a2871e256" d="M 0 0 
L 0 3.5 
" style="stroke: #000000; stroke-width: 0.8"/>
      </defs>
      <g>
       <use xlink:href="#m2a2871e256" x="73.832727" y="307.584" style="stroke: #000000; stroke-width: 0.8"/>
      </g>
     </g>
     <g id="text_1">
      <!-- 0 -->
      <g transform="translate(70.651477 322.182437) scale(0.1 -0.1)">
       <defs>
        <path id="DejaVuSans-30" d="M 2034 4250 
Q 1547 4250 1301 3770 
Q 1056 3291 1056 2328 
Q 1056 1369 1301 889 
Q 1547 409 2034 409 
Q 2525 409 2770 889 
Q 3016 1369 3016 2328 
Q 3016 3291 2770 3770 
Q 2525 4250 2034 4250 
z
M 2034 4750 
Q 2819 4750 3233 4129 
Q 3647 3509 3647 2328 
Q 3647 1150 3233 529 
Q 2819 -91 2034 -91 
Q 1250 -91 836 529 
Q 422 1150 422 2328 
Q 422 3509 836 4129 
Q 1250 4750 2034 4750 
z
" transform="scale(0.015625)"/>
       </defs>
       <use xlink:href="#DejaVuSans-30"/>
      </g>
     </g>
    </g>
    <g id="xtick_2">
     <g id="line2d_2">
      <g>
       <use xlink:href="#m2a2871e256" x="114.424693" y="307.584" style="stroke: #000000; stroke-width: 0.8"/>
      </g>
     </g>
     <g id="text_2">
      <!-- 500 -->
      <g transform="translate(104.880943 322.182437) scale(0.1 -0.1)">
       <defs>
        <path id="DejaVuSans-35" d="M 691 4666 
L 3169 4666 
L 3169 4134 
L 1269 4134 
L 1269 2991 
Q 1406 3038 1543 3061 
Q 1681 3084 1819 3084 
Q 2600 3084 3056 2656 
Q 3513 2228 3513 1497 
Q 3513 744 3044 326 
Q 2575 -91 1722 -91 
Q 1428 -91 1123 -41 
Q 819 9 494 109 
L 494 744 
Q 775 591 1075 516 
Q 1375 441 1709 441 
Q 2250 441 2565 725 
Q 2881 1009 2881 1497 
Q 2881 1984 2565 2268 
Q 2250 2553 1709 2553 
Q 1456 2553 1204 2497 
Q 953 2441 691 2322 
L 691 4666 
z
" transform="scale(0.015625)"/>
       </defs>
       <use xlink:href="#DejaVuSans-35"/>
       <use xlink:href="#DejaVuSans-30" x="63.623047"/>
       <use xlink:href="#DejaVuSans-30" x="127.246094"/>
      </g>
     </g>
    </g>
    <g id="xtick_3">
     <g id="line2d_3">
      <g>
       <use xlink:href="#m2a2871e256" x="155.01666" y="307.584" style="stroke: #000000; stroke-width: 0.8"/>
      </g>
     </g>
     <g id="text_3">
      <!-- 1000 -->
      <g transform="translate(142.29166 322.182437) scale(0.1 -0.1)">
       <defs>
        <path id="DejaVuSans-31" d="M 794 531 
L 1825 531 
L 1825 4091 
L 703 3866 
L 703 4441 
L 1819 4666 
L 2450 4666 
L 2450 531 
L 3481 531 
L 3481 0 
L 794 0 
L 794 531 
z
" transform="scale(0.015625)"/>
       </defs>
       <use xlink:href="#DejaVuSans-31"/>
       <use xlink:href="#DejaVuSans-30" x="63.623047"/>
       <use xlink:href="#DejaVuSans-30" x="127.246094"/>
       <use xlink:href="#DejaVuSans-30" x="190.869141"/>
      </g>
     </g>
    </g>
    <g id="xtick_4">
     <g id="line2d_4">
      <g>
       <use xlink:href="#m2a2871e256" x="195.608626" y="307.584" style="stroke: #000000; stroke-width: 0.8"/>
      </g>
     </g>
     <g id="text_4">
      <!-- 1500 -->
      <g transform="translate(182.883626 322.182437) scale(0.1 -0.1)">
       <use xlink:href="#DejaVuSans-31"/>
       <use xlink:href="#DejaVuSans-35" x="63.623047"/>
       <use xlink:href="#DejaVuSans-30" x="127.246094"/>
       <use xlink:href="#DejaVuSans-30" x="190.869141"/>
      </g>
     </g>
    </g>
    <g id="xtick_5">
     <g id="line2d_5">
      <g>
       <use xlink:href="#m2a2871e256" x="236.200592" y="307.584" style="stroke: #000000; stroke-width: 0.8"/>
      </g>
     </g>
     <g id="text_5">
      <!-- 2000 -->
      <g transform="translate(223.475592 322.182437) scale(0.1 -0.1)">
       <defs>
        <path id="DejaVuSans-32" d="M 1228 531 
L 3431 531 
L 3431 0 
L 469 0 
L 469 531 
Q 828 903 1448 1529 
Q 2069 2156 2228 2338 
Q 2531 2678 2651 2914 
Q 2772 3150 2772 3378 
Q 2772 3750 2511 3984 
Q 2250 4219 1831 4219 
Q 1534 4219 1204 4116 
Q 875 4013 500 3803 
L 500 4441 
Q 881 4594 1212 4672 
Q 1544 4750 1819 4750 
Q 2544 4750 2975 4387 
Q 3406 4025 3406 3419 
Q 3406 3131 3298 2873 
Q 3191 2616 2906 2266 
Q 2828 2175 2409 1742 
Q 1991 1309 1228 531 
z
" transform="scale(0.015625)"/>
       </defs>
       <use xlink:href="#DejaVuSans-32"/>
       <use xlink:href="#DejaVuSans-30" x="63.623047"/>
       <use xlink:href="#DejaVuSans-30" x="127.246094"/>
       <use xlink:href="#DejaVuSans-30" x="190.869141"/>
      </g>
     </g>
    </g>
    <g id="xtick_6">
     <g id="line2d_6">
      <g>
       <use xlink:href="#m2a2871e256" x="276.792558" y="307.584" style="stroke: #000000; stroke-width: 0.8"/>
      </g>
     </g>
     <g id="text_6">
      <!-- 2500 -->
      <g transform="translate(264.067558 322.182437) scale(0.1 -0.1)">
       <use xlink:href="#DejaVuSans-32"/>
       <use xlink:href="#DejaVuSans-35" x="63.623047"/>
       <use xlink:href="#DejaVuSans-30" x="127.246094"/>
       <use xlink:href="#DejaVuSans-30" x="190.869141"/>
      </g>
     </g>
    </g>
    <g id="xtick_7">
     <g id="line2d_7">
      <g>
       <use xlink:href="#m2a2871e256" x="317.384524" y="307.584" style="stroke: #000000; stroke-width: 0.8"/>
      </g>
     </g>
     <g id="text_7">
      <!-- 3000 -->
      <g transform="translate(304.659524 322.182437) scale(0.1 -0.1)">
       <defs>
        <path id="DejaVuSans-33" d="M 2597 2516 
Q 3050 2419 3304 2112 
Q 3559 1806 3559 1356 
Q 3559 666 3084 287 
Q 2609 -91 1734 -91 
Q 1441 -91 1130 -33 
Q 819 25 488 141 
L 488 750 
Q 750 597 1062 519 
Q 1375 441 1716 441 
Q 2309 441 2620 675 
Q 2931 909 2931 1356 
Q 2931 1769 2642 2001 
Q 2353 2234 1838 2234 
L 1294 2234 
L 1294 2753 
L 1863 2753 
Q 2328 2753 2575 2939 
Q 2822 3125 2822 3475 
Q 2822 3834 2567 4026 
Q 2313 4219 1838 4219 
Q 1578 4219 1281 4162 
Q 984 4106 628 3988 
L 628 4550 
Q 988 4650 1302 4700 
Q 1616 4750 1894 4750 
Q 2613 4750 3031 4423 
Q 3450 4097 3450 3541 
Q 3450 3153 3228 2886 
Q 3006 2619 2597 2516 
z
" transform="scale(0.015625)"/>
       </defs>
       <use xlink:href="#DejaVuSans-33"/>
       <use xlink:href="#DejaVuSans-30" x="63.623047"/>
       <use xlink:href="#DejaVuSans-30" x="127.246094"/>
       <use xlink:href="#DejaVuSans-30" x="190.869141"/>
      </g>
     </g>
    </g>
    <g id="xtick_8">
     <g id="line2d_8">
      <g>
       <use xlink:href="#m2a2871e256" x="357.97649" y="307.584" style="stroke: #000000; stroke-width: 0.8"/>
      </g>
     </g>
     <g id="text_8">
      <!-- 3500 -->
      <g transform="translate(345.25149 322.182437) scale(0.1 -0.1)">
       <use xlink:href="#DejaVuSans-33"/>
       <use xlink:href="#DejaVuSans-35" x="63.623047"/>
       <use xlink:href="#DejaVuSans-30" x="127.246094"/>
       <use xlink:href="#DejaVuSans-30" x="190.869141"/>
      </g>
     </g>
    </g>
    <g id="xtick_9">
     <g id="line2d_9">
      <g>
       <use xlink:href="#m2a2871e256" x="398.568457" y="307.584" style="stroke: #000000; stroke-width: 0.8"/>
      </g>
     </g>
     <g id="text_9">
      <!-- 4000 -->
      <g transform="translate(385.843457 322.182437) scale(0.1 -0.1)">
       <defs>
        <path id="DejaVuSans-34" d="M 2419 4116 
L 825 1625 
L 2419 1625 
L 2419 4116 
z
M 2253 4666 
L 3047 4666 
L 3047 1625 
L 3713 1625 
L 3713 1100 
L 3047 1100 
L 3047 0 
L 2419 0 
L 2419 1100 
L 313 1100 
L 313 1709 
L 2253 4666 
z
" transform="scale(0.015625)"/>
       </defs>
       <use xlink:href="#DejaVuSans-34"/>
       <use xlink:href="#DejaVuSans-30" x="63.623047"/>
       <use xlink:href="#DejaVuSans-30" x="127.246094"/>
       <use xlink:href="#DejaVuSans-30" x="190.869141"/>
      </g>
     </g>
    </g>
   </g>
   <g id="matplotlib.axis_2">
    <g id="ytick_1">
     <g id="line2d_10">
      <defs>
       <path id="m4bce4bddcf" d="M 0 0 
L -3.5 0 
" style="stroke: #000000; stroke-width: 0.8"/>
      </defs>
      <g>
       <use xlink:href="#m4bce4bddcf" x="57.6" y="295.50773" style="stroke: #000000; stroke-width: 0.8"/>
      </g>
     </g>
     <g id="text_10">
      <!-- 0.0 -->
      <g transform="translate(34.696875 299.306948) scale(0.1 -0.1)">
       <defs>
        <path id="DejaVuSans-2e" d="M 684 794 
L 1344 794 
L 1344 0 
L 684 0 
L 684 794 
z
" transform="scale(0.015625)"/>
       </defs>
       <use xlink:href="#DejaVuSans-30"/>
       <use xlink:href="#DejaVuSans-2e" x="63.623047"/>
       <use xlink:href="#DejaVuSans-30" x="95.410156"/>
      </g>
     </g>
    </g>
    <g id="ytick_2">
     <g id="line2d_11">
      <g>
       <use xlink:href="#m4bce4bddcf" x="57.6" y="245.776203" style="stroke: #000000; stroke-width: 0.8"/>
      </g>
     </g>
     <g id="text_11">
      <!-- 0.2 -->
      <g transform="translate(34.696875 249.575422) scale(0.1 -0.1)">
       <use xlink:href="#DejaVuSans-30"/>
       <use xlink:href="#DejaVuSans-2e" x="63.623047"/>
       <use xlink:href="#DejaVuSans-32" x="95.410156"/>
      </g>
     </g>
    </g>
    <g id="ytick_3">
     <g id="line2d_12">
      <g>
       <use xlink:href="#m4bce4bddcf" x="57.6" y="196.044677" style="stroke: #000000; stroke-width: 0.8"/>
      </g>
     </g>
     <g id="text_12">
      <!-- 0.4 -->
      <g transform="translate(34.696875 199.843896) scale(0.1 -0.1)">
       <use xlink:href="#DejaVuSans-30"/>
       <use xlink:href="#DejaVuSans-2e" x="63.623047"/>
       <use xlink:href="#DejaVuSans-34" x="95.410156"/>
      </g>
     </g>
    </g>
    <g id="ytick_4">
     <g id="line2d_13">
      <g>
       <use xlink:href="#m4bce4bddcf" x="57.6" y="146.313151" style="stroke: #000000; stroke-width: 0.8"/>
      </g>
     </g>
     <g id="text_13">
      <!-- 0.6 -->
      <g transform="translate(34.696875 150.11237) scale(0.1 -0.1)">
       <defs>
        <path id="DejaVuSans-36" d="M 2113 2584 
Q 1688 2584 1439 2293 
Q 1191 2003 1191 1497 
Q 1191 994 1439 701 
Q 1688 409 2113 409 
Q 2538 409 2786 701 
Q 3034 994 3034 1497 
Q 3034 2003 2786 2293 
Q 2538 2584 2113 2584 
z
M 3366 4563 
L 3366 3988 
Q 3128 4100 2886 4159 
Q 2644 4219 2406 4219 
Q 1781 4219 1451 3797 
Q 1122 3375 1075 2522 
Q 1259 2794 1537 2939 
Q 1816 3084 2150 3084 
Q 2853 3084 3261 2657 
Q 3669 2231 3669 1497 
Q 3669 778 3244 343 
Q 2819 -91 2113 -91 
Q 1303 -91 875 529 
Q 447 1150 447 2328 
Q 447 3434 972 4092 
Q 1497 4750 2381 4750 
Q 2619 4750 2861 4703 
Q 3103 4656 3366 4563 
z
" transform="scale(0.015625)"/>
       </defs>
       <use xlink:href="#DejaVuSans-30"/>
       <use xlink:href="#DejaVuSans-2e" x="63.623047"/>
       <use xlink:href="#DejaVuSans-36" x="95.410156"/>
      </g>
     </g>
    </g>
    <g id="ytick_5">
     <g id="line2d_14">
      <g>
       <use xlink:href="#m4bce4bddcf" x="57.6" y="96.581624" style="stroke: #000000; stroke-width: 0.8"/>
      </g>
     </g>
     <g id="text_14">
      <!-- 0.8 -->
      <g transform="translate(34.696875 100.380843) scale(0.1 -0.1)">
       <defs>
        <path id="DejaVuSans-38" d="M 2034 2216 
Q 1584 2216 1326 1975 
Q 1069 1734 1069 1313 
Q 1069 891 1326 650 
Q 1584 409 2034 409 
Q 2484 409 2743 651 
Q 3003 894 3003 1313 
Q 3003 1734 2745 1975 
Q 2488 2216 2034 2216 
z
M 1403 2484 
Q 997 2584 770 2862 
Q 544 3141 544 3541 
Q 544 4100 942 4425 
Q 1341 4750 2034 4750 
Q 2731 4750 3128 4425 
Q 3525 4100 3525 3541 
Q 3525 3141 3298 2862 
Q 3072 2584 2669 2484 
Q 3125 2378 3379 2068 
Q 3634 1759 3634 1313 
Q 3634 634 3220 271 
Q 2806 -91 2034 -91 
Q 1263 -91 848 271 
Q 434 634 434 1313 
Q 434 1759 690 2068 
Q 947 2378 1403 2484 
z
M 1172 3481 
Q 1172 3119 1398 2916 
Q 1625 2713 2034 2713 
Q 2441 2713 2670 2916 
Q 2900 3119 2900 3481 
Q 2900 3844 2670 4047 
Q 2441 4250 2034 4250 
Q 1625 4250 1398 4047 
Q 1172 3844 1172 3481 
z
" transform="scale(0.015625)"/>
       </defs>
       <use xlink:href="#DejaVuSans-30"/>
       <use xlink:href="#DejaVuSans-2e" x="63.623047"/>
       <use xlink:href="#DejaVuSans-38" x="95.410156"/>
      </g>
     </g>
    </g>
    <g id="ytick_6">
     <g id="line2d_15">
      <g>
       <use xlink:href="#m4bce4bddcf" x="57.6" y="46.850098" style="stroke: #000000; stroke-width: 0.8"/>
      </g>
     </g>
     <g id="text_15">
      <!-- 1.0 -->
      <g transform="translate(34.696875 50.649317) scale(0.1 -0.1)">
       <use xlink:href="#DejaVuSans-31"/>
       <use xlink:href="#DejaVuSans-2e" x="63.623047"/>
       <use xlink:href="#DejaVuSans-30" x="95.410156"/>
      </g>
     </g>
    </g>
   </g>
   <g id="line2d_16">
    <path d="M 73.832727 266.259487 
L 73.995095 232.15563 
L 74.076279 236.761252 
L 74.319831 272.209863 
L 74.482199 293.599143 
L 74.644567 291.209933 
L 74.725751 294.532197 
L 74.806934 282.64602 
L 74.888118 290.703163 
L 74.969302 290.346522 
L 75.050486 283.900116 
L 75.294038 290.563772 
L 75.375222 286.715121 
L 75.456406 289.787419 
L 75.618774 265.596081 
L 76.024693 285.708808 
L 76.105877 288.213334 
L 76.187061 272.266611 
L 76.268245 290.352319 
L 76.349429 286.603562 
L 76.430613 293.148826 
L 76.511797 286.8554 
L 76.592981 294.46789 
L 76.755349 286.358127 
L 76.917717 283.568994 
L 77.080085 291.209687 
L 77.242452 232.527277 
L 77.40482 245.154709 
L 77.486004 274.630822 
L 77.567188 272.011772 
L 77.729556 286.778068 
L 77.81074 281.538565 
L 77.891924 282.143273 
L 77.973108 282.677986 
L 78.054292 293.736821 
L 78.135476 271.237153 
L 78.21666 277.61 
L 78.297844 274.583927 
L 78.379027 293.324397 
L 78.460211 281.199164 
L 78.541395 292.665272 
L 78.622579 289.966594 
L 78.703763 285.212138 
L 78.866131 293.025 
L 78.947315 293.163444 
L 79.028499 290.298717 
L 79.109683 295.488 
L 79.353235 289.740521 
L 79.515603 275.737215 
L 79.596786 276.707859 
L 79.67797 285.256692 
L 79.759154 264.943309 
L 79.840338 265.335276 
L 79.921522 265.801585 
L 80.002706 270.182826 
L 80.08389 226.496945 
L 80.165074 234.798577 
L 80.246258 236.949512 
L 80.408626 264.034357 
L 80.652178 280.383513 
L 80.733362 270.109576 
L 80.814545 270.12858 
L 80.976913 294.62051 
L 81.058097 288.522641 
L 81.139281 292.365209 
L 81.220465 290.563595 
L 81.382833 293.757 
L 81.626385 278.867537 
L 81.788753 292.876856 
L 81.869937 294.286264 
L 81.951121 291.002673 
L 82.032304 255.217565 
L 82.113488 265.249651 
L 82.275856 281.266837 
L 82.438224 291.414246 
L 82.76296 277.665635 
L 82.925328 294.721136 
L 83.006512 292.263401 
L 83.087696 294.370937 
L 83.250063 280.085322 
L 83.331247 289.382423 
L 83.493615 281.338219 
L 83.574799 287.51013 
L 83.655983 260.056167 
L 83.737167 267.968321 
L 83.899535 277.757503 
L 83.980719 266.808115 
L 84.224271 282.662056 
L 84.305455 272.997764 
L 84.549006 282.411678 
L 84.63019 277.482905 
L 84.711374 278.673325 
L 84.954926 292.854429 
L 85.198478 262.365499 
L 85.360846 284.842915 
L 85.44203 293.467575 
L 85.604397 256.362312 
L 85.766765 259.960028 
L 86.091501 293.696457 
L 86.172685 283.552003 
L 86.253869 295.36909 
L 86.497421 268.971709 
L 86.659789 278.355877 
L 86.740973 276.96814 
L 86.822156 277.042054 
L 86.90334 280.862055 
L 86.984524 280.612884 
L 87.146892 278.315383 
L 87.228076 281.541366 
L 87.471628 269.009026 
L 87.552812 279.75405 
L 87.796364 260.524662 
L 87.877548 284.766233 
L 87.958732 274.701658 
L 88.039915 277.319556 
L 88.121099 273.0792 
L 88.202283 294.777497 
L 88.283467 290.601719 
L 88.445835 285.18749 
L 88.527019 288.335656 
L 88.770571 284.856091 
L 88.851755 286.084977 
L 88.932939 290.565935 
L 89.338858 277.330855 
L 89.420042 261.479885 
L 89.501226 282.507442 
L 89.58241 275.817222 
L 89.663594 275.542226 
L 89.744778 265.029045 
L 89.825962 283.837364 
L 89.98833 268.380105 
L 90.069514 260.838878 
L 90.150698 278.220536 
L 90.231882 272.726538 
L 90.394249 259.167459 
L 90.556617 294.911488 
L 90.718985 278.309986 
L 90.800169 279.326637 
L 91.043721 284.544444 
L 91.124905 280.08926 
L 91.287273 294.30329 
L 91.368457 269.614392 
L 91.449641 288.20493 
L 91.693192 259.511024 
L 91.85556 288.136279 
L 91.936744 289.725753 
L 92.017928 294.262385 
L 92.099112 290.568454 
L 92.180296 291.601364 
L 92.26148 293.155509 
L 92.342664 279.444605 
L 92.423848 291.096177 
L 92.505032 288.493904 
L 92.6674 279.80969 
L 92.910951 293.631858 
L 93.154503 279.98668 
L 93.235687 279.667911 
L 93.316871 276.988528 
L 93.398055 282.38679 
L 93.479239 281.087491 
L 93.560423 280.720926 
L 93.641607 276.732508 
L 93.803975 289.231788 
L 93.885159 277.733733 
L 93.966342 279.534796 
L 94.047526 295.262005 
L 94.12871 293.814568 
L 94.209894 280.370609 
L 94.291078 281.67428 
L 94.453446 291.63932 
L 94.53463 290.831541 
L 94.615814 292.323917 
L 94.696998 278.344368 
L 94.778182 281.888188 
L 94.94055 285.324688 
L 95.021734 269.208282 
L 95.102918 272.946049 
L 95.184101 274.144694 
L 95.265285 280.707277 
L 95.346469 264.047155 
L 95.427653 267.213745 
L 95.590021 278.187229 
L 95.671205 266.876016 
L 95.914757 279.269692 
L 95.995941 277.57663 
L 96.158309 286.87416 
L 96.239493 293.987175 
L 96.40186 277.363067 
L 96.564228 267.406494 
L 96.645412 242.986323 
L 96.726596 246.368529 
L 96.970148 268.365525 
L 97.051332 293.029133 
L 97.132516 291.987347 
L 97.2137 276.985146 
L 97.294884 290.148115 
L 97.457252 272.170464 
L 97.538436 275.004982 
L 97.700803 293.28275 
L 97.781987 292.405731 
L 97.863171 293.317369 
L 98.025539 286.218159 
L 98.187907 293.660726 
L 98.269091 293.168453 
L 98.593827 240.826365 
L 98.675011 241.25046 
L 98.756195 242.307107 
L 98.918562 295.146838 
L 98.999746 284.440139 
L 99.08093 282.140869 
L 99.162114 273.864194 
L 99.243298 280.337164 
L 99.730402 261.520907 
L 99.811586 262.066593 
L 99.973953 292.557953 
L 100.055137 291.210116 
L 100.136321 284.495315 
L 100.217505 255.971804 
L 100.298689 256.099204 
L 100.461057 268.763403 
L 100.542241 262.001734 
L 100.623425 264.364964 
L 100.785793 293.91011 
L 100.948161 293.460453 
L 101.029345 290.985472 
L 101.110529 263.33843 
L 101.272896 284.019584 
L 101.435264 292.771607 
L 101.516448 258.811429 
L 101.597632 259.271703 
L 102.003552 292.576961 
L 102.247104 266.262706 
L 102.409471 260.10109 
L 102.490655 277.888883 
L 102.571839 277.259825 
L 102.653023 276.657164 
L 102.734207 273.851433 
L 102.815391 277.602758 
L 103.058943 258.977616 
L 103.221311 291.61869 
L 103.302495 287.895904 
L 103.383679 290.256155 
L 103.464863 262.536667 
L 103.546047 271.2973 
L 103.62723 269.833927 
L 103.708414 271.40252 
L 103.870782 278.985978 
L 104.03315 276.341017 
L 104.114334 277.963836 
L 104.357886 274.917919 
L 104.43907 275.756371 
L 104.682622 262.199883 
L 104.763805 290.637979 
L 104.844989 288.965096 
L 104.926173 289.765627 
L 105.007357 291.797782 
L 105.169725 286.584904 
L 105.332093 290.528788 
L 105.413277 289.963434 
L 105.575645 251.046973 
L 105.656829 260.401046 
L 105.819197 292.646046 
L 105.981564 281.569236 
L 106.3063 294.796139 
L 106.387484 286.944016 
L 106.631036 293.769676 
L 106.71222 294.593584 
L 106.793404 251.929649 
L 106.874588 267.411392 
L 106.955772 264.894922 
L 107.11814 277.70848 
L 107.280507 276.502677 
L 107.442875 278.51974 
L 107.605243 276.757597 
L 107.686427 280.017 
L 107.929979 273.232842 
L 108.011163 278.058801 
L 108.092347 257.322625 
L 108.173531 277.372787 
L 108.254715 276.794746 
L 108.335899 285.691996 
L 108.417082 255.442191 
L 108.498266 265.615116 
L 108.57945 258.650953 
L 108.741818 270.291306 
L 108.823002 268.367802 
L 108.904186 268.550649 
L 109.066554 273.61567 
L 109.147738 263.206795 
L 109.228922 270.614928 
L 109.310106 292.24899 
L 109.39129 289.806567 
L 109.553658 294.727666 
L 109.716025 290.553784 
L 109.797209 290.268356 
L 109.878393 292.483228 
L 109.959577 284.552873 
L 110.040761 285.932432 
L 110.203129 290.500513 
L 110.284313 284.802946 
L 110.365497 293.715015 
L 110.446681 293.339704 
L 110.527865 286.002454 
L 110.609049 287.72487 
L 110.771416 287.0238 
L 111.014968 288.827539 
L 111.096152 293.383187 
L 111.25852 276.045241 
L 111.339704 295.059547 
L 111.420888 290.391332 
L 111.502072 289.157009 
L 111.583256 290.228166 
L 111.826808 258.460471 
L 111.907992 277.342108 
L 111.989175 266.037208 
L 112.070359 269.353022 
L 112.151543 267.398934 
L 112.232727 280.928926 
L 112.476279 268.766896 
L 112.557463 279.778987 
L 112.638647 276.850823 
L 112.719831 276.833982 
L 112.801015 274.075981 
L 112.963383 280.744755 
L 113.044567 276.590972 
L 113.125751 277.512911 
L 113.206934 281.118021 
L 113.450486 275.259097 
L 113.53167 278.365788 
L 113.775222 270.872233 
L 113.93759 291.078348 
L 114.018774 290.48071 
L 114.099958 293.411451 
L 114.181142 283.760059 
L 114.262326 289.089566 
L 114.34351 286.66792 
L 114.424693 291.828895 
L 114.587061 283.680901 
L 114.749429 285.263167 
L 114.911797 283.887797 
L 114.992981 286.632735 
L 115.074165 286.210068 
L 115.155349 286.328727 
L 115.317717 269.194331 
L 115.398901 274.40405 
L 115.480085 290.59906 
L 115.723636 261.960267 
L 115.886004 288.105819 
L 116.129556 294.814286 
L 116.21074 272.929926 
L 116.291924 274.652488 
L 116.373108 277.301192 
L 116.454292 272.122345 
L 116.61666 276.847465 
L 116.697844 277.247986 
L 116.860211 279.624624 
L 116.941395 279.404209 
L 117.184947 281.118229 
L 117.266131 280.411449 
L 117.347315 281.262143 
L 117.590867 271.419879 
L 117.672051 279.225234 
L 117.753235 263.623212 
L 117.834419 269.257391 
L 117.915603 268.037015 
L 118.07797 289.599254 
L 118.159154 285.710438 
L 118.240338 285.045719 
L 118.321522 283.111264 
L 118.402706 284.620807 
L 118.48389 283.997565 
L 118.727442 277.253125 
L 118.808626 278.820786 
L 118.970994 277.084019 
L 119.133362 290.772973 
L 119.214545 292.204184 
L 119.295729 287.508053 
L 119.376913 275.490437 
L 119.458097 278.205599 
L 119.539281 278.262496 
L 119.620465 284.489898 
L 119.701649 279.863353 
L 119.945201 284.688748 
L 120.026385 282.419112 
L 120.269937 286.8778 
L 120.432304 283.414642 
L 120.594672 285.945501 
L 120.75704 282.725154 
L 120.919408 285.420293 
L 121.000592 279.749658 
L 121.081776 281.260254 
L 121.244144 283.258095 
L 121.406512 289.849837 
L 121.487696 287.873301 
L 121.568879 291.198221 
L 121.650063 289.857258 
L 121.812431 279.069549 
L 121.893615 277.824318 
L 121.974799 281.292923 
L 122.055983 281.129674 
L 122.218351 280.317148 
L 122.299535 281.114544 
L 122.380719 281.068986 
L 122.543087 278.307499 
L 122.624271 277.677096 
L 122.705455 278.520711 
L 122.786638 277.013005 
L 122.949006 278.598692 
L 123.111374 277.5277 
L 123.192558 275.568788 
L 123.273742 278.264857 
L 123.354926 275.972254 
L 123.43611 276.987286 
L 123.517294 274.854738 
L 123.598478 278.189747 
L 123.679662 275.697228 
L 123.760846 276.967991 
L 123.84203 275.114401 
L 123.923214 295.232158 
L 124.004397 290.434107 
L 124.085581 290.858721 
L 124.329133 286.048968 
L 124.410317 288.137831 
L 124.491501 285.843466 
L 124.572685 289.998996 
L 124.653869 286.127203 
L 124.735053 289.500644 
L 124.897421 284.740044 
L 124.978605 290.022506 
L 125.059789 287.329057 
L 125.140973 292.947436 
L 125.30334 284.404926 
L 125.384524 294.926751 
L 125.465708 281.822431 
L 125.546892 286.980703 
L 125.70926 283.714446 
L 125.790444 285.057958 
L 125.871628 276.099806 
L 126.033996 293.14468 
L 126.11518 292.7919 
L 126.196364 280.589498 
L 126.277548 281.65788 
L 126.358732 281.251733 
L 126.439915 280.018218 
L 126.602283 288.912626 
L 126.683467 285.737277 
L 126.764651 287.675379 
L 126.845835 292.970943 
L 126.927019 292.774769 
L 127.089387 290.04816 
L 127.170571 291.608094 
L 127.332939 256.753187 
L 127.414123 266.479141 
L 127.495307 53.568 
L 127.57649 70.818159 
L 127.738858 105.013187 
L 127.820042 77.438585 
L 127.901226 79.354352 
L 127.98241 78.242988 
L 128.063594 83.222449 
L 128.225962 73.666055 
L 128.38833 106.033037 
L 128.631882 249.399219 
L 128.713066 273.362191 
L 128.794249 139.583093 
L 128.875433 166.480122 
L 129.037801 208.83939 
L 129.200169 164.787706 
L 129.362537 203.543345 
L 129.443721 92.829969 
L 129.524905 124.376829 
L 129.687273 202.904 
L 129.849641 85.994919 
L 129.930825 91.745319 
L 130.012008 107.725071 
L 130.25556 283.246502 
L 130.336744 281.985799 
L 130.66148 160.80475 
L 130.742664 277.817306 
L 130.823848 243.104269 
L 130.986216 198.486174 
L 131.0674 247.337451 
L 131.148584 240.766109 
L 131.310951 221.957804 
L 131.392135 269.122597 
L 131.473319 255.431189 
L 131.879239 165.744209 
L 131.960423 166.395584 
L 132.041607 286.010877 
L 132.203975 202.231639 
L 132.285159 212.134959 
L 132.366342 157.218727 
L 132.447526 167.617009 
L 132.853446 284.379614 
L 132.93463 274.025142 
L 133.096998 139.582661 
L 133.259366 115.875729 
L 133.502918 234.582457 
L 133.584101 232.857928 
L 133.746469 107.209619 
L 133.908837 113.211718 
L 133.990021 111.952755 
L 134.314757 226.824306 
L 134.477125 193.617976 
L 134.558309 191.18447 
L 134.80186 211.024987 
L 134.883044 216.780766 
L 134.964228 246.750661 
L 135.045412 237.701567 
L 135.126596 237.280549 
L 135.20778 237.862609 
L 135.370148 127.064582 
L 135.451332 127.419885 
L 135.532516 128.937002 
L 135.694884 193.618949 
L 135.857252 205.63548 
L 136.019619 245.497624 
L 136.181987 252.774722 
L 136.344355 200.944895 
L 136.425539 203.743517 
L 136.587907 213.988236 
L 136.669091 212.609004 
L 136.831459 213.665519 
L 136.912643 213.093382 
L 137.156195 208.592214 
L 137.237378 197.76521 
L 137.318562 198.699925 
L 137.48093 203.83251 
L 137.562114 210.479358 
L 137.643298 208.722155 
L 137.724482 214.157137 
L 137.805666 236.149645 
L 137.88685 221.666705 
L 137.968034 286.813183 
L 138.049218 268.805844 
L 138.130402 248.542691 
L 138.211586 290.506443 
L 138.29277 283.337241 
L 138.779873 246.208795 
L 138.942241 196.254163 
L 139.104609 184.868303 
L 139.185793 226.52542 
L 139.348161 166.435903 
L 139.510529 217.176512 
L 139.835264 245.62471 
L 139.916448 243.191087 
L 140.078816 246.261375 
L 140.403552 183.999981 
L 140.56592 225.32129 
L 140.647104 223.671932 
L 140.728288 224.584326 
L 140.809471 222.551612 
L 141.053023 259.020307 
L 141.134207 277.585907 
L 141.215391 275.43955 
L 141.296575 273.372711 
L 141.377759 274.381399 
L 141.540127 227.96948 
L 141.621311 228.901509 
L 141.702495 232.636884 
L 141.864863 292.661652 
L 141.946047 287.915446 
L 142.02723 279.733015 
L 142.108414 288.185902 
L 142.351966 275.511571 
L 142.43315 293.433386 
L 142.676702 275.595244 
L 142.757886 278.878341 
L 143.082622 194.278592 
L 143.244989 266.409764 
L 143.569725 294.352059 
L 143.650909 293.621057 
L 143.813277 283.077895 
L 143.975645 284.550626 
L 144.300381 217.632341 
L 144.462748 264.107871 
L 144.625116 271.695011 
L 144.7063 266.036243 
L 144.868668 228.150954 
L 145.355772 191.523115 
L 145.599323 209.5343 
L 145.680507 215.750498 
L 145.924059 252.212827 
L 146.005243 226.630343 
L 146.167611 244.632514 
L 146.411163 251.347729 
L 146.492347 251.752797 
L 146.573531 253.191235 
L 146.654715 233.447914 
L 146.735899 234.959029 
L 146.817082 235.934174 
L 146.898266 238.784051 
L 147.060634 295.271359 
L 147.223002 288.408398 
L 147.466554 258.703011 
L 147.547738 257.993061 
L 147.710106 212.672972 
L 147.953658 201.987127 
L 148.197209 219.947314 
L 148.278393 280.393762 
L 148.359577 278.135296 
L 148.603129 280.501019 
L 148.684313 278.502614 
L 148.927865 283.226819 
L 149.333784 199.114994 
L 149.820888 290.880634 
L 150.06444 218.333837 
L 150.389175 202.313908 
L 150.470359 201.040666 
L 150.632727 258.76323 
L 150.713911 257.573834 
L 150.795095 257.728426 
L 150.876279 287.878492 
L 151.038647 219.191451 
L 151.119831 210.91129 
L 151.282199 234.418257 
L 151.363383 234.976113 
L 151.444567 236.954716 
L 151.606934 201.706855 
L 151.688118 205.829421 
L 152.094038 245.932849 
L 152.175222 246.802784 
L 152.256406 249.176946 
L 152.499958 273.177865 
L 152.581142 275.26368 
L 152.74351 293.986348 
L 152.905877 205.929939 
L 152.987061 219.973663 
L 153.149429 273.153407 
L 153.230613 253.319935 
L 153.392981 243.783016 
L 153.798901 201.389797 
L 153.961268 218.559464 
L 154.042452 221.068306 
L 154.123636 215.193282 
L 154.367188 225.090939 
L 154.448372 217.6486 
L 154.529556 193.947614 
L 154.61074 199.731904 
L 154.773108 272.079745 
L 154.935476 192.016028 
L 155.01666 196.945597 
L 155.097844 193.175368 
L 155.260211 250.42087 
L 155.422579 271.235551 
L 155.584947 246.542565 
L 155.666131 238.673623 
L 155.909683 287.923898 
L 155.990867 289.531076 
L 156.153235 246.20135 
L 156.234419 246.386975 
L 156.315603 246.957841 
L 156.47797 216.046281 
L 156.559154 215.422319 
L 156.640338 219.64097 
L 156.721522 215.685351 
L 156.88389 231.8346 
L 156.965074 235.666047 
L 157.127442 196.45656 
L 157.208626 196.727792 
L 157.28981 202.475706 
L 157.614545 293.047536 
L 157.695729 247.255824 
L 157.858097 275.153285 
L 157.939281 282.245665 
L 158.020465 280.281107 
L 158.182833 266.893439 
L 158.264017 263.929316 
L 158.345201 282.199709 
L 158.426385 281.045835 
L 158.588753 276.46985 
L 158.832304 265.050773 
L 158.913488 264.283704 
L 158.994672 277.088313 
L 159.075856 276.108209 
L 159.319408 279.644794 
L 159.644144 217.132192 
L 159.887696 202.913097 
L 159.968879 211.556424 
L 160.131247 249.885028 
L 160.293615 277.785807 
L 160.455983 214.729763 
L 160.618351 197.35422 
L 160.861903 220.268639 
L 161.186638 232.756051 
L 161.349006 253.684367 
L 161.511374 254.522571 
L 161.673742 276.624577 
L 161.754926 273.932161 
L 161.83611 274.1829 
L 161.998478 254.792866 
L 162.160846 292.875964 
L 162.323214 201.352882 
L 162.404397 201.209374 
L 162.485581 201.619778 
L 162.566765 225.956726 
L 162.647949 220.047514 
L 162.810317 216.936231 
L 163.135053 246.583914 
L 163.297421 285.37271 
L 163.459789 267.420184 
L 163.622156 271.126324 
L 163.784524 262.368379 
L 163.946892 221.375088 
L 164.10926 226.411476 
L 164.271628 204.046087 
L 164.352812 205.016984 
L 164.433996 202.19317 
L 164.51518 221.158604 
L 164.596364 215.062703 
L 164.677548 216.524937 
L 164.758732 214.97304 
L 164.921099 251.812695 
L 165.002283 256.621213 
L 165.083467 256.279174 
L 165.245835 285.668809 
L 165.408203 295.106655 
L 165.489387 288.270531 
L 165.570571 289.027349 
L 165.651755 288.458377 
L 165.732939 287.011741 
L 165.814123 282.924265 
L 165.895307 294.447616 
L 165.97649 293.475263 
L 166.057674 288.741712 
L 166.220042 257.958093 
L 166.301226 256.927394 
L 166.38241 257.010468 
L 166.463594 198.849832 
L 166.544778 216.55163 
L 166.707146 263.768944 
L 167.113066 201.516353 
L 167.681353 266.16863 
L 167.843721 208.209986 
L 167.924905 208.371826 
L 168.006089 215.8656 
L 168.087273 264.676453 
L 168.168457 210.497984 
L 168.249641 215.472786 
L 168.330825 217.929397 
L 168.412008 238.448805 
L 168.493192 219.149714 
L 168.574376 224.434384 
L 168.65556 227.101369 
L 168.736744 265.211547 
L 169.06148 206.548192 
L 169.305032 221.362943 
L 169.386216 213.349758 
L 169.4674 290.186435 
L 169.548584 283.339785 
L 169.629767 277.547039 
L 169.710951 261.412076 
L 169.792135 263.864744 
L 169.954503 274.365049 
L 170.116871 288.194227 
L 170.279239 281.444307 
L 170.441607 258.708158 
L 170.603975 259.532287 
L 170.766342 246.321638 
L 170.92871 279.160597 
L 171.009894 264.742922 
L 171.172262 221.275479 
L 171.253446 219.023548 
L 171.415814 292.844975 
L 171.496998 285.240875 
L 171.578182 275.802158 
L 171.659366 292.634777 
L 171.821734 243.622991 
L 171.902918 235.030812 
L 171.984101 207.405856 
L 172.065285 209.522748 
L 172.227653 221.604176 
L 172.308837 268.595269 
L 172.390021 252.712904 
L 172.471205 253.656963 
L 172.552389 250.442073 
L 172.633573 208.566498 
L 172.714757 219.059603 
L 172.877125 232.282369 
L 173.039493 271.334078 
L 173.20186 244.188316 
L 173.283044 280.586453 
L 173.364228 272.267046 
L 173.688964 247.507004 
L 173.770148 249.408259 
L 173.851332 251.537596 
L 174.094884 176.079117 
L 174.176068 166.200846 
L 174.257252 229.522435 
L 174.338436 217.109472 
L 174.500803 225.192561 
L 174.581987 235.373378 
L 174.663171 282.021902 
L 174.825539 233.855201 
L 174.906723 294.918286 
L 175.069091 240.142508 
L 175.150275 232.52565 
L 175.312643 293.944597 
L 175.393827 292.731723 
L 175.475011 294.274959 
L 175.718562 141.291884 
L 175.799746 145.25424 
L 175.88093 119.139283 
L 175.962114 124.867402 
L 176.124482 139.099101 
L 176.28685 254.466932 
L 176.368034 260.496006 
L 176.449218 259.832344 
L 176.530402 240.615891 
L 176.611586 256.096126 
L 176.69277 255.72172 
L 176.773953 261.488169 
L 176.855137 251.659104 
L 177.017505 289.008717 
L 177.098689 265.981647 
L 177.179873 281.50469 
L 177.423425 239.520444 
L 177.504609 291.62782 
L 177.666977 230.981517 
L 177.748161 223.341339 
L 177.829345 189.583456 
L 178.072896 225.037865 
L 178.316448 161.663958 
L 178.478816 144.625802 
L 178.56 147.864818 
L 178.722368 150.863648 
L 178.884736 126.535948 
L 178.96592 131.33311 
L 179.371839 189.649147 
L 179.453023 176.11606 
L 179.696575 199.781708 
L 179.777759 179.781625 
L 180.021311 213.202971 
L 180.102495 282.41613 
L 180.346047 179.076725 
L 180.589598 267.716122 
L 180.751966 295.170101 
L 180.995518 239.589196 
L 181.157886 192.851633 
L 181.320254 184.359913 
L 181.401438 131.928669 
L 181.482622 137.443579 
L 181.644989 161.211813 
L 181.726173 187.189888 
L 181.888541 145.448608 
L 181.969725 139.585508 
L 182.050909 112.252844 
L 182.294461 140.330735 
L 182.456829 192.042519 
L 182.619197 197.418182 
L 182.781564 243.460564 
L 182.862748 245.637883 
L 182.943932 244.467821 
L 183.025116 206.582328 
L 183.1063 215.28377 
L 183.268668 242.797843 
L 183.349852 293.983396 
L 183.674588 172.76103 
L 183.755772 183.883845 
L 183.91814 192.192588 
L 183.999323 215.916941 
L 184.080507 286.843987 
L 184.161691 280.336347 
L 184.405243 189.268817 
L 184.729979 215.905543 
L 184.892347 211.511432 
L 184.973531 236.036429 
L 185.054715 229.283849 
L 185.217082 224.432228 
L 185.37945 286.336522 
L 185.460634 285.748113 
L 185.541818 283.321742 
L 185.866554 187.470306 
L 186.028922 253.648613 
L 186.19129 264.609937 
L 186.353658 284.335534 
L 186.516025 286.160073 
L 186.678393 260.023873 
L 186.840761 266.744074 
L 187.003129 198.368906 
L 187.084313 194.272097 
L 187.165497 200.498634 
L 187.246681 184.599768 
L 187.409049 194.069149 
L 187.490233 197.026483 
L 187.571416 177.613927 
L 187.6526 179.090744 
L 187.814968 182.450338 
L 187.896152 192.404181 
L 188.220888 289.945154 
L 188.545624 178.255597 
L 188.707992 183.981957 
L 188.870359 194.842587 
L 189.113911 183.761005 
L 189.195095 188.708777 
L 189.357463 290.657737 
L 189.438647 277.065349 
L 189.519831 223.971262 
L 189.601015 229.213757 
L 189.682199 231.433418 
L 189.763383 230.394898 
L 189.844567 246.470115 
L 190.006934 204.266921 
L 190.412854 175.118723 
L 190.73759 266.108044 
L 190.818774 257.239034 
L 190.981142 214.456381 
L 191.062326 208.563281 
L 191.305877 288.037882 
L 191.387061 272.649655 
L 191.549429 198.918034 
L 191.630613 199.799951 
L 191.711797 198.952462 
L 191.874165 257.165702 
L 191.955349 255.234151 
L 192.036533 257.485891 
L 192.117717 201.060462 
L 192.198901 212.994683 
L 192.361268 229.669666 
L 192.523636 200.530593 
L 192.60482 200.039452 
L 192.686004 197.70713 
L 193.01074 256.509875 
L 193.091924 287.894374 
L 193.254292 210.708512 
L 193.335476 201.881248 
L 193.579027 140.923781 
L 193.660211 138.715549 
L 193.984947 199.941898 
L 194.147315 146.478068 
L 194.390867 181.26455 
L 194.715603 289.597667 
L 194.959154 239.297875 
L 195.040338 246.671944 
L 195.121522 228.858409 
L 195.365074 248.214594 
L 195.527442 179.419753 
L 195.608626 170.861972 
L 195.68981 137.12278 
L 195.933362 183.140145 
L 196.014545 177.865825 
L 196.176913 130.986673 
L 196.258097 130.037245 
L 196.339281 122.453361 
L 196.501649 139.165542 
L 196.582833 144.713336 
L 196.907569 212.760901 
L 196.988753 207.00152 
L 197.069937 173.508313 
L 197.151121 178.653031 
L 197.232304 191.176857 
L 197.55704 274.136563 
L 197.638224 259.631536 
L 197.719408 224.251156 
L 197.800592 226.948209 
L 197.881776 227.795956 
L 197.96296 247.137475 
L 198.125328 221.614829 
L 198.206512 216.29853 
L 198.287696 270.780594 
L 198.450063 181.91136 
L 198.531247 170.774162 
L 198.612431 139.984358 
L 198.855983 293.833014 
L 198.937167 247.100455 
L 199.018351 248.498328 
L 199.261903 209.915806 
L 199.424271 243.758533 
L 199.505455 252.106959 
L 199.667822 196.444099 
L 199.83019 206.47492 
L 200.073742 276.719384 
L 200.154926 279.9243 
L 200.317294 245.936637 
L 200.479662 255.54365 
L 200.560846 271.741627 
L 200.723214 263.955829 
L 200.804397 261.588774 
L 200.885581 282.887013 
L 201.129133 176.989003 
L 201.210317 141.052917 
L 201.453869 168.973984 
L 201.616237 255.956834 
L 201.778605 266.00248 
L 202.10334 225.747755 
L 202.184524 221.960539 
L 202.50926 271.88305 
L 202.671628 211.239782 
L 202.752812 198.795089 
L 202.91518 140.517169 
L 203.077548 133.053566 
L 203.402283 178.081523 
L 203.483467 176.527186 
L 203.645835 173.645661 
L 203.727019 172.801785 
L 203.889387 279.619235 
L 204.051755 286.966444 
L 204.295307 251.524642 
L 204.37649 254.250039 
L 204.538858 252.651362 
L 204.701226 261.416571 
L 204.944778 171.315459 
L 205.025962 170.781451 
L 205.107146 168.739429 
L 205.269514 183.817495 
L 205.350698 186.528851 
L 205.513066 291.95596 
L 205.675433 270.049557 
L 205.837801 191.722402 
L 206.000169 170.698248 
L 206.081353 198.318647 
L 206.162537 189.749094 
L 206.324905 193.813779 
L 206.406089 118.134956 
L 206.487273 124.959512 
L 206.649641 142.999273 
L 206.730825 154.688162 
L 206.893192 149.64615 
L 206.974376 147.946792 
L 207.05556 137.483511 
L 207.299112 153.813019 
L 207.542664 241.659984 
L 207.623848 251.481098 
L 207.705032 295.447106 
L 207.948584 232.99729 
L 208.110951 290.128404 
L 208.192135 280.865558 
L 208.273319 270.957417 
L 208.435687 221.199177 
L 208.598055 215.27917 
L 208.679239 223.011583 
L 208.841607 261.446242 
L 208.922791 269.003677 
L 209.085159 130.044234 
L 209.166342 130.115396 
L 209.32871 143.426795 
L 209.653446 184.285263 
L 209.815814 199.162632 
L 209.896998 201.463906 
L 209.978182 194.594647 
L 210.14055 213.808971 
L 210.221734 220.394876 
L 210.302918 288.978128 
L 210.465285 209.395878 
L 210.546469 197.49898 
L 210.627653 137.936534 
L 210.952389 294.576146 
L 211.114757 221.534754 
L 211.195941 208.183029 
L 211.277125 215.079805 
L 211.439493 194.259121 
L 211.520677 190.060028 
L 211.60186 267.896719 
L 211.683044 266.678442 
L 211.845412 239.391609 
L 211.926596 190.731553 
L 212.088964 275.514864 
L 212.170148 237.808873 
L 212.251332 282.801496 
L 212.4137 146.421317 
L 212.494884 132.400818 
L 212.576068 139.081347 
L 212.819619 211.251448 
L 213.144355 262.533525 
L 213.306723 127.629922 
L 213.387907 133.041251 
L 213.956195 247.564721 
L 214.037378 248.773785 
L 214.118562 258.506862 
L 214.28093 166.052185 
L 214.362114 165.495893 
L 214.443298 164.123556 
L 214.524482 172.691149 
L 214.68685 293.332327 
L 214.849218 206.781844 
L 214.930402 227.197975 
L 215.09277 241.869867 
L 215.255137 129.962576 
L 215.417505 135.518092 
L 215.742241 278.249259 
L 215.823425 285.381395 
L 215.985793 236.21249 
L 216.066977 229.787942 
L 216.229345 204.1267 
L 216.310529 205.453028 
L 216.391712 209.241921 
L 216.472896 260.89833 
L 216.635264 204.738639 
L 216.716448 202.298295 
L 216.878816 181.098647 
L 217.041184 204.75356 
L 217.284736 289.073147 
L 217.36592 280.639031 
L 217.528288 240.5405 
L 217.690655 250.220249 
L 217.771839 286.379619 
L 217.934207 258.785095 
L 218.015391 257.04623 
L 218.258943 291.723128 
L 218.340127 283.141601 
L 218.421311 257.682491 
L 218.502495 294.477745 
L 218.583679 281.141668 
L 218.664863 256.028863 
L 218.746047 293.378856 
L 218.989598 184.519078 
L 219.070782 292.12793 
L 219.151966 288.086966 
L 219.23315 295.483014 
L 219.314334 285.099499 
L 219.557886 206.428179 
L 219.63907 201.197913 
L 219.720254 292.086209 
L 219.882622 222.475302 
L 220.044989 187.666913 
L 220.288541 277.809994 
L 220.532093 290.167188 
L 220.613277 290.813042 
L 220.694461 270.489836 
L 220.775645 285.413103 
L 220.856829 284.892175 
L 220.938013 291.066154 
L 221.019197 211.14717 
L 221.262748 264.526678 
L 221.343932 230.853421 
L 221.587484 292.51358 
L 221.749852 158.575472 
L 221.91222 171.32937 
L 222.074588 125.631237 
L 222.236956 138.662218 
L 222.31814 127.196959 
L 222.399323 131.282818 
L 222.561691 156.26075 
L 222.642875 292.939378 
L 222.724059 277.412539 
L 222.805243 273.467194 
L 222.967611 249.805344 
L 223.048795 295.263868 
L 223.129979 280.367057 
L 223.617082 152.608431 
L 223.860634 132.912389 
L 223.941818 128.323134 
L 224.18537 141.871125 
L 224.428922 211.535174 
L 224.510106 229.783886 
L 224.59129 207.391824 
L 224.834841 277.495573 
L 224.916025 250.415219 
L 224.997209 252.383173 
L 225.078393 246.63692 
L 225.159577 247.008331 
L 225.240761 249.100571 
L 225.403129 289.836974 
L 225.484313 281.774028 
L 225.727865 113.85312 
L 225.809049 109.898698 
L 225.971416 132.061342 
L 226.133784 139.744728 
L 226.214968 197.665643 
L 226.296152 191.490593 
L 226.377336 191.962633 
L 226.45852 190.263411 
L 226.539704 200.947702 
L 226.620888 182.986482 
L 226.702072 183.063366 
L 226.783256 181.727994 
L 226.86444 266.06132 
L 226.945624 246.444852 
L 227.107992 215.208936 
L 227.189175 214.631577 
L 227.351543 207.356116 
L 227.432727 208.483849 
L 227.513911 195.366673 
L 227.676279 202.366261 
L 227.757463 204.601687 
L 227.838647 183.328363 
L 228.082199 233.035344 
L 228.244567 204.626812 
L 228.325751 202.121819 
L 228.406934 207.11487 
L 228.488118 200.428102 
L 228.569302 212.889087 
L 228.650486 211.82344 
L 228.73167 214.490161 
L 228.812854 200.277866 
L 228.894038 201.936252 
L 228.975222 202.140461 
L 229.056406 204.189925 
L 229.13759 210.925443 
L 229.381142 276.97122 
L 229.462326 279.638843 
L 229.705877 205.753176 
L 229.949429 273.597524 
L 230.030613 281.326491 
L 230.192981 249.981127 
L 230.274165 249.936252 
L 230.355349 251.40242 
L 230.436533 232.994945 
L 230.517717 235.947336 
L 230.680085 242.821501 
L 230.842452 164.527181 
L 230.923636 165.14891 
L 231.00482 169.604875 
L 231.167188 277.885738 
L 231.329556 262.573444 
L 231.654292 191.04256 
L 231.897844 253.530909 
L 231.979027 258.456087 
L 232.060211 257.496806 
L 232.222579 195.472424 
L 232.303763 185.532004 
L 232.466131 125.593427 
L 232.628499 131.790646 
L 232.953235 155.658927 
L 233.27797 268.591514 
L 233.359154 241.727938 
L 233.440338 245.957548 
L 233.521522 244.850647 
L 233.602706 246.32779 
L 234.008626 164.020423 
L 234.08981 165.533436 
L 234.252178 177.670034 
L 234.576913 294.500583 
L 234.658097 289.267249 
L 234.901649 227.031253 
L 234.982833 273.953719 
L 235.145201 248.968923 
L 235.226385 245.20798 
L 235.307569 253.411849 
L 235.388753 294.617044 
L 235.469937 283.958067 
L 235.551121 269.570769 
L 235.713488 204.537523 
L 235.875856 220.888261 
L 236.119408 160.127549 
L 236.200592 158.310417 
L 236.281776 165.104143 
L 236.687696 281.555143 
L 236.768879 270.208396 
L 236.850063 253.170579 
L 236.931247 259.396049 
L 237.093615 284.542677 
L 237.174799 279.231928 
L 237.255983 295.17095 
L 237.418351 256.070033 
L 237.499535 251.543533 
L 237.580719 282.127326 
L 237.824271 256.757674 
L 237.905455 290.130252 
L 237.986638 273.718111 
L 238.149006 290.96684 
L 238.392558 200.515351 
L 238.473742 200.504788 
L 238.63611 159.188082 
L 238.717294 160.045319 
L 238.798478 169.91173 
L 238.960846 132.865292 
L 239.04203 129.752929 
L 239.123214 131.569507 
L 239.366765 166.918828 
L 239.447949 173.412616 
L 239.529133 217.598944 
L 239.691501 177.930882 
L 239.772685 181.174051 
L 239.853869 235.86425 
L 240.016237 175.099349 
L 240.097421 174.845317 
L 240.340973 227.619336 
L 240.50334 244.588867 
L 240.665708 211.243211 
L 240.746892 203.973552 
L 240.828076 286.366918 
L 240.990444 211.891399 
L 241.071628 196.28305 
L 241.233996 115.82185 
L 241.396364 141.343681 
L 241.477548 210.92339 
L 241.639915 133.717774 
L 241.802283 112.237003 
L 241.964651 157.289164 
L 242.045835 170.506125 
L 242.127019 144.936942 
L 242.451755 227.815473 
L 242.614123 153.868678 
L 242.695307 150.63819 
L 242.77649 126.878771 
L 243.18241 192.450668 
L 243.344778 196.955189 
L 243.425962 223.079333 
L 243.669514 203.396865 
L 243.750698 285.654296 
L 243.913066 232.648873 
L 243.994249 219.077186 
L 244.156617 184.139861 
L 244.237801 182.12069 
L 244.318985 183.846262 
L 244.643721 282.006986 
L 244.724905 288.686558 
L 244.887273 283.098903 
L 244.968457 284.74646 
L 245.049641 221.804391 
L 245.130825 233.130758 
L 245.293192 245.299487 
L 245.45556 285.07144 
L 245.699112 233.412086 
L 245.86148 240.916093 
L 245.942664 242.936642 
L 246.2674 176.597269 
L 246.429767 198.783846 
L 246.673319 201.250191 
L 246.754503 193.051402 
L 246.916871 201.117257 
L 247.160423 242.594791 
L 247.241607 250.686672 
L 247.403975 227.64823 
L 247.566342 230.342155 
L 247.647526 238.812687 
L 247.891078 213.863969 
L 247.972262 291.481523 
L 248.378182 148.13019 
L 248.54055 141.918428 
L 248.865285 201.22502 
L 249.027653 138.931193 
L 249.190021 135.632903 
L 249.271205 126.695194 
L 249.514757 135.753111 
L 249.595941 133.535262 
L 249.677125 128.051609 
L 249.758309 128.639013 
L 249.839493 130.62733 
L 250.00186 160.828121 
L 250.164228 169.473516 
L 250.326596 290.41546 
L 250.8137 217.636905 
L 250.894884 219.874462 
L 251.138436 181.488313 
L 251.219619 172.136752 
L 251.300803 183.659213 
L 251.381987 182.035533 
L 251.463171 181.893253 
L 251.544355 195.805422 
L 251.706723 253.190432 
L 251.869091 279.963237 
L 252.031459 226.788541 
L 252.112643 216.778897 
L 252.193827 222.809895 
L 252.356195 267.122625 
L 252.437378 272.71878 
L 252.518562 287.378064 
L 252.599746 278.300088 
L 252.68093 278.985326 
L 252.762114 279.22941 
L 252.843298 288.850791 
L 253.08685 260.471649 
L 253.168034 280.890828 
L 253.330402 249.984523 
L 253.411586 242.946467 
L 253.49277 289.081041 
L 253.573953 274.754061 
L 253.817505 249.702827 
L 253.979873 292.028967 
L 254.061057 278.133424 
L 254.142241 294.366049 
L 254.223425 291.345504 
L 254.385793 285.27908 
L 254.548161 261.106414 
L 254.710529 281.584351 
L 254.872896 158.939549 
L 255.035264 149.91016 
L 255.116448 122.371827 
L 255.36 154.390231 
L 255.603552 164.490602 
L 255.684736 167.849052 
L 255.847104 108.240446 
L 256.009471 149.499199 
L 256.090655 172.81995 
L 256.253023 157.931268 
L 256.334207 165.99826 
L 256.415391 273.177558 
L 256.577759 210.830119 
L 256.658943 200.700553 
L 256.821311 262.476629 
L 256.983679 234.761903 
L 257.064863 270.465702 
L 257.146047 263.440829 
L 257.389598 197.620189 
L 257.63315 292.970343 
L 257.714334 243.232194 
L 257.795518 259.037456 
L 257.957886 279.777733 
L 258.120254 194.769677 
L 258.201438 197.290834 
L 258.282622 192.940874 
L 258.363805 213.570624 
L 258.444989 208.701198 
L 258.607357 214.826051 
L 258.769725 275.566075 
L 258.850909 270.885077 
L 258.932093 276.545436 
L 259.013277 293.586472 
L 259.175645 204.159711 
L 259.256829 192.595015 
L 259.419197 234.570821 
L 259.581564 237.518596 
L 259.743932 295.48022 
L 259.987484 279.025844 
L 260.149852 287.975899 
L 260.231036 290.168557 
L 260.393404 237.657206 
L 260.555772 234.366806 
L 260.636956 250.252453 
L 260.799323 227.566072 
L 260.880507 221.391812 
L 261.042875 290.240014 
L 261.205243 271.319781 
L 261.286427 244.289903 
L 261.448795 292.290417 
L 261.529979 285.519504 
L 261.611163 288.542236 
L 261.773531 268.183156 
L 261.854715 266.079095 
L 261.935899 294.258693 
L 262.098266 258.374669 
L 262.17945 250.549035 
L 262.260634 295.094729 
L 262.341818 289.787454 
L 262.423002 290.138028 
L 262.504186 289.334682 
L 262.828922 195.457279 
L 262.910106 237.115741 
L 262.99129 225.08875 
L 263.072474 223.464732 
L 263.153658 216.991794 
L 263.234841 260.065482 
L 263.316025 254.870221 
L 263.478393 239.989971 
L 263.721945 203.503116 
L 263.803129 203.431123 
L 264.127865 270.806587 
L 264.209049 275.465915 
L 264.4526 261.722666 
L 264.614968 209.291813 
L 264.696152 209.810597 
L 264.85852 215.945452 
L 264.939704 215.580749 
L 265.102072 225.400476 
L 265.183256 261.232465 
L 265.345624 243.827491 
L 265.426808 245.060357 
L 265.507992 252.577932 
L 265.751543 294.313197 
L 265.832727 290.192607 
L 266.157463 233.570112 
L 266.319831 196.069523 
L 266.401015 186.556589 
L 266.482199 207.263014 
L 266.563383 206.982417 
L 266.725751 205.914214 
L 266.806934 280.72057 
L 266.888118 279.225048 
L 266.969302 280.111959 
L 267.050486 276.948338 
L 267.294038 294.948478 
L 267.375222 293.504907 
L 267.699958 255.956616 
L 268.105877 281.782943 
L 268.430613 216.655952 
L 268.674165 218.906553 
L 268.755349 235.950409 
L 268.836533 233.940573 
L 268.917717 233.794935 
L 268.998901 231.385367 
L 269.080085 222.698573 
L 269.323636 244.7361 
L 269.486004 286.643489 
L 269.648372 277.238845 
L 269.81074 248.875334 
L 269.891924 248.722517 
L 269.973108 250.82095 
L 270.135476 224.552515 
L 270.21666 223.568877 
L 270.297844 224.245709 
L 270.622579 290.938312 
L 270.784947 255.496954 
L 270.947315 252.748322 
L 271.028499 270.105896 
L 271.109683 269.640281 
L 271.272051 268.05202 
L 271.353235 286.389312 
L 271.596786 254.344196 
L 271.67797 252.721747 
L 271.840338 276.645679 
L 272.002706 288.590447 
L 272.165074 229.567659 
L 272.246258 217.685132 
L 272.408626 294.6406 
L 272.570994 282.212491 
L 272.733362 294.856549 
L 272.895729 286.934616 
L 273.058097 294.899512 
L 273.220465 288.896787 
L 273.382833 172.760949 
L 273.464017 164.614048 
L 273.545201 164.673537 
L 273.869937 234.040646 
L 274.032304 289.883761 
L 274.194672 279.434046 
L 274.275856 246.578966 
L 274.35704 248.974531 
L 274.438224 248.858768 
L 274.600592 253.832691 
L 274.681776 251.66147 
L 274.925328 228.781414 
L 275.006512 232.419378 
L 275.168879 246.454 
L 275.331247 288.731048 
L 275.493615 282.128467 
L 275.574799 273.601532 
L 275.818351 289.762953 
L 275.980719 280.815083 
L 276.143087 291.441101 
L 276.224271 290.312328 
L 276.305455 293.335511 
L 276.386638 293.142078 
L 276.467822 294.921624 
L 276.711374 190.312243 
L 276.873742 171.966405 
L 277.117294 199.201943 
L 277.198478 286.707849 
L 277.279662 264.731625 
L 277.44203 249.765652 
L 277.604397 294.295918 
L 277.766765 288.087954 
L 277.847949 267.499775 
L 278.091501 293.752035 
L 278.172685 290.184918 
L 278.497421 241.42673 
L 278.578605 241.404501 
L 278.740973 243.330821 
L 278.822156 265.568878 
L 278.984524 230.144508 
L 279.065708 228.681345 
L 279.146892 204.077075 
L 279.390444 240.035333 
L 279.471628 245.880826 
L 279.633996 237.691179 
L 279.71518 238.200858 
L 279.796364 248.062362 
L 279.958732 289.964013 
L 280.039915 287.432573 
L 280.202283 259.866954 
L 280.364651 246.543568 
L 280.445835 293.408568 
L 280.608203 217.621412 
L 280.689387 202.805488 
L 280.770571 213.906384 
L 280.932939 284.522729 
L 281.014123 285.874676 
L 281.095307 257.917561 
L 281.257674 294.745959 
L 281.420042 283.69965 
L 281.501226 284.77746 
L 281.663594 266.426072 
L 281.825962 198.684212 
L 282.069514 178.249738 
L 282.313066 286.071555 
L 282.394249 295.231653 
L 282.556617 220.11327 
L 282.637801 215.897147 
L 282.881353 274.143077 
L 282.962537 278.507978 
L 283.043721 291.761796 
L 283.206089 272.060144 
L 283.368457 265.963279 
L 283.530825 289.296398 
L 283.612008 294.424964 
L 283.85556 226.660089 
L 283.936744 226.21256 
L 284.099112 295.009984 
L 284.342664 280.558176 
L 284.6674 178.871237 
L 284.829767 186.164318 
L 284.910951 194.309154 
L 285.073319 279.015326 
L 285.316871 258.658976 
L 285.479239 262.508344 
L 285.560423 262.171126 
L 285.641607 272.0087 
L 285.966342 225.282318 
L 286.209894 241.594889 
L 286.372262 289.652353 
L 286.53463 281.399021 
L 286.615814 282.735691 
L 286.696998 281.894699 
L 286.859366 278.195171 
L 286.94055 259.083842 
L 287.184101 295.096 
L 287.265285 275.63764 
L 287.508837 295.446191 
L 287.671205 216.935385 
L 287.752389 218.396826 
L 287.833573 222.9992 
L 287.914757 214.762665 
L 288.564228 292.540899 
L 288.726596 274.294924 
L 288.80778 272.41513 
L 288.970148 223.970293 
L 289.132516 216.468396 
L 289.2137 207.039562 
L 289.294884 216.109279 
L 289.376068 215.841635 
L 289.457252 218.796014 
L 289.619619 259.792232 
L 289.781987 279.110864 
L 289.863171 266.608144 
L 290.106723 288.332927 
L 290.187907 295.154588 
L 290.512643 243.093984 
L 290.593827 243.727977 
L 290.675011 241.367164 
L 290.756195 243.035478 
L 290.837378 250.179353 
L 290.999746 283.059833 
L 291.08093 291.439435 
L 291.243298 245.217049 
L 291.324482 243.576834 
L 291.405666 243.918308 
L 291.568034 283.373427 
L 291.730402 267.241381 
L 291.89277 235.113203 
L 291.973953 234.859686 
L 292.055137 233.042898 
L 292.217505 276.387428 
L 292.461057 286.989273 
L 292.623425 256.085286 
L 292.704609 247.745618 
L 292.948161 282.55745 
L 293.110529 287.86619 
L 293.435264 263.794351 
L 293.597632 292.693938 
L 293.678816 292.019989 
L 293.841184 160.991233 
L 294.003552 151.123145 
L 294.084736 160.751095 
L 294.247104 269.907053 
L 294.328288 291.794119 
L 294.409471 246.222778 
L 294.571839 281.973764 
L 294.734207 292.616265 
L 295.140127 239.730952 
L 295.221311 239.707172 
L 295.302495 238.4633 
L 295.383679 282.314539 
L 295.546047 188.710848 
L 295.62723 178.344615 
L 295.789598 269.106752 
L 295.870782 248.838578 
L 296.03315 194.675066 
L 296.114334 213.599108 
L 296.276702 232.888924 
L 296.43907 281.066022 
L 296.520254 281.68702 
L 296.601438 280.921032 
L 296.926173 198.443638 
L 297.088541 294.635173 
L 297.169725 280.632604 
L 297.250909 264.515853 
L 297.332093 275.06228 
L 297.413277 271.508919 
L 297.575645 246.484567 
L 297.900381 293.765758 
L 298.143932 221.874135 
L 298.225116 216.882354 
L 298.3063 174.46495 
L 298.631036 248.114933 
L 298.71222 240.552889 
L 298.793404 240.763564 
L 298.874588 242.227457 
L 298.955772 271.181174 
L 299.11814 197.737705 
L 299.199323 185.872049 
L 299.524059 264.612494 
L 299.605243 260.225771 
L 299.767611 275.017551 
L 299.848795 277.926626 
L 300.011163 258.275041 
L 300.254715 268.878171 
L 300.417082 274.535129 
L 300.498266 277.13668 
L 300.57945 293.194586 
L 300.660634 289.663638 
L 300.823002 292.314238 
L 301.066554 277.789222 
L 301.147738 277.479262 
L 301.228922 274.902297 
L 301.39129 197.894397 
L 301.472474 192.008511 
L 301.634841 285.527836 
L 301.797209 249.289665 
L 301.959577 281.630099 
L 302.203129 272.264785 
L 302.284313 285.820789 
L 302.527865 237.150285 
L 302.690233 253.387966 
L 302.771416 256.154669 
L 303.177336 188.096113 
L 303.25852 199.806715 
L 303.502072 218.002012 
L 303.66444 288.247393 
L 303.745624 261.714537 
L 303.907992 281.338536 
L 303.989175 278.21348 
L 304.070359 281.208698 
L 304.151543 293.331866 
L 304.395095 274.152416 
L 304.476279 238.588316 
L 304.557463 241.086944 
L 304.638647 235.801758 
L 304.719831 237.840303 
L 304.801015 207.941051 
L 304.963383 279.344609 
L 305.044567 283.671787 
L 305.125751 274.731414 
L 305.288118 241.185625 
L 305.369302 235.731988 
L 305.53167 209.824224 
L 305.694038 227.807126 
L 305.775222 227.447611 
L 305.856406 204.689634 
L 305.93759 205.37421 
L 306.018774 205.761056 
L 306.099958 264.606768 
L 306.181142 262.661251 
L 306.262326 261.811302 
L 306.34351 258.997806 
L 306.424693 287.175954 
L 306.587061 244.393195 
L 306.668245 233.25885 
L 306.749429 247.887204 
L 307.074165 228.127962 
L 307.317717 175.653145 
L 307.480085 294.503098 
L 307.561268 273.776161 
L 307.80482 210.816423 
L 307.886004 210.080077 
L 308.048372 204.604893 
L 308.291924 197.546776 
L 308.61666 222.258071 
L 308.860211 289.910355 
L 309.347315 197.142211 
L 309.590867 177.156979 
L 310.240338 257.22764 
L 310.321522 252.312867 
L 310.48389 230.116004 
L 310.565074 230.329703 
L 310.970994 197.162744 
L 311.214545 210.248002 
L 311.458097 286.656834 
L 311.539281 289.945752 
L 311.701649 188.42229 
L 311.864017 182.379823 
L 311.945201 211.553406 
L 312.026385 210.391675 
L 312.188753 209.452857 
L 312.351121 238.577807 
L 312.432304 238.18627 
L 312.513488 238.824759 
L 312.675856 291.571137 
L 313.16296 213.099363 
L 313.406512 278.053866 
L 313.487696 285.612785 
L 313.568879 276.516823 
L 313.650063 285.230751 
L 313.812431 264.066372 
L 314.055983 217.241035 
L 314.137167 216.165527 
L 314.218351 193.189204 
L 314.705455 278.459016 
L 314.786638 284.564425 
L 314.949006 255.133569 
L 315.111374 252.391176 
L 315.273742 231.798988 
L 315.43611 230.778486 
L 315.517294 267.417361 
L 315.598478 259.330283 
L 315.760846 257.92583 
L 315.84203 251.105157 
L 315.923214 253.099489 
L 316.166765 270.110573 
L 316.329133 287.478096 
L 316.410317 291.281302 
L 316.491501 284.146267 
L 316.572685 289.45314 
L 316.735053 274.074602 
L 316.897421 238.488244 
L 317.140973 213.371169 
L 317.222156 220.685956 
L 317.30334 219.563435 
L 317.384524 221.22859 
L 317.465708 199.248444 
L 317.546892 206.30686 
L 317.70926 230.026203 
L 317.790444 290.805798 
L 317.871628 281.406965 
L 318.033996 265.922613 
L 318.196364 221.444282 
L 318.358732 218.197584 
L 318.521099 265.830082 
L 318.683467 267.884097 
L 318.764651 289.58215 
L 318.845835 286.342677 
L 319.089387 279.521352 
L 319.332939 249.758172 
L 319.414123 273.89811 
L 319.57649 250.903642 
L 319.657674 249.592062 
L 319.738858 210.663311 
L 319.820042 214.501258 
L 319.98241 228.749748 
L 320.063594 290.014657 
L 320.144778 268.970372 
L 320.225962 267.077217 
L 320.307146 260.724721 
L 320.38833 244.236153 
L 320.550698 256.407506 
L 320.631882 258.326913 
L 320.875433 224.236084 
L 320.956617 222.775394 
L 321.118985 289.600619 
L 321.281353 267.651157 
L 321.524905 206.481395 
L 321.606089 199.824718 
L 321.768457 293.908044 
L 321.849641 286.876851 
L 322.012008 267.448069 
L 322.174376 292.263468 
L 322.25556 294.734051 
L 322.580296 161.965532 
L 322.986216 287.226347 
L 323.0674 295.3298 
L 323.148584 294.645609 
L 323.229767 295.328864 
L 323.310951 278.04723 
L 323.392135 290.926987 
L 323.473319 286.976131 
L 323.554503 283.089506 
L 323.716871 263.612774 
L 323.798055 264.126396 
L 323.879239 266.727669 
L 323.960423 295.044319 
L 324.122791 250.593338 
L 324.285159 239.640874 
L 324.366342 262.073083 
L 324.52871 204.427623 
L 324.609894 214.448598 
L 324.93463 291.429969 
L 325.259366 232.094253 
L 325.34055 236.087474 
L 325.421734 233.094277 
L 325.502918 235.732217 
L 325.584101 221.959164 
L 325.827653 294.385323 
L 325.990021 197.075616 
L 326.152389 206.413858 
L 326.233573 195.437737 
L 326.395941 159.162469 
L 326.477125 153.521459 
L 326.720677 204.28492 
L 326.80186 212.203153 
L 326.964228 291.876686 
L 327.126596 270.822675 
L 327.288964 199.922606 
L 327.451332 203.602605 
L 327.6137 222.069497 
L 327.776068 223.417799 
L 327.857252 228.642551 
L 328.100803 288.748551 
L 328.263171 244.652312 
L 328.344355 243.851759 
L 328.425539 244.724804 
L 328.587907 182.068521 
L 328.750275 189.054146 
L 329.075011 246.209233 
L 329.156195 285.756448 
L 329.237378 285.021586 
L 329.399746 278.839248 
L 329.562114 225.947459 
L 329.724482 232.074344 
L 329.805666 246.938528 
L 329.88685 239.99849 
L 329.968034 240.393038 
L 330.049218 239.057782 
L 330.29277 263.489407 
L 330.698689 284.823366 
L 330.779873 279.60106 
L 330.861057 286.100485 
L 330.942241 285.945263 
L 331.023425 288.114202 
L 331.348161 248.44474 
L 331.510529 294.714293 
L 331.591712 294.656296 
L 331.672896 293.60462 
L 331.835264 251.806459 
L 331.997632 244.715049 
L 332.241184 286.853689 
L 332.322368 290.424802 
L 332.484736 255.595649 
L 332.56592 256.052084 
L 332.647104 255.21184 
L 332.809471 288.193808 
L 332.971839 292.907079 
L 333.215391 279.437077 
L 333.296575 273.124043 
L 333.377759 276.836181 
L 333.458943 275.812611 
L 333.702495 267.625842 
L 333.864863 245.72519 
L 333.946047 241.984724 
L 334.02723 261.658529 
L 334.108414 261.128556 
L 334.189598 261.79857 
L 334.270782 264.006089 
L 334.351966 258.144639 
L 334.676702 207.155843 
L 334.83907 230.796317 
L 334.920254 236.521583 
L 335.001438 275.421381 
L 335.163805 219.924632 
L 335.326173 202.741468 
L 335.569725 223.197069 
L 335.650909 225.854364 
L 335.813277 207.837941 
L 335.894461 205.56664 
L 336.056829 295.208788 
L 336.219197 274.919452 
L 336.381564 229.224557 
L 336.462748 231.530403 
L 336.543932 238.016627 
L 336.625116 255.180573 
L 336.7063 239.335241 
L 336.787484 240.394283 
L 336.868668 244.239693 
L 337.193404 290.543052 
L 337.51814 246.515114 
L 337.680507 293.960943 
L 337.761691 288.352618 
L 337.924059 272.270259 
L 338.005243 255.41689 
L 338.086427 258.249235 
L 338.167611 261.050404 
L 338.329979 292.881511 
L 338.411163 290.551893 
L 338.492347 290.429157 
L 338.735899 203.586889 
L 338.817082 197.412614 
L 338.898266 208.482989 
L 339.060634 256.326305 
L 339.223002 285.382991 
L 339.38537 262.206325 
L 339.466554 261.06918 
L 339.547738 285.049542 
L 339.628922 284.876959 
L 339.79129 271.832731 
L 339.953658 189.244532 
L 340.116025 186.666636 
L 340.359577 292.078082 
L 340.440761 279.166656 
L 340.521945 248.434745 
L 340.603129 291.350314 
L 340.684313 278.539528 
L 340.846681 259.02859 
L 341.090233 287.748866 
L 341.171416 259.532222 
L 341.333784 286.220285 
L 341.414968 294.197034 
L 341.577336 264.873144 
L 341.65852 263.293254 
L 341.739704 265.073996 
L 342.06444 127.533449 
L 342.470359 285.548572 
L 342.713911 253.716253 
L 342.876279 267.012966 
L 343.038647 231.813598 
L 343.119831 242.699088 
L 343.282199 278.870008 
L 343.363383 283.389155 
L 343.525751 270.049799 
L 343.688118 282.345595 
L 343.93167 232.652935 
L 344.012854 232.782971 
L 344.33759 291.741136 
L 344.418774 223.617741 
L 344.499958 234.246338 
L 344.662326 251.394052 
L 344.824693 283.292648 
L 344.987061 270.062432 
L 345.068245 289.92724 
L 345.311797 272.656123 
L 345.555349 294.992105 
L 345.636533 288.096664 
L 345.798901 250.184203 
L 345.880085 250.707702 
L 345.961268 250.877202 
L 346.042452 244.640174 
L 346.286004 256.694161 
L 346.61074 181.162995 
L 346.854292 262.555076 
L 346.935476 268.643755 
L 347.179027 206.934641 
L 347.341395 187.53985 
L 347.584947 219.19015 
L 347.666131 192.938291 
L 347.747315 194.444111 
L 347.828499 191.003947 
L 347.909683 192.677111 
L 347.990867 146.762169 
L 348.072051 156.22218 
L 348.234419 170.521942 
L 348.315603 180.572184 
L 348.559154 237.854624 
L 348.721522 222.052061 
L 348.802706 222.4213 
L 348.88389 226.600852 
L 348.965074 206.610972 
L 349.208626 236.670585 
L 349.28981 295.036164 
L 349.370994 281.803143 
L 349.533362 264.525448 
L 349.695729 220.366595 
L 349.776913 220.572127 
L 349.858097 218.037028 
L 349.939281 242.178977 
L 350.182833 215.194712 
L 350.264017 238.661121 
L 350.345201 238.101705 
L 350.426385 237.267485 
L 350.507569 233.877397 
L 350.669937 272.305667 
L 350.832304 274.796733 
L 350.994672 291.7024 
L 351.075856 295.025588 
L 351.15704 290.073808 
L 351.238224 266.978209 
L 351.400592 280.375036 
L 351.481776 282.46345 
L 351.56296 279.285704 
L 351.644144 290.317319 
L 351.806512 275.701236 
L 352.050063 192.204088 
L 352.212431 180.061785 
L 352.293615 180.737198 
L 352.374799 180.719812 
L 352.455983 178.938261 
L 352.537167 165.930988 
L 352.618351 167.082431 
L 352.699535 164.71938 
L 352.780719 165.642737 
L 353.024271 220.082577 
L 353.105455 227.198188 
L 353.43019 295.448403 
L 353.511374 267.050222 
L 353.673742 289.826369 
L 353.754926 294.851891 
L 353.917294 268.293437 
L 353.998478 270.351559 
L 354.079662 270.340163 
L 354.160846 288.544252 
L 354.24203 283.99445 
L 354.404397 268.408002 
L 354.566765 291.603928 
L 354.729133 282.47414 
L 354.891501 204.273585 
L 355.053869 195.728378 
L 355.216237 164.013944 
L 355.378605 166.243477 
L 355.540973 230.242442 
L 355.70334 238.248587 
L 355.865708 281.731869 
L 356.028076 261.80665 
L 356.190444 196.330961 
L 356.271628 196.130298 
L 356.352812 195.109251 
L 356.677548 240.378455 
L 357.002283 194.342915 
L 357.083467 190.222626 
L 357.327019 206.298368 
L 357.489387 252.272443 
L 357.651755 262.95833 
L 357.814123 290.466437 
L 357.97649 295.414248 
L 358.057674 274.024367 
L 358.138858 281.390701 
L 358.301226 290.469275 
L 358.38241 273.996679 
L 358.463594 279.200327 
L 358.544778 278.367675 
L 358.625962 279.547104 
L 358.707146 278.2932 
L 358.869514 266.818107 
L 358.950698 264.230692 
L 359.031882 289.409231 
L 359.113066 285.878453 
L 359.275433 271.842728 
L 359.356617 290.837995 
L 359.681353 231.989394 
L 359.843721 221.114464 
L 359.924905 222.206272 
L 360.087273 205.333116 
L 360.249641 213.531424 
L 360.330825 236.23981 
L 360.412008 230.185278 
L 360.574376 232.430496 
L 360.65556 241.386869 
L 360.736744 235.713769 
L 360.899112 248.145956 
L 361.06148 281.806378 
L 361.223848 288.754891 
L 361.305032 274.996792 
L 361.386216 276.05569 
L 361.4674 276.90915 
L 361.548584 279.800987 
L 361.629767 226.138083 
L 361.710951 234.654899 
L 361.873319 250.812571 
L 362.035687 295.35653 
L 362.198055 270.444531 
L 362.279239 270.466353 
L 362.522791 276.985499 
L 362.603975 237.604521 
L 362.685159 244.563455 
L 362.847526 258.163875 
L 363.009894 225.049029 
L 363.091078 226.634324 
L 363.172262 231.190676 
L 363.253446 218.339445 
L 363.496998 271.126426 
L 363.578182 281.132279 
L 363.984101 224.737554 
L 364.146469 213.041201 
L 364.227653 231.671797 
L 364.471205 213.117181 
L 364.552389 225.606768 
L 364.877125 177.571241 
L 365.120677 182.938878 
L 365.283044 203.565649 
L 365.526596 213.727648 
L 365.770148 252.607774 
L 366.176068 270.568742 
L 366.257252 269.633217 
L 366.419619 272.204109 
L 366.500803 266.93819 
L 366.663171 277.343355 
L 366.744355 278.54958 
L 366.825539 293.338623 
L 367.069091 251.015522 
L 367.475011 268.533188 
L 367.799746 253.00577 
L 368.043298 283.540988 
L 368.124482 292.493122 
L 368.368034 259.757335 
L 368.449218 271.147868 
L 369.017505 226.213356 
L 369.098689 292.842597 
L 369.179873 276.71333 
L 369.342241 268.509893 
L 369.423425 221.049628 
L 369.666977 269.549845 
L 370.316448 215.230424 
L 370.478816 292.230273 
L 370.56 285.512517 
L 370.722368 271.034574 
L 370.803552 292.559993 
L 370.884736 284.854 
L 370.96592 276.466277 
L 371.209471 173.416754 
L 371.290655 167.956123 
L 371.615391 275.855444 
L 371.696575 294.090511 
L 371.940127 280.114972 
L 372.102495 240.550738 
L 372.183679 239.017298 
L 372.264863 240.956711 
L 372.42723 280.213415 
L 372.589598 257.660427 
L 372.670782 276.322838 
L 372.83315 264.23584 
L 372.914334 260.357436 
L 372.995518 265.557988 
L 373.23907 250.035411 
L 373.401438 187.090131 
L 373.563805 196.939037 
L 373.807357 288.185937 
L 373.888541 275.134096 
L 373.969725 293.264493 
L 374.050909 289.768543 
L 374.213277 283.63135 
L 374.294461 265.982843 
L 374.538013 293.798137 
L 375.025116 187.41465 
L 375.1063 187.75502 
L 375.187484 192.77799 
L 375.268668 185.950728 
L 375.51222 233.055747 
L 375.593404 232.873957 
L 375.91814 282.101439 
L 376.161691 256.441189 
L 376.242875 246.963701 
L 376.486427 172.331001 
L 376.729979 223.902579 
L 376.811163 226.733618 
L 376.892347 256.99607 
L 376.973531 255.134463 
L 377.135899 250.050987 
L 377.217082 239.295326 
L 377.37945 272.222079 
L 377.460634 280.610413 
L 377.541818 274.56181 
L 377.704186 224.047719 
L 377.78537 214.21836 
L 377.866554 217.27615 
L 378.434841 250.0191 
L 378.678393 292.022797 
L 378.759577 291.257314 
L 379.246681 189.876843 
L 379.409049 182.578075 
L 379.571416 170.348293 
L 379.6526 170.805799 
L 379.733784 176.522677 
L 379.814968 155.298952 
L 380.220888 242.742214 
L 380.545624 291.499204 
L 380.626808 290.881244 
L 380.707992 280.945547 
L 380.951543 204.55886 
L 381.032727 196.2503 
L 381.113911 230.74306 
L 381.195095 224.928212 
L 381.357463 219.3825 
L 381.519831 254.137237 
L 381.601015 253.699048 
L 381.682199 252.635908 
L 381.925751 292.524447 
L 382.006934 295.118599 
L 382.169302 262.059135 
L 382.33167 257.383277 
L 382.494038 271.357809 
L 382.575222 269.635926 
L 382.656406 271.17342 
L 382.73759 294.728672 
L 382.818774 290.254458 
L 382.899958 289.848689 
L 382.981142 287.78362 
L 383.062326 290.547753 
L 383.14351 274.060957 
L 383.224693 274.91605 
L 383.305877 272.518209 
L 383.630613 227.066942 
L 383.711797 231.221015 
L 383.955349 220.596268 
L 384.198901 293.211767 
L 384.361268 281.906472 
L 384.442452 291.429957 
L 384.523636 287.325503 
L 384.60482 289.40924 
L 384.767188 180.546167 
L 384.929556 167.588151 
L 385.173108 200.087148 
L 385.254292 206.316295 
L 385.335476 285.820758 
L 385.41666 270.99446 
L 385.660211 252.020979 
L 386.066131 294.347848 
L 386.147315 292.660453 
L 386.228499 285.50136 
L 386.390867 222.59754 
L 386.553235 212.256952 
L 386.634419 232.004541 
L 386.715603 295.214078 
L 386.796786 278.830593 
L 386.87797 257.79689 
L 386.959154 261.411885 
L 387.121522 285.989392 
L 387.202706 291.333802 
L 387.28389 283.815244 
L 387.446258 290.270024 
L 387.527442 289.213689 
L 387.68981 233.939869 
L 387.852178 226.482642 
L 388.095729 286.964089 
L 388.176913 293.479697 
L 388.258097 228.957789 
L 388.339281 230.513841 
L 388.501649 232.253824 
L 388.664017 215.31004 
L 388.826385 213.234548 
L 388.988753 156.008642 
L 389.069937 155.890606 
L 389.151121 154.804385 
L 389.800592 285.509825 
L 389.881776 276.603043 
L 390.125328 292.278313 
L 390.450063 246.425348 
L 390.612431 287.949105 
L 390.693615 288.184466 
L 390.774799 284.884926 
L 390.937167 221.21042 
L 391.180719 238.998287 
L 391.424271 271.678038 
L 391.505455 271.313265 
L 391.667822 252.643068 
L 391.749006 252.431748 
L 391.83019 174.084804 
L 391.911374 185.765291 
L 392.154926 210.109945 
L 392.479662 277.615747 
L 392.723214 247.114844 
L 392.804397 252.911263 
L 393.047949 235.950665 
L 393.210317 206.307324 
L 393.291501 203.885201 
L 393.372685 205.972893 
L 393.453869 226.889934 
L 393.535053 225.523874 
L 393.697421 215.575361 
L 393.778605 275.51946 
L 393.859789 272.060325 
L 394.184524 239.68731 
L 394.265708 240.342846 
L 394.346892 240.616965 
L 394.671628 284.014558 
L 394.752812 271.838571 
L 394.91518 238.485134 
L 395.077548 209.835557 
L 395.158732 217.642918 
L 395.239915 218.317634 
L 395.321099 217.703779 
L 395.645835 179.157765 
L 395.727019 177.96994 
L 395.808203 171.188781 
L 395.889387 171.520372 
L 395.970571 173.722706 
L 396.051755 183.195708 
L 396.214123 223.267311 
L 396.295307 231.424086 
L 396.538858 294.914769 
L 396.701226 285.229237 
L 396.863594 263.083403 
L 396.944778 256.991421 
L 397.269514 277.918217 
L 397.350698 292.731103 
L 397.431882 288.750962 
L 397.594249 279.394091 
L 397.756617 259.387802 
L 397.837801 258.69246 
L 397.918985 259.279742 
L 398.081353 268.889197 
L 398.243721 266.280871 
L 398.406089 217.690378 
L 398.487273 215.73066 
L 398.487273 215.73066 
" clip-path="url(#pba4f130e8a)" style="fill: none; stroke: #1f77b4; stroke-width: 0.8; stroke-linecap: square"/>
   </g>
   <g id="patch_3">
    <path d="M 57.6 307.584 
L 57.6 41.472 
" style="fill: none; stroke: #000000; stroke-width: 0.8; stroke-linejoin: miter; stroke-linecap: square"/>
   </g>
   <g id="patch_4">
    <path d="M 414.72 307.584 
L 414.72 41.472 
" style="fill: none; stroke: #000000; stroke-width: 0.8; stroke-linejoin: miter; stroke-linecap: square"/>
   </g>
   <g id="patch_5">
    <path d="M 57.6 307.584 
L 414.72 307.584 
" style="fill: none; stroke: #000000; stroke-width: 0.8; stroke-linejoin: miter; stroke-linecap: square"/>
   </g>
   <g id="patch_6">
    <path d="M 57.6 41.472 
L 414.72 41.472 
" style="fill: none; stroke: #000000; stroke-width: 0.8; stroke-linejoin: miter; stroke-linecap: square"/>
   </g>
  </g>
 </g>
 <defs>
  <clipPath id="pba4f130e8a">
   <rect x="57.6" y="41.472" width="357.12" height="266.112"/>
  </clipPath>
 </defs>
</svg>
