<?xml version="1.0" encoding="utf-8" standalone="no"?>
<!DOCTYPE svg PUBLIC "-//W3C//DTD SVG 1.1//EN"
  "http://www.w3.org/Graphics/SVG/1.1/DTD/svg11.dtd">
<svg xmlns:xlink="http://www.w3.org/1999/xlink" width="460.8pt" height="345.6pt" viewBox="0 0 460.8 345.6" xmlns="http://www.w3.org/2000/svg" version="1.1">
 <metadata>
  <rdf:RDF xmlns:dc="http://purl.org/dc/elements/1.1/" xmlns:cc="http://creativecommons.org/ns#" xmlns:rdf="http://www.w3.org/1999/02/22-rdf-syntax-ns#">
   <cc:Work>
    <dc:type rdf:resource="http://purl.org/dc/dcmitype/StillImage"/>
    <dc:date>2025-04-01T08:48:57.194010</dc:date>
    <dc:format>image/svg+xml</dc:format>
    <dc:creator>
     <cc:Agent>
      <dc:title>Matplotlib v3.6.3, https://matplotlib.org/</dc:title>
     </cc:Agent>
    </dc:creator>
   </cc:Work>
  </rdf:RDF>
 </metadata>
 <defs>
  <style type="text/css">*{stroke-linejoin: round; stroke-linecap: butt}</style>
 </defs>
 <g id="figure_1">
  <g id="patch_1">
   <path d="M 0 345.6 
L 460.8 345.6 
L 460.8 0 
L 0 0 
z
" style="fill: #ffffff"/>
  </g>
  <g id="axes_1">
   <g id="patch_2">
    <path d="M 57.6 307.584 
L 414.72 307.584 
L 414.72 41.472 
L 57.6 41.472 
z
" style="fill: #ffffff"/>
   </g>
   <g id="matplotlib.axis_1">
    <g id="xtick_1">
     <g id="line2d_1">
      <defs>
       <path id="m0e2886be34" d="M 0 0 
L 0 3.5 
" style="stroke: #000000; stroke-width: 0.8"/>
      </defs>
      <g>
       <use xlink:href="#m0e2886be34" x="85.879278" y="307.584" style="stroke: #000000; stroke-width: 0.8"/>
      </g>
     </g>
     <g id="text_1">
      <!-- 2100 -->
      <g transform="translate(73.154278 322.182437) scale(0.1 -0.1)">
       <defs>
        <path id="DejaVuSans-32" d="M 1228 531 
L 3431 531 
L 3431 0 
L 469 0 
L 469 531 
Q 828 903 1448 1529 
Q 2069 2156 2228 2338 
Q 2531 2678 2651 2914 
Q 2772 3150 2772 3378 
Q 2772 3750 2511 3984 
Q 2250 4219 1831 4219 
Q 1534 4219 1204 4116 
Q 875 4013 500 3803 
L 500 4441 
Q 881 4594 1212 4672 
Q 1544 4750 1819 4750 
Q 2544 4750 2975 4387 
Q 3406 4025 3406 3419 
Q 3406 3131 3298 2873 
Q 3191 2616 2906 2266 
Q 2828 2175 2409 1742 
Q 1991 1309 1228 531 
z
" transform="scale(0.015625)"/>
        <path id="DejaVuSans-31" d="M 794 531 
L 1825 531 
L 1825 4091 
L 703 3866 
L 703 4441 
L 1819 4666 
L 2450 4666 
L 2450 531 
L 3481 531 
L 3481 0 
L 794 0 
L 794 531 
z
" transform="scale(0.015625)"/>
        <path id="DejaVuSans-30" d="M 2034 4250 
Q 1547 4250 1301 3770 
Q 1056 3291 1056 2328 
Q 1056 1369 1301 889 
Q 1547 409 2034 409 
Q 2525 409 2770 889 
Q 3016 1369 3016 2328 
Q 3016 3291 2770 3770 
Q 2525 4250 2034 4250 
z
M 2034 4750 
Q 2819 4750 3233 4129 
Q 3647 3509 3647 2328 
Q 3647 1150 3233 529 
Q 2819 -91 2034 -91 
Q 1250 -91 836 529 
Q 422 1150 422 2328 
Q 422 3509 836 4129 
Q 1250 4750 2034 4750 
z
" transform="scale(0.015625)"/>
       </defs>
       <use xlink:href="#DejaVuSans-32"/>
       <use xlink:href="#DejaVuSans-31" x="63.623047"/>
       <use xlink:href="#DejaVuSans-30" x="127.246094"/>
       <use xlink:href="#DejaVuSans-30" x="190.869141"/>
      </g>
     </g>
    </g>
    <g id="xtick_2">
     <g id="line2d_2">
      <g>
       <use xlink:href="#m0e2886be34" x="146.112032" y="307.584" style="stroke: #000000; stroke-width: 0.8"/>
      </g>
     </g>
     <g id="text_2">
      <!-- 2200 -->
      <g transform="translate(133.387032 322.182437) scale(0.1 -0.1)">
       <use xlink:href="#DejaVuSans-32"/>
       <use xlink:href="#DejaVuSans-32" x="63.623047"/>
       <use xlink:href="#DejaVuSans-30" x="127.246094"/>
       <use xlink:href="#DejaVuSans-30" x="190.869141"/>
      </g>
     </g>
    </g>
    <g id="xtick_3">
     <g id="line2d_3">
      <g>
       <use xlink:href="#m0e2886be34" x="206.344787" y="307.584" style="stroke: #000000; stroke-width: 0.8"/>
      </g>
     </g>
     <g id="text_3">
      <!-- 2300 -->
      <g transform="translate(193.619787 322.182437) scale(0.1 -0.1)">
       <defs>
        <path id="DejaVuSans-33" d="M 2597 2516 
Q 3050 2419 3304 2112 
Q 3559 1806 3559 1356 
Q 3559 666 3084 287 
Q 2609 -91 1734 -91 
Q 1441 -91 1130 -33 
Q 819 25 488 141 
L 488 750 
Q 750 597 1062 519 
Q 1375 441 1716 441 
Q 2309 441 2620 675 
Q 2931 909 2931 1356 
Q 2931 1769 2642 2001 
Q 2353 2234 1838 2234 
L 1294 2234 
L 1294 2753 
L 1863 2753 
Q 2328 2753 2575 2939 
Q 2822 3125 2822 3475 
Q 2822 3834 2567 4026 
Q 2313 4219 1838 4219 
Q 1578 4219 1281 4162 
Q 984 4106 628 3988 
L 628 4550 
Q 988 4650 1302 4700 
Q 1616 4750 1894 4750 
Q 2613 4750 3031 4423 
Q 3450 4097 3450 3541 
Q 3450 3153 3228 2886 
Q 3006 2619 2597 2516 
z
" transform="scale(0.015625)"/>
       </defs>
       <use xlink:href="#DejaVuSans-32"/>
       <use xlink:href="#DejaVuSans-33" x="63.623047"/>
       <use xlink:href="#DejaVuSans-30" x="127.246094"/>
       <use xlink:href="#DejaVuSans-30" x="190.869141"/>
      </g>
     </g>
    </g>
    <g id="xtick_4">
     <g id="line2d_4">
      <g>
       <use xlink:href="#m0e2886be34" x="266.577541" y="307.584" style="stroke: #000000; stroke-width: 0.8"/>
      </g>
     </g>
     <g id="text_4">
      <!-- 2400 -->
      <g transform="translate(253.852541 322.182437) scale(0.1 -0.1)">
       <defs>
        <path id="DejaVuSans-34" d="M 2419 4116 
L 825 1625 
L 2419 1625 
L 2419 4116 
z
M 2253 4666 
L 3047 4666 
L 3047 1625 
L 3713 1625 
L 3713 1100 
L 3047 1100 
L 3047 0 
L 2419 0 
L 2419 1100 
L 313 1100 
L 313 1709 
L 2253 4666 
z
" transform="scale(0.015625)"/>
       </defs>
       <use xlink:href="#DejaVuSans-32"/>
       <use xlink:href="#DejaVuSans-34" x="63.623047"/>
       <use xlink:href="#DejaVuSans-30" x="127.246094"/>
       <use xlink:href="#DejaVuSans-30" x="190.869141"/>
      </g>
     </g>
    </g>
    <g id="xtick_5">
     <g id="line2d_5">
      <g>
       <use xlink:href="#m0e2886be34" x="326.810295" y="307.584" style="stroke: #000000; stroke-width: 0.8"/>
      </g>
     </g>
     <g id="text_5">
      <!-- 2500 -->
      <g transform="translate(314.085295 322.182437) scale(0.1 -0.1)">
       <defs>
        <path id="DejaVuSans-35" d="M 691 4666 
L 3169 4666 
L 3169 4134 
L 1269 4134 
L 1269 2991 
Q 1406 3038 1543 3061 
Q 1681 3084 1819 3084 
Q 2600 3084 3056 2656 
Q 3513 2228 3513 1497 
Q 3513 744 3044 326 
Q 2575 -91 1722 -91 
Q 1428 -91 1123 -41 
Q 819 9 494 109 
L 494 744 
Q 775 591 1075 516 
Q 1375 441 1709 441 
Q 2250 441 2565 725 
Q 2881 1009 2881 1497 
Q 2881 1984 2565 2268 
Q 2250 2553 1709 2553 
Q 1456 2553 1204 2497 
Q 953 2441 691 2322 
L 691 4666 
z
" transform="scale(0.015625)"/>
       </defs>
       <use xlink:href="#DejaVuSans-32"/>
       <use xlink:href="#DejaVuSans-35" x="63.623047"/>
       <use xlink:href="#DejaVuSans-30" x="127.246094"/>
       <use xlink:href="#DejaVuSans-30" x="190.869141"/>
      </g>
     </g>
    </g>
    <g id="xtick_6">
     <g id="line2d_6">
      <g>
       <use xlink:href="#m0e2886be34" x="387.043049" y="307.584" style="stroke: #000000; stroke-width: 0.8"/>
      </g>
     </g>
     <g id="text_6">
      <!-- 2600 -->
      <g transform="translate(374.318049 322.182437) scale(0.1 -0.1)">
       <defs>
        <path id="DejaVuSans-36" d="M 2113 2584 
Q 1688 2584 1439 2293 
Q 1191 2003 1191 1497 
Q 1191 994 1439 701 
Q 1688 409 2113 409 
Q 2538 409 2786 701 
Q 3034 994 3034 1497 
Q 3034 2003 2786 2293 
Q 2538 2584 2113 2584 
z
M 3366 4563 
L 3366 3988 
Q 3128 4100 2886 4159 
Q 2644 4219 2406 4219 
Q 1781 4219 1451 3797 
Q 1122 3375 1075 2522 
Q 1259 2794 1537 2939 
Q 1816 3084 2150 3084 
Q 2853 3084 3261 2657 
Q 3669 2231 3669 1497 
Q 3669 778 3244 343 
Q 2819 -91 2113 -91 
Q 1303 -91 875 529 
Q 447 1150 447 2328 
Q 447 3434 972 4092 
Q 1497 4750 2381 4750 
Q 2619 4750 2861 4703 
Q 3103 4656 3366 4563 
z
" transform="scale(0.015625)"/>
       </defs>
       <use xlink:href="#DejaVuSans-32"/>
       <use xlink:href="#DejaVuSans-36" x="63.623047"/>
       <use xlink:href="#DejaVuSans-30" x="127.246094"/>
       <use xlink:href="#DejaVuSans-30" x="190.869141"/>
      </g>
     </g>
    </g>
   </g>
   <g id="matplotlib.axis_2">
    <g id="ytick_1">
     <g id="line2d_7">
      <defs>
       <path id="mf7a94dde06" d="M 0 0 
L -3.5 0 
" style="stroke: #000000; stroke-width: 0.8"/>
      </defs>
      <g>
       <use xlink:href="#mf7a94dde06" x="57.6" y="261.492589" style="stroke: #000000; stroke-width: 0.8"/>
      </g>
     </g>
     <g id="text_7">
      <!-- 0.2 -->
      <g transform="translate(34.696875 265.291807) scale(0.1 -0.1)">
       <defs>
        <path id="DejaVuSans-2e" d="M 684 794 
L 1344 794 
L 1344 0 
L 684 0 
L 684 794 
z
" transform="scale(0.015625)"/>
       </defs>
       <use xlink:href="#DejaVuSans-30"/>
       <use xlink:href="#DejaVuSans-2e" x="63.623047"/>
       <use xlink:href="#DejaVuSans-32" x="95.410156"/>
      </g>
     </g>
    </g>
    <g id="ytick_2">
     <g id="line2d_8">
      <g>
       <use xlink:href="#mf7a94dde06" x="57.6" y="208.826947" style="stroke: #000000; stroke-width: 0.8"/>
      </g>
     </g>
     <g id="text_8">
      <!-- 0.4 -->
      <g transform="translate(34.696875 212.626166) scale(0.1 -0.1)">
       <use xlink:href="#DejaVuSans-30"/>
       <use xlink:href="#DejaVuSans-2e" x="63.623047"/>
       <use xlink:href="#DejaVuSans-34" x="95.410156"/>
      </g>
     </g>
    </g>
    <g id="ytick_3">
     <g id="line2d_9">
      <g>
       <use xlink:href="#mf7a94dde06" x="57.6" y="156.161306" style="stroke: #000000; stroke-width: 0.8"/>
      </g>
     </g>
     <g id="text_9">
      <!-- 0.6 -->
      <g transform="translate(34.696875 159.960524) scale(0.1 -0.1)">
       <use xlink:href="#DejaVuSans-30"/>
       <use xlink:href="#DejaVuSans-2e" x="63.623047"/>
       <use xlink:href="#DejaVuSans-36" x="95.410156"/>
      </g>
     </g>
    </g>
    <g id="ytick_4">
     <g id="line2d_10">
      <g>
       <use xlink:href="#mf7a94dde06" x="57.6" y="103.495664" style="stroke: #000000; stroke-width: 0.8"/>
      </g>
     </g>
     <g id="text_10">
      <!-- 0.8 -->
      <g transform="translate(34.696875 107.294883) scale(0.1 -0.1)">
       <defs>
        <path id="DejaVuSans-38" d="M 2034 2216 
Q 1584 2216 1326 1975 
Q 1069 1734 1069 1313 
Q 1069 891 1326 650 
Q 1584 409 2034 409 
Q 2484 409 2743 651 
Q 3003 894 3003 1313 
Q 3003 1734 2745 1975 
Q 2488 2216 2034 2216 
z
M 1403 2484 
Q 997 2584 770 2862 
Q 544 3141 544 3541 
Q 544 4100 942 4425 
Q 1341 4750 2034 4750 
Q 2731 4750 3128 4425 
Q 3525 4100 3525 3541 
Q 3525 3141 3298 2862 
Q 3072 2584 2669 2484 
Q 3125 2378 3379 2068 
Q 3634 1759 3634 1313 
Q 3634 634 3220 271 
Q 2806 -91 2034 -91 
Q 1263 -91 848 271 
Q 434 634 434 1313 
Q 434 1759 690 2068 
Q 947 2378 1403 2484 
z
M 1172 3481 
Q 1172 3119 1398 2916 
Q 1625 2713 2034 2713 
Q 2441 2713 2670 2916 
Q 2900 3119 2900 3481 
Q 2900 3844 2670 4047 
Q 2441 4250 2034 4250 
Q 1625 4250 1398 4047 
Q 1172 3844 1172 3481 
z
" transform="scale(0.015625)"/>
       </defs>
       <use xlink:href="#DejaVuSans-30"/>
       <use xlink:href="#DejaVuSans-2e" x="63.623047"/>
       <use xlink:href="#DejaVuSans-38" x="95.410156"/>
      </g>
     </g>
    </g>
    <g id="ytick_5">
     <g id="line2d_11">
      <g>
       <use xlink:href="#mf7a94dde06" x="57.6" y="50.830023" style="stroke: #000000; stroke-width: 0.8"/>
      </g>
     </g>
     <g id="text_11">
      <!-- 1.0 -->
      <g transform="translate(34.696875 54.629242) scale(0.1 -0.1)">
       <use xlink:href="#DejaVuSans-31"/>
       <use xlink:href="#DejaVuSans-2e" x="63.623047"/>
       <use xlink:href="#DejaVuSans-30" x="95.410156"/>
      </g>
     </g>
    </g>
   </g>
   <g id="line2d_12">
    <path d="M 73.832727 232.475913 
L 74.435055 273.164924 
L 75.037382 238.297193 
L 75.63971 233.411725 
L 76.242037 224.39793 
L 76.844365 282.688365 
L 77.446693 262.177819 
L 78.651348 257.030708 
L 79.253675 87.93332 
L 80.45833 138.817402 
L 81.060658 198.815867 
L 81.662985 237.929686 
L 82.265313 262.397039 
L 82.86764 264.033575 
L 83.469968 270.789474 
L 84.072295 238.9475 
L 84.674623 242.735375 
L 85.276951 263.637024 
L 85.879278 268.412502 
L 86.481606 237.041245 
L 87.083933 243.174324 
L 87.686261 260.687327 
L 88.890916 263.997851 
L 89.493243 239.14018 
L 90.095571 232.610563 
L 90.697898 228.756365 
L 91.300226 281.581756 
L 91.902554 265.459698 
L 92.504881 256.812339 
L 93.107209 233.968364 
L 93.709536 267.642381 
L 94.311864 248.459138 
L 94.914191 247.18401 
L 95.516519 242.626481 
L 96.118846 263.123405 
L 96.721174 240.256546 
L 97.323501 240.852766 
L 97.925829 245.153645 
L 99.130484 173.609919 
L 99.732812 179.594498 
L 100.335139 192.432226 
L 100.937467 261.99289 
L 101.539794 256.215054 
L 102.142122 258.85229 
L 102.744449 260.694653 
L 103.346777 210.393426 
L 103.949104 235.86811 
L 105.153759 264.271305 
L 105.756087 165.70224 
L 106.358415 200.690924 
L 106.960742 225.082153 
L 107.56307 266.51068 
L 108.165397 234.939219 
L 108.767725 246.796766 
L 109.370052 252.622369 
L 109.97238 277.979229 
L 110.574707 109.518586 
L 111.177035 112.681317 
L 111.779362 133.9029 
L 112.38169 195.746992 
L 112.984018 102.717217 
L 113.586345 149.197568 
L 114.188673 186.376017 
L 114.791 248.476576 
L 115.393328 239.849636 
L 115.995655 294.536485 
L 116.597983 295.488 
L 117.20031 285.286528 
L 117.802638 278.829887 
L 118.404965 266.662848 
L 119.007293 261.750557 
L 119.609621 255.76458 
L 120.211948 265.68978 
L 120.814276 226.864865 
L 122.018931 203.40819 
L 122.621258 276.712493 
L 123.223586 234.195001 
L 123.825913 223.07468 
L 124.428241 206.921843 
L 125.030568 245.346168 
L 125.632896 211.119843 
L 126.235223 204.359671 
L 126.837551 203.801336 
L 127.439879 248.10668 
L 128.042206 216.011289 
L 128.644534 206.118929 
L 129.246861 200.737822 
L 129.849189 216.905126 
L 130.451516 210.056667 
L 131.053844 211.51424 
L 131.656171 226.757822 
L 132.258499 230.922841 
L 132.860826 203.63011 
L 133.463154 204.953313 
L 134.065482 208.059338 
L 134.667809 270.207322 
L 135.270137 246.098595 
L 135.872464 242.398427 
L 136.474792 243.420413 
L 137.077119 248.170228 
L 137.679447 247.426542 
L 138.281774 251.263514 
L 138.884102 250.803156 
L 139.486429 140.02062 
L 140.088757 141.924235 
L 140.691084 180.313202 
L 141.293412 243.770391 
L 141.89574 142.010443 
L 142.498067 161.327028 
L 143.100395 199.462193 
L 143.702722 255.272531 
L 144.30505 114.885846 
L 144.907377 109.129739 
L 145.509705 135.598536 
L 146.112032 192.465901 
L 146.71436 231.184859 
L 147.919015 243.683819 
L 148.521343 255.093021 
L 149.12367 254.204954 
L 149.725998 254.284704 
L 150.328325 255.000946 
L 150.930653 257.204551 
L 151.53298 250.830671 
L 152.135308 250.276764 
L 152.737635 251.7769 
L 153.94229 272.883904 
L 154.544618 271.713061 
L 155.146946 269.303896 
L 155.749273 231.02949 
L 156.351601 260.486844 
L 156.953928 260.039942 
L 157.556256 262.063552 
L 158.158583 265.273401 
L 158.760911 255.717779 
L 159.363238 253.922703 
L 159.965566 253.678415 
L 160.567893 252.954979 
L 161.170221 255.588634 
L 161.772548 255.641973 
L 162.374876 262.206413 
L 162.977204 246.059247 
L 163.579531 247.681735 
L 164.181859 245.964296 
L 164.784186 247.674512 
L 165.386514 251.809125 
L 165.988841 268.169154 
L 166.591169 276.070186 
L 167.193496 273.183808 
L 167.795824 249.426931 
L 168.398151 281.753291 
L 169.602807 227.884566 
L 170.205134 214.240442 
L 170.807462 231.196487 
L 171.409789 216.887757 
L 172.012117 211.116858 
L 172.614444 222.180701 
L 173.216772 261.002139 
L 173.819099 233.841016 
L 175.023754 211.753223 
L 175.626082 274.234838 
L 176.22841 259.332942 
L 176.830737 247.566334 
L 177.433065 227.07461 
L 178.035392 258.758335 
L 178.63772 230.276481 
L 179.240047 220.712699 
L 179.842375 214.628557 
L 180.444702 271.448748 
L 181.04703 271.575096 
L 181.649357 270.938317 
L 182.251685 273.212535 
L 182.854012 262.731833 
L 184.058668 259.043354 
L 184.660995 255.675116 
L 185.263323 260.994498 
L 185.86565 257.846483 
L 186.467978 256.119962 
L 187.070305 252.786288 
L 187.672633 254.617783 
L 188.27496 258.322319 
L 189.479615 258.427955 
L 190.081943 257.797122 
L 190.684271 261.232921 
L 191.286598 260.903336 
L 191.888926 260.746534 
L 192.491253 263.349798 
L 193.093581 256.444027 
L 193.695908 257.722192 
L 194.298236 257.986567 
L 194.900563 259.805023 
L 195.502891 259.753427 
L 196.105218 259.937791 
L 196.707546 259.798828 
L 197.309874 258.606878 
L 198.514529 258.697848 
L 199.719184 258.450831 
L 200.321511 257.904812 
L 200.923839 257.778181 
L 201.526166 256.493068 
L 202.128494 259.769119 
L 202.730821 257.193981 
L 203.333149 252.608753 
L 203.935476 240.886902 
L 204.537804 260.385715 
L 205.742459 260.711734 
L 206.344787 261.185897 
L 206.947114 259.663368 
L 207.549442 259.615079 
L 208.754097 259.81466 
L 209.356424 259.742106 
L 209.958752 261.328871 
L 210.561079 271.610367 
L 211.163407 251.77631 
L 211.765735 259.83763 
L 212.97039 259.783638 
L 213.572717 260.29694 
L 214.175045 259.752906 
L 215.3797 259.7874 
L 215.982027 260.077471 
L 216.584355 261.018304 
L 217.186682 257.586716 
L 217.78901 258.455141 
L 218.391337 255.679218 
L 218.993665 259.84726 
L 219.595993 258.916875 
L 220.19832 268.593166 
L 220.800648 261.684542 
L 221.402975 259.473121 
L 222.005303 258.9671 
L 222.60763 258.79488 
L 223.209958 258.854693 
L 223.812285 259.42341 
L 225.01694 259.271368 
L 225.619268 259.201395 
L 226.221596 259.268359 
L 228.028578 258.913923 
L 228.630906 260.160785 
L 229.233233 254.88409 
L 229.835561 272.980279 
L 230.437888 271.089577 
L 231.040216 260.626653 
L 231.642543 262.582025 
L 232.244871 269.056375 
L 232.847199 260.172354 
L 233.449526 259.370435 
L 234.051854 259.38857 
L 234.654181 259.576153 
L 235.256509 259.631296 
L 235.858836 259.854327 
L 237.063491 260.743725 
L 237.665819 263.236379 
L 238.268146 258.871179 
L 239.472801 258.973432 
L 240.075129 258.891067 
L 240.677457 260.542513 
L 241.279784 268.743419 
L 241.882112 263.841969 
L 242.484439 265.380173 
L 243.086767 277.946248 
L 243.689094 258.808659 
L 244.291422 259.018584 
L 244.893749 258.780998 
L 245.496077 260.214962 
L 246.098404 262.269292 
L 246.700732 262.803366 
L 247.30306 261.446823 
L 247.905387 259.263869 
L 249.110042 259.819197 
L 249.71237 260.299726 
L 250.314697 259.157821 
L 252.12168 259.040461 
L 253.326335 258.776563 
L 253.928663 258.890818 
L 254.53099 258.801842 
L 255.133318 262.148578 
L 256.337973 261.534968 
L 256.9403 261.901917 
L 257.542628 263.019194 
L 258.144955 262.787193 
L 258.747283 263.623623 
L 259.34961 263.836386 
L 259.951938 253.526438 
L 260.554265 252.297704 
L 261.156593 256.293022 
L 261.758921 257.424663 
L 262.361248 259.033138 
L 262.963576 258.973203 
L 264.168231 259.250761 
L 264.770558 260.175285 
L 265.975213 259.933919 
L 266.577541 259.940331 
L 267.179868 263.479052 
L 267.782196 263.663468 
L 268.384524 262.63051 
L 268.986851 263.315185 
L 269.589179 259.175461 
L 270.793834 259.680497 
L 271.396161 260.264332 
L 271.998489 259.359889 
L 273.805471 259.952161 
L 274.407799 281.322332 
L 275.010126 259.251041 
L 276.214782 259.136035 
L 276.817109 259.181072 
L 277.419437 272.136917 
L 278.021764 261.79245 
L 278.624092 260.306453 
L 279.226419 260.041854 
L 279.828747 259.593876 
L 281.033402 259.737254 
L 281.635729 259.640373 
L 282.840385 260.162217 
L 283.442712 260.713264 
L 284.04504 259.720705 
L 284.647367 259.506329 
L 285.249695 259.534507 
L 285.852022 259.675474 
L 286.45435 259.502416 
L 287.056677 260.164722 
L 287.659005 263.388235 
L 288.261332 262.910521 
L 288.86366 259.041923 
L 290.068315 259.118626 
L 291.27297 258.973549 
L 291.875298 261.414679 
L 292.477625 260.366516 
L 293.079953 260.198427 
L 293.68228 259.051797 
L 294.886935 259.142944 
L 295.489263 259.076848 
L 296.09159 259.20967 
L 297.296246 259.185607 
L 297.898573 259.026995 
L 298.500901 259.914921 
L 299.103228 259.639971 
L 299.705556 259.515857 
L 300.307883 259.664737 
L 300.910211 259.455428 
L 301.512538 260.314302 
L 302.114866 269.027344 
L 302.717193 260.381755 
L 303.319521 260.964055 
L 303.921849 262.268194 
L 304.524176 267.773701 
L 305.126504 270.850472 
L 305.728831 259.531262 
L 306.331159 259.408412 
L 307.535814 259.453772 
L 308.138141 259.668002 
L 308.740469 259.53824 
L 309.342796 259.58334 
L 309.945124 259.886114 
L 310.547452 272.131366 
L 311.149779 259.7262 
L 311.752107 259.701747 
L 312.354434 259.891073 
L 312.956762 259.536389 
L 313.559089 259.418041 
L 314.763744 259.604718 
L 315.366072 262.467506 
L 315.968399 259.257422 
L 321.991675 259.13924 
L 323.19633 259.256025 
L 324.400985 259.03568 
L 325.003313 259.23405 
L 325.60564 259.145398 
L 326.810295 259.46688 
L 327.412623 262.941453 
L 328.01495 260.369143 
L 328.617278 260.951537 
L 329.219605 260.955526 
L 329.821933 259.57162 
L 330.42426 259.425302 
L 331.026588 259.434225 
L 331.628916 259.566795 
L 332.833571 259.521743 
L 334.038226 260.00227 
L 334.640553 259.464637 
L 335.845208 259.447819 
L 337.049863 259.523919 
L 337.652191 273.476451 
L 338.254518 259.63585 
L 338.856846 259.161532 
L 339.459174 259.327524 
L 341.266156 259.141093 
L 341.868484 259.324551 
L 342.470811 259.186373 
L 343.073139 259.480367 
L 344.277794 259.432919 
L 346.084777 259.16211 
L 346.687104 259.223375 
L 347.289432 278.671628 
L 347.891759 260.975089 
L 348.494087 260.177946 
L 349.096414 276.58903 
L 349.698742 259.145119 
L 350.903397 259.031906 
L 351.505724 259.324468 
L 352.108052 259.296775 
L 352.710379 259.023129 
L 353.312707 259.313152 
L 353.915035 259.395755 
L 354.517362 259.087932 
L 355.11969 259.182751 
L 355.722017 259.040215 
L 356.324345 259.273577 
L 358.733655 259.243676 
L 359.335982 259.559685 
L 359.93831 263.818844 
L 360.540638 260.495973 
L 361.142965 259.568438 
L 361.745293 261.445891 
L 362.34762 278.81701 
L 362.949948 259.775335 
L 363.552275 268.807791 
L 364.154603 259.556487 
L 364.75693 259.503097 
L 365.359258 259.574629 
L 365.961585 259.420379 
L 366.563913 259.4109 
L 367.768568 259.698679 
L 368.370896 259.470296 
L 370.177878 259.654078 
L 370.780206 261.441147 
L 371.382533 259.728243 
L 372.587188 259.710496 
L 373.189516 259.925113 
L 373.791843 260.997263 
L 374.996499 264.513029 
L 375.598826 259.802038 
L 376.201154 259.502044 
L 377.405809 259.494393 
L 378.008136 259.400461 
L 378.610464 259.546879 
L 379.212791 260.308008 
L 379.815119 263.597643 
L 380.417446 259.455388 
L 381.019774 259.199268 
L 381.622102 259.23846 
L 382.224429 259.094114 
L 382.826757 260.956249 
L 383.429084 270.938023 
L 384.031412 267.014411 
L 384.633739 289.88008 
L 385.236067 259.321717 
L 388.850032 259.283924 
L 389.45236 259.278264 
L 390.054687 262.231257 
L 390.657015 260.074146 
L 391.86167 259.86753 
L 393.066325 260.727957 
L 393.668652 260.553264 
L 394.27098 261.121775 
L 394.873307 259.744144 
L 395.475635 259.885256 
L 396.077963 260.155271 
L 396.68029 260.549587 
L 397.282618 261.367158 
L 397.884945 264.653862 
L 398.487273 269.038441 
L 398.487273 269.038441 
" clip-path="url(#p010c0d8e32)" style="fill: none; stroke: #ff0000; stroke-width: 1.5; stroke-linecap: square"/>
   </g>
   <g id="line2d_13">
    <path d="M 73.832727 240.309706 
L 74.435055 276.897248 
L 75.037382 244.958976 
L 75.63971 239.186777 
L 76.242037 231.064151 
L 76.844365 283.307005 
L 77.446693 264.317033 
L 78.04902 263.3443 
L 78.651348 261.288047 
L 79.253675 98.3992 
L 80.45833 146.193867 
L 81.060658 203.694324 
L 81.662985 246.079517 
L 82.265313 259.118683 
L 82.86764 261.201632 
L 83.469968 269.336025 
L 84.072295 244.219578 
L 84.674623 246.849271 
L 85.276951 262.020764 
L 85.879278 269.257372 
L 86.481606 236.711634 
L 87.083933 240.311349 
L 87.686261 258.295737 
L 88.288588 265.887846 
L 88.890916 265.809697 
L 89.493243 242.789018 
L 90.095571 236.643278 
L 90.697898 233.657781 
L 91.300226 284.05672 
L 91.902554 269.047975 
L 92.504881 262.104296 
L 93.107209 240.352618 
L 93.709536 269.605613 
L 94.311864 251.199366 
L 94.914191 251.85247 
L 95.516519 247.199701 
L 96.118846 265.226294 
L 96.721174 244.068631 
L 97.323501 245.296697 
L 97.925829 250.113159 
L 98.528157 207.518548 
L 99.130484 172.893811 
L 99.732812 178.495212 
L 100.335139 193.680447 
L 100.937467 258.583112 
L 101.539794 253.479471 
L 102.142122 257.595195 
L 102.744449 262.608148 
L 103.346777 208.244896 
L 103.949104 235.21073 
L 105.153759 265.236291 
L 105.756087 191.846264 
L 106.358415 223.510388 
L 106.960742 244.29832 
L 107.56307 279.278135 
L 108.165397 246.232049 
L 108.767725 245.91638 
L 109.370052 252.514725 
L 109.97238 261.155617 
L 110.574707 138.314263 
L 111.177035 141.017919 
L 111.779362 160.052711 
L 112.38169 213.879134 
L 112.984018 127.082792 
L 114.188673 202.302596 
L 114.791 256.157788 
L 115.393328 250.315913 
L 115.995655 294.708379 
L 116.597983 294.55858 
L 117.20031 287.252508 
L 117.802638 268.393586 
L 118.404965 261.656374 
L 119.007293 259.854787 
L 119.609621 256.11472 
L 120.211948 266.178287 
L 120.814276 228.26991 
L 121.416603 221.661249 
L 122.018931 210.243135 
L 122.621258 274.531526 
L 123.223586 242.00079 
L 123.825913 232.483432 
L 124.428241 216.777198 
L 125.030568 252.206664 
L 125.632896 222.173869 
L 126.235223 214.750606 
L 126.837551 215.141645 
L 127.439879 254.450648 
L 128.042206 226.572196 
L 128.644534 215.178478 
L 129.246861 214.067173 
L 129.849189 226.822885 
L 130.451516 221.925497 
L 131.053844 222.099496 
L 131.656171 235.686217 
L 132.258499 239.833534 
L 132.860826 214.284768 
L 134.065482 218.231315 
L 134.667809 276.459427 
L 135.270137 252.516787 
L 136.474792 249.982422 
L 137.077119 236.450052 
L 137.679447 240.904795 
L 138.281774 247.611465 
L 138.884102 250.459275 
L 139.486429 161.503267 
L 140.088757 161.337497 
L 140.691084 195.405926 
L 141.293412 251.056528 
L 141.89574 163.179421 
L 142.498067 179.949101 
L 143.100395 214.848628 
L 143.702722 260.223614 
L 144.30505 130.751782 
L 144.907377 123.135569 
L 145.509705 146.701588 
L 146.112032 199.275461 
L 146.71436 57.032449 
L 147.316687 56.20404 
L 147.919015 56.98378 
L 148.521343 62.652738 
L 149.12367 53.568 
L 150.328325 58.468082 
L 150.930653 69.878934 
L 151.53298 70.9151 
L 152.135308 70.01986 
L 152.737635 82.277845 
L 153.94229 142.77312 
L 154.544618 132.708113 
L 155.146946 175.071363 
L 155.749273 201.386665 
L 156.351601 81.85421 
L 156.953928 79.557546 
L 157.556256 86.697181 
L 158.158583 106.00903 
L 158.760911 84.885624 
L 159.363238 85.873029 
L 159.965566 90.008632 
L 160.567893 100.769589 
L 161.170221 164.45079 
L 161.772548 193.607218 
L 162.374876 229.509441 
L 162.977204 236.523829 
L 163.579531 93.068703 
L 164.181859 92.009553 
L 164.784186 100.410496 
L 165.386514 124.0223 
L 165.988841 123.894244 
L 166.591169 160.050659 
L 167.193496 217.597617 
L 167.795824 244.283682 
L 168.398151 239.218743 
L 169.000479 241.883388 
L 169.602807 241.647152 
L 170.205134 218.311534 
L 170.807462 247.613838 
L 171.409789 198.943367 
L 172.012117 182.307706 
L 172.614444 179.433678 
L 173.216772 263.625476 
L 173.819099 253.420107 
L 174.421427 226.09944 
L 175.023754 191.44369 
L 175.626082 244.709328 
L 177.433065 167.149126 
L 178.035392 216.325148 
L 178.63772 170.671606 
L 179.240047 152.660488 
L 179.842375 142.498083 
L 180.444702 128.659792 
L 181.04703 129.170577 
L 181.649357 125.4469 
L 182.251685 142.774018 
L 182.854012 79.100092 
L 183.45634 73.678768 
L 184.058668 72.384773 
L 184.660995 71.828558 
L 185.263323 79.036097 
L 185.86565 75.134502 
L 186.467978 72.34207 
L 187.070305 72.357573 
L 187.672633 77.292701 
L 188.27496 72.123733 
L 188.877288 71.884775 
L 189.479615 71.965277 
L 190.081943 132.27603 
L 190.684271 76.561696 
L 191.286598 76.017715 
L 191.888926 75.960095 
L 192.491253 85.195333 
L 193.093581 71.173787 
L 193.695908 70.51218 
L 194.298236 70.816018 
L 194.900563 73.767085 
L 195.502891 73.625661 
L 196.105218 73.718824 
L 196.707546 73.517653 
L 197.309874 72.849921 
L 197.912201 72.504449 
L 199.116856 72.284894 
L 199.719184 72.445637 
L 200.923839 71.566913 
L 201.526166 72.508685 
L 202.128494 74.721522 
L 203.333149 77.298509 
L 203.935476 91.551581 
L 204.537804 80.571206 
L 205.140132 80.748634 
L 205.742459 80.437539 
L 206.344787 81.913123 
L 206.947114 74.223856 
L 207.549442 74.018626 
L 208.151769 74.061465 
L 208.754097 74.234975 
L 209.356424 75.312589 
L 209.958752 82.519422 
L 210.561079 126.392674 
L 211.163407 75.434094 
L 212.368062 74.993929 
L 212.97039 75.043604 
L 213.572717 75.581273 
L 214.175045 75.301207 
L 214.777372 74.835609 
L 215.3797 75.090946 
L 215.982027 75.693685 
L 216.584355 95.362498 
L 217.186682 74.263971 
L 217.78901 72.204676 
L 218.391337 74.01308 
L 218.993665 73.038964 
L 219.595993 83.043281 
L 220.19832 124.686822 
L 220.800648 83.018546 
L 221.402975 74.430488 
L 222.005303 70.915362 
L 223.209958 71.416323 
L 223.812285 72.820904 
L 226.221596 72.872022 
L 227.426251 72.549253 
L 228.028578 72.61691 
L 228.630906 78.25162 
L 229.233233 231.845872 
L 229.835561 261.30631 
L 230.437888 143.50709 
L 231.040216 74.190653 
L 232.244871 138.802063 
L 232.847199 79.655333 
L 233.449526 74.044718 
L 234.051854 73.781833 
L 234.654181 73.784574 
L 235.256509 73.982742 
L 237.063491 78.472573 
L 237.665819 86.669589 
L 238.268146 71.884346 
L 238.870474 72.333102 
L 240.075129 72.783076 
L 240.677457 95.139766 
L 241.279784 107.796372 
L 241.882112 85.180346 
L 242.484439 94.302771 
L 243.086767 150.50106 
L 243.689094 73.131489 
L 244.291422 73.147128 
L 244.893749 73.628387 
L 245.496077 73.678731 
L 246.098404 77.523978 
L 246.700732 153.138233 
L 247.30306 85.175285 
L 247.905387 73.947069 
L 249.110042 74.624441 
L 249.71237 76.116911 
L 250.314697 73.318143 
L 250.917025 73.048217 
L 252.12168 73.28326 
L 252.724007 72.946841 
L 253.326335 73.024445 
L 253.928663 73.554245 
L 254.53099 76.593875 
L 255.133318 82.81699 
L 255.735645 81.015632 
L 256.337973 80.295851 
L 256.9403 79.778493 
L 257.542628 85.504948 
L 258.144955 84.142856 
L 258.747283 86.53002 
L 259.34961 87.094298 
L 259.951938 76.402626 
L 260.554265 87.774591 
L 261.156593 89.138339 
L 261.758921 134.506021 
L 262.361248 72.818092 
L 263.565903 73.440108 
L 264.168231 75.196602 
L 264.770558 73.761592 
L 265.372886 73.614559 
L 265.975213 73.68486 
L 266.577541 73.983368 
L 267.179868 80.721145 
L 267.782196 81.532826 
L 268.384524 94.259149 
L 268.986851 135.20609 
L 269.589179 73.72188 
L 270.793834 74.153411 
L 271.396161 75.396543 
L 271.998489 73.37709 
L 273.203144 73.818821 
L 273.805471 74.683696 
L 274.407799 167.479269 
L 275.010126 73.828166 
L 275.612454 73.855884 
L 276.214782 74.112785 
L 276.817109 73.686555 
L 277.419437 135.338053 
L 278.021764 78.499075 
L 278.624092 75.39206 
L 279.828747 73.406291 
L 280.431074 73.438809 
L 281.033402 73.58599 
L 281.635729 73.536323 
L 282.238057 73.745946 
L 282.840385 74.365982 
L 283.442712 76.100659 
L 284.04504 73.538781 
L 284.647367 73.299534 
L 286.45435 73.405915 
L 287.056677 74.683999 
L 287.659005 84.928001 
L 288.261332 99.546765 
L 288.86366 73.925546 
L 289.465988 73.421898 
L 290.068315 73.42616 
L 291.27297 73.697753 
L 291.875298 78.321419 
L 292.477625 74.615895 
L 293.079953 74.318414 
L 293.68228 75.333263 
L 294.284608 73.409448 
L 295.489263 73.554476 
L 296.09159 73.247752 
L 297.296246 73.351868 
L 297.898573 73.737008 
L 298.500901 74.325686 
L 299.103228 73.34127 
L 300.910211 73.381103 
L 301.512538 75.106136 
L 302.114866 109.243207 
L 302.717193 81.95463 
L 303.319521 78.301844 
L 303.921849 80.754209 
L 305.126504 122.507668 
L 305.728831 73.49553 
L 306.331159 73.284553 
L 307.535814 73.366475 
L 308.138141 73.965784 
L 308.740469 73.459657 
L 309.945124 73.872604 
L 310.547452 125.505216 
L 311.149779 73.869414 
L 311.752107 73.837374 
L 312.354434 73.94166 
L 312.956762 73.150747 
L 313.559089 72.998681 
L 314.763744 73.263169 
L 315.366072 79.584147 
L 315.968399 74.407976 
L 316.570727 74.009229 
L 317.173054 74.044627 
L 317.775382 73.568409 
L 318.37771 73.392312 
L 320.184692 73.46112 
L 320.78702 73.293638 
L 323.19633 73.403572 
L 323.798657 73.648476 
L 324.400985 74.179498 
L 325.003313 73.565424 
L 325.60564 73.915842 
L 326.207968 74.792934 
L 326.810295 79.66894 
L 327.412623 85.904002 
L 328.01495 75.671158 
L 328.617278 76.245501 
L 329.219605 77.687021 
L 329.821933 73.763533 
L 330.42426 73.296788 
L 333.435898 73.514864 
L 334.038226 73.922771 
L 334.640553 73.411859 
L 335.242881 73.292597 
L 336.447536 73.393149 
L 337.049863 73.503808 
L 337.652191 175.634409 
L 338.254518 78.044857 
L 338.856846 75.197238 
L 339.459174 74.23869 
L 340.061501 73.631426 
L 340.663829 73.775411 
L 341.266156 74.269449 
L 341.868484 74.224726 
L 342.470811 73.875598 
L 343.073139 74.00796 
L 343.675466 74.71426 
L 344.277794 73.489259 
L 344.880121 73.288414 
L 345.482449 73.316579 
L 346.687104 73.72854 
L 347.289432 150.107679 
L 347.891759 76.712746 
L 348.494087 75.07461 
L 349.096414 148.954107 
L 349.698742 73.52261 
L 350.301069 73.592434 
L 350.903397 73.787726 
L 351.505724 73.49182 
L 352.108052 73.530574 
L 352.710379 73.988859 
L 353.312707 75.525164 
L 354.517362 73.417293 
L 355.11969 73.43772 
L 355.722017 73.649222 
L 356.324345 73.284497 
L 358.733655 73.325051 
L 359.335982 78.451814 
L 359.93831 90.147644 
L 360.540638 76.713353 
L 361.142965 73.433724 
L 361.745293 78.625387 
L 362.34762 186.908332 
L 362.949948 80.712907 
L 363.552275 109.110746 
L 364.154603 73.590838 
L 364.75693 73.518639 
L 365.359258 73.608168 
L 365.961585 73.268626 
L 367.166241 73.439942 
L 367.768568 73.84803 
L 368.370896 73.535943 
L 368.973223 73.351253 
L 370.177878 73.618342 
L 370.780206 80.654894 
L 371.382533 73.612938 
L 372.587188 73.782681 
L 373.189516 75.197149 
L 373.791843 78.356798 
L 374.394171 85.139973 
L 374.996499 88.384921 
L 375.598826 74.472911 
L 376.201154 73.485614 
L 376.803481 73.429905 
L 377.405809 73.620549 
L 378.008136 73.343777 
L 378.610464 73.686454 
L 379.212791 76.212802 
L 379.815119 95.829659 
L 380.417446 74.04665 
L 381.019774 73.370778 
L 382.224429 73.48278 
L 382.826757 80.433689 
L 383.429084 127.399896 
L 384.031412 108.407705 
L 384.633739 210.095567 
L 385.236067 73.486772 
L 385.838394 73.303189 
L 387.043049 73.369645 
L 387.645377 73.230001 
L 388.850032 73.259044 
L 389.45236 73.399281 
L 390.054687 82.276677 
L 390.657015 75.198012 
L 391.259342 74.730463 
L 391.86167 74.479462 
L 392.463997 76.69084 
L 393.066325 77.917015 
L 393.668652 77.713909 
L 394.27098 77.970403 
L 394.873307 74.477875 
L 395.475635 74.564195 
L 396.077963 74.832396 
L 397.282618 78.174001 
L 397.884945 86.682139 
L 398.487273 109.524821 
L 398.487273 109.524821 
" clip-path="url(#p010c0d8e32)" style="fill: none; stroke: #808080; stroke-width: 1.5; stroke-linecap: square"/>
   </g>
   <g id="patch_3">
    <path d="M 57.6 307.584 
L 57.6 41.472 
" style="fill: none; stroke: #000000; stroke-width: 0.8; stroke-linejoin: miter; stroke-linecap: square"/>
   </g>
   <g id="patch_4">
    <path d="M 414.72 307.584 
L 414.72 41.472 
" style="fill: none; stroke: #000000; stroke-width: 0.8; stroke-linejoin: miter; stroke-linecap: square"/>
   </g>
   <g id="patch_5">
    <path d="M 57.6 307.584 
L 414.72 307.584 
" style="fill: none; stroke: #000000; stroke-width: 0.8; stroke-linejoin: miter; stroke-linecap: square"/>
   </g>
   <g id="patch_6">
    <path d="M 57.6 41.472 
L 414.72 41.472 
" style="fill: none; stroke: #000000; stroke-width: 0.8; stroke-linejoin: miter; stroke-linecap: square"/>
   </g>
  </g>
 </g>
 <defs>
  <clipPath id="p010c0d8e32">
   <rect x="57.6" y="41.472" width="357.12" height="266.112"/>
  </clipPath>
 </defs>
</svg>
