<?xml version="1.0" encoding="utf-8" standalone="no"?>
<!DOCTYPE svg PUBLIC "-//W3C//DTD SVG 1.1//EN"
  "http://www.w3.org/Graphics/SVG/1.1/DTD/svg11.dtd">
<svg xmlns:xlink="http://www.w3.org/1999/xlink" width="460.8pt" height="345.6pt" viewBox="0 0 460.8 345.6" xmlns="http://www.w3.org/2000/svg" version="1.1">
 <metadata>
  <rdf:RDF xmlns:dc="http://purl.org/dc/elements/1.1/" xmlns:cc="http://creativecommons.org/ns#" xmlns:rdf="http://www.w3.org/1999/02/22-rdf-syntax-ns#">
   <cc:Work>
    <dc:type rdf:resource="http://purl.org/dc/dcmitype/StillImage"/>
    <dc:date>2025-03-19T22:08:52.473620</dc:date>
    <dc:format>image/svg+xml</dc:format>
    <dc:creator>
     <cc:Agent>
      <dc:title>Matplotlib v3.6.3, https://matplotlib.org/</dc:title>
     </cc:Agent>
    </dc:creator>
   </cc:Work>
  </rdf:RDF>
 </metadata>
 <defs>
  <style type="text/css">*{stroke-linejoin: round; stroke-linecap: butt}</style>
 </defs>
 <g id="figure_1">
  <g id="patch_1">
   <path d="M 0 345.6 
L 460.8 345.6 
L 460.8 0 
L 0 0 
z
" style="fill: #ffffff"/>
  </g>
  <g id="axes_1">
   <g id="patch_2">
    <path d="M 57.6 307.584 
L 414.72 307.584 
L 414.72 41.472 
L 57.6 41.472 
z
" style="fill: #ffffff"/>
   </g>
   <g id="matplotlib.axis_1">
    <g id="xtick_1">
     <g id="line2d_1">
      <defs>
       <path id="m60f91bc01b" d="M 0 0 
L 0 3.5 
" style="stroke: #000000; stroke-width: 0.8"/>
      </defs>
      <g>
       <use xlink:href="#m60f91bc01b" x="73.832727" y="307.584" style="stroke: #000000; stroke-width: 0.8"/>
      </g>
     </g>
     <g id="text_1">
      <!-- 800 -->
      <g transform="translate(64.288977 322.182437) scale(0.1 -0.1)">
       <defs>
        <path id="DejaVuSans-38" d="M 2034 2216 
Q 1584 2216 1326 1975 
Q 1069 1734 1069 1313 
Q 1069 891 1326 650 
Q 1584 409 2034 409 
Q 2484 409 2743 651 
Q 3003 894 3003 1313 
Q 3003 1734 2745 1975 
Q 2488 2216 2034 2216 
z
M 1403 2484 
Q 997 2584 770 2862 
Q 544 3141 544 3541 
Q 544 4100 942 4425 
Q 1341 4750 2034 4750 
Q 2731 4750 3128 4425 
Q 3525 4100 3525 3541 
Q 3525 3141 3298 2862 
Q 3072 2584 2669 2484 
Q 3125 2378 3379 2068 
Q 3634 1759 3634 1313 
Q 3634 634 3220 271 
Q 2806 -91 2034 -91 
Q 1263 -91 848 271 
Q 434 634 434 1313 
Q 434 1759 690 2068 
Q 947 2378 1403 2484 
z
M 1172 3481 
Q 1172 3119 1398 2916 
Q 1625 2713 2034 2713 
Q 2441 2713 2670 2916 
Q 2900 3119 2900 3481 
Q 2900 3844 2670 4047 
Q 2441 4250 2034 4250 
Q 1625 4250 1398 4047 
Q 1172 3844 1172 3481 
z
" transform="scale(0.015625)"/>
        <path id="DejaVuSans-30" d="M 2034 4250 
Q 1547 4250 1301 3770 
Q 1056 3291 1056 2328 
Q 1056 1369 1301 889 
Q 1547 409 2034 409 
Q 2525 409 2770 889 
Q 3016 1369 3016 2328 
Q 3016 3291 2770 3770 
Q 2525 4250 2034 4250 
z
M 2034 4750 
Q 2819 4750 3233 4129 
Q 3647 3509 3647 2328 
Q 3647 1150 3233 529 
Q 2819 -91 2034 -91 
Q 1250 -91 836 529 
Q 422 1150 422 2328 
Q 422 3509 836 4129 
Q 1250 4750 2034 4750 
z
" transform="scale(0.015625)"/>
       </defs>
       <use xlink:href="#DejaVuSans-38"/>
       <use xlink:href="#DejaVuSans-30" x="63.623047"/>
       <use xlink:href="#DejaVuSans-30" x="127.246094"/>
      </g>
     </g>
    </g>
    <g id="xtick_2">
     <g id="line2d_2">
      <g>
       <use xlink:href="#m60f91bc01b" x="136.266294" y="307.584" style="stroke: #000000; stroke-width: 0.8"/>
      </g>
     </g>
     <g id="text_2">
      <!-- 900 -->
      <g transform="translate(126.722544 322.182437) scale(0.1 -0.1)">
       <defs>
        <path id="DejaVuSans-39" d="M 703 97 
L 703 672 
Q 941 559 1184 500 
Q 1428 441 1663 441 
Q 2288 441 2617 861 
Q 2947 1281 2994 2138 
Q 2813 1869 2534 1725 
Q 2256 1581 1919 1581 
Q 1219 1581 811 2004 
Q 403 2428 403 3163 
Q 403 3881 828 4315 
Q 1253 4750 1959 4750 
Q 2769 4750 3195 4129 
Q 3622 3509 3622 2328 
Q 3622 1225 3098 567 
Q 2575 -91 1691 -91 
Q 1453 -91 1209 -44 
Q 966 3 703 97 
z
M 1959 2075 
Q 2384 2075 2632 2365 
Q 2881 2656 2881 3163 
Q 2881 3666 2632 3958 
Q 2384 4250 1959 4250 
Q 1534 4250 1286 3958 
Q 1038 3666 1038 3163 
Q 1038 2656 1286 2365 
Q 1534 2075 1959 2075 
z
" transform="scale(0.015625)"/>
       </defs>
       <use xlink:href="#DejaVuSans-39"/>
       <use xlink:href="#DejaVuSans-30" x="63.623047"/>
       <use xlink:href="#DejaVuSans-30" x="127.246094"/>
      </g>
     </g>
    </g>
    <g id="xtick_3">
     <g id="line2d_3">
      <g>
       <use xlink:href="#m60f91bc01b" x="198.69986" y="307.584" style="stroke: #000000; stroke-width: 0.8"/>
      </g>
     </g>
     <g id="text_3">
      <!-- 1000 -->
      <g transform="translate(185.97486 322.182437) scale(0.1 -0.1)">
       <defs>
        <path id="DejaVuSans-31" d="M 794 531 
L 1825 531 
L 1825 4091 
L 703 3866 
L 703 4441 
L 1819 4666 
L 2450 4666 
L 2450 531 
L 3481 531 
L 3481 0 
L 794 0 
L 794 531 
z
" transform="scale(0.015625)"/>
       </defs>
       <use xlink:href="#DejaVuSans-31"/>
       <use xlink:href="#DejaVuSans-30" x="63.623047"/>
       <use xlink:href="#DejaVuSans-30" x="127.246094"/>
       <use xlink:href="#DejaVuSans-30" x="190.869141"/>
      </g>
     </g>
    </g>
    <g id="xtick_4">
     <g id="line2d_4">
      <g>
       <use xlink:href="#m60f91bc01b" x="261.133427" y="307.584" style="stroke: #000000; stroke-width: 0.8"/>
      </g>
     </g>
     <g id="text_4">
      <!-- 1100 -->
      <g transform="translate(248.408427 322.182437) scale(0.1 -0.1)">
       <use xlink:href="#DejaVuSans-31"/>
       <use xlink:href="#DejaVuSans-31" x="63.623047"/>
       <use xlink:href="#DejaVuSans-30" x="127.246094"/>
       <use xlink:href="#DejaVuSans-30" x="190.869141"/>
      </g>
     </g>
    </g>
    <g id="xtick_5">
     <g id="line2d_5">
      <g>
       <use xlink:href="#m60f91bc01b" x="323.566993" y="307.584" style="stroke: #000000; stroke-width: 0.8"/>
      </g>
     </g>
     <g id="text_5">
      <!-- 1200 -->
      <g transform="translate(310.841993 322.182437) scale(0.1 -0.1)">
       <defs>
        <path id="DejaVuSans-32" d="M 1228 531 
L 3431 531 
L 3431 0 
L 469 0 
L 469 531 
Q 828 903 1448 1529 
Q 2069 2156 2228 2338 
Q 2531 2678 2651 2914 
Q 2772 3150 2772 3378 
Q 2772 3750 2511 3984 
Q 2250 4219 1831 4219 
Q 1534 4219 1204 4116 
Q 875 4013 500 3803 
L 500 4441 
Q 881 4594 1212 4672 
Q 1544 4750 1819 4750 
Q 2544 4750 2975 4387 
Q 3406 4025 3406 3419 
Q 3406 3131 3298 2873 
Q 3191 2616 2906 2266 
Q 2828 2175 2409 1742 
Q 1991 1309 1228 531 
z
" transform="scale(0.015625)"/>
       </defs>
       <use xlink:href="#DejaVuSans-31"/>
       <use xlink:href="#DejaVuSans-32" x="63.623047"/>
       <use xlink:href="#DejaVuSans-30" x="127.246094"/>
       <use xlink:href="#DejaVuSans-30" x="190.869141"/>
      </g>
     </g>
    </g>
    <g id="xtick_6">
     <g id="line2d_6">
      <g>
       <use xlink:href="#m60f91bc01b" x="386.000559" y="307.584" style="stroke: #000000; stroke-width: 0.8"/>
      </g>
     </g>
     <g id="text_6">
      <!-- 1300 -->
      <g transform="translate(373.275559 322.182437) scale(0.1 -0.1)">
       <defs>
        <path id="DejaVuSans-33" d="M 2597 2516 
Q 3050 2419 3304 2112 
Q 3559 1806 3559 1356 
Q 3559 666 3084 287 
Q 2609 -91 1734 -91 
Q 1441 -91 1130 -33 
Q 819 25 488 141 
L 488 750 
Q 750 597 1062 519 
Q 1375 441 1716 441 
Q 2309 441 2620 675 
Q 2931 909 2931 1356 
Q 2931 1769 2642 2001 
Q 2353 2234 1838 2234 
L 1294 2234 
L 1294 2753 
L 1863 2753 
Q 2328 2753 2575 2939 
Q 2822 3125 2822 3475 
Q 2822 3834 2567 4026 
Q 2313 4219 1838 4219 
Q 1578 4219 1281 4162 
Q 984 4106 628 3988 
L 628 4550 
Q 988 4650 1302 4700 
Q 1616 4750 1894 4750 
Q 2613 4750 3031 4423 
Q 3450 4097 3450 3541 
Q 3450 3153 3228 2886 
Q 3006 2619 2597 2516 
z
" transform="scale(0.015625)"/>
       </defs>
       <use xlink:href="#DejaVuSans-31"/>
       <use xlink:href="#DejaVuSans-33" x="63.623047"/>
       <use xlink:href="#DejaVuSans-30" x="127.246094"/>
       <use xlink:href="#DejaVuSans-30" x="190.869141"/>
      </g>
     </g>
    </g>
   </g>
   <g id="matplotlib.axis_2">
    <g id="ytick_1">
     <g id="line2d_7">
      <defs>
       <path id="me67b807b47" d="M 0 0 
L -3.5 0 
" style="stroke: #000000; stroke-width: 0.8"/>
      </defs>
      <g>
       <use xlink:href="#me67b807b47" x="57.6" y="301.76928" style="stroke: #000000; stroke-width: 0.8"/>
      </g>
     </g>
     <g id="text_7">
      <!-- 0.0 -->
      <g transform="translate(34.696875 305.568499) scale(0.1 -0.1)">
       <defs>
        <path id="DejaVuSans-2e" d="M 684 794 
L 1344 794 
L 1344 0 
L 684 0 
L 684 794 
z
" transform="scale(0.015625)"/>
       </defs>
       <use xlink:href="#DejaVuSans-30"/>
       <use xlink:href="#DejaVuSans-2e" x="63.623047"/>
       <use xlink:href="#DejaVuSans-30" x="95.410156"/>
      </g>
     </g>
    </g>
    <g id="ytick_2">
     <g id="line2d_8">
      <g>
       <use xlink:href="#me67b807b47" x="57.6" y="245.304376" style="stroke: #000000; stroke-width: 0.8"/>
      </g>
     </g>
     <g id="text_8">
      <!-- 0.2 -->
      <g transform="translate(34.696875 249.103594) scale(0.1 -0.1)">
       <use xlink:href="#DejaVuSans-30"/>
       <use xlink:href="#DejaVuSans-2e" x="63.623047"/>
       <use xlink:href="#DejaVuSans-32" x="95.410156"/>
      </g>
     </g>
    </g>
    <g id="ytick_3">
     <g id="line2d_9">
      <g>
       <use xlink:href="#me67b807b47" x="57.6" y="188.839471" style="stroke: #000000; stroke-width: 0.8"/>
      </g>
     </g>
     <g id="text_9">
      <!-- 0.4 -->
      <g transform="translate(34.696875 192.63869) scale(0.1 -0.1)">
       <defs>
        <path id="DejaVuSans-34" d="M 2419 4116 
L 825 1625 
L 2419 1625 
L 2419 4116 
z
M 2253 4666 
L 3047 4666 
L 3047 1625 
L 3713 1625 
L 3713 1100 
L 3047 1100 
L 3047 0 
L 2419 0 
L 2419 1100 
L 313 1100 
L 313 1709 
L 2253 4666 
z
" transform="scale(0.015625)"/>
       </defs>
       <use xlink:href="#DejaVuSans-30"/>
       <use xlink:href="#DejaVuSans-2e" x="63.623047"/>
       <use xlink:href="#DejaVuSans-34" x="95.410156"/>
      </g>
     </g>
    </g>
    <g id="ytick_4">
     <g id="line2d_10">
      <g>
       <use xlink:href="#me67b807b47" x="57.6" y="132.374567" style="stroke: #000000; stroke-width: 0.8"/>
      </g>
     </g>
     <g id="text_10">
      <!-- 0.6 -->
      <g transform="translate(34.696875 136.173786) scale(0.1 -0.1)">
       <defs>
        <path id="DejaVuSans-36" d="M 2113 2584 
Q 1688 2584 1439 2293 
Q 1191 2003 1191 1497 
Q 1191 994 1439 701 
Q 1688 409 2113 409 
Q 2538 409 2786 701 
Q 3034 994 3034 1497 
Q 3034 2003 2786 2293 
Q 2538 2584 2113 2584 
z
M 3366 4563 
L 3366 3988 
Q 3128 4100 2886 4159 
Q 2644 4219 2406 4219 
Q 1781 4219 1451 3797 
Q 1122 3375 1075 2522 
Q 1259 2794 1537 2939 
Q 1816 3084 2150 3084 
Q 2853 3084 3261 2657 
Q 3669 2231 3669 1497 
Q 3669 778 3244 343 
Q 2819 -91 2113 -91 
Q 1303 -91 875 529 
Q 447 1150 447 2328 
Q 447 3434 972 4092 
Q 1497 4750 2381 4750 
Q 2619 4750 2861 4703 
Q 3103 4656 3366 4563 
z
" transform="scale(0.015625)"/>
       </defs>
       <use xlink:href="#DejaVuSans-30"/>
       <use xlink:href="#DejaVuSans-2e" x="63.623047"/>
       <use xlink:href="#DejaVuSans-36" x="95.410156"/>
      </g>
     </g>
    </g>
    <g id="ytick_5">
     <g id="line2d_11">
      <g>
       <use xlink:href="#me67b807b47" x="57.6" y="75.909663" style="stroke: #000000; stroke-width: 0.8"/>
      </g>
     </g>
     <g id="text_11">
      <!-- 0.8 -->
      <g transform="translate(34.696875 79.708882) scale(0.1 -0.1)">
       <use xlink:href="#DejaVuSans-30"/>
       <use xlink:href="#DejaVuSans-2e" x="63.623047"/>
       <use xlink:href="#DejaVuSans-38" x="95.410156"/>
      </g>
     </g>
    </g>
   </g>
   <g id="line2d_12">
    <path d="M 73.832727 292.570565 
L 74.457063 293.922797 
L 75.081399 292.080559 
L 75.705734 291.926723 
L 76.33007 293.598339 
L 76.954406 293.179611 
L 77.578741 294.671606 
L 78.203077 293.026172 
L 78.827413 295.282567 
L 79.451748 294.546526 
L 80.076084 291.155199 
L 80.70042 295.488 
L 81.324755 293.421072 
L 81.949091 169.567124 
L 82.573427 164.885199 
L 83.197762 167.151428 
L 83.822098 190.103508 
L 84.446434 111.621723 
L 85.695105 133.008157 
L 86.319441 159.160623 
L 86.943776 175.516662 
L 87.568112 162.686353 
L 88.192448 188.786402 
L 88.816783 226.410239 
L 89.441119 275.86514 
L 90.065455 271.755872 
L 90.68979 291.997366 
L 91.314126 290.249959 
L 91.938462 294.179437 
L 93.187133 273.524208 
L 93.811469 270.608325 
L 94.435804 282.357764 
L 95.06014 269.376803 
L 96.308811 258.378892 
L 96.933147 272.746763 
L 97.557483 262.437938 
L 98.181818 265.841466 
L 98.806154 271.090561 
L 99.43049 283.023273 
L 100.054825 289.37665 
L 100.679161 291.528419 
L 101.303497 287.417457 
L 101.927832 204.376205 
L 102.552168 226.395328 
L 103.800839 276.413209 
L 104.425175 207.722095 
L 105.04951 208.681222 
L 106.922517 268.669085 
L 107.546853 279.574656 
L 108.171189 282.297044 
L 108.795524 286.214227 
L 109.41986 273.517453 
L 110.044196 251.777179 
L 110.668531 264.712192 
L 111.292867 269.409896 
L 111.917203 275.254493 
L 112.541538 269.29669 
L 113.165874 273.895488 
L 113.79021 280.567064 
L 114.414545 223.435334 
L 115.038881 221.867152 
L 115.663217 233.333352 
L 116.287552 252.577502 
L 116.911888 153.15006 
L 117.536224 132.191152 
L 118.784895 171.783344 
L 119.409231 221.697004 
L 120.657902 243.615646 
L 121.282238 265.667464 
L 121.906573 90.24501 
L 122.530909 74.896746 
L 123.155245 95.702574 
L 123.77958 149.540583 
L 124.403916 168.66379 
L 125.028252 163.895775 
L 125.652587 207.911305 
L 126.276923 263.816208 
L 126.901259 109.195999 
L 127.525594 102.983355 
L 128.14993 121.678722 
L 128.774266 163.120794 
L 129.398601 217.812232 
L 130.022937 227.451708 
L 130.647273 240.979633 
L 131.271608 266.706044 
L 131.895944 91.966955 
L 132.52028 92.009303 
L 133.144615 105.125288 
L 133.768951 141.800293 
L 134.393287 160.190472 
L 135.017622 165.629274 
L 135.641958 185.351813 
L 136.266294 210.434362 
L 136.890629 194.764288 
L 137.514965 204.974222 
L 138.139301 223.165847 
L 138.763636 254.050394 
L 139.387972 154.910896 
L 140.012308 147.969848 
L 140.636643 178.481361 
L 141.260979 221.244833 
L 141.885315 154.93438 
L 143.133986 196.257267 
L 143.758322 223.99478 
L 144.382657 209.882239 
L 145.006993 209.462801 
L 145.631329 214.92746 
L 146.255664 219.348205 
L 146.88 204.353291 
L 147.504336 205.885546 
L 148.128671 214.707302 
L 148.753007 229.710098 
L 149.377343 122.956883 
L 150.626014 133.723754 
L 151.25035 160.988624 
L 151.874685 122.062707 
L 152.499021 126.338701 
L 153.123357 143.027066 
L 153.747692 180.156147 
L 154.372028 157.611442 
L 155.620699 226.953756 
L 156.245035 227.589859 
L 156.869371 121.272983 
L 157.493706 93.847509 
L 158.118042 124.160788 
L 159.366713 206.257993 
L 159.991049 198.242839 
L 160.615385 228.661604 
L 161.23972 225.652276 
L 161.864056 149.415191 
L 162.488392 147.765113 
L 163.112727 155.854725 
L 163.737063 175.642204 
L 164.361399 80.356081 
L 164.985734 73.623083 
L 165.61007 92.233646 
L 166.234406 135.425164 
L 166.858741 112.516762 
L 167.483077 142.902223 
L 168.731748 231.257504 
L 169.356084 191.857077 
L 169.98042 183.269568 
L 170.604755 225.012086 
L 171.229091 209.177472 
L 171.853427 236.070974 
L 172.477762 221.344589 
L 173.102098 214.472125 
L 173.726434 208.930504 
L 174.350769 241.737095 
L 174.975105 206.136373 
L 175.599441 203.45592 
L 176.223776 206.432651 
L 176.848112 188.943719 
L 177.472448 188.562649 
L 178.096783 224.359823 
L 178.721119 216.466111 
L 179.345455 278.673217 
L 180.594126 224.625075 
L 181.218462 227.13866 
L 181.842797 224.683424 
L 182.467133 230.550219 
L 183.091469 230.325964 
L 183.715804 238.792425 
L 184.34014 258.998398 
L 184.964476 222.807677 
L 185.588811 222.459131 
L 186.213147 218.280344 
L 186.837483 219.959814 
L 187.461818 218.752835 
L 188.086154 225.101905 
L 188.71049 236.942107 
L 189.334825 223.351677 
L 189.959161 232.994947 
L 190.583497 232.315891 
L 191.207832 244.891566 
L 191.832168 262.35383 
L 192.456503 224.025615 
L 193.080839 214.370178 
L 193.705175 213.192259 
L 194.32951 253.883931 
L 194.953846 217.752603 
L 195.578182 208.349282 
L 196.202517 205.775873 
L 196.826853 246.991603 
L 197.451189 223.742021 
L 198.075524 224.000892 
L 198.69986 238.230448 
L 199.324196 53.568 
L 199.948531 75.890918 
L 200.572867 103.207551 
L 201.197203 166.086194 
L 202.445874 213.263162 
L 203.07021 226.271508 
L 203.694545 252.076766 
L 204.318881 210.231211 
L 204.943217 210.049781 
L 205.567552 230.490935 
L 206.191888 242.615676 
L 206.816224 218.250895 
L 207.440559 222.385439 
L 208.689231 248.736229 
L 209.313566 229.226674 
L 209.937902 215.470282 
L 210.562238 226.667291 
L 211.186573 211.098904 
L 211.810909 269.818404 
L 212.435245 244.244288 
L 213.05958 237.918436 
L 213.683916 221.862036 
L 214.308252 262.475584 
L 214.932587 255.445002 
L 216.181259 232.154569 
L 216.805594 269.878251 
L 217.42993 245.452279 
L 218.054266 238.681263 
L 218.678601 233.426198 
L 219.302937 245.627698 
L 219.927273 232.582489 
L 220.551608 234.41622 
L 221.175944 230.11519 
L 221.80028 258.337361 
L 222.424615 248.164916 
L 223.048951 236.125712 
L 223.673287 241.331974 
L 224.297622 122.848924 
L 224.921958 172.178243 
L 225.546294 139.468574 
L 226.170629 176.886211 
L 226.794965 84.351112 
L 228.043636 90.225247 
L 228.667972 96.313666 
L 229.292308 88.552242 
L 230.540979 90.526479 
L 231.165315 92.999925 
L 231.78965 82.650138 
L 232.413986 83.577376 
L 233.038322 85.312269 
L 233.662657 88.335086 
L 234.286993 80.405085 
L 234.911329 82.604446 
L 235.535664 85.700187 
L 236.16 93.953009 
L 236.784336 90.528889 
L 238.033007 145.390751 
L 238.657343 219.111661 
L 239.281678 143.64158 
L 239.906014 229.936117 
L 240.53035 259.588652 
L 241.154685 228.953537 
L 241.779021 264.592304 
L 242.403357 245.837019 
L 243.027692 154.804262 
L 243.652028 112.659423 
L 244.276364 205.257798 
L 244.900699 143.169798 
L 245.525035 125.476956 
L 246.149371 102.515203 
L 246.773706 146.55617 
L 247.398042 107.504654 
L 248.022378 96.299537 
L 248.646713 91.353166 
L 249.271049 175.96645 
L 249.895385 148.4908 
L 251.144056 119.430512 
L 251.768392 163.434093 
L 252.392727 139.597647 
L 253.017063 130.769191 
L 253.641399 124.544743 
L 254.265734 166.417074 
L 254.89007 142.455901 
L 255.514406 133.113851 
L 256.138741 125.886417 
L 256.763077 189.973662 
L 258.011748 176.57748 
L 258.636084 163.30135 
L 259.26042 176.749457 
L 259.884755 167.560608 
L 260.509091 161.832411 
L 261.133427 152.030964 
L 261.757762 167.218479 
L 262.382098 158.948338 
L 263.006434 148.626746 
L 263.630769 131.600442 
L 264.255105 153.884641 
L 264.879441 140.676559 
L 265.503776 130.678043 
L 266.128112 130.636056 
L 266.752448 163.582342 
L 267.376783 143.472244 
L 268.001119 133.80555 
L 268.625455 128.150542 
L 269.24979 163.071027 
L 270.498462 184.559657 
L 271.122797 208.732811 
L 271.747133 169.914181 
L 272.371469 182.367569 
L 272.995804 189.832149 
L 273.62014 212.265558 
L 274.244476 187.284407 
L 274.868811 198.908648 
L 275.493147 233.603382 
L 276.117483 245.819056 
L 276.741818 273.199139 
L 277.366154 243.069013 
L 278.614825 120.020509 
L 279.239161 196.690339 
L 279.863497 206.928257 
L 280.487832 224.448997 
L 281.112168 255.385611 
L 281.736503 239.119435 
L 282.360839 248.812353 
L 282.985175 247.728846 
L 283.60951 243.823585 
L 284.233846 252.753764 
L 284.858182 249.696244 
L 286.106853 157.911502 
L 286.731189 160.20442 
L 287.355524 164.05392 
L 287.97986 181.982822 
L 288.604196 220.909435 
L 289.228531 182.266376 
L 289.852867 218.952421 
L 290.477203 241.788563 
L 291.101538 229.318739 
L 291.725874 181.575981 
L 292.974545 170.982925 
L 293.598881 161.337671 
L 294.223217 176.207902 
L 295.471888 172.031882 
L 296.096224 171.138485 
L 296.720559 219.480908 
L 297.344895 193.074314 
L 298.593566 192.975691 
L 299.217902 180.750492 
L 299.842238 182.675308 
L 300.466573 182.266129 
L 301.090909 189.770784 
L 302.33958 154.779237 
L 302.963916 150.553607 
L 303.588252 151.820323 
L 304.212587 230.434621 
L 304.836923 229.257543 
L 305.461259 222.585223 
L 306.085594 217.252581 
L 306.70993 228.801696 
L 307.334266 205.316604 
L 307.958601 194.261725 
L 308.582937 178.856743 
L 309.207273 219.959823 
L 309.831608 149.687606 
L 310.455944 148.794369 
L 311.08028 153.367942 
L 311.704615 152.400937 
L 312.328951 208.611998 
L 312.953287 218.244933 
L 313.577622 224.983215 
L 314.201958 185.101631 
L 314.826294 201.976506 
L 316.074965 217.458307 
L 316.699301 230.402136 
L 317.323636 215.365972 
L 317.947972 214.925393 
L 318.572308 211.478997 
L 319.196643 178.14487 
L 319.820979 179.658622 
L 321.06965 170.331479 
L 321.693986 175.224042 
L 322.318322 163.037199 
L 323.566993 151.818971 
L 324.191329 148.330981 
L 325.44 154.729928 
L 326.064336 163.155078 
L 326.688671 164.417895 
L 327.313007 159.587147 
L 327.937343 161.711719 
L 328.561678 165.698399 
L 329.186014 228.913392 
L 329.81035 226.5605 
L 331.059021 213.43482 
L 331.683357 211.899112 
L 332.307692 215.850524 
L 332.932028 217.374503 
L 333.556364 219.755435 
L 334.180699 207.258726 
L 334.805035 213.129814 
L 335.429371 222.036397 
L 336.053706 235.325512 
L 336.678042 194.388095 
L 337.926713 194.878424 
L 338.551049 195.853646 
L 339.175385 194.624396 
L 339.79972 194.906418 
L 341.048392 198.37353 
L 341.672727 218.843301 
L 342.297063 220.102729 
L 342.921399 221.851932 
L 343.545734 221.537585 
L 344.17007 232.705051 
L 344.794406 218.234057 
L 346.043077 210.116357 
L 346.667413 226.965814 
L 347.291748 225.130191 
L 347.916084 228.047489 
L 348.54042 234.211329 
L 349.164755 259.4279 
L 349.789091 243.758017 
L 351.037762 226.938779 
L 351.662098 242.422722 
L 352.286434 237.842983 
L 352.910769 229.667498 
L 353.535105 219.324851 
L 354.159441 221.844977 
L 354.783776 226.896847 
L 355.408112 225.160828 
L 356.032448 226.380983 
L 356.656783 200.343727 
L 357.281119 204.684941 
L 357.905455 205.542467 
L 358.52979 213.893717 
L 359.154126 246.74839 
L 359.778462 247.0502 
L 360.402797 246.984819 
L 361.027133 247.16691 
L 361.651469 248.415948 
L 362.275804 248.378382 
L 362.90014 243.913728 
L 363.524476 230.951487 
L 364.148811 207.621829 
L 364.773147 200.256516 
L 365.397483 198.396069 
L 366.021818 197.065436 
L 366.646154 208.138274 
L 367.27049 208.805442 
L 367.894825 218.218716 
L 368.519161 223.087049 
L 369.143497 234.71639 
L 369.767832 198.418905 
L 370.392168 204.808968 
L 371.016503 212.441119 
L 371.640839 209.129395 
L 372.265175 204.358991 
L 372.88951 209.197553 
L 373.513846 222.844245 
L 374.138182 203.477353 
L 374.762517 213.735061 
L 375.386853 199.659022 
L 376.011189 194.848258 
L 376.635524 231.745387 
L 377.25986 216.031666 
L 377.884196 214.717595 
L 378.508531 211.063969 
L 379.132867 215.151304 
L 379.757203 195.69666 
L 380.381538 197.377093 
L 381.005874 201.876314 
L 381.63021 243.509494 
L 382.254545 225.811949 
L 382.878881 225.418084 
L 383.503217 233.30786 
L 384.127552 203.455428 
L 384.751888 250.577542 
L 385.376224 250.473601 
L 386.000559 243.476814 
L 386.624895 202.016967 
L 387.249231 202.361699 
L 387.873566 204.556043 
L 388.497902 207.458175 
L 389.122238 196.446764 
L 389.746573 202.768573 
L 390.370909 205.941841 
L 390.995245 210.063761 
L 391.61958 227.182676 
L 392.243916 251.854463 
L 392.868252 247.605654 
L 393.492587 235.124348 
L 394.116923 248.654095 
L 394.741259 259.481185 
L 395.365594 217.640418 
L 395.98993 202.666626 
L 396.614266 249.649585 
L 397.238601 240.155284 
L 397.862937 240.546201 
L 398.487273 240.371235 
L 398.487273 240.371235 
" clip-path="url(#pb480b2fc41)" style="fill: none; stroke: #ff0000; stroke-width: 1.5; stroke-linecap: square"/>
   </g>
   <g id="line2d_13">
    <path d="M 73.832727 293.077285 
L 75.081399 293.785501 
L 75.705734 291.700393 
L 76.33007 293.564875 
L 76.954406 292.523251 
L 77.578741 294.07435 
L 78.203077 292.084513 
L 78.827413 295.277769 
L 79.451748 294.836378 
L 80.076084 293.455205 
L 80.70042 294.745012 
L 81.324755 293.489383 
L 81.949091 152.147803 
L 82.573427 146.157031 
L 83.197762 149.981984 
L 83.822098 175.571381 
L 84.446434 110.510749 
L 85.070769 123.412251 
L 85.695105 133.814656 
L 86.319441 160.960529 
L 86.943776 175.28851 
L 87.568112 163.917374 
L 88.192448 189.612145 
L 88.816783 228.004061 
L 89.441119 275.326172 
L 90.065455 273.266787 
L 90.68979 292.673365 
L 91.314126 291.145356 
L 91.938462 294.07912 
L 93.187133 272.43939 
L 93.811469 269.783005 
L 94.435804 282.490162 
L 95.06014 268.812835 
L 95.684476 262.784555 
L 96.308811 258.23571 
L 96.933147 272.054851 
L 97.557483 261.253216 
L 98.181818 264.629116 
L 98.806154 269.667268 
L 100.054825 284.751379 
L 100.679161 290.379616 
L 101.303497 288.73585 
L 101.927832 200.430855 
L 103.800839 276.691547 
L 104.425175 189.079963 
L 105.04951 188.925499 
L 106.298182 252.312341 
L 107.546853 281.077186 
L 108.171189 285.244198 
L 108.795524 288.095173 
L 109.41986 274.697126 
L 110.044196 253.892419 
L 110.668531 264.198898 
L 111.917203 273.138051 
L 112.541538 265.41222 
L 113.165874 270.49739 
L 113.79021 278.748517 
L 114.414545 226.304542 
L 115.038881 225.797938 
L 115.663217 239.049535 
L 116.287552 259.166485 
L 116.911888 168.359546 
L 117.536224 150.151763 
L 118.784895 189.216081 
L 119.409231 231.243246 
L 120.657902 252.100542 
L 121.282238 272.052581 
L 121.906573 92.011344 
L 122.530909 76.545618 
L 123.155245 97.632281 
L 123.77958 151.002648 
L 124.403916 165.444527 
L 125.028252 158.436166 
L 125.652587 205.064969 
L 126.276923 261.393816 
L 126.901259 109.000316 
L 127.525594 102.56404 
L 128.14993 121.682072 
L 128.774266 162.746638 
L 129.398601 217.995249 
L 130.022937 227.90678 
L 130.647273 240.883468 
L 131.271608 267.186055 
L 131.895944 93.853599 
L 132.52028 94.212888 
L 133.144615 106.929407 
L 133.768951 143.932738 
L 134.393287 170.946277 
L 135.017622 176.859867 
L 135.641958 196.940987 
L 136.266294 222.001396 
L 136.890629 209.673718 
L 137.514965 216.495714 
L 138.139301 231.285947 
L 138.763636 258.16 
L 139.387972 173.961193 
L 140.012308 165.198339 
L 140.636643 192.714579 
L 141.260979 231.147149 
L 141.885315 162.425665 
L 143.133986 202.125899 
L 143.758322 228.199582 
L 144.382657 211.576249 
L 145.006993 211.071694 
L 146.255664 220.347668 
L 146.88 206.911243 
L 147.504336 208.478662 
L 148.128671 216.869759 
L 148.753007 231.319611 
L 149.377343 136.79003 
L 150.626014 146.913958 
L 151.25035 172.021814 
L 151.874685 154.239306 
L 152.499021 159.362618 
L 153.123357 173.5439 
L 153.747692 202.239532 
L 154.372028 182.140843 
L 154.996364 210.930802 
L 155.620699 213.6179 
L 156.245035 220.939712 
L 156.869371 125.353179 
L 157.493706 97.516832 
L 158.118042 126.286607 
L 159.366713 209.764399 
L 159.991049 201.730332 
L 160.615385 230.243434 
L 161.23972 225.532898 
L 161.864056 152.634256 
L 162.488392 150.451988 
L 163.112727 157.447216 
L 163.737063 176.152166 
L 164.361399 95.872264 
L 164.985734 89.789127 
L 165.61007 107.091205 
L 166.234406 147.962103 
L 166.858741 130.715175 
L 167.483077 158.495046 
L 168.107413 196.583301 
L 168.731748 225.165405 
L 169.356084 206.698339 
L 169.98042 200.885997 
L 170.604755 213.330698 
L 171.229091 203.735706 
L 171.853427 245.831879 
L 172.477762 212.438461 
L 173.102098 210.334021 
L 173.726434 208.960111 
L 174.350769 242.629967 
L 174.975105 209.947925 
L 175.599441 209.607456 
L 176.223776 211.111112 
L 176.848112 192.744911 
L 177.472448 190.188695 
L 178.096783 224.230162 
L 178.721119 219.553236 
L 179.345455 279.635186 
L 180.594126 231.441349 
L 181.218462 233.818148 
L 181.842797 233.496155 
L 182.467133 237.861637 
L 183.091469 236.270352 
L 183.715804 244.966153 
L 184.34014 256.499658 
L 184.964476 231.612283 
L 185.588811 231.197605 
L 186.213147 226.00892 
L 186.837483 228.802567 
L 187.461818 226.925257 
L 188.086154 232.332411 
L 188.71049 242.9932 
L 189.334825 225.84225 
L 189.959161 235.262747 
L 190.583497 235.579654 
L 191.207832 248.10863 
L 191.832168 265.594272 
L 192.456503 228.938201 
L 193.080839 220.861829 
L 193.705175 219.538275 
L 194.32951 258.166111 
L 194.953846 224.644003 
L 195.578182 215.924486 
L 196.202517 213.079594 
L 196.826853 247.175078 
L 197.451189 227.586358 
L 198.075524 227.779777 
L 198.69986 241.93239 
L 199.324196 64.556134 
L 199.948531 85.162799 
L 200.572867 112.527555 
L 201.197203 171.840638 
L 201.821538 197.337273 
L 202.445874 217.910432 
L 203.07021 230.048496 
L 203.694545 252.454245 
L 204.318881 213.013443 
L 204.943217 213.03095 
L 205.567552 231.394944 
L 206.191888 242.987545 
L 206.816224 217.68539 
L 207.440559 221.368156 
L 208.064895 233.46117 
L 208.689231 253.615257 
L 209.313566 227.326962 
L 209.937902 212.716643 
L 210.562238 223.305347 
L 211.186573 217.439601 
L 211.810909 272.016744 
L 212.435245 250.631265 
L 213.05958 244.671593 
L 213.683916 229.839391 
L 214.308252 260.078077 
L 214.932587 256.522784 
L 215.556923 251.215195 
L 216.181259 239.523911 
L 216.805594 265.639103 
L 217.42993 251.318776 
L 218.054266 248.16833 
L 218.678601 240.30127 
L 219.302937 247.209627 
L 219.927273 234.740268 
L 220.551608 231.976373 
L 221.175944 231.140908 
L 221.80028 259.944749 
L 222.424615 241.79487 
L 223.048951 234.801376 
L 223.673287 242.219837 
L 224.297622 125.273485 
L 224.921958 173.359869 
L 225.546294 140.114771 
L 226.170629 176.478467 
L 226.794965 86.699623 
L 228.043636 92.111628 
L 228.667972 98.050499 
L 229.292308 90.579251 
L 229.916643 91.332693 
L 230.540979 92.328589 
L 231.165315 94.642435 
L 231.78965 84.536408 
L 232.413986 85.388622 
L 233.038322 86.960061 
L 233.662657 89.863159 
L 234.286993 82.363224 
L 234.911329 84.542073 
L 235.535664 87.433708 
L 236.16 95.45771 
L 236.784336 92.497899 
L 238.033007 146.261944 
L 238.657343 219.210623 
L 239.281678 148.735232 
L 239.906014 233.580492 
L 240.53035 256.232272 
L 241.154685 228.868528 
L 241.779021 262.398141 
L 242.403357 242.710001 
L 243.027692 154.309033 
L 243.652028 114.570955 
L 244.276364 201.305399 
L 244.900699 140.201352 
L 245.525035 124.793527 
L 246.149371 103.278752 
L 246.773706 147.858827 
L 247.398042 109.158143 
L 248.022378 99.252265 
L 248.646713 94.25803 
L 249.271049 171.531293 
L 249.895385 144.717094 
L 251.144056 119.199954 
L 251.768392 159.833929 
L 252.392727 137.406815 
L 253.017063 129.829868 
L 253.641399 124.810345 
L 254.265734 163.405043 
L 254.89007 140.06081 
L 255.514406 132.110662 
L 256.138741 126.565523 
L 256.763077 150.634946 
L 258.011748 139.834832 
L 258.636084 129.925999 
L 259.26042 136.427619 
L 259.884755 129.120059 
L 260.509091 124.866245 
L 261.133427 118.384124 
L 261.757762 131.924125 
L 263.006434 119.018282 
L 263.630769 108.124279 
L 264.255105 128.836356 
L 264.879441 121.303341 
L 265.503776 117.736159 
L 266.128112 124.237265 
L 266.752448 150.801268 
L 267.376783 133.713393 
L 268.001119 129.076589 
L 268.625455 130.559285 
L 269.24979 144.94177 
L 270.498462 148.728633 
L 271.122797 159.230371 
L 271.747133 161.656696 
L 272.371469 166.744704 
L 272.995804 170.552718 
L 273.62014 183.974216 
L 274.244476 182.622462 
L 274.868811 186.928858 
L 276.117483 224.981549 
L 276.741818 196.182621 
L 277.366154 197.096895 
L 277.99049 165.689093 
L 278.614825 121.09241 
L 279.239161 145.897091 
L 279.863497 144.081844 
L 280.487832 155.545982 
L 281.112168 186.935393 
L 281.736503 68.154617 
L 282.360839 65.264608 
L 282.985175 69.606213 
L 283.60951 86.506174 
L 284.233846 165.24477 
L 284.858182 194.904518 
L 285.482517 180.93217 
L 286.106853 153.777611 
L 286.731189 156.40049 
L 287.355524 157.407466 
L 287.97986 163.830543 
L 288.604196 194.296857 
L 289.228531 177.198964 
L 289.852867 205.888733 
L 290.477203 227.328182 
L 291.101538 231.698985 
L 291.725874 155.917389 
L 292.35021 153.031333 
L 292.974545 157.634889 
L 293.598881 158.469612 
L 294.223217 150.24852 
L 294.847552 150.180992 
L 295.471888 150.379075 
L 296.096224 153.645506 
L 296.720559 149.721685 
L 297.344895 158.976438 
L 298.593566 158.218891 
L 299.217902 156.397085 
L 300.466573 160.372445 
L 301.090909 165.045921 
L 301.715245 154.614321 
L 302.33958 151.26512 
L 302.963916 158.460334 
L 303.588252 170.026503 
L 304.212587 118.086747 
L 304.836923 110.894187 
L 305.461259 113.461616 
L 306.085594 105.683085 
L 307.334266 135.946173 
L 307.958601 182.266675 
L 308.582937 204.159103 
L 309.207273 179.699056 
L 309.831608 172.827456 
L 310.455944 175.893111 
L 311.08028 173.027573 
L 311.704615 160.098912 
L 312.328951 208.630625 
L 312.953287 223.625614 
L 313.577622 233.327289 
L 314.201958 126.202691 
L 314.826294 83.72355 
L 315.450629 80.375872 
L 316.074965 79.375178 
L 316.699301 72.697311 
L 317.323636 123.180657 
L 319.196643 198.386898 
L 319.820979 162.894597 
L 320.445315 160.78685 
L 321.06965 156.949206 
L 321.693986 143.104876 
L 322.318322 160.564925 
L 322.942657 170.622803 
L 323.566993 182.957542 
L 324.191329 169.738466 
L 324.815664 178.945811 
L 325.44 182.998182 
L 326.064336 192.34 
L 326.688671 177.06199 
L 327.313007 186.176575 
L 327.937343 190.456862 
L 328.561678 176.822996 
L 329.186014 189.730496 
L 329.81035 152.753863 
L 330.434685 150.579235 
L 331.059021 145.560938 
L 331.683357 195.735241 
L 332.307692 207.908127 
L 332.932028 211.550994 
L 333.556364 217.105984 
L 334.180699 190.1071 
L 334.805035 156.852032 
L 335.429371 145.58324 
L 336.053706 138.612099 
L 336.678042 163.965752 
L 337.302378 161.35115 
L 338.551049 160.301476 
L 339.175385 160.937907 
L 340.424056 159.795213 
L 341.048392 160.106488 
L 341.672727 134.788992 
L 342.921399 134.646992 
L 343.545734 135.651246 
L 344.17007 137.300629 
L 345.418741 158.714014 
L 346.043077 178.034123 
L 346.667413 150.810761 
L 347.291748 176.126592 
L 347.916084 190.3419 
L 348.54042 212.226724 
L 349.164755 215.008259 
L 349.789091 241.887311 
L 350.413427 240.952967 
L 351.037762 232.900001 
L 351.662098 245.422393 
L 352.286434 244.929749 
L 352.910769 234.724587 
L 353.535105 216.404902 
L 354.159441 164.943453 
L 354.783776 152.115507 
L 356.032448 136.12587 
L 356.656783 173.546429 
L 357.905455 161.081316 
L 358.52979 157.694696 
L 359.154126 133.590933 
L 359.778462 146.472141 
L 361.027133 156.440746 
L 361.651469 159.25492 
L 362.275804 142.128084 
L 362.90014 139.110425 
L 363.524476 138.321796 
L 364.773147 165.113693 
L 365.397483 165.156544 
L 366.021818 165.861234 
L 366.646154 164.95867 
L 367.27049 160.833437 
L 367.894825 152.962113 
L 368.519161 148.846791 
L 369.143497 160.508171 
L 371.640839 216.807848 
L 372.265175 191.016746 
L 372.88951 193.669102 
L 373.513846 201.462327 
L 374.138182 190.554561 
L 374.762517 223.68955 
L 375.386853 213.637669 
L 376.011189 216.086945 
L 376.635524 232.736321 
L 377.25986 213.009055 
L 377.884196 211.724195 
L 378.508531 205.220899 
L 379.132867 213.166349 
L 379.757203 164.242731 
L 380.381538 162.051009 
L 381.005874 154.40658 
L 381.63021 240.747539 
L 382.254545 229.15397 
L 382.878881 228.084518 
L 383.503217 234.688824 
L 384.127552 221.17822 
L 384.751888 176.952861 
L 385.376224 148.607693 
L 386.000559 140.368111 
L 386.624895 166.443043 
L 387.249231 166.634601 
L 387.873566 166.033879 
L 388.497902 162.851988 
L 389.122238 175.792035 
L 389.746573 175.631989 
L 390.995245 180.62947 
L 391.61958 234.413783 
L 393.492587 203.41236 
L 394.116923 152.528253 
L 394.741259 207.265958 
L 395.365594 214.278895 
L 395.98993 217.058366 
L 396.614266 141.074252 
L 397.238601 132.770796 
L 397.862937 134.772848 
L 398.487273 137.941996 
L 398.487273 137.941996 
" clip-path="url(#pb480b2fc41)" style="fill: none; stroke: #808080; stroke-width: 1.5; stroke-linecap: square"/>
   </g>
   <g id="patch_3">
    <path d="M 57.6 307.584 
L 57.6 41.472 
" style="fill: none; stroke: #000000; stroke-width: 0.8; stroke-linejoin: miter; stroke-linecap: square"/>
   </g>
   <g id="patch_4">
    <path d="M 414.72 307.584 
L 414.72 41.472 
" style="fill: none; stroke: #000000; stroke-width: 0.8; stroke-linejoin: miter; stroke-linecap: square"/>
   </g>
   <g id="patch_5">
    <path d="M 57.6 307.584 
L 414.72 307.584 
" style="fill: none; stroke: #000000; stroke-width: 0.8; stroke-linejoin: miter; stroke-linecap: square"/>
   </g>
   <g id="patch_6">
    <path d="M 57.6 41.472 
L 414.72 41.472 
" style="fill: none; stroke: #000000; stroke-width: 0.8; stroke-linejoin: miter; stroke-linecap: square"/>
   </g>
  </g>
 </g>
 <defs>
  <clipPath id="pb480b2fc41">
   <rect x="57.6" y="41.472" width="357.12" height="266.112"/>
  </clipPath>
 </defs>
</svg>
