<?xml version="1.0" encoding="utf-8" standalone="no"?>
<!DOCTYPE svg PUBLIC "-//W3C//DTD SVG 1.1//EN"
  "http://www.w3.org/Graphics/SVG/1.1/DTD/svg11.dtd">
<svg xmlns:xlink="http://www.w3.org/1999/xlink" width="460.8pt" height="345.6pt" viewBox="0 0 460.8 345.6" xmlns="http://www.w3.org/2000/svg" version="1.1">
 <metadata>
  <rdf:RDF xmlns:dc="http://purl.org/dc/elements/1.1/" xmlns:cc="http://creativecommons.org/ns#" xmlns:rdf="http://www.w3.org/1999/02/22-rdf-syntax-ns#">
   <cc:Work>
    <dc:type rdf:resource="http://purl.org/dc/dcmitype/StillImage"/>
    <dc:date>2025-03-19T23:28:56.909621</dc:date>
    <dc:format>image/svg+xml</dc:format>
    <dc:creator>
     <cc:Agent>
      <dc:title>Matplotlib v3.6.3, https://matplotlib.org/</dc:title>
     </cc:Agent>
    </dc:creator>
   </cc:Work>
  </rdf:RDF>
 </metadata>
 <defs>
  <style type="text/css">*{stroke-linejoin: round; stroke-linecap: butt}</style>
 </defs>
 <g id="figure_1">
  <g id="patch_1">
   <path d="M 0 345.6 
L 460.8 345.6 
L 460.8 0 
L 0 0 
z
" style="fill: #ffffff"/>
  </g>
  <g id="axes_1">
   <g id="patch_2">
    <path d="M 57.6 307.584 
L 414.72 307.584 
L 414.72 41.472 
L 57.6 41.472 
z
" style="fill: #ffffff"/>
   </g>
   <g id="matplotlib.axis_1">
    <g id="xtick_1">
     <g id="line2d_1">
      <defs>
       <path id="m7de389c2e8" d="M 0 0 
L 0 3.5 
" style="stroke: #000000; stroke-width: 0.8"/>
      </defs>
      <g>
       <use xlink:href="#m7de389c2e8" x="104.518412" y="307.584" style="stroke: #000000; stroke-width: 0.8"/>
      </g>
     </g>
     <g id="text_1">
      <!-- 1600 -->
      <g transform="translate(91.793412 322.182437) scale(0.1 -0.1)">
       <defs>
        <path id="DejaVuSans-31" d="M 794 531 
L 1825 531 
L 1825 4091 
L 703 3866 
L 703 4441 
L 1819 4666 
L 2450 4666 
L 2450 531 
L 3481 531 
L 3481 0 
L 794 0 
L 794 531 
z
" transform="scale(0.015625)"/>
        <path id="DejaVuSans-36" d="M 2113 2584 
Q 1688 2584 1439 2293 
Q 1191 2003 1191 1497 
Q 1191 994 1439 701 
Q 1688 409 2113 409 
Q 2538 409 2786 701 
Q 3034 994 3034 1497 
Q 3034 2003 2786 2293 
Q 2538 2584 2113 2584 
z
M 3366 4563 
L 3366 3988 
Q 3128 4100 2886 4159 
Q 2644 4219 2406 4219 
Q 1781 4219 1451 3797 
Q 1122 3375 1075 2522 
Q 1259 2794 1537 2939 
Q 1816 3084 2150 3084 
Q 2853 3084 3261 2657 
Q 3669 2231 3669 1497 
Q 3669 778 3244 343 
Q 2819 -91 2113 -91 
Q 1303 -91 875 529 
Q 447 1150 447 2328 
Q 447 3434 972 4092 
Q 1497 4750 2381 4750 
Q 2619 4750 2861 4703 
Q 3103 4656 3366 4563 
z
" transform="scale(0.015625)"/>
        <path id="DejaVuSans-30" d="M 2034 4250 
Q 1547 4250 1301 3770 
Q 1056 3291 1056 2328 
Q 1056 1369 1301 889 
Q 1547 409 2034 409 
Q 2525 409 2770 889 
Q 3016 1369 3016 2328 
Q 3016 3291 2770 3770 
Q 2525 4250 2034 4250 
z
M 2034 4750 
Q 2819 4750 3233 4129 
Q 3647 3509 3647 2328 
Q 3647 1150 3233 529 
Q 2819 -91 2034 -91 
Q 1250 -91 836 529 
Q 422 1150 422 2328 
Q 422 3509 836 4129 
Q 1250 4750 2034 4750 
z
" transform="scale(0.015625)"/>
       </defs>
       <use xlink:href="#DejaVuSans-31"/>
       <use xlink:href="#DejaVuSans-36" x="63.623047"/>
       <use xlink:href="#DejaVuSans-30" x="127.246094"/>
       <use xlink:href="#DejaVuSans-30" x="190.869141"/>
      </g>
     </g>
    </g>
    <g id="xtick_2">
     <g id="line2d_2">
      <g>
       <use xlink:href="#m7de389c2e8" x="165.889782" y="307.584" style="stroke: #000000; stroke-width: 0.8"/>
      </g>
     </g>
     <g id="text_2">
      <!-- 1700 -->
      <g transform="translate(153.164782 322.182437) scale(0.1 -0.1)">
       <defs>
        <path id="DejaVuSans-37" d="M 525 4666 
L 3525 4666 
L 3525 4397 
L 1831 0 
L 1172 0 
L 2766 4134 
L 525 4134 
L 525 4666 
z
" transform="scale(0.015625)"/>
       </defs>
       <use xlink:href="#DejaVuSans-31"/>
       <use xlink:href="#DejaVuSans-37" x="63.623047"/>
       <use xlink:href="#DejaVuSans-30" x="127.246094"/>
       <use xlink:href="#DejaVuSans-30" x="190.869141"/>
      </g>
     </g>
    </g>
    <g id="xtick_3">
     <g id="line2d_3">
      <g>
       <use xlink:href="#m7de389c2e8" x="227.261151" y="307.584" style="stroke: #000000; stroke-width: 0.8"/>
      </g>
     </g>
     <g id="text_3">
      <!-- 1800 -->
      <g transform="translate(214.536151 322.182437) scale(0.1 -0.1)">
       <defs>
        <path id="DejaVuSans-38" d="M 2034 2216 
Q 1584 2216 1326 1975 
Q 1069 1734 1069 1313 
Q 1069 891 1326 650 
Q 1584 409 2034 409 
Q 2484 409 2743 651 
Q 3003 894 3003 1313 
Q 3003 1734 2745 1975 
Q 2488 2216 2034 2216 
z
M 1403 2484 
Q 997 2584 770 2862 
Q 544 3141 544 3541 
Q 544 4100 942 4425 
Q 1341 4750 2034 4750 
Q 2731 4750 3128 4425 
Q 3525 4100 3525 3541 
Q 3525 3141 3298 2862 
Q 3072 2584 2669 2484 
Q 3125 2378 3379 2068 
Q 3634 1759 3634 1313 
Q 3634 634 3220 271 
Q 2806 -91 2034 -91 
Q 1263 -91 848 271 
Q 434 634 434 1313 
Q 434 1759 690 2068 
Q 947 2378 1403 2484 
z
M 1172 3481 
Q 1172 3119 1398 2916 
Q 1625 2713 2034 2713 
Q 2441 2713 2670 2916 
Q 2900 3119 2900 3481 
Q 2900 3844 2670 4047 
Q 2441 4250 2034 4250 
Q 1625 4250 1398 4047 
Q 1172 3844 1172 3481 
z
" transform="scale(0.015625)"/>
       </defs>
       <use xlink:href="#DejaVuSans-31"/>
       <use xlink:href="#DejaVuSans-38" x="63.623047"/>
       <use xlink:href="#DejaVuSans-30" x="127.246094"/>
       <use xlink:href="#DejaVuSans-30" x="190.869141"/>
      </g>
     </g>
    </g>
    <g id="xtick_4">
     <g id="line2d_4">
      <g>
       <use xlink:href="#m7de389c2e8" x="288.632521" y="307.584" style="stroke: #000000; stroke-width: 0.8"/>
      </g>
     </g>
     <g id="text_4">
      <!-- 1900 -->
      <g transform="translate(275.907521 322.182437) scale(0.1 -0.1)">
       <defs>
        <path id="DejaVuSans-39" d="M 703 97 
L 703 672 
Q 941 559 1184 500 
Q 1428 441 1663 441 
Q 2288 441 2617 861 
Q 2947 1281 2994 2138 
Q 2813 1869 2534 1725 
Q 2256 1581 1919 1581 
Q 1219 1581 811 2004 
Q 403 2428 403 3163 
Q 403 3881 828 4315 
Q 1253 4750 1959 4750 
Q 2769 4750 3195 4129 
Q 3622 3509 3622 2328 
Q 3622 1225 3098 567 
Q 2575 -91 1691 -91 
Q 1453 -91 1209 -44 
Q 966 3 703 97 
z
M 1959 2075 
Q 2384 2075 2632 2365 
Q 2881 2656 2881 3163 
Q 2881 3666 2632 3958 
Q 2384 4250 1959 4250 
Q 1534 4250 1286 3958 
Q 1038 3666 1038 3163 
Q 1038 2656 1286 2365 
Q 1534 2075 1959 2075 
z
" transform="scale(0.015625)"/>
       </defs>
       <use xlink:href="#DejaVuSans-31"/>
       <use xlink:href="#DejaVuSans-39" x="63.623047"/>
       <use xlink:href="#DejaVuSans-30" x="127.246094"/>
       <use xlink:href="#DejaVuSans-30" x="190.869141"/>
      </g>
     </g>
    </g>
    <g id="xtick_5">
     <g id="line2d_5">
      <g>
       <use xlink:href="#m7de389c2e8" x="350.003891" y="307.584" style="stroke: #000000; stroke-width: 0.8"/>
      </g>
     </g>
     <g id="text_5">
      <!-- 2000 -->
      <g transform="translate(337.278891 322.182437) scale(0.1 -0.1)">
       <defs>
        <path id="DejaVuSans-32" d="M 1228 531 
L 3431 531 
L 3431 0 
L 469 0 
L 469 531 
Q 828 903 1448 1529 
Q 2069 2156 2228 2338 
Q 2531 2678 2651 2914 
Q 2772 3150 2772 3378 
Q 2772 3750 2511 3984 
Q 2250 4219 1831 4219 
Q 1534 4219 1204 4116 
Q 875 4013 500 3803 
L 500 4441 
Q 881 4594 1212 4672 
Q 1544 4750 1819 4750 
Q 2544 4750 2975 4387 
Q 3406 4025 3406 3419 
Q 3406 3131 3298 2873 
Q 3191 2616 2906 2266 
Q 2828 2175 2409 1742 
Q 1991 1309 1228 531 
z
" transform="scale(0.015625)"/>
       </defs>
       <use xlink:href="#DejaVuSans-32"/>
       <use xlink:href="#DejaVuSans-30" x="63.623047"/>
       <use xlink:href="#DejaVuSans-30" x="127.246094"/>
       <use xlink:href="#DejaVuSans-30" x="190.869141"/>
      </g>
     </g>
    </g>
    <g id="xtick_6">
     <g id="line2d_6">
      <g>
       <use xlink:href="#m7de389c2e8" x="411.37526" y="307.584" style="stroke: #000000; stroke-width: 0.8"/>
      </g>
     </g>
     <g id="text_6">
      <!-- 2100 -->
      <g transform="translate(398.65026 322.182437) scale(0.1 -0.1)">
       <use xlink:href="#DejaVuSans-32"/>
       <use xlink:href="#DejaVuSans-31" x="63.623047"/>
       <use xlink:href="#DejaVuSans-30" x="127.246094"/>
       <use xlink:href="#DejaVuSans-30" x="190.869141"/>
      </g>
     </g>
    </g>
   </g>
   <g id="matplotlib.axis_2">
    <g id="ytick_1">
     <g id="line2d_7">
      <defs>
       <path id="m985cc9a8be" d="M 0 0 
L -3.5 0 
" style="stroke: #000000; stroke-width: 0.8"/>
      </defs>
      <g>
       <use xlink:href="#m985cc9a8be" x="57.6" y="289.201784" style="stroke: #000000; stroke-width: 0.8"/>
      </g>
     </g>
     <g id="text_7">
      <!-- 0.1 -->
      <g transform="translate(34.696875 293.001002) scale(0.1 -0.1)">
       <defs>
        <path id="DejaVuSans-2e" d="M 684 794 
L 1344 794 
L 1344 0 
L 684 0 
L 684 794 
z
" transform="scale(0.015625)"/>
       </defs>
       <use xlink:href="#DejaVuSans-30"/>
       <use xlink:href="#DejaVuSans-2e" x="63.623047"/>
       <use xlink:href="#DejaVuSans-31" x="95.410156"/>
      </g>
     </g>
    </g>
    <g id="ytick_2">
     <g id="line2d_8">
      <g>
       <use xlink:href="#m985cc9a8be" x="57.6" y="258.255629" style="stroke: #000000; stroke-width: 0.8"/>
      </g>
     </g>
     <g id="text_8">
      <!-- 0.2 -->
      <g transform="translate(34.696875 262.054847) scale(0.1 -0.1)">
       <use xlink:href="#DejaVuSans-30"/>
       <use xlink:href="#DejaVuSans-2e" x="63.623047"/>
       <use xlink:href="#DejaVuSans-32" x="95.410156"/>
      </g>
     </g>
    </g>
    <g id="ytick_3">
     <g id="line2d_9">
      <g>
       <use xlink:href="#m985cc9a8be" x="57.6" y="227.309474" style="stroke: #000000; stroke-width: 0.8"/>
      </g>
     </g>
     <g id="text_9">
      <!-- 0.3 -->
      <g transform="translate(34.696875 231.108692) scale(0.1 -0.1)">
       <defs>
        <path id="DejaVuSans-33" d="M 2597 2516 
Q 3050 2419 3304 2112 
Q 3559 1806 3559 1356 
Q 3559 666 3084 287 
Q 2609 -91 1734 -91 
Q 1441 -91 1130 -33 
Q 819 25 488 141 
L 488 750 
Q 750 597 1062 519 
Q 1375 441 1716 441 
Q 2309 441 2620 675 
Q 2931 909 2931 1356 
Q 2931 1769 2642 2001 
Q 2353 2234 1838 2234 
L 1294 2234 
L 1294 2753 
L 1863 2753 
Q 2328 2753 2575 2939 
Q 2822 3125 2822 3475 
Q 2822 3834 2567 4026 
Q 2313 4219 1838 4219 
Q 1578 4219 1281 4162 
Q 984 4106 628 3988 
L 628 4550 
Q 988 4650 1302 4700 
Q 1616 4750 1894 4750 
Q 2613 4750 3031 4423 
Q 3450 4097 3450 3541 
Q 3450 3153 3228 2886 
Q 3006 2619 2597 2516 
z
" transform="scale(0.015625)"/>
       </defs>
       <use xlink:href="#DejaVuSans-30"/>
       <use xlink:href="#DejaVuSans-2e" x="63.623047"/>
       <use xlink:href="#DejaVuSans-33" x="95.410156"/>
      </g>
     </g>
    </g>
    <g id="ytick_4">
     <g id="line2d_10">
      <g>
       <use xlink:href="#m985cc9a8be" x="57.6" y="196.363319" style="stroke: #000000; stroke-width: 0.8"/>
      </g>
     </g>
     <g id="text_10">
      <!-- 0.4 -->
      <g transform="translate(34.696875 200.162538) scale(0.1 -0.1)">
       <defs>
        <path id="DejaVuSans-34" d="M 2419 4116 
L 825 1625 
L 2419 1625 
L 2419 4116 
z
M 2253 4666 
L 3047 4666 
L 3047 1625 
L 3713 1625 
L 3713 1100 
L 3047 1100 
L 3047 0 
L 2419 0 
L 2419 1100 
L 313 1100 
L 313 1709 
L 2253 4666 
z
" transform="scale(0.015625)"/>
       </defs>
       <use xlink:href="#DejaVuSans-30"/>
       <use xlink:href="#DejaVuSans-2e" x="63.623047"/>
       <use xlink:href="#DejaVuSans-34" x="95.410156"/>
      </g>
     </g>
    </g>
    <g id="ytick_5">
     <g id="line2d_11">
      <g>
       <use xlink:href="#m985cc9a8be" x="57.6" y="165.417164" style="stroke: #000000; stroke-width: 0.8"/>
      </g>
     </g>
     <g id="text_11">
      <!-- 0.5 -->
      <g transform="translate(34.696875 169.216383) scale(0.1 -0.1)">
       <defs>
        <path id="DejaVuSans-35" d="M 691 4666 
L 3169 4666 
L 3169 4134 
L 1269 4134 
L 1269 2991 
Q 1406 3038 1543 3061 
Q 1681 3084 1819 3084 
Q 2600 3084 3056 2656 
Q 3513 2228 3513 1497 
Q 3513 744 3044 326 
Q 2575 -91 1722 -91 
Q 1428 -91 1123 -41 
Q 819 9 494 109 
L 494 744 
Q 775 591 1075 516 
Q 1375 441 1709 441 
Q 2250 441 2565 725 
Q 2881 1009 2881 1497 
Q 2881 1984 2565 2268 
Q 2250 2553 1709 2553 
Q 1456 2553 1204 2497 
Q 953 2441 691 2322 
L 691 4666 
z
" transform="scale(0.015625)"/>
       </defs>
       <use xlink:href="#DejaVuSans-30"/>
       <use xlink:href="#DejaVuSans-2e" x="63.623047"/>
       <use xlink:href="#DejaVuSans-35" x="95.410156"/>
      </g>
     </g>
    </g>
    <g id="ytick_6">
     <g id="line2d_12">
      <g>
       <use xlink:href="#m985cc9a8be" x="57.6" y="134.471009" style="stroke: #000000; stroke-width: 0.8"/>
      </g>
     </g>
     <g id="text_12">
      <!-- 0.6 -->
      <g transform="translate(34.696875 138.270228) scale(0.1 -0.1)">
       <use xlink:href="#DejaVuSans-30"/>
       <use xlink:href="#DejaVuSans-2e" x="63.623047"/>
       <use xlink:href="#DejaVuSans-36" x="95.410156"/>
      </g>
     </g>
    </g>
    <g id="ytick_7">
     <g id="line2d_13">
      <g>
       <use xlink:href="#m985cc9a8be" x="57.6" y="103.524854" style="stroke: #000000; stroke-width: 0.8"/>
      </g>
     </g>
     <g id="text_13">
      <!-- 0.7 -->
      <g transform="translate(34.696875 107.324073) scale(0.1 -0.1)">
       <use xlink:href="#DejaVuSans-30"/>
       <use xlink:href="#DejaVuSans-2e" x="63.623047"/>
       <use xlink:href="#DejaVuSans-37" x="95.410156"/>
      </g>
     </g>
    </g>
    <g id="ytick_8">
     <g id="line2d_14">
      <g>
       <use xlink:href="#m985cc9a8be" x="57.6" y="72.578699" style="stroke: #000000; stroke-width: 0.8"/>
      </g>
     </g>
     <g id="text_14">
      <!-- 0.8 -->
      <g transform="translate(34.696875 76.377918) scale(0.1 -0.1)">
       <use xlink:href="#DejaVuSans-30"/>
       <use xlink:href="#DejaVuSans-2e" x="63.623047"/>
       <use xlink:href="#DejaVuSans-38" x="95.410156"/>
      </g>
     </g>
    </g>
    <g id="ytick_9">
     <g id="line2d_15">
      <g>
       <use xlink:href="#m985cc9a8be" x="57.6" y="41.632544" style="stroke: #000000; stroke-width: 0.8"/>
      </g>
     </g>
     <g id="text_15">
      <!-- 0.9 -->
      <g transform="translate(34.696875 45.431763) scale(0.1 -0.1)">
       <use xlink:href="#DejaVuSans-30"/>
       <use xlink:href="#DejaVuSans-2e" x="63.623047"/>
       <use xlink:href="#DejaVuSans-39" x="95.410156"/>
      </g>
     </g>
    </g>
   </g>
   <g id="line2d_16">
    <path d="M 73.832727 259.730635 
L 74.446441 269.349292 
L 75.060155 264.956246 
L 75.673868 224.484836 
L 76.287582 234.123158 
L 76.901296 253.553957 
L 77.515009 259.240538 
L 78.128723 227.677576 
L 78.742437 234.378079 
L 79.356151 251.19933 
L 79.969864 251.129331 
L 80.583578 285.66182 
L 81.197292 262.690945 
L 81.811005 247.369473 
L 82.424719 237.20615 
L 83.038433 288.990369 
L 83.652146 258.812944 
L 84.26586 249.192048 
L 84.879574 235.194971 
L 85.493288 274.870132 
L 86.107001 246.715316 
L 86.720715 247.958398 
L 87.334429 254.867595 
L 87.948142 251.650261 
L 88.561856 217.302714 
L 89.17557 228.906748 
L 89.789283 249.079026 
L 90.402997 233.523773 
L 91.016711 229.4263 
L 91.630424 231.703396 
L 92.244138 231.515724 
L 92.857852 216.53098 
L 94.085279 214.005215 
L 94.698993 214.973643 
L 95.312707 205.489786 
L 95.92642 210.312523 
L 96.540134 229.883377 
L 97.153848 256.232953 
L 97.767561 258.976115 
L 98.381275 256.761626 
L 98.994989 255.386686 
L 99.608703 252.057381 
L 100.222416 257.399665 
L 100.83613 257.23848 
L 101.449844 256.081068 
L 102.063557 253.245152 
L 102.677271 251.685612 
L 103.904698 253.497388 
L 104.518412 255.501999 
L 105.132126 264.258351 
L 105.745839 264.642163 
L 106.359553 261.614101 
L 106.973267 260.287325 
L 107.586981 229.79954 
L 108.200694 229.00051 
L 108.814408 227.417395 
L 109.428122 228.475077 
L 110.041835 223.998621 
L 110.655549 225.668432 
L 111.269263 225.660154 
L 111.882976 229.237895 
L 112.49669 220.002084 
L 113.110404 213.54238 
L 113.724118 216.895203 
L 114.337831 219.274762 
L 114.951545 216.867804 
L 115.565259 218.367067 
L 116.178972 240.44185 
L 116.792686 253.984097 
L 117.4064 245.620015 
L 118.020113 241.144692 
L 118.633827 247.812588 
L 119.247541 251.84552 
L 119.861255 139.383385 
L 120.474968 142.814868 
L 121.088682 174.953965 
L 121.702396 219.433154 
L 122.316109 130.602884 
L 122.929823 162.6367 
L 123.543537 202.237559 
L 124.15725 258.573674 
L 124.770964 127.11768 
L 125.384678 132.199933 
L 125.998391 168.480461 
L 126.612105 218.359801 
L 127.225819 73.70747 
L 127.839533 76.01316 
L 128.453246 77.739524 
L 129.06696 90.283237 
L 129.680674 53.568 
L 130.908101 61.284185 
L 131.521815 72.959175 
L 132.135528 62.286242 
L 132.749242 69.474155 
L 133.362956 81.876309 
L 133.97667 111.913114 
L 134.590383 113.054378 
L 135.204097 149.216414 
L 135.817811 195.218056 
L 136.431524 259.178508 
L 137.045238 284.074824 
L 138.272665 237.759769 
L 138.886379 221.736582 
L 139.500093 272.925732 
L 140.113806 264.720765 
L 140.72752 259.416022 
L 141.341234 244.968953 
L 141.954948 205.218476 
L 142.568661 193.997246 
L 143.182375 194.264437 
L 143.796089 191.174865 
L 144.409802 208.878468 
L 145.023516 189.790556 
L 146.250943 177.367498 
L 146.864657 268.866055 
L 147.478371 234.75742 
L 148.092085 224.297503 
L 148.705798 203.923812 
L 149.319512 234.641333 
L 149.933226 229.102433 
L 150.546939 235.330197 
L 151.160653 219.791898 
L 151.774367 73.062906 
L 152.38808 69.117818 
L 153.001794 73.986457 
L 153.615508 92.879131 
L 154.229222 228.083693 
L 154.842935 275.232138 
L 155.456649 264.282281 
L 156.070363 260.536961 
L 156.684076 214.781259 
L 157.911504 224.643586 
L 158.525217 236.73329 
L 159.138931 132.048882 
L 159.752645 150.515744 
L 160.366358 178.508816 
L 160.980072 241.511187 
L 161.593786 99.046856 
L 162.2075 100.75876 
L 162.821213 121.44817 
L 163.434927 153.818377 
L 164.048641 82.055699 
L 164.662354 83.737908 
L 165.276068 86.192849 
L 165.889782 92.301089 
L 167.117209 74.641543 
L 167.730923 74.290958 
L 168.344637 74.106991 
L 168.95835 84.310718 
L 169.572064 85.588862 
L 170.185778 90.150264 
L 170.799491 89.850854 
L 171.413205 110.487556 
L 172.026919 125.838857 
L 172.640632 158.137442 
L 173.254346 200.218068 
L 173.86806 98.870958 
L 174.481774 91.648291 
L 175.095487 95.288654 
L 175.709201 91.016672 
L 176.322915 157.199042 
L 176.936628 162.483328 
L 177.550342 171.110717 
L 178.164056 181.463707 
L 178.777769 119.044741 
L 179.391483 213.736095 
L 180.005197 237.635375 
L 180.61891 277.329276 
L 181.232624 220.604955 
L 181.846338 231.045121 
L 182.460052 213.00459 
L 183.073765 199.139208 
L 183.687479 211.058633 
L 184.301193 167.564616 
L 184.914906 169.07495 
L 185.52862 171.469117 
L 186.142334 88.763462 
L 186.756047 93.979388 
L 187.369761 105.554148 
L 187.983475 121.57029 
L 188.597189 205.760806 
L 189.210902 139.959147 
L 189.824616 133.638605 
L 190.43833 129.531743 
L 191.052043 100.397112 
L 191.665757 146.665672 
L 192.279471 163.390601 
L 192.893184 193.400735 
L 193.506898 152.975891 
L 194.120612 94.436154 
L 194.734325 92.061518 
L 195.348039 92.725187 
L 196.575467 230.184445 
L 197.18918 253.6578 
L 197.802894 264.17958 
L 199.030321 150.661844 
L 199.644035 143.625807 
L 200.257749 138.415752 
L 200.871462 222.25589 
L 201.485176 227.066941 
L 203.326317 216.857529 
L 203.940031 187.841346 
L 205.167458 166.767215 
L 205.781172 205.034862 
L 206.394886 204.780786 
L 207.008599 207.521257 
L 207.622313 213.923351 
L 208.236027 209.505517 
L 208.849741 207.471193 
L 209.463454 207.974402 
L 210.077168 208.700253 
L 210.690882 185.310673 
L 211.304595 211.293704 
L 211.918309 211.159168 
L 212.532023 217.339636 
L 213.145736 253.584787 
L 213.75945 237.074712 
L 214.986877 228.688056 
L 215.600591 171.907778 
L 216.214305 141.116155 
L 216.828019 146.072824 
L 217.441732 163.446707 
L 218.055446 250.997062 
L 218.66916 242.896715 
L 219.282873 238.737003 
L 219.896587 232.388713 
L 220.510301 255.263227 
L 221.124014 222.592577 
L 222.351442 202.852755 
L 222.965156 174.307026 
L 223.578869 170.96357 
L 224.192583 171.621966 
L 224.806297 171.964774 
L 226.033724 203.448832 
L 226.647438 162.986516 
L 227.874865 104.67967 
L 228.488579 112.779307 
L 229.716006 134.468244 
L 230.32972 257.680225 
L 230.943434 283.835828 
L 231.557147 284.059223 
L 232.170861 271.911934 
L 232.784575 229.503471 
L 233.398288 229.338761 
L 234.625716 212.541344 
L 235.239429 230.31379 
L 235.853143 191.282077 
L 236.466857 182.214662 
L 237.080571 179.065354 
L 237.694284 240.942485 
L 238.307998 219.841934 
L 238.921712 234.118855 
L 239.535425 231.410736 
L 240.149139 193.288464 
L 240.762853 172.167986 
L 241.376566 204.360712 
L 241.99028 195.724651 
L 242.603994 191.993648 
L 243.217708 129.74294 
L 243.831421 124.501558 
L 244.445135 115.542245 
L 245.058849 188.717973 
L 245.672562 205.984933 
L 246.286276 212.780305 
L 246.89999 223.815201 
L 247.513703 214.357546 
L 248.127417 208.250504 
L 248.741131 199.592728 
L 249.354844 194.26974 
L 249.968558 179.799797 
L 250.582272 162.393441 
L 251.195986 149.098419 
L 251.809699 143.069778 
L 252.423413 255.965023 
L 253.037127 159.672097 
L 253.65084 106.994465 
L 254.264554 83.876983 
L 254.878268 86.134905 
L 255.491981 85.784189 
L 256.105695 82.753441 
L 256.719409 81.517403 
L 257.333123 208.98669 
L 257.946836 211.685582 
L 258.56055 213.267021 
L 259.174264 218.293468 
L 260.401691 117.950704 
L 261.629118 103.969218 
L 262.856546 189.877314 
L 263.470259 186.996706 
L 264.083973 171.528396 
L 264.697687 75.873671 
L 265.311401 64.971188 
L 265.925114 64.132842 
L 266.538828 67.772984 
L 267.152542 140.407136 
L 268.379969 159.732636 
L 268.993683 166.216393 
L 269.607396 201.993544 
L 270.22111 140.9799 
L 270.834824 125.940898 
L 272.062251 108.262487 
L 273.289679 177.880148 
L 273.903392 218.102712 
L 274.517106 162.501425 
L 275.13082 140.481636 
L 276.358247 177.289347 
L 276.971961 209.55659 
L 277.585675 193.75808 
L 278.199388 190.282684 
L 278.813102 190.563137 
L 279.426816 204.919971 
L 280.040529 210.324885 
L 280.654243 211.731108 
L 281.267957 215.018556 
L 281.88167 212.901153 
L 282.495384 163.716349 
L 283.109098 168.374024 
L 283.722811 169.503388 
L 284.336525 165.253889 
L 284.950239 209.398973 
L 285.563953 227.238684 
L 286.177666 250.679546 
L 286.79138 225.479156 
L 287.405094 164.374434 
L 288.018807 161.393195 
L 288.632521 167.197665 
L 289.246235 239.461029 
L 289.859948 205.948972 
L 290.473662 195.626981 
L 291.087376 183.285102 
L 291.70109 181.670575 
L 292.314803 253.254973 
L 292.928517 277.506973 
L 293.542231 280.072535 
L 294.155944 180.892373 
L 295.383372 188.03738 
L 295.997085 194.959952 
L 296.610799 237.947385 
L 297.838226 194.02897 
L 298.45194 182.653617 
L 299.065654 201.586695 
L 299.679368 72.747805 
L 300.293081 65.279703 
L 300.906795 68.261219 
L 302.134222 245.017826 
L 302.747936 242.779042 
L 303.36165 244.501296 
L 303.975363 190.897841 
L 304.589077 171.118207 
L 305.202791 166.828514 
L 305.816505 167.720258 
L 307.043932 224.774145 
L 308.271359 208.00885 
L 308.885073 166.966654 
L 309.498787 186.366154 
L 310.1125 189.574542 
L 310.726214 200.879846 
L 311.339928 193.44291 
L 311.953642 164.253832 
L 312.567355 170.728345 
L 313.181069 175.522916 
L 313.794783 176.236234 
L 314.408496 143.83711 
L 315.02221 147.374226 
L 315.635924 149.059922 
L 316.249637 263.365415 
L 316.863351 285.449518 
L 317.477065 288.684764 
L 318.090778 287.071501 
L 318.704492 236.76257 
L 319.318206 229.914177 
L 319.93192 218.081211 
L 320.545633 209.601746 
L 321.159347 213.192334 
L 321.773061 163.343695 
L 323.000488 112.435542 
L 323.614202 116.426269 
L 324.227915 209.11329 
L 324.841629 176.332901 
L 325.455343 149.871557 
L 326.069057 264.02457 
L 326.68277 226.603574 
L 327.910198 192.706668 
L 328.523911 201.444911 
L 329.137625 255.274187 
L 329.751339 265.243952 
L 330.365052 251.679863 
L 330.978766 269.639586 
L 331.59248 248.685098 
L 332.819907 198.923737 
L 333.433621 217.413084 
L 334.047335 174.004804 
L 334.661048 169.605665 
L 335.274762 167.037381 
L 335.888476 172.013856 
L 336.502189 89.987633 
L 337.115903 89.550604 
L 337.729617 99.598149 
L 338.34333 156.580637 
L 338.957044 246.330786 
L 339.570758 247.710504 
L 340.184472 251.417179 
L 340.798185 182.168798 
L 341.411899 158.372441 
L 342.025613 168.656362 
L 342.639326 174.863769 
L 343.25304 264.898678 
L 343.866754 199.523927 
L 344.480467 181.388895 
L 345.094181 159.225381 
L 345.707895 200.495826 
L 346.321609 228.957883 
L 346.935322 205.799551 
L 347.549036 190.988981 
L 348.16275 240.877234 
L 348.776463 219.053805 
L 349.390177 221.022163 
L 350.003891 218.311362 
L 350.617604 209.100397 
L 351.231318 209.895296 
L 352.458745 216.828898 
L 353.072459 211.247418 
L 354.299887 207.534015 
L 354.9136 207.468711 
L 355.527314 203.977199 
L 357.368455 166.073396 
L 357.982169 170.85974 
L 358.595882 229.947922 
L 359.209596 231.480997 
L 359.82331 217.654347 
L 360.437024 212.610882 
L 361.050737 176.844518 
L 361.664451 179.950437 
L 362.278165 186.338182 
L 362.891878 175.279347 
L 363.505592 140.744325 
L 364.119306 140.65254 
L 364.733019 138.428368 
L 365.346733 261.684273 
L 365.960447 255.653941 
L 366.574161 224.862065 
L 367.187874 201.165306 
L 367.801588 154.015434 
L 368.415302 235.4296 
L 369.029015 246.182757 
L 369.642729 229.69454 
L 370.256443 144.080355 
L 370.870156 188.249335 
L 371.48387 184.133229 
L 372.097584 176.728852 
L 372.711297 128.697771 
L 373.325011 210.115614 
L 373.938725 210.061532 
L 374.552439 211.707206 
L 375.166152 212.93829 
L 375.779866 171.024342 
L 377.007293 147.928761 
L 377.621007 177.422547 
L 378.234721 221.275312 
L 378.848434 235.979458 
L 379.462148 254.400279 
L 380.075862 281.250501 
L 380.689576 213.587615 
L 381.303289 192.512376 
L 382.530717 160.689728 
L 383.14443 227.780724 
L 383.758144 227.435299 
L 384.371858 232.577699 
L 384.985571 192.319636 
L 385.599285 244.015813 
L 386.212999 242.384461 
L 386.826712 242.588939 
L 387.440426 168.621249 
L 388.05414 165.050014 
L 388.667854 167.683477 
L 389.281567 173.370738 
L 389.895281 243.102845 
L 392.350136 206.283549 
L 392.963849 87.044253 
L 393.577563 73.931285 
L 394.191277 66.640448 
L 394.804991 92.09769 
L 395.418704 104.870696 
L 396.646132 134.4728 
L 397.259845 200.73748 
L 397.873559 205.761529 
L 398.487273 206.304626 
L 398.487273 206.304626 
" clip-path="url(#pf9bc0e1b6b)" style="fill: none; stroke: #ff0000; stroke-width: 1.5; stroke-linecap: square"/>
   </g>
   <g id="line2d_17">
    <path d="M 73.832727 266.213147 
L 74.446441 265.001725 
L 75.060155 263.38564 
L 75.673868 230.415465 
L 76.287582 237.82227 
L 76.901296 253.616116 
L 77.515009 261.888964 
L 78.128723 227.195879 
L 78.742437 231.965803 
L 79.356151 254.280121 
L 79.969864 257.021808 
L 80.583578 289.29794 
L 81.197292 269.809245 
L 81.811005 256.360652 
L 82.424719 247.493048 
L 83.038433 293.07795 
L 83.652146 267.578335 
L 84.26586 259.441958 
L 84.879574 247.959937 
L 85.493288 272.66962 
L 86.107001 252.784024 
L 86.720715 254.640098 
L 87.334429 263.645739 
L 87.948142 254.708232 
L 88.561856 224.040305 
L 89.17557 235.578849 
L 89.789283 257.036746 
L 90.402997 232.785663 
L 91.016711 228.433335 
L 91.630424 230.186088 
L 92.244138 229.357114 
L 92.857852 214.785953 
L 93.471566 213.673921 
L 94.085279 213.310784 
L 94.698993 214.939095 
L 95.312707 203.928672 
L 95.92642 209.853372 
L 96.540134 231.787215 
L 97.153848 258.759481 
L 97.767561 260.473949 
L 98.381275 258.742463 
L 98.994989 257.887126 
L 99.608703 255.254366 
L 100.222416 256.851745 
L 100.83613 256.795914 
L 101.449844 256.226419 
L 102.063557 255.19442 
L 102.677271 251.260965 
L 103.904698 252.67769 
L 104.518412 254.490922 
L 105.132126 264.406875 
L 105.745839 265.850196 
L 106.359553 263.516037 
L 106.973267 262.423767 
L 107.586981 228.503419 
L 108.200694 227.987536 
L 108.814408 226.949249 
L 109.428122 228.245032 
L 110.041835 222.339771 
L 110.655549 224.182972 
L 111.269263 224.422298 
L 111.882976 228.763568 
L 112.49669 216.343767 
L 113.110404 210.976548 
L 114.337831 218.82436 
L 114.951545 229.066677 
L 115.565259 229.24906 
L 116.792686 252.439569 
L 117.4064 244.380516 
L 118.020113 241.016162 
L 118.633827 249.128598 
L 119.247541 254.618716 
L 119.861255 155.908586 
L 120.474968 158.169126 
L 121.088682 187.162605 
L 121.702396 227.586285 
L 122.316109 147.990064 
L 122.929823 177.000046 
L 123.543537 212.664207 
L 124.15725 263.611129 
L 124.770964 142.369941 
L 125.384678 146.465382 
L 125.998391 178.757271 
L 126.612105 224.110331 
L 127.225819 254.826821 
L 127.839533 254.94029 
L 128.453246 255.44938 
L 129.06696 257.503778 
L 129.680674 251.092747 
L 130.294387 248.602252 
L 130.908101 249.006057 
L 131.521815 247.153028 
L 132.135528 255.060332 
L 132.749242 252.722131 
L 133.362956 250.983299 
L 133.97667 247.758441 
L 134.590383 261.16971 
L 135.817811 258.983123 
L 136.431524 256.33133 
L 137.045238 277.854568 
L 137.658952 278.815338 
L 138.272665 278.741697 
L 138.886379 282.547743 
L 139.500093 284.485919 
L 140.72752 279.429792 
L 141.341234 277.367849 
L 141.954948 279.377275 
L 142.568661 278.381121 
L 143.182375 275.949365 
L 143.796089 275.676565 
L 144.409802 251.048481 
L 145.023516 241.141313 
L 145.63723 244.263179 
L 146.250943 248.158993 
L 146.864657 268.848666 
L 147.478371 236.452667 
L 148.092085 237.255176 
L 148.705798 230.371504 
L 149.319512 245.937933 
L 149.933226 229.226174 
L 151.160653 217.918327 
L 151.774367 253.402783 
L 152.38808 249.798193 
L 153.001794 242.921647 
L 153.615508 234.146004 
L 154.229222 269.268234 
L 154.842935 266.23306 
L 155.456649 261.48386 
L 156.070363 272.061793 
L 156.684076 248.125001 
L 157.29779 236.860799 
L 157.911504 228.418281 
L 158.525217 222.63786 
L 159.138931 234.255243 
L 159.752645 223.366553 
L 160.366358 224.473236 
L 160.980072 233.646914 
L 161.593786 236.292074 
L 162.2075 233.443247 
L 162.821213 229.60858 
L 163.434927 227.427371 
L 164.048641 235.521745 
L 164.662354 235.531095 
L 165.276068 234.94888 
L 165.889782 233.364055 
L 166.503495 235.990607 
L 167.117209 236.605817 
L 169.572064 238.386643 
L 170.185778 238.846023 
L 170.799491 240.771544 
L 171.413205 256.51409 
L 172.026919 251.99917 
L 172.640632 256.268332 
L 173.254346 256.815519 
L 173.86806 259.2387 
L 174.481774 267.860245 
L 175.095487 269.821581 
L 175.709201 269.014714 
L 176.322915 183.237261 
L 176.936628 183.779251 
L 177.550342 182.613474 
L 178.164056 185.521579 
L 178.777769 277.895763 
L 179.391483 291.360835 
L 180.005197 295.488 
L 180.61891 295.378065 
L 181.232624 265.294507 
L 181.846338 227.336811 
L 182.460052 224.179206 
L 183.073765 216.529836 
L 183.687479 265.089112 
L 184.301193 231.404371 
L 184.914906 220.531935 
L 185.52862 212.921455 
L 186.142334 250.424445 
L 186.756047 266.283982 
L 187.369761 272.192562 
L 187.983475 276.149302 
L 188.597189 213.601829 
L 189.210902 197.02382 
L 189.824616 195.455084 
L 190.43833 195.708657 
L 191.052043 192.469107 
L 191.665757 204.79171 
L 192.279471 210.481528 
L 192.893184 219.509971 
L 193.506898 190.469225 
L 194.120612 188.750167 
L 194.734325 194.153406 
L 195.348039 201.621909 
L 195.961753 187.139307 
L 196.575467 267.972735 
L 197.18918 278.551124 
L 197.802894 276.505566 
L 198.416608 269.62164 
L 199.030321 277.949528 
L 199.644035 276.338633 
L 200.257749 272.824074 
L 200.871462 266.146579 
L 201.485176 232.922653 
L 202.09889 222.152936 
L 202.712604 209.042836 
L 203.326317 201.932677 
L 203.940031 192.537002 
L 204.553745 186.337128 
L 205.167458 182.611475 
L 205.781172 219.551215 
L 206.394886 227.104524 
L 207.008599 231.319713 
L 207.622313 240.033332 
L 208.236027 234.794147 
L 208.849741 232.238697 
L 210.077168 236.075104 
L 210.690882 249.558564 
L 211.304595 240.706929 
L 211.918309 248.657709 
L 212.532023 254.672591 
L 213.145736 251.985951 
L 213.75945 223.240058 
L 214.373164 216.322554 
L 214.986877 206.205223 
L 215.600591 266.237553 
L 216.214305 258.189942 
L 217.441732 231.092245 
L 218.055446 247.188809 
L 218.66916 229.32004 
L 219.282873 230.050296 
L 219.896587 226.701843 
L 220.510301 249.818743 
L 221.124014 219.040374 
L 222.351442 196.814657 
L 222.965156 197.645601 
L 224.192583 201.038715 
L 224.806297 204.334771 
L 225.42001 184.389195 
L 226.033724 255.358033 
L 226.647438 257.017355 
L 227.261151 251.806331 
L 227.874865 256.002012 
L 228.488579 239.829578 
L 229.102292 234.911819 
L 229.716006 231.459698 
L 230.32972 284.861338 
L 230.943434 285.805134 
L 231.557147 284.724172 
L 232.170861 269.199981 
L 232.784575 217.551843 
L 233.398288 247.252266 
L 234.012002 243.298256 
L 234.625716 231.606692 
L 235.239429 250.418027 
L 235.853143 192.766166 
L 236.466857 179.32272 
L 237.080571 171.781392 
L 237.694284 226.302661 
L 238.307998 241.826527 
L 238.921712 232.138002 
L 239.535425 234.057218 
L 240.149139 201.025828 
L 240.762853 223.59802 
L 241.99028 179.697614 
L 242.603994 221.913545 
L 243.217708 193.852449 
L 243.831421 188.456975 
L 244.445135 188.393206 
L 245.058849 173.703493 
L 245.672562 216.828985 
L 246.89999 198.9401 
L 247.513703 186.684919 
L 248.127417 224.330775 
L 248.741131 222.588569 
L 249.354844 225.197332 
L 249.968558 173.846253 
L 250.582272 197.594352 
L 251.195986 205.77932 
L 251.809699 216.109611 
L 252.423413 292.25329 
L 253.037127 207.166386 
L 253.65084 204.466798 
L 254.264554 207.340606 
L 254.878268 237.007536 
L 255.491981 236.517271 
L 256.105695 243.429821 
L 256.719409 244.744532 
L 257.333123 217.810232 
L 257.946836 221.989445 
L 258.56055 222.436924 
L 259.174264 228.327656 
L 259.787977 171.383161 
L 260.401691 174.5574 
L 261.015405 178.57361 
L 261.629118 184.288554 
L 262.242832 178.304452 
L 262.856546 183.933419 
L 263.470259 207.537236 
L 264.083973 249.847397 
L 264.697687 218.706445 
L 265.311401 230.812278 
L 265.925114 232.655148 
L 266.538828 238.126718 
L 267.152542 250.70019 
L 268.379969 250.323866 
L 268.993683 247.330964 
L 269.607396 209.687991 
L 270.22111 220.383624 
L 270.834824 217.444771 
L 271.448538 215.964638 
L 272.062251 191.422137 
L 272.675965 218.140866 
L 273.289679 202.053347 
L 273.903392 192.784312 
L 275.13082 246.071613 
L 275.744533 239.813711 
L 276.358247 234.73159 
L 276.971961 265.847552 
L 278.199388 220.882351 
L 279.426816 186.221081 
L 280.040529 207.824949 
L 281.267957 221.191871 
L 281.88167 254.276393 
L 282.495384 247.811222 
L 283.722811 220.421074 
L 284.336525 162.633547 
L 284.950239 202.171007 
L 285.563953 224.096634 
L 286.177666 251.465173 
L 286.79138 228.883267 
L 287.405094 169.991045 
L 288.018807 168.766881 
L 288.632521 175.939667 
L 289.246235 226.756932 
L 289.859948 242.424722 
L 291.087376 212.845992 
L 291.70109 224.396734 
L 292.314803 254.997815 
L 293.542231 277.845575 
L 294.155944 197.438593 
L 294.769658 193.342706 
L 295.997085 202.063692 
L 296.610799 233.903553 
L 297.224513 228.586486 
L 297.838226 213.057566 
L 298.45194 205.104904 
L 299.065654 176.002042 
L 299.679368 232.614641 
L 300.906795 248.621387 
L 301.520509 233.914731 
L 302.134222 249.322851 
L 302.747936 253.353237 
L 303.36165 250.3275 
L 303.975363 288.001559 
L 304.589077 280.863334 
L 305.202791 278.518477 
L 305.816505 276.659791 
L 306.430218 225.552933 
L 307.043932 203.918488 
L 307.657646 189.864393 
L 308.271359 179.018888 
L 308.885073 176.173662 
L 309.498787 175.245749 
L 310.1125 179.133663 
L 310.726214 185.385427 
L 311.339928 200.781088 
L 311.953642 193.487999 
L 312.567355 201.849409 
L 313.181069 204.955766 
L 313.794783 236.916104 
L 314.408496 239.009089 
L 315.635924 248.00217 
L 316.249637 256.921254 
L 316.863351 286.999297 
L 317.477065 291.077693 
L 318.090778 289.378619 
L 318.704492 244.373356 
L 319.318206 221.268679 
L 319.93192 204.56262 
L 320.545633 191.568078 
L 321.159347 217.853523 
L 321.773061 273.610386 
L 322.386774 273.883374 
L 323.000488 265.567209 
L 323.614202 249.172296 
L 324.227915 196.106258 
L 325.455343 230.685187 
L 326.069057 258.096217 
L 326.68277 256.972805 
L 327.296484 250.537346 
L 327.910198 242.877608 
L 328.523911 253.705415 
L 329.137625 261.793579 
L 330.365052 250.064958 
L 330.978766 264.858115 
L 331.59248 237.258081 
L 332.206194 229.482637 
L 332.819907 223.692389 
L 333.433621 216.507333 
L 334.047335 164.60099 
L 334.661048 164.484034 
L 335.274762 167.909164 
L 335.888476 203.277609 
L 336.502189 229.435987 
L 337.115903 229.70066 
L 337.729617 232.879759 
L 338.34333 265.629881 
L 338.957044 279.059764 
L 339.570758 279.054231 
L 340.184472 278.676594 
L 340.798185 255.10314 
L 341.411899 251.819284 
L 342.025613 257.320302 
L 342.639326 265.875597 
L 343.25304 264.699482 
L 345.094181 219.246081 
L 345.707895 243.003477 
L 346.321609 243.076228 
L 346.935322 220.493008 
L 347.549036 206.632531 
L 348.16275 238.582467 
L 348.776463 215.294454 
L 349.390177 214.344456 
L 350.003891 205.706018 
L 351.231318 231.442455 
L 351.845032 238.55528 
L 352.458745 242.727991 
L 353.686173 224.526745 
L 354.299887 217.671563 
L 354.9136 214.097644 
L 356.141028 203.664421 
L 356.754741 191.18175 
L 357.368455 185.091256 
L 357.982169 191.994834 
L 358.595882 228.493832 
L 359.209596 216.484465 
L 359.82331 218.334181 
L 360.437024 197.016701 
L 361.050737 260.920368 
L 362.278165 244.589277 
L 362.891878 233.000812 
L 363.505592 232.378631 
L 364.119306 232.18121 
L 364.733019 235.004132 
L 365.346733 246.18128 
L 365.960447 290.711957 
L 366.574161 285.475197 
L 367.187874 281.718161 
L 367.801588 273.258559 
L 368.415302 237.225101 
L 369.029015 233.434577 
L 369.642729 215.522144 
L 370.256443 184.779097 
L 370.870156 201.105621 
L 371.48387 213.642667 
L 372.097584 229.71579 
L 372.711297 269.177229 
L 373.325011 215.862981 
L 374.552439 193.078811 
L 375.166152 225.207588 
L 375.779866 266.441231 
L 376.39358 261.233001 
L 377.007293 244.195065 
L 377.621007 171.860145 
L 378.234721 214.423556 
L 378.848434 229.072896 
L 379.462148 250.020417 
L 380.075862 284.230359 
L 380.689576 187.012705 
L 381.303289 174.982462 
L 381.917003 173.863481 
L 383.14443 238.961174 
L 383.758144 242.719325 
L 384.371858 241.149429 
L 384.985571 218.520486 
L 386.212999 229.731281 
L 386.826712 239.445438 
L 387.440426 196.531206 
L 388.05414 185.654736 
L 388.667854 189.004391 
L 389.281567 191.135346 
L 389.895281 245.360094 
L 390.508995 253.022917 
L 391.122708 256.064078 
L 391.736422 253.96629 
L 392.350136 219.118817 
L 392.963849 208.194334 
L 393.577563 212.197915 
L 394.804991 224.957585 
L 395.418704 248.737666 
L 396.032418 257.334095 
L 396.646132 258.732981 
L 397.259845 193.572685 
L 397.873559 180.426437 
L 398.487273 179.336859 
L 398.487273 179.336859 
" clip-path="url(#pf9bc0e1b6b)" style="fill: none; stroke: #808080; stroke-width: 1.5; stroke-linecap: square"/>
   </g>
   <g id="patch_3">
    <path d="M 57.6 307.584 
L 57.6 41.472 
" style="fill: none; stroke: #000000; stroke-width: 0.8; stroke-linejoin: miter; stroke-linecap: square"/>
   </g>
   <g id="patch_4">
    <path d="M 414.72 307.584 
L 414.72 41.472 
" style="fill: none; stroke: #000000; stroke-width: 0.8; stroke-linejoin: miter; stroke-linecap: square"/>
   </g>
   <g id="patch_5">
    <path d="M 57.6 307.584 
L 414.72 307.584 
" style="fill: none; stroke: #000000; stroke-width: 0.8; stroke-linejoin: miter; stroke-linecap: square"/>
   </g>
   <g id="patch_6">
    <path d="M 57.6 41.472 
L 414.72 41.472 
" style="fill: none; stroke: #000000; stroke-width: 0.8; stroke-linejoin: miter; stroke-linecap: square"/>
   </g>
  </g>
 </g>
 <defs>
  <clipPath id="pf9bc0e1b6b">
   <rect x="57.6" y="41.472" width="357.12" height="266.112"/>
  </clipPath>
 </defs>
</svg>
