<?xml version="1.0" encoding="utf-8" standalone="no"?>
<!DOCTYPE svg PUBLIC "-//W3C//DTD SVG 1.1//EN"
  "http://www.w3.org/Graphics/SVG/1.1/DTD/svg11.dtd">
<svg xmlns:xlink="http://www.w3.org/1999/xlink" width="460.8pt" height="345.6pt" viewBox="0 0 460.8 345.6" xmlns="http://www.w3.org/2000/svg" version="1.1">
 <metadata>
  <rdf:RDF xmlns:dc="http://purl.org/dc/elements/1.1/" xmlns:cc="http://creativecommons.org/ns#" xmlns:rdf="http://www.w3.org/1999/02/22-rdf-syntax-ns#">
   <cc:Work>
    <dc:type rdf:resource="http://purl.org/dc/dcmitype/StillImage"/>
    <dc:date>2025-03-27T00:44:46.721312</dc:date>
    <dc:format>image/svg+xml</dc:format>
    <dc:creator>
     <cc:Agent>
      <dc:title>Matplotlib v3.6.3, https://matplotlib.org/</dc:title>
     </cc:Agent>
    </dc:creator>
   </cc:Work>
  </rdf:RDF>
 </metadata>
 <defs>
  <style type="text/css">*{stroke-linejoin: round; stroke-linecap: butt}</style>
 </defs>
 <g id="figure_1">
  <g id="patch_1">
   <path d="M 0 345.6 
L 460.8 345.6 
L 460.8 0 
L 0 0 
z
" style="fill: #ffffff"/>
  </g>
  <g id="axes_1">
   <g id="patch_2">
    <path d="M 57.6 307.584 
L 414.72 307.584 
L 414.72 41.472 
L 57.6 41.472 
z
" style="fill: #ffffff"/>
   </g>
   <g id="matplotlib.axis_1">
    <g id="xtick_1">
     <g id="line2d_1">
      <defs>
       <path id="mb782ed7478" d="M 0 0 
L 0 3.5 
" style="stroke: #000000; stroke-width: 0.8"/>
      </defs>
      <g>
       <use xlink:href="#mb782ed7478" x="73.767783" y="307.584" style="stroke: #000000; stroke-width: 0.8"/>
      </g>
     </g>
     <g id="text_1">
      <!-- 0 -->
      <g transform="translate(70.586533 322.182437) scale(0.1 -0.1)">
       <defs>
        <path id="DejaVuSans-30" d="M 2034 4250 
Q 1547 4250 1301 3770 
Q 1056 3291 1056 2328 
Q 1056 1369 1301 889 
Q 1547 409 2034 409 
Q 2525 409 2770 889 
Q 3016 1369 3016 2328 
Q 3016 3291 2770 3770 
Q 2525 4250 2034 4250 
z
M 2034 4750 
Q 2819 4750 3233 4129 
Q 3647 3509 3647 2328 
Q 3647 1150 3233 529 
Q 2819 -91 2034 -91 
Q 1250 -91 836 529 
Q 422 1150 422 2328 
Q 422 3509 836 4129 
Q 1250 4750 2034 4750 
z
" transform="scale(0.015625)"/>
       </defs>
       <use xlink:href="#DejaVuSans-30"/>
      </g>
     </g>
    </g>
    <g id="xtick_2">
     <g id="line2d_2">
      <g>
       <use xlink:href="#mb782ed7478" x="138.711681" y="307.584" style="stroke: #000000; stroke-width: 0.8"/>
      </g>
     </g>
     <g id="text_2">
      <!-- 10000 -->
      <g transform="translate(122.805431 322.182437) scale(0.1 -0.1)">
       <defs>
        <path id="DejaVuSans-31" d="M 794 531 
L 1825 531 
L 1825 4091 
L 703 3866 
L 703 4441 
L 1819 4666 
L 2450 4666 
L 2450 531 
L 3481 531 
L 3481 0 
L 794 0 
L 794 531 
z
" transform="scale(0.015625)"/>
       </defs>
       <use xlink:href="#DejaVuSans-31"/>
       <use xlink:href="#DejaVuSans-30" x="63.623047"/>
       <use xlink:href="#DejaVuSans-30" x="127.246094"/>
       <use xlink:href="#DejaVuSans-30" x="190.869141"/>
       <use xlink:href="#DejaVuSans-30" x="254.492188"/>
      </g>
     </g>
    </g>
    <g id="xtick_3">
     <g id="line2d_3">
      <g>
       <use xlink:href="#mb782ed7478" x="203.655579" y="307.584" style="stroke: #000000; stroke-width: 0.8"/>
      </g>
     </g>
     <g id="text_3">
      <!-- 20000 -->
      <g transform="translate(187.749329 322.182437) scale(0.1 -0.1)">
       <defs>
        <path id="DejaVuSans-32" d="M 1228 531 
L 3431 531 
L 3431 0 
L 469 0 
L 469 531 
Q 828 903 1448 1529 
Q 2069 2156 2228 2338 
Q 2531 2678 2651 2914 
Q 2772 3150 2772 3378 
Q 2772 3750 2511 3984 
Q 2250 4219 1831 4219 
Q 1534 4219 1204 4116 
Q 875 4013 500 3803 
L 500 4441 
Q 881 4594 1212 4672 
Q 1544 4750 1819 4750 
Q 2544 4750 2975 4387 
Q 3406 4025 3406 3419 
Q 3406 3131 3298 2873 
Q 3191 2616 2906 2266 
Q 2828 2175 2409 1742 
Q 1991 1309 1228 531 
z
" transform="scale(0.015625)"/>
       </defs>
       <use xlink:href="#DejaVuSans-32"/>
       <use xlink:href="#DejaVuSans-30" x="63.623047"/>
       <use xlink:href="#DejaVuSans-30" x="127.246094"/>
       <use xlink:href="#DejaVuSans-30" x="190.869141"/>
       <use xlink:href="#DejaVuSans-30" x="254.492188"/>
      </g>
     </g>
    </g>
    <g id="xtick_4">
     <g id="line2d_4">
      <g>
       <use xlink:href="#mb782ed7478" x="268.599477" y="307.584" style="stroke: #000000; stroke-width: 0.8"/>
      </g>
     </g>
     <g id="text_4">
      <!-- 30000 -->
      <g transform="translate(252.693227 322.182437) scale(0.1 -0.1)">
       <defs>
        <path id="DejaVuSans-33" d="M 2597 2516 
Q 3050 2419 3304 2112 
Q 3559 1806 3559 1356 
Q 3559 666 3084 287 
Q 2609 -91 1734 -91 
Q 1441 -91 1130 -33 
Q 819 25 488 141 
L 488 750 
Q 750 597 1062 519 
Q 1375 441 1716 441 
Q 2309 441 2620 675 
Q 2931 909 2931 1356 
Q 2931 1769 2642 2001 
Q 2353 2234 1838 2234 
L 1294 2234 
L 1294 2753 
L 1863 2753 
Q 2328 2753 2575 2939 
Q 2822 3125 2822 3475 
Q 2822 3834 2567 4026 
Q 2313 4219 1838 4219 
Q 1578 4219 1281 4162 
Q 984 4106 628 3988 
L 628 4550 
Q 988 4650 1302 4700 
Q 1616 4750 1894 4750 
Q 2613 4750 3031 4423 
Q 3450 4097 3450 3541 
Q 3450 3153 3228 2886 
Q 3006 2619 2597 2516 
z
" transform="scale(0.015625)"/>
       </defs>
       <use xlink:href="#DejaVuSans-33"/>
       <use xlink:href="#DejaVuSans-30" x="63.623047"/>
       <use xlink:href="#DejaVuSans-30" x="127.246094"/>
       <use xlink:href="#DejaVuSans-30" x="190.869141"/>
       <use xlink:href="#DejaVuSans-30" x="254.492188"/>
      </g>
     </g>
    </g>
    <g id="xtick_5">
     <g id="line2d_5">
      <g>
       <use xlink:href="#mb782ed7478" x="333.543375" y="307.584" style="stroke: #000000; stroke-width: 0.8"/>
      </g>
     </g>
     <g id="text_5">
      <!-- 40000 -->
      <g transform="translate(317.637125 322.182437) scale(0.1 -0.1)">
       <defs>
        <path id="DejaVuSans-34" d="M 2419 4116 
L 825 1625 
L 2419 1625 
L 2419 4116 
z
M 2253 4666 
L 3047 4666 
L 3047 1625 
L 3713 1625 
L 3713 1100 
L 3047 1100 
L 3047 0 
L 2419 0 
L 2419 1100 
L 313 1100 
L 313 1709 
L 2253 4666 
z
" transform="scale(0.015625)"/>
       </defs>
       <use xlink:href="#DejaVuSans-34"/>
       <use xlink:href="#DejaVuSans-30" x="63.623047"/>
       <use xlink:href="#DejaVuSans-30" x="127.246094"/>
       <use xlink:href="#DejaVuSans-30" x="190.869141"/>
       <use xlink:href="#DejaVuSans-30" x="254.492188"/>
      </g>
     </g>
    </g>
    <g id="xtick_6">
     <g id="line2d_6">
      <g>
       <use xlink:href="#mb782ed7478" x="398.487273" y="307.584" style="stroke: #000000; stroke-width: 0.8"/>
      </g>
     </g>
     <g id="text_6">
      <!-- 50000 -->
      <g transform="translate(382.581023 322.182437) scale(0.1 -0.1)">
       <defs>
        <path id="DejaVuSans-35" d="M 691 4666 
L 3169 4666 
L 3169 4134 
L 1269 4134 
L 1269 2991 
Q 1406 3038 1543 3061 
Q 1681 3084 1819 3084 
Q 2600 3084 3056 2656 
Q 3513 2228 3513 1497 
Q 3513 744 3044 326 
Q 2575 -91 1722 -91 
Q 1428 -91 1123 -41 
Q 819 9 494 109 
L 494 744 
Q 775 591 1075 516 
Q 1375 441 1709 441 
Q 2250 441 2565 725 
Q 2881 1009 2881 1497 
Q 2881 1984 2565 2268 
Q 2250 2553 1709 2553 
Q 1456 2553 1204 2497 
Q 953 2441 691 2322 
L 691 4666 
z
" transform="scale(0.015625)"/>
       </defs>
       <use xlink:href="#DejaVuSans-35"/>
       <use xlink:href="#DejaVuSans-30" x="63.623047"/>
       <use xlink:href="#DejaVuSans-30" x="127.246094"/>
       <use xlink:href="#DejaVuSans-30" x="190.869141"/>
       <use xlink:href="#DejaVuSans-30" x="254.492188"/>
      </g>
     </g>
    </g>
    <g id="text_7">
     <!-- Number of Traces -->
     <g transform="translate(192.21 335.860562) scale(0.1 -0.1)">
      <defs>
       <path id="DejaVuSans-4e" d="M 628 4666 
L 1478 4666 
L 3547 763 
L 3547 4666 
L 4159 4666 
L 4159 0 
L 3309 0 
L 1241 3903 
L 1241 0 
L 628 0 
L 628 4666 
z
" transform="scale(0.015625)"/>
       <path id="DejaVuSans-75" d="M 544 1381 
L 544 3500 
L 1119 3500 
L 1119 1403 
Q 1119 906 1312 657 
Q 1506 409 1894 409 
Q 2359 409 2629 706 
Q 2900 1003 2900 1516 
L 2900 3500 
L 3475 3500 
L 3475 0 
L 2900 0 
L 2900 538 
Q 2691 219 2414 64 
Q 2138 -91 1772 -91 
Q 1169 -91 856 284 
Q 544 659 544 1381 
z
M 1991 3584 
L 1991 3584 
z
" transform="scale(0.015625)"/>
       <path id="DejaVuSans-6d" d="M 3328 2828 
Q 3544 3216 3844 3400 
Q 4144 3584 4550 3584 
Q 5097 3584 5394 3201 
Q 5691 2819 5691 2113 
L 5691 0 
L 5113 0 
L 5113 2094 
Q 5113 2597 4934 2840 
Q 4756 3084 4391 3084 
Q 3944 3084 3684 2787 
Q 3425 2491 3425 1978 
L 3425 0 
L 2847 0 
L 2847 2094 
Q 2847 2600 2669 2842 
Q 2491 3084 2119 3084 
Q 1678 3084 1418 2786 
Q 1159 2488 1159 1978 
L 1159 0 
L 581 0 
L 581 3500 
L 1159 3500 
L 1159 2956 
Q 1356 3278 1631 3431 
Q 1906 3584 2284 3584 
Q 2666 3584 2933 3390 
Q 3200 3197 3328 2828 
z
" transform="scale(0.015625)"/>
       <path id="DejaVuSans-62" d="M 3116 1747 
Q 3116 2381 2855 2742 
Q 2594 3103 2138 3103 
Q 1681 3103 1420 2742 
Q 1159 2381 1159 1747 
Q 1159 1113 1420 752 
Q 1681 391 2138 391 
Q 2594 391 2855 752 
Q 3116 1113 3116 1747 
z
M 1159 2969 
Q 1341 3281 1617 3432 
Q 1894 3584 2278 3584 
Q 2916 3584 3314 3078 
Q 3713 2572 3713 1747 
Q 3713 922 3314 415 
Q 2916 -91 2278 -91 
Q 1894 -91 1617 61 
Q 1341 213 1159 525 
L 1159 0 
L 581 0 
L 581 4863 
L 1159 4863 
L 1159 2969 
z
" transform="scale(0.015625)"/>
       <path id="DejaVuSans-65" d="M 3597 1894 
L 3597 1613 
L 953 1613 
Q 991 1019 1311 708 
Q 1631 397 2203 397 
Q 2534 397 2845 478 
Q 3156 559 3463 722 
L 3463 178 
Q 3153 47 2828 -22 
Q 2503 -91 2169 -91 
Q 1331 -91 842 396 
Q 353 884 353 1716 
Q 353 2575 817 3079 
Q 1281 3584 2069 3584 
Q 2775 3584 3186 3129 
Q 3597 2675 3597 1894 
z
M 3022 2063 
Q 3016 2534 2758 2815 
Q 2500 3097 2075 3097 
Q 1594 3097 1305 2825 
Q 1016 2553 972 2059 
L 3022 2063 
z
" transform="scale(0.015625)"/>
       <path id="DejaVuSans-72" d="M 2631 2963 
Q 2534 3019 2420 3045 
Q 2306 3072 2169 3072 
Q 1681 3072 1420 2755 
Q 1159 2438 1159 1844 
L 1159 0 
L 581 0 
L 581 3500 
L 1159 3500 
L 1159 2956 
Q 1341 3275 1631 3429 
Q 1922 3584 2338 3584 
Q 2397 3584 2469 3576 
Q 2541 3569 2628 3553 
L 2631 2963 
z
" transform="scale(0.015625)"/>
       <path id="DejaVuSans-20" transform="scale(0.015625)"/>
       <path id="DejaVuSans-6f" d="M 1959 3097 
Q 1497 3097 1228 2736 
Q 959 2375 959 1747 
Q 959 1119 1226 758 
Q 1494 397 1959 397 
Q 2419 397 2687 759 
Q 2956 1122 2956 1747 
Q 2956 2369 2687 2733 
Q 2419 3097 1959 3097 
z
M 1959 3584 
Q 2709 3584 3137 3096 
Q 3566 2609 3566 1747 
Q 3566 888 3137 398 
Q 2709 -91 1959 -91 
Q 1206 -91 779 398 
Q 353 888 353 1747 
Q 353 2609 779 3096 
Q 1206 3584 1959 3584 
z
" transform="scale(0.015625)"/>
       <path id="DejaVuSans-66" d="M 2375 4863 
L 2375 4384 
L 1825 4384 
Q 1516 4384 1395 4259 
Q 1275 4134 1275 3809 
L 1275 3500 
L 2222 3500 
L 2222 3053 
L 1275 3053 
L 1275 0 
L 697 0 
L 697 3053 
L 147 3053 
L 147 3500 
L 697 3500 
L 697 3744 
Q 697 4328 969 4595 
Q 1241 4863 1831 4863 
L 2375 4863 
z
" transform="scale(0.015625)"/>
       <path id="DejaVuSans-54" d="M -19 4666 
L 3928 4666 
L 3928 4134 
L 2272 4134 
L 2272 0 
L 1638 0 
L 1638 4134 
L -19 4134 
L -19 4666 
z
" transform="scale(0.015625)"/>
       <path id="DejaVuSans-61" d="M 2194 1759 
Q 1497 1759 1228 1600 
Q 959 1441 959 1056 
Q 959 750 1161 570 
Q 1363 391 1709 391 
Q 2188 391 2477 730 
Q 2766 1069 2766 1631 
L 2766 1759 
L 2194 1759 
z
M 3341 1997 
L 3341 0 
L 2766 0 
L 2766 531 
Q 2569 213 2275 61 
Q 1981 -91 1556 -91 
Q 1019 -91 701 211 
Q 384 513 384 1019 
Q 384 1609 779 1909 
Q 1175 2209 1959 2209 
L 2766 2209 
L 2766 2266 
Q 2766 2663 2505 2880 
Q 2244 3097 1772 3097 
Q 1472 3097 1187 3025 
Q 903 2953 641 2809 
L 641 3341 
Q 956 3463 1253 3523 
Q 1550 3584 1831 3584 
Q 2591 3584 2966 3190 
Q 3341 2797 3341 1997 
z
" transform="scale(0.015625)"/>
       <path id="DejaVuSans-63" d="M 3122 3366 
L 3122 2828 
Q 2878 2963 2633 3030 
Q 2388 3097 2138 3097 
Q 1578 3097 1268 2742 
Q 959 2388 959 1747 
Q 959 1106 1268 751 
Q 1578 397 2138 397 
Q 2388 397 2633 464 
Q 2878 531 3122 666 
L 3122 134 
Q 2881 22 2623 -34 
Q 2366 -91 2075 -91 
Q 1284 -91 818 406 
Q 353 903 353 1747 
Q 353 2603 823 3093 
Q 1294 3584 2113 3584 
Q 2378 3584 2631 3529 
Q 2884 3475 3122 3366 
z
" transform="scale(0.015625)"/>
       <path id="DejaVuSans-73" d="M 2834 3397 
L 2834 2853 
Q 2591 2978 2328 3040 
Q 2066 3103 1784 3103 
Q 1356 3103 1142 2972 
Q 928 2841 928 2578 
Q 928 2378 1081 2264 
Q 1234 2150 1697 2047 
L 1894 2003 
Q 2506 1872 2764 1633 
Q 3022 1394 3022 966 
Q 3022 478 2636 193 
Q 2250 -91 1575 -91 
Q 1294 -91 989 -36 
Q 684 19 347 128 
L 347 722 
Q 666 556 975 473 
Q 1284 391 1588 391 
Q 1994 391 2212 530 
Q 2431 669 2431 922 
Q 2431 1156 2273 1281 
Q 2116 1406 1581 1522 
L 1381 1569 
Q 847 1681 609 1914 
Q 372 2147 372 2553 
Q 372 3047 722 3315 
Q 1072 3584 1716 3584 
Q 2034 3584 2315 3537 
Q 2597 3491 2834 3397 
z
" transform="scale(0.015625)"/>
      </defs>
      <use xlink:href="#DejaVuSans-4e"/>
      <use xlink:href="#DejaVuSans-75" x="74.804688"/>
      <use xlink:href="#DejaVuSans-6d" x="138.183594"/>
      <use xlink:href="#DejaVuSans-62" x="235.595703"/>
      <use xlink:href="#DejaVuSans-65" x="299.072266"/>
      <use xlink:href="#DejaVuSans-72" x="360.595703"/>
      <use xlink:href="#DejaVuSans-20" x="401.708984"/>
      <use xlink:href="#DejaVuSans-6f" x="433.496094"/>
      <use xlink:href="#DejaVuSans-66" x="494.677734"/>
      <use xlink:href="#DejaVuSans-20" x="529.882812"/>
      <use xlink:href="#DejaVuSans-54" x="561.669922"/>
      <use xlink:href="#DejaVuSans-72" x="608.003906"/>
      <use xlink:href="#DejaVuSans-61" x="649.117188"/>
      <use xlink:href="#DejaVuSans-63" x="710.396484"/>
      <use xlink:href="#DejaVuSans-65" x="765.376953"/>
      <use xlink:href="#DejaVuSans-73" x="826.900391"/>
     </g>
    </g>
   </g>
   <g id="matplotlib.axis_2">
    <g id="ytick_1">
     <g id="line2d_7">
      <defs>
       <path id="m3e218f5bfc" d="M 0 0 
L -3.5 0 
" style="stroke: #000000; stroke-width: 0.8"/>
      </defs>
      <g>
       <use xlink:href="#m3e218f5bfc" x="57.6" y="307.584" style="stroke: #000000; stroke-width: 0.8"/>
      </g>
     </g>
     <g id="text_8">
      <!-- 0.0 -->
      <g transform="translate(34.696875 311.383219) scale(0.1 -0.1)">
       <defs>
        <path id="DejaVuSans-2e" d="M 684 794 
L 1344 794 
L 1344 0 
L 684 0 
L 684 794 
z
" transform="scale(0.015625)"/>
       </defs>
       <use xlink:href="#DejaVuSans-30"/>
       <use xlink:href="#DejaVuSans-2e" x="63.623047"/>
       <use xlink:href="#DejaVuSans-30" x="95.410156"/>
      </g>
     </g>
    </g>
    <g id="ytick_2">
     <g id="line2d_8">
      <g>
       <use xlink:href="#m3e218f5bfc" x="57.6" y="254.3616" style="stroke: #000000; stroke-width: 0.8"/>
      </g>
     </g>
     <g id="text_9">
      <!-- 0.2 -->
      <g transform="translate(34.696875 258.160819) scale(0.1 -0.1)">
       <use xlink:href="#DejaVuSans-30"/>
       <use xlink:href="#DejaVuSans-2e" x="63.623047"/>
       <use xlink:href="#DejaVuSans-32" x="95.410156"/>
      </g>
     </g>
    </g>
    <g id="ytick_3">
     <g id="line2d_9">
      <g>
       <use xlink:href="#m3e218f5bfc" x="57.6" y="201.1392" style="stroke: #000000; stroke-width: 0.8"/>
      </g>
     </g>
     <g id="text_10">
      <!-- 0.4 -->
      <g transform="translate(34.696875 204.938419) scale(0.1 -0.1)">
       <use xlink:href="#DejaVuSans-30"/>
       <use xlink:href="#DejaVuSans-2e" x="63.623047"/>
       <use xlink:href="#DejaVuSans-34" x="95.410156"/>
      </g>
     </g>
    </g>
    <g id="ytick_4">
     <g id="line2d_10">
      <g>
       <use xlink:href="#m3e218f5bfc" x="57.6" y="147.9168" style="stroke: #000000; stroke-width: 0.8"/>
      </g>
     </g>
     <g id="text_11">
      <!-- 0.6 -->
      <g transform="translate(34.696875 151.716019) scale(0.1 -0.1)">
       <defs>
        <path id="DejaVuSans-36" d="M 2113 2584 
Q 1688 2584 1439 2293 
Q 1191 2003 1191 1497 
Q 1191 994 1439 701 
Q 1688 409 2113 409 
Q 2538 409 2786 701 
Q 3034 994 3034 1497 
Q 3034 2003 2786 2293 
Q 2538 2584 2113 2584 
z
M 3366 4563 
L 3366 3988 
Q 3128 4100 2886 4159 
Q 2644 4219 2406 4219 
Q 1781 4219 1451 3797 
Q 1122 3375 1075 2522 
Q 1259 2794 1537 2939 
Q 1816 3084 2150 3084 
Q 2853 3084 3261 2657 
Q 3669 2231 3669 1497 
Q 3669 778 3244 343 
Q 2819 -91 2113 -91 
Q 1303 -91 875 529 
Q 447 1150 447 2328 
Q 447 3434 972 4092 
Q 1497 4750 2381 4750 
Q 2619 4750 2861 4703 
Q 3103 4656 3366 4563 
z
" transform="scale(0.015625)"/>
       </defs>
       <use xlink:href="#DejaVuSans-30"/>
       <use xlink:href="#DejaVuSans-2e" x="63.623047"/>
       <use xlink:href="#DejaVuSans-36" x="95.410156"/>
      </g>
     </g>
    </g>
    <g id="ytick_5">
     <g id="line2d_11">
      <g>
       <use xlink:href="#m3e218f5bfc" x="57.6" y="94.6944" style="stroke: #000000; stroke-width: 0.8"/>
      </g>
     </g>
     <g id="text_12">
      <!-- 0.8 -->
      <g transform="translate(34.696875 98.493619) scale(0.1 -0.1)">
       <defs>
        <path id="DejaVuSans-38" d="M 2034 2216 
Q 1584 2216 1326 1975 
Q 1069 1734 1069 1313 
Q 1069 891 1326 650 
Q 1584 409 2034 409 
Q 2484 409 2743 651 
Q 3003 894 3003 1313 
Q 3003 1734 2745 1975 
Q 2488 2216 2034 2216 
z
M 1403 2484 
Q 997 2584 770 2862 
Q 544 3141 544 3541 
Q 544 4100 942 4425 
Q 1341 4750 2034 4750 
Q 2731 4750 3128 4425 
Q 3525 4100 3525 3541 
Q 3525 3141 3298 2862 
Q 3072 2584 2669 2484 
Q 3125 2378 3379 2068 
Q 3634 1759 3634 1313 
Q 3634 634 3220 271 
Q 2806 -91 2034 -91 
Q 1263 -91 848 271 
Q 434 634 434 1313 
Q 434 1759 690 2068 
Q 947 2378 1403 2484 
z
M 1172 3481 
Q 1172 3119 1398 2916 
Q 1625 2713 2034 2713 
Q 2441 2713 2670 2916 
Q 2900 3119 2900 3481 
Q 2900 3844 2670 4047 
Q 2441 4250 2034 4250 
Q 1625 4250 1398 4047 
Q 1172 3844 1172 3481 
z
" transform="scale(0.015625)"/>
       </defs>
       <use xlink:href="#DejaVuSans-30"/>
       <use xlink:href="#DejaVuSans-2e" x="63.623047"/>
       <use xlink:href="#DejaVuSans-38" x="95.410156"/>
      </g>
     </g>
    </g>
    <g id="ytick_6">
     <g id="line2d_12">
      <g>
       <use xlink:href="#m3e218f5bfc" x="57.6" y="41.472" style="stroke: #000000; stroke-width: 0.8"/>
      </g>
     </g>
     <g id="text_13">
      <!-- 1.0 -->
      <g transform="translate(34.696875 45.271219) scale(0.1 -0.1)">
       <use xlink:href="#DejaVuSans-31"/>
       <use xlink:href="#DejaVuSans-2e" x="63.623047"/>
       <use xlink:href="#DejaVuSans-30" x="95.410156"/>
      </g>
     </g>
    </g>
    <g id="text_14">
     <!-- Highest Correlation Coefficient -->
     <g transform="translate(28.617187 251.288937) rotate(-90) scale(0.1 -0.1)">
      <defs>
       <path id="DejaVuSans-48" d="M 628 4666 
L 1259 4666 
L 1259 2753 
L 3553 2753 
L 3553 4666 
L 4184 4666 
L 4184 0 
L 3553 0 
L 3553 2222 
L 1259 2222 
L 1259 0 
L 628 0 
L 628 4666 
z
" transform="scale(0.015625)"/>
       <path id="DejaVuSans-69" d="M 603 3500 
L 1178 3500 
L 1178 0 
L 603 0 
L 603 3500 
z
M 603 4863 
L 1178 4863 
L 1178 4134 
L 603 4134 
L 603 4863 
z
" transform="scale(0.015625)"/>
       <path id="DejaVuSans-67" d="M 2906 1791 
Q 2906 2416 2648 2759 
Q 2391 3103 1925 3103 
Q 1463 3103 1205 2759 
Q 947 2416 947 1791 
Q 947 1169 1205 825 
Q 1463 481 1925 481 
Q 2391 481 2648 825 
Q 2906 1169 2906 1791 
z
M 3481 434 
Q 3481 -459 3084 -895 
Q 2688 -1331 1869 -1331 
Q 1566 -1331 1297 -1286 
Q 1028 -1241 775 -1147 
L 775 -588 
Q 1028 -725 1275 -790 
Q 1522 -856 1778 -856 
Q 2344 -856 2625 -561 
Q 2906 -266 2906 331 
L 2906 616 
Q 2728 306 2450 153 
Q 2172 0 1784 0 
Q 1141 0 747 490 
Q 353 981 353 1791 
Q 353 2603 747 3093 
Q 1141 3584 1784 3584 
Q 2172 3584 2450 3431 
Q 2728 3278 2906 2969 
L 2906 3500 
L 3481 3500 
L 3481 434 
z
" transform="scale(0.015625)"/>
       <path id="DejaVuSans-68" d="M 3513 2113 
L 3513 0 
L 2938 0 
L 2938 2094 
Q 2938 2591 2744 2837 
Q 2550 3084 2163 3084 
Q 1697 3084 1428 2787 
Q 1159 2491 1159 1978 
L 1159 0 
L 581 0 
L 581 4863 
L 1159 4863 
L 1159 2956 
Q 1366 3272 1645 3428 
Q 1925 3584 2291 3584 
Q 2894 3584 3203 3211 
Q 3513 2838 3513 2113 
z
" transform="scale(0.015625)"/>
       <path id="DejaVuSans-74" d="M 1172 4494 
L 1172 3500 
L 2356 3500 
L 2356 3053 
L 1172 3053 
L 1172 1153 
Q 1172 725 1289 603 
Q 1406 481 1766 481 
L 2356 481 
L 2356 0 
L 1766 0 
Q 1100 0 847 248 
Q 594 497 594 1153 
L 594 3053 
L 172 3053 
L 172 3500 
L 594 3500 
L 594 4494 
L 1172 4494 
z
" transform="scale(0.015625)"/>
       <path id="DejaVuSans-43" d="M 4122 4306 
L 4122 3641 
Q 3803 3938 3442 4084 
Q 3081 4231 2675 4231 
Q 1875 4231 1450 3742 
Q 1025 3253 1025 2328 
Q 1025 1406 1450 917 
Q 1875 428 2675 428 
Q 3081 428 3442 575 
Q 3803 722 4122 1019 
L 4122 359 
Q 3791 134 3420 21 
Q 3050 -91 2638 -91 
Q 1578 -91 968 557 
Q 359 1206 359 2328 
Q 359 3453 968 4101 
Q 1578 4750 2638 4750 
Q 3056 4750 3426 4639 
Q 3797 4528 4122 4306 
z
" transform="scale(0.015625)"/>
       <path id="DejaVuSans-6c" d="M 603 4863 
L 1178 4863 
L 1178 0 
L 603 0 
L 603 4863 
z
" transform="scale(0.015625)"/>
       <path id="DejaVuSans-6e" d="M 3513 2113 
L 3513 0 
L 2938 0 
L 2938 2094 
Q 2938 2591 2744 2837 
Q 2550 3084 2163 3084 
Q 1697 3084 1428 2787 
Q 1159 2491 1159 1978 
L 1159 0 
L 581 0 
L 581 3500 
L 1159 3500 
L 1159 2956 
Q 1366 3272 1645 3428 
Q 1925 3584 2291 3584 
Q 2894 3584 3203 3211 
Q 3513 2838 3513 2113 
z
" transform="scale(0.015625)"/>
      </defs>
      <use xlink:href="#DejaVuSans-48"/>
      <use xlink:href="#DejaVuSans-69" x="75.195312"/>
      <use xlink:href="#DejaVuSans-67" x="102.978516"/>
      <use xlink:href="#DejaVuSans-68" x="166.455078"/>
      <use xlink:href="#DejaVuSans-65" x="229.833984"/>
      <use xlink:href="#DejaVuSans-73" x="291.357422"/>
      <use xlink:href="#DejaVuSans-74" x="343.457031"/>
      <use xlink:href="#DejaVuSans-20" x="382.666016"/>
      <use xlink:href="#DejaVuSans-43" x="414.453125"/>
      <use xlink:href="#DejaVuSans-6f" x="484.277344"/>
      <use xlink:href="#DejaVuSans-72" x="545.458984"/>
      <use xlink:href="#DejaVuSans-72" x="584.822266"/>
      <use xlink:href="#DejaVuSans-65" x="623.685547"/>
      <use xlink:href="#DejaVuSans-6c" x="685.208984"/>
      <use xlink:href="#DejaVuSans-61" x="712.992188"/>
      <use xlink:href="#DejaVuSans-74" x="774.271484"/>
      <use xlink:href="#DejaVuSans-69" x="813.480469"/>
      <use xlink:href="#DejaVuSans-6f" x="841.263672"/>
      <use xlink:href="#DejaVuSans-6e" x="902.445312"/>
      <use xlink:href="#DejaVuSans-20" x="965.824219"/>
      <use xlink:href="#DejaVuSans-43" x="997.611328"/>
      <use xlink:href="#DejaVuSans-6f" x="1067.435547"/>
      <use xlink:href="#DejaVuSans-65" x="1128.617188"/>
      <use xlink:href="#DejaVuSans-66" x="1190.140625"/>
      <use xlink:href="#DejaVuSans-66" x="1225.345703"/>
      <use xlink:href="#DejaVuSans-69" x="1260.550781"/>
      <use xlink:href="#DejaVuSans-63" x="1288.333984"/>
      <use xlink:href="#DejaVuSans-69" x="1343.314453"/>
      <use xlink:href="#DejaVuSans-65" x="1371.097656"/>
      <use xlink:href="#DejaVuSans-6e" x="1432.621094"/>
      <use xlink:href="#DejaVuSans-74" x="1496"/>
     </g>
    </g>
   </g>
   <g id="line2d_13">
    <path d="M 73.832727 46.622449 
L 74.092503 139.879375 
L 74.157447 134.112254 
L 74.417222 175.42156 
L 74.612054 186.501026 
L 74.741942 182.540678 
L 74.87183 185.650679 
L 75.066661 178.003583 
L 75.131605 181.951628 
L 75.196549 180.163009 
L 75.261493 182.261326 
L 75.326437 180.190794 
L 75.456325 183.257123 
L 75.521269 180.409481 
L 75.651156 188.007467 
L 75.7161 185.881726 
L 75.781044 190.715529 
L 75.910932 186.404606 
L 76.04082 188.814474 
L 76.105764 188.43601 
L 76.235651 189.814722 
L 76.300595 187.013202 
L 76.365539 188.84906 
L 76.625315 193.865897 
L 76.820147 191.171051 
L 76.88509 192.008837 
L 76.950034 190.635317 
L 77.20981 195.321203 
L 77.274754 193.961721 
L 77.339698 195.86739 
L 77.469586 192.873136 
L 77.599473 194.938472 
L 77.794305 193.503627 
L 77.859249 195.618464 
L 77.924193 193.539571 
L 77.989137 194.519497 
L 78.054081 194.458773 
L 78.119025 193.494241 
L 78.183968 193.821305 
L 78.248912 193.435561 
L 78.443744 195.852048 
L 78.508688 195.768418 
L 78.573632 195.29884 
L 78.638576 193.162561 
L 78.70352 194.070628 
L 78.898351 192.426225 
L 78.963295 192.486852 
L 79.028239 193.637624 
L 79.093183 192.274959 
L 79.158127 192.359544 
L 79.223071 193.064856 
L 79.288015 192.297373 
L 79.482846 194.426237 
L 79.54779 193.848891 
L 79.612734 194.175298 
L 79.807566 195.222128 
L 80.002398 193.384056 
L 80.197229 195.178747 
L 80.327117 194.237933 
L 80.392061 194.574498 
L 80.586893 196.746736 
L 80.651837 195.930211 
L 80.781724 196.412708 
L 80.846668 195.936278 
L 80.911612 196.180886 
L 80.976556 196.222445 
L 81.106444 197.114996 
L 81.301276 195.958227 
L 81.366219 196.084873 
L 81.431163 197.215608 
L 81.496107 196.719415 
L 81.561051 196.266551 
L 81.625995 196.603121 
L 81.690939 196.519962 
L 81.885771 195.181306 
L 82.015658 196.547207 
L 82.275434 195.344633 
L 82.53521 197.517627 
L 82.665097 196.908012 
L 82.730041 197.510997 
L 82.794985 197.479399 
L 82.924873 197.505229 
L 82.989817 197.971656 
L 83.054761 197.682573 
L 83.184649 196.737758 
L 83.314536 196.36898 
L 83.37948 196.590143 
L 83.769144 194.275746 
L 83.834088 194.458028 
L 83.899031 194.705819 
L 84.093863 196.115141 
L 84.223751 196.034648 
L 84.483527 198.022413 
L 84.54847 198.846274 
L 84.613414 198.637312 
L 84.678358 198.686388 
L 84.938134 200.100294 
L 85.003078 199.727507 
L 85.068022 199.865384 
L 85.132966 199.64098 
L 85.262853 198.678654 
L 85.522629 199.316345 
L 85.587573 199.289325 
L 85.652517 198.52867 
L 85.847348 199.593174 
L 85.912292 199.350915 
L 86.172068 201.677636 
L 86.237012 201.403195 
L 86.301956 201.940051 
L 86.3669 201.568206 
L 86.431843 201.29116 
L 86.496787 201.481539 
L 86.691619 201.065214 
L 86.886451 201.66531 
L 87.081282 200.869668 
L 87.146226 200.902911 
L 87.21117 200.839374 
L 87.341058 201.376148 
L 87.53589 201.450797 
L 87.730721 201.442448 
L 87.795665 201.709103 
L 87.860609 201.527117 
L 87.925553 201.479157 
L 87.990497 201.682904 
L 88.055441 201.649872 
L 88.120385 201.419821 
L 88.315216 201.882468 
L 88.38016 201.736632 
L 88.445104 201.853086 
L 88.574992 201.138129 
L 88.639936 200.985525 
L 88.834768 202.369356 
L 88.899712 202.282465 
L 88.964655 201.97668 
L 89.029599 202.198861 
L 89.094543 202.953513 
L 89.159487 202.74727 
L 89.354319 202.123129 
L 89.419263 202.700985 
L 89.484207 202.569072 
L 89.808926 203.108221 
L 89.87387 203.104766 
L 89.938814 203.586541 
L 90.19859 202.431092 
L 90.263533 202.466304 
L 90.393421 202.200245 
L 90.458365 202.296013 
L 90.588253 202.528022 
L 90.783085 201.511185 
L 90.848029 201.819718 
L 90.912972 201.671418 
L 90.977916 201.517392 
L 91.04286 201.633965 
L 91.172748 201.927121 
L 91.237692 201.88541 
L 91.36758 201.134778 
L 91.562411 202.291462 
L 91.952075 202.852499 
L 92.081963 202.252712 
L 92.21185 202.789679 
L 92.276794 202.823269 
L 92.341738 203.144414 
L 92.406682 202.951101 
L 92.731402 203.713112 
L 92.796345 203.964415 
L 92.861289 203.92779 
L 92.926233 203.889011 
L 93.056121 203.263154 
L 93.121065 203.594917 
L 93.186009 203.513951 
L 93.380841 202.925212 
L 93.575672 204.007913 
L 93.70556 203.902657 
L 93.770504 204.257418 
L 93.835448 204.024261 
L 93.900392 204.26892 
L 93.965336 204.177932 
L 94.225111 203.447599 
L 94.290055 203.216477 
L 94.354999 203.380351 
L 94.484887 203.279321 
L 94.679718 202.535481 
L 94.744662 202.630336 
L 95.004438 201.777828 
L 95.19927 201.286753 
L 95.264214 201.317026 
L 95.394101 201.072746 
L 95.459045 201.180662 
L 95.588933 201.33236 
L 95.653877 201.196563 
L 95.718821 201.550746 
L 95.783765 201.303518 
L 96.04354 200.845649 
L 96.108484 200.541733 
L 96.303316 201.229763 
L 96.433204 201.055141 
L 96.628035 201.746151 
L 96.692979 201.695443 
L 96.757923 201.934671 
L 96.822867 201.812908 
L 96.887811 201.692368 
L 97.017699 202.122678 
L 97.082643 202.031801 
L 97.147587 202.100267 
L 97.212531 202.186695 
L 97.277474 202.12376 
L 97.342418 201.826681 
L 97.53725 202.254388 
L 97.667138 202.179724 
L 97.732082 202.324796 
L 97.926913 201.60025 
L 97.991857 201.473319 
L 98.056801 201.588667 
L 98.121745 201.6941 
L 98.186689 201.630029 
L 98.316577 201.481478 
L 98.576352 201.9237 
L 98.901072 201.319108 
L 98.966016 201.544002 
L 99.03096 201.446844 
L 99.290735 200.969379 
L 99.355679 201.032537 
L 99.550511 200.493974 
L 99.615455 200.657746 
L 99.745343 200.436162 
L 99.810286 200.429302 
L 99.87523 200.595073 
L 100.135006 200.252973 
L 100.264894 200.456709 
L 100.394782 200.202533 
L 100.654557 200.720571 
L 100.849389 200.09192 
L 100.914333 200.144901 
L 101.239052 199.544975 
L 101.36894 199.916587 
L 101.498828 199.614628 
L 101.693659 199.976022 
L 102.018379 199.533408 
L 102.083323 199.640506 
L 102.343098 200.404993 
L 102.53793 200.794779 
L 102.602874 200.552351 
L 102.667818 200.607987 
L 102.86265 200.855674 
L 102.927594 200.915772 
L 102.992537 201.248729 
L 103.057481 201.177237 
L 103.641976 200.447964 
L 103.771864 200.505817 
L 103.836808 200.426142 
L 103.901752 200.575668 
L 104.03164 200.308834 
L 104.096584 200.388546 
L 104.291415 200.956458 
L 104.421303 200.741637 
L 104.486247 200.780482 
L 104.616135 200.686362 
L 104.87591 200.16872 
L 105.005798 200.552784 
L 105.070742 200.42127 
L 105.135686 200.315685 
L 105.330518 200.663502 
L 105.395462 200.667874 
L 105.525349 200.265478 
L 105.590293 200.333365 
L 105.720181 200.369411 
L 106.044901 200.776679 
L 106.36962 200.194861 
L 106.499508 200.560057 
L 106.564452 200.507651 
L 106.954115 200.002263 
L 107.148947 200.197611 
L 107.343779 199.803477 
L 107.473666 199.826258 
L 107.603554 199.762095 
L 107.733442 200.083799 
L 107.798386 200.037467 
L 107.86333 200.003855 
L 108.058161 199.296434 
L 108.123105 199.354037 
L 108.188049 199.352908 
L 108.447825 199.643626 
L 108.7076 199.677698 
L 108.837488 199.467803 
L 108.967376 199.827505 
L 109.03232 199.596229 
L 109.097264 199.68218 
L 109.227152 199.775063 
L 109.292096 199.595665 
L 109.357039 199.718838 
L 109.486927 199.642313 
L 109.551871 199.646627 
L 109.681759 199.298321 
L 109.811647 199.484092 
L 110.006478 199.239227 
L 110.136366 199.164285 
L 110.331198 199.28958 
L 110.396142 199.19679 
L 110.461086 199.311942 
L 110.52603 199.705262 
L 110.590973 199.571732 
L 110.850749 199.338984 
L 110.915693 199.710016 
L 110.980637 199.667104 
L 111.110525 199.678857 
L 111.175469 199.500986 
L 111.3703 199.723722 
L 111.435244 199.604126 
L 111.500188 200.085431 
L 111.565132 199.986965 
L 111.824908 200.293615 
L 111.889851 200.448289 
L 111.954795 200.362207 
L 112.084683 200.037105 
L 112.149627 200.184679 
L 112.344459 200.378428 
L 112.604234 200.387206 
L 112.734122 200.196619 
L 113.253673 199.94844 
L 113.318617 200.196168 
L 113.383561 200.068496 
L 113.448505 200.250003 
L 113.513449 200.102905 
L 113.708281 199.86346 
L 113.773224 199.747449 
L 113.838168 199.897888 
L 113.903112 199.869229 
L 114.162888 199.842409 
L 114.227832 199.948918 
L 114.292776 199.831004 
L 114.35772 200.003927 
L 114.422663 199.94601 
L 114.747383 199.483788 
L 114.942215 199.616956 
L 115.072102 199.487377 
L 115.137046 199.6492 
L 115.266934 199.66724 
L 115.52671 199.189578 
L 116.111205 198.792721 
L 117.150307 197.976356 
L 117.215251 198.179976 
L 117.280195 198.092824 
L 117.345139 198.125412 
L 117.539971 197.858077 
L 118.059522 198.11181 
L 118.449185 197.770505 
L 118.514129 197.93004 
L 118.579073 197.806906 
L 118.903792 197.370002 
L 118.968736 197.53151 
L 119.03368 197.433259 
L 119.293456 197.361737 
L 119.683119 197.238835 
L 119.813007 197.395043 
L 119.942895 197.320114 
L 120.072783 197.241534 
L 120.332558 197.882023 
L 120.462446 197.765451 
L 120.52739 197.839708 
L 120.657278 197.847333 
L 120.917053 197.447028 
L 120.981997 197.495452 
L 121.371661 197.231261 
L 121.501548 197.465505 
L 121.69638 197.193749 
L 121.761324 197.230176 
L 121.891212 197.515889 
L 121.956156 197.526118 
L 122.215931 197.977473 
L 122.345819 197.931366 
L 122.410763 198.147954 
L 122.475707 197.902208 
L 122.540651 198.023161 
L 122.930314 197.984993 
L 123.125146 197.856542 
L 123.255034 198.067604 
L 123.449865 198.556809 
L 123.579753 198.332223 
L 123.644697 198.443708 
L 123.839529 198.702441 
L 123.904473 198.633328 
L 124.03436 198.750339 
L 124.294136 198.644614 
L 124.35908 198.799936 
L 124.424024 198.669188 
L 124.618855 198.373879 
L 124.813687 198.450326 
L 125.20335 198.063988 
L 125.268294 198.210584 
L 125.333238 198.133035 
L 125.657958 198.082671 
L 125.917733 197.919425 
L 125.982677 198.005472 
L 126.047621 197.918469 
L 126.112565 197.968818 
L 126.307397 197.673248 
L 126.632116 197.808185 
L 126.826948 197.651076 
L 127.02178 197.849736 
L 127.086724 197.783144 
L 127.346499 197.794306 
L 127.476387 197.751638 
L 127.541331 197.699187 
L 127.606275 197.870165 
L 127.671219 197.813943 
L 127.930994 197.944846 
L 128.19077 197.849506 
L 128.255714 197.75939 
L 128.320658 197.833788 
L 128.385601 198.094564 
L 128.450545 198.056246 
L 128.580433 198.06652 
L 128.905153 198.389784 
L 128.970097 198.303427 
L 129.294816 198.692193 
L 129.814367 198.282452 
L 130.009199 198.33086 
L 130.204031 198.433853 
L 130.268975 198.484049 
L 130.333918 198.379796 
L 130.398862 198.546124 
L 130.463806 198.492568 
L 130.918414 198.449972 
L 131.113245 198.780297 
L 131.178189 198.693774 
L 131.373021 198.609915 
L 131.437965 198.816125 
L 131.502909 198.79296 
L 131.69774 198.721429 
L 131.892572 199.042636 
L 132.087404 199.048953 
L 132.217291 199.120102 
L 132.282235 199.225608 
L 132.347179 199.137142 
L 132.412123 199.178993 
L 132.671899 198.740974 
L 132.736843 198.837974 
L 133.061562 198.663841 
L 133.256394 198.419653 
L 133.581113 198.528014 
L 133.711001 198.608902 
L 133.840889 198.453762 
L 134.035721 198.720263 
L 134.165608 198.671807 
L 134.36044 198.7364 
L 134.815047 198.879853 
L 134.944935 198.877529 
L 135.009879 198.74739 
L 135.074823 198.784044 
L 135.269655 198.624567 
L 135.464486 198.509046 
L 136.243813 198.643859 
L 136.373701 198.788851 
L 136.438645 198.715757 
L 136.503589 198.555672 
L 136.633477 198.671754 
L 136.763364 198.447925 
L 136.828308 198.509934 
L 138.062242 198.227372 
L 138.19213 198.3718 
L 138.257074 198.261731 
L 138.322018 198.346959 
L 138.386962 198.386408 
L 138.451906 198.265564 
L 138.51685 198.375762 
L 138.711681 198.303646 
L 140.010559 198.58382 
L 141.309437 199.180425 
L 143.257754 199.182475 
L 143.907193 198.766463 
L 144.556632 198.826225 
L 145.206071 198.633732 
L 145.85551 198.881415 
L 146.504949 198.778066 
L 147.154388 198.401268 
L 149.102705 198.633679 
L 149.752144 198.915036 
L 151.051022 199.10549 
L 151.700461 199.210992 
L 152.3499 199.108174 
L 152.999339 198.84289 
L 153.648778 198.84151 
L 155.597095 198.051655 
L 156.895973 198.378223 
L 158.84429 198.073428 
L 159.493729 198.355291 
L 160.143168 198.091492 
L 161.442046 197.91862 
L 162.740923 198.150214 
L 163.390362 198.0437 
L 164.039801 198.065171 
L 164.68924 197.938696 
L 165.988118 198.11789 
L 166.637557 198.125505 
L 167.286996 198.594207 
L 171.18363 198.657756 
L 172.482508 198.568931 
L 173.781386 198.883193 
L 174.430825 199.00112 
L 175.080264 198.871996 
L 176.379142 198.886262 
L 177.67802 198.402442 
L 178.976898 198.650965 
L 179.626337 198.929476 
L 180.275776 198.91006 
L 180.925215 198.707112 
L 181.574654 198.835736 
L 182.224093 198.801834 
L 183.522971 198.515674 
L 184.821849 198.413701 
L 185.471288 198.39979 
L 186.120727 198.646526 
L 186.770166 198.741329 
L 188.718483 198.604655 
L 189.367922 198.686703 
L 190.017361 198.581644 
L 194.563433 198.674833 
L 195.212872 198.904143 
L 195.862311 198.857242 
L 196.51175 198.933304 
L 197.161189 199.195866 
L 197.810628 199.089557 
L 199.109506 199.267039 
L 199.758945 199.279959 
L 201.057823 199.451303 
L 203.00614 199.50087 
L 204.954457 199.970875 
L 206.902774 199.539957 
L 207.552213 199.46347 
L 208.201652 199.581451 
L 208.851091 199.461662 
L 210.799408 199.623857 
L 214.046603 199.806168 
L 214.696042 199.475746 
L 215.345481 199.370926 
L 215.99492 199.430843 
L 216.644359 199.211019 
L 222.489309 199.482781 
L 223.138748 199.325939 
L 223.788187 199.44963 
L 225.736504 199.24627 
L 227.035382 199.360341 
L 228.33426 199.21309 
L 230.282577 199.105648 
L 230.932016 198.920826 
L 232.880333 199.215848 
L 234.179211 199.231917 
L 234.82865 199.195132 
L 238.075845 199.5794 
L 240.673601 199.605188 
L 241.972479 199.475271 
L 243.920796 199.494683 
L 245.219674 199.508918 
L 246.518552 200.007721 
L 248.466869 199.878676 
L 249.765747 199.916371 
L 250.415186 200.097096 
L 251.064625 200.09248 
L 251.714064 199.918733 
L 254.311819 200.083896 
L 254.961258 200.092939 
L 255.610697 199.965419 
L 258.208453 200.057129 
L 260.806209 200.041971 
L 261.455648 199.949865 
L 263.403965 199.99355 
L 265.352282 200.099086 
L 266.001721 200.193912 
L 269.898355 199.984838 
L 271.846672 200.00401 
L 272.496111 200.149761 
L 273.794989 200.104959 
L 276.392745 199.877117 
L 277.042184 200.035523 
L 280.938818 199.836085 
L 282.237696 199.976292 
L 282.887135 199.861577 
L 284.186012 199.925709 
L 284.835451 199.865931 
L 286.134329 199.929044 
L 288.082646 199.942781 
L 288.732085 200.00277 
L 290.030963 199.945855 
L 290.680402 199.954283 
L 291.97928 200.107758 
L 295.226475 200.18819 
L 296.525353 200.078178 
L 299.772548 200.082674 
L 301.071426 200.061505 
L 302.370304 200.177123 
L 303.019743 200.069258 
L 306.266938 200.139586 
L 308.864694 200.239542 
L 309.514133 200.388677 
L 310.813011 200.402716 
L 312.111889 200.235627 
L 313.410767 200.399032 
L 314.060205 200.266163 
L 317.3074 200.390307 
L 317.956839 200.597279 
L 319.255717 200.662124 
L 321.204034 200.554732 
L 323.152351 200.617518 
L 324.451229 200.596578 
L 325.750107 200.75299 
L 330.945619 200.765759 
L 331.595058 200.626427 
L 333.543375 200.726261 
L 336.79057 200.752741 
L 338.089448 200.65094 
L 345.882715 200.555907 
L 347.181593 200.69577 
L 347.831032 200.602 
L 349.12991 200.696967 
L 350.428788 200.650239 
L 351.078227 200.716434 
L 351.727666 200.621382 
L 354.325422 200.670009 
L 355.6243 200.485109 
L 357.572617 200.602516 
L 360.170373 200.510417 
L 360.819812 200.420956 
L 362.768129 200.458728 
L 363.417568 200.370576 
L 365.365885 200.579268 
L 373.159153 200.712501 
L 375.107469 200.826048 
L 377.055786 200.893561 
L 378.354664 200.889489 
L 379.653542 200.842694 
L 380.95242 200.891728 
L 383.550176 200.935467 
L 384.849054 201.016486 
L 387.44681 200.942683 
L 390.694005 200.857071 
L 391.343444 200.746858 
L 393.291761 200.789618 
L 394.590639 200.645969 
L 398.487273 200.890168 
L 398.487273 200.890168 
" clip-path="url(#p6439f24baf)" style="fill: none; stroke: #808080; stroke-width: 0.8; stroke-linecap: square"/>
   </g>
   <g id="line2d_14">
    <path d="M 73.832727 72.707671 
L 74.157447 157.810485 
L 74.417222 186.688334 
L 74.482166 186.873165 
L 74.741942 205.928311 
L 74.806886 197.426429 
L 75.001717 213.068588 
L 75.326437 222.930845 
L 75.391381 218.521511 
L 75.651156 236.854165 
L 75.7161 235.865203 
L 75.781044 236.416924 
L 76.04082 240.801857 
L 76.105764 241.763296 
L 76.170708 245.070225 
L 76.235651 243.154463 
L 76.365539 237.901338 
L 76.430483 238.356487 
L 76.625315 248.894411 
L 76.755203 245.395869 
L 76.820147 247.55491 
L 76.950034 244.599489 
L 77.014978 246.101095 
L 77.079922 250.276478 
L 77.144866 250.134052 
L 77.20981 250.569367 
L 77.339698 247.811353 
L 77.404642 247.709161 
L 77.469586 248.280265 
L 77.599473 245.898215 
L 77.664417 247.215808 
L 77.729361 246.560663 
L 77.794305 245.80889 
L 77.859249 247.673275 
L 77.924193 246.765481 
L 77.989137 247.196063 
L 78.183968 251.849858 
L 78.248912 250.597363 
L 78.313856 251.128298 
L 78.443744 251.751445 
L 78.508688 250.954542 
L 78.638576 252.214026 
L 78.70352 251.924444 
L 78.768464 253.398233 
L 78.963295 249.630702 
L 79.028239 249.812221 
L 79.093183 250.675838 
L 79.158127 250.16228 
L 79.288015 248.89606 
L 79.677678 254.415023 
L 79.742622 254.838069 
L 79.937454 253.49104 
L 80.132285 252.733816 
L 80.262173 254.18517 
L 80.327117 254.120579 
L 80.457005 254.637007 
L 80.521949 255.171339 
L 80.71678 254.065966 
L 80.781724 254.429263 
L 80.911612 252.69117 
L 80.976556 253.182707 
L 81.0415 252.890889 
L 81.236332 254.375423 
L 81.301276 254.78148 
L 81.431163 254.07106 
L 81.496107 254.075348 
L 81.561051 253.471085 
L 81.885771 255.814907 
L 81.950715 255.668878 
L 82.080602 255.775795 
L 82.21049 254.966807 
L 82.405322 256.718581 
L 82.470266 256.697416 
L 82.53521 257.081213 
L 82.665097 256.280424 
L 82.730041 256.842228 
L 82.794985 256.482009 
L 82.859929 256.475848 
L 82.924873 257.002188 
L 83.119705 255.721441 
L 83.249592 256.536444 
L 83.314536 256.382623 
L 83.444424 255.167321 
L 83.509368 255.172275 
L 83.639256 253.931001 
L 83.7042 254.366199 
L 83.769144 254.353779 
L 83.834088 253.329837 
L 83.899031 253.498297 
L 83.963975 253.327011 
L 84.093863 254.340555 
L 84.223751 253.700197 
L 84.353639 254.400829 
L 84.418583 253.973883 
L 84.483527 254.077499 
L 84.678358 254.559907 
L 84.87319 255.350559 
L 84.938134 255.196436 
L 85.003078 254.658743 
L 85.068022 254.973324 
L 85.132966 254.619302 
L 85.197909 254.688981 
L 85.262853 254.841312 
L 85.327797 254.36626 
L 85.717461 256.091223 
L 85.912292 255.544898 
L 86.107124 256.023981 
L 86.172068 256.257142 
L 86.3669 254.961725 
L 86.431843 255.068269 
L 86.496787 254.826763 
L 86.561731 253.988138 
L 86.626675 254.156049 
L 86.886451 255.063986 
L 86.951395 254.814214 
L 87.081282 253.859976 
L 87.341058 253.4294 
L 87.406002 253.616462 
L 87.470946 253.359355 
L 87.600834 253.864138 
L 87.665778 253.710725 
L 87.730721 253.09493 
L 87.795665 253.13849 
L 87.860609 253.118948 
L 88.055441 254.278846 
L 88.185329 253.915485 
L 88.250273 254.038101 
L 88.38016 254.486187 
L 88.445104 254.526875 
L 88.639936 253.261897 
L 88.70488 253.549181 
L 88.834768 253.272981 
L 88.899712 253.322559 
L 88.964655 253.951081 
L 89.029599 253.739223 
L 89.094543 254.112735 
L 89.159487 253.863022 
L 89.224431 253.581514 
L 89.289375 253.703796 
L 89.484207 254.278792 
L 89.743982 254.793507 
L 89.808926 254.165447 
L 89.87387 254.250452 
L 89.938814 254.102534 
L 90.19859 254.683968 
L 90.263533 254.535778 
L 90.328477 254.805576 
L 90.393421 254.761306 
L 90.458365 254.667918 
L 90.523309 254.77478 
L 90.653197 254.613105 
L 90.718141 254.655341 
L 90.912972 255.012778 
L 90.977916 255.03533 
L 91.04286 255.427255 
L 91.107804 255.282264 
L 91.237692 254.541946 
L 91.302636 254.910628 
L 91.36758 254.714905 
L 91.497467 254.441178 
L 91.562411 254.515745 
L 91.692299 254.833273 
L 91.757243 254.309899 
L 91.822187 254.515872 
L 91.887131 255.029623 
L 91.952075 254.957225 
L 92.017019 255.137146 
L 92.081963 255.018709 
L 92.21185 254.898724 
L 92.341738 254.118146 
L 92.53657 254.505129 
L 92.731402 254.108849 
L 92.926233 254.635456 
L 93.250953 253.441299 
L 93.315897 253.542785 
L 93.380841 253.863711 
L 93.510728 253.186896 
L 93.640616 253.80124 
L 93.70556 253.454144 
L 93.770504 253.315491 
L 93.835448 253.527595 
L 93.900392 253.456544 
L 94.03028 253.213505 
L 94.290055 254.157786 
L 94.354999 254.061112 
L 94.419943 254.11952 
L 94.484887 254.111009 
L 94.549831 253.918476 
L 94.87455 254.571629 
L 95.069382 254.545902 
L 95.19927 254.906381 
L 95.329157 254.732646 
L 95.394101 254.87783 
L 95.459045 254.702744 
L 95.523989 254.795256 
L 95.653877 254.863359 
L 95.848709 254.702548 
L 95.913653 254.673721 
L 95.978596 254.946606 
L 96.108484 254.413675 
L 96.173428 254.445305 
L 96.238372 254.162931 
L 96.303316 254.224314 
L 96.563092 255.082873 
L 96.628035 254.679041 
L 96.822867 255.115258 
L 96.952755 255.359639 
L 97.147587 254.840198 
L 97.212531 254.709577 
L 97.472306 255.225899 
L 97.602194 255.262725 
L 97.667138 255.609762 
L 97.732082 255.472692 
L 97.797026 255.401914 
L 97.991857 254.891684 
L 98.186689 255.281695 
L 98.316577 254.50307 
L 98.381521 254.600904 
L 98.576352 254.44754 
L 98.641296 254.990509 
L 98.70624 254.648499 
L 99.03096 255.709358 
L 99.095904 255.746777 
L 99.160847 255.438037 
L 99.225791 255.568297 
L 99.290735 255.764153 
L 99.355679 255.688389 
L 99.420623 255.547072 
L 99.550511 255.882846 
L 99.745343 255.262078 
L 99.940174 255.779586 
L 100.070062 255.653956 
L 100.264894 255.696812 
L 100.329838 255.708289 
L 100.589613 256.292253 
L 100.654557 256.2184 
L 100.914333 256.011215 
L 101.109164 255.618814 
L 101.174108 255.71294 
L 101.303996 255.713895 
L 101.498828 256.359302 
L 101.628716 256.149344 
L 101.693659 256.267119 
L 101.888491 256.451486 
L 102.018379 256.33487 
L 102.083323 256.446429 
L 102.213211 256.46246 
L 103.122425 257.888961 
L 103.187369 257.817504 
L 103.317257 257.345204 
L 103.512089 257.398863 
L 103.641976 257.556878 
L 103.771864 257.363283 
L 103.901752 257.533781 
L 104.096584 256.891823 
L 104.291415 257.083683 
L 104.486247 256.97044 
L 104.551191 257.070204 
L 104.616135 256.954486 
L 104.810967 255.871129 
L 104.87591 255.923122 
L 105.070742 255.562389 
L 105.265574 255.794396 
L 105.655237 256.470081 
L 105.720181 256.369648 
L 105.785125 256.19783 
L 105.850069 256.347272 
L 105.915013 256.211508 
L 106.044901 256.393685 
L 106.174788 255.965618 
L 106.239732 255.926621 
L 106.499508 256.499979 
L 106.564452 256.335356 
L 106.889171 256.815346 
L 107.019059 256.518543 
L 107.278835 256.814933 
L 107.343779 256.826446 
L 107.86333 255.848741 
L 107.928274 255.999018 
L 108.252993 256.4977 
L 108.447825 255.77537 
L 108.512769 255.884789 
L 108.902432 256.132228 
L 109.097264 255.612071 
L 109.162208 255.643184 
L 109.292096 255.499951 
L 109.551871 255.443536 
L 109.681759 255.39174 
L 109.941534 255.760862 
L 110.071422 255.589172 
L 110.20131 255.688702 
L 110.266254 255.610302 
L 110.396142 255.760173 
L 110.461086 255.693872 
L 110.52603 255.443308 
L 110.720861 255.768918 
L 110.850749 255.728551 
L 111.110525 255.249196 
L 111.175469 254.986602 
L 111.240412 255.027267 
L 111.305356 255.020278 
L 111.500188 254.685087 
L 111.565132 254.73881 
L 111.630076 254.726625 
L 111.69502 254.370393 
L 111.759964 254.416364 
L 111.954795 254.553687 
L 112.149627 254.348336 
L 112.344459 254.424782 
L 112.604234 254.323857 
L 112.669178 253.775581 
L 112.734122 253.848347 
L 112.993898 253.618427 
L 113.188729 253.808516 
L 113.448505 253.727337 
L 113.708281 254.278764 
L 113.838168 254.327981 
L 114.097944 253.912688 
L 114.162888 254.093412 
L 114.227832 254.053624 
L 114.422663 254.075975 
L 114.552551 254.051094 
L 114.682439 253.736157 
L 114.747383 253.737775 
L 114.877271 253.934473 
L 115.072102 253.842057 
L 115.20199 254.064346 
L 115.331878 254.026663 
L 115.591654 254.053483 
L 115.851429 254.354139 
L 115.981317 254.454456 
L 116.046261 254.503788 
L 116.241093 254.280182 
L 116.37098 254.493228 
L 116.435924 254.382517 
L 116.500868 254.461181 
L 116.630756 254.50584 
L 116.890532 254.706753 
L 117.150307 254.220736 
L 117.215251 254.18218 
L 117.280195 254.347573 
L 117.345139 254.22118 
L 117.539971 253.721068 
L 117.604914 253.6953 
L 117.799746 253.89813 
L 117.929634 253.727445 
L 118.059522 253.692981 
L 118.254353 253.687292 
L 118.514129 254.045781 
L 118.838848 254.444968 
L 119.228512 254.55767 
L 119.293456 254.450192 
L 119.3584 254.533039 
L 120.072783 254.230842 
L 120.20267 254.474451 
L 120.267614 254.388532 
L 120.592334 254.559774 
L 120.722222 254.681199 
L 120.787165 254.60812 
L 120.981997 254.249894 
L 121.111885 254.194381 
L 121.176829 254.222251 
L 121.436604 253.706556 
L 121.631436 253.609769 
L 121.826268 253.286459 
L 122.021099 253.359199 
L 122.410763 253.665608 
L 122.540651 253.457873 
L 122.670538 253.676818 
L 122.800426 253.536161 
L 122.930314 253.411581 
L 123.060202 253.528811 
L 123.125146 253.389895 
L 123.19009 253.4428 
L 123.255034 253.537865 
L 123.449865 253.214086 
L 123.644697 253.292079 
L 123.839529 253.391179 
L 124.099304 253.502342 
L 124.229192 253.502418 
L 124.424024 253.74373 
L 124.488968 253.64794 
L 124.553912 253.722138 
L 124.618855 253.731636 
L 124.683799 253.591716 
L 124.748743 253.654032 
L 125.008519 253.395324 
L 125.20335 253.524454 
L 125.268294 253.372565 
L 125.333238 253.488743 
L 125.463126 253.523796 
L 125.593014 253.70641 
L 125.787846 253.45907 
L 125.917733 253.336532 
L 126.112565 253.622523 
L 126.177509 253.480975 
L 126.242453 253.531573 
L 126.437285 253.495943 
L 127.346499 253.586398 
L 127.411443 253.480492 
L 127.541331 253.630925 
L 127.606275 253.499165 
L 127.671219 253.545057 
L 127.86605 253.497011 
L 128.060882 253.156363 
L 128.255714 253.336024 
L 128.320658 253.229072 
L 128.385601 253.275618 
L 128.515489 253.453591 
L 128.580433 253.298746 
L 128.645377 253.422694 
L 128.710321 253.407272 
L 128.775265 253.271728 
L 128.840209 253.346813 
L 128.905153 253.284586 
L 129.164928 253.534373 
L 129.294816 253.516379 
L 129.489648 253.854904 
L 129.684479 253.945502 
L 130.009199 253.884399 
L 130.074143 254.06676 
L 130.139087 253.967545 
L 130.204031 254.001303 
L 130.463806 253.657601 
L 130.52875 253.65079 
L 130.723582 253.772355 
L 130.788526 253.660986 
L 130.85347 253.715709 
L 131.178189 253.942641 
L 131.308077 253.88918 
L 131.437965 253.582346 
L 131.892572 253.71026 
L 131.957516 253.707448 
L 132.087404 253.89295 
L 132.217291 253.782588 
L 132.347179 253.56248 
L 132.477067 253.656126 
L 132.736843 253.533221 
L 133.061562 253.50377 
L 133.256394 253.074221 
L 133.516169 253.153026 
L 133.711001 253.376363 
L 133.775945 253.470361 
L 133.970777 253.267316 
L 134.68516 253.492255 
L 134.815047 253.465457 
L 134.879991 253.539845 
L 135.139767 253.249835 
L 135.204711 253.280875 
L 135.334599 253.206519 
L 135.464486 253.28514 
L 135.52943 253.275923 
L 135.724262 253.518697 
L 135.85415 253.645482 
L 136.048981 253.401917 
L 136.568533 253.592548 
L 136.763364 253.678868 
L 136.893252 253.800322 
L 137.477747 253.624111 
L 137.672579 253.698111 
L 137.867411 253.737931 
L 138.322018 253.8529 
L 138.581793 253.522165 
L 138.711681 253.550414 
L 139.36112 253.459183 
L 140.010559 253.52115 
L 141.309437 253.276612 
L 143.257754 253.603956 
L 144.556632 253.463428 
L 145.206071 253.541767 
L 145.85551 253.473934 
L 146.504949 253.085082 
L 147.154388 253.127912 
L 147.803827 253.364619 
L 148.453266 253.221504 
L 149.752144 253.510373 
L 150.401583 253.558807 
L 151.051022 253.339708 
L 153.648778 253.275882 
L 154.298217 253.594851 
L 156.246534 253.722359 
L 157.545412 253.610341 
L 158.84429 253.774108 
L 160.792607 253.645079 
L 161.442046 253.79647 
L 162.091484 253.61354 
L 163.390362 253.638424 
L 165.988118 253.228635 
L 167.286996 253.102845 
L 167.936435 252.913179 
L 169.884752 253.189829 
L 170.534191 253.35366 
L 171.18363 253.220518 
L 173.781386 253.442249 
L 174.430825 253.33762 
L 175.080264 253.056258 
L 175.729703 253.041434 
L 177.028581 253.229542 
L 177.67802 253.076089 
L 178.976898 253.183008 
L 179.626337 253.374964 
L 180.275776 253.695173 
L 180.925215 253.836595 
L 183.522971 253.736337 
L 184.17241 253.853565 
L 184.821849 253.620345 
L 186.120727 253.756658 
L 187.419605 253.922717 
L 188.069044 254.129547 
L 188.718483 254.084512 
L 189.367922 254.188104 
L 190.017361 253.923718 
L 191.316239 253.797869 
L 193.264555 253.92876 
L 193.913994 254.107429 
L 195.862311 254.302276 
L 197.161189 254.593382 
L 197.810628 254.447205 
L 199.758945 254.528215 
L 201.057823 254.559115 
L 201.707262 254.466253 
L 203.655579 254.737234 
L 204.305018 254.857399 
L 207.552213 254.671005 
L 208.851091 254.696116 
L 212.098286 254.978547 
L 214.046603 255.116498 
L 215.345481 254.934625 
L 222.489309 254.938095 
L 223.138748 254.807575 
L 224.437626 254.923755 
L 226.385943 255.214651 
L 227.684821 255.168558 
L 228.33426 255.279607 
L 229.633138 255.046719 
L 231.581455 254.574379 
L 232.230894 254.494553 
L 232.880333 254.577639 
L 233.529772 254.437621 
L 234.179211 254.681825 
L 234.82865 254.650309 
L 236.127528 254.760247 
L 236.776967 254.777094 
L 238.075845 254.60305 
L 239.374723 254.377186 
L 240.673601 254.592715 
L 241.972479 254.316425 
L 242.621918 254.477343 
L 243.271357 254.493249 
L 244.570235 254.161664 
L 245.869113 254.0807 
L 246.518552 254.245845 
L 247.167991 254.191497 
L 247.81743 254.335305 
L 249.116308 254.198545 
L 249.765747 254.325923 
L 250.415186 254.246855 
L 251.714064 253.86352 
L 253.012941 253.933257 
L 254.311819 253.9222 
L 255.610697 253.658464 
L 257.559014 253.624331 
L 259.507331 253.404455 
L 260.806209 253.311237 
L 261.455648 253.365645 
L 262.754526 253.313195 
L 264.053404 253.292144 
L 265.352282 253.59278 
L 267.300599 253.593814 
L 267.950038 253.442035 
L 269.248916 253.370616 
L 269.898355 253.230384 
L 270.547794 253.226281 
L 271.197233 253.375746 
L 272.496111 253.297706 
L 273.14555 253.375607 
L 275.093867 253.14104 
L 278.341062 253.112692 
L 280.938818 253.06493 
L 282.237696 253.03849 
L 284.186012 253.259594 
L 286.134329 253.211639 
L 293.927597 253.267466 
L 294.577036 253.397882 
L 296.525353 253.296419 
L 297.824231 253.197148 
L 299.123109 253.251281 
L 301.071426 253.205714 
L 303.019743 253.331625 
L 304.318621 253.334958 
L 304.96806 253.408383 
L 305.617499 253.313732 
L 308.215255 253.61877 
L 308.864694 253.510565 
L 314.709644 253.632247 
L 315.359083 253.551633 
L 316.657961 253.565733 
L 318.606278 253.525947 
L 319.255717 253.550212 
L 320.554595 253.410803 
L 321.853473 253.526327 
L 324.451229 253.422457 
L 327.048985 253.474059 
L 328.997302 253.548588 
L 329.646741 253.692615 
L 334.842253 253.822275 
L 342.635521 253.969863 
L 343.28496 254.09076 
L 343.934399 254.028973 
L 344.583837 254.1199 
L 345.882715 254.007806 
L 346.532154 254.108489 
L 350.428788 253.916042 
L 358.222056 253.96924 
L 362.11869 253.852467 
L 364.716446 254.013445 
L 366.015324 253.963938 
L 367.314202 253.863824 
L 368.61308 253.953593 
L 371.210836 253.881546 
L 373.808592 253.811424 
L 377.055786 253.921499 
L 378.354664 253.977157 
L 380.95242 254.066132 
L 382.900737 254.268685 
L 384.849054 254.25723 
L 390.694005 254.148007 
L 393.291761 254.380726 
L 395.240078 254.29764 
L 395.889517 254.420819 
L 397.837834 254.327029 
L 398.487273 254.323948 
L 398.487273 254.323948 
" clip-path="url(#p6439f24baf)" style="fill: none; stroke: #ff0000; stroke-width: 0.8; stroke-linecap: square"/>
   </g>
   <g id="patch_3">
    <path d="M 57.6 307.584 
L 57.6 41.472 
" style="fill: none; stroke: #000000; stroke-width: 0.8; stroke-linejoin: miter; stroke-linecap: square"/>
   </g>
   <g id="patch_4">
    <path d="M 414.72 307.584 
L 414.72 41.472 
" style="fill: none; stroke: #000000; stroke-width: 0.8; stroke-linejoin: miter; stroke-linecap: square"/>
   </g>
   <g id="patch_5">
    <path d="M 57.6 307.584 
L 414.72 307.584 
" style="fill: none; stroke: #000000; stroke-width: 0.8; stroke-linejoin: miter; stroke-linecap: square"/>
   </g>
   <g id="patch_6">
    <path d="M 57.6 41.472 
L 414.72 41.472 
" style="fill: none; stroke: #000000; stroke-width: 0.8; stroke-linejoin: miter; stroke-linecap: square"/>
   </g>
   <g id="legend_1">
    <g id="patch_7">
     <path d="M 257.555938 78.82825 
L 407.72 78.82825 
Q 409.72 78.82825 409.72 76.82825 
L 409.72 48.472 
Q 409.72 46.472 407.72 46.472 
L 257.555938 46.472 
Q 255.555938 46.472 255.555938 48.472 
L 255.555938 76.82825 
Q 255.555938 78.82825 257.555938 78.82825 
z
" style="fill: #ffffff; opacity: 0.8; stroke: #cccccc; stroke-linejoin: miter"/>
    </g>
    <g id="line2d_15">
     <path d="M 259.555938 54.570437 
L 269.555938 54.570437 
L 279.555938 54.570437 
" style="fill: none; stroke: #808080; stroke-width: 0.8; stroke-linecap: square"/>
    </g>
    <g id="text_15">
     <!-- Incorrect Weight Values -->
     <g transform="translate(287.555938 58.070437) scale(0.1 -0.1)">
      <defs>
       <path id="DejaVuSans-49" d="M 628 4666 
L 1259 4666 
L 1259 0 
L 628 0 
L 628 4666 
z
" transform="scale(0.015625)"/>
       <path id="DejaVuSans-57" d="M 213 4666 
L 850 4666 
L 1831 722 
L 2809 4666 
L 3519 4666 
L 4500 722 
L 5478 4666 
L 6119 4666 
L 4947 0 
L 4153 0 
L 3169 4050 
L 2175 0 
L 1381 0 
L 213 4666 
z
" transform="scale(0.015625)"/>
       <path id="DejaVuSans-56" d="M 1831 0 
L 50 4666 
L 709 4666 
L 2188 738 
L 3669 4666 
L 4325 4666 
L 2547 0 
L 1831 0 
z
" transform="scale(0.015625)"/>
      </defs>
      <use xlink:href="#DejaVuSans-49"/>
      <use xlink:href="#DejaVuSans-6e" x="29.492188"/>
      <use xlink:href="#DejaVuSans-63" x="92.871094"/>
      <use xlink:href="#DejaVuSans-6f" x="147.851562"/>
      <use xlink:href="#DejaVuSans-72" x="209.033203"/>
      <use xlink:href="#DejaVuSans-72" x="248.396484"/>
      <use xlink:href="#DejaVuSans-65" x="287.259766"/>
      <use xlink:href="#DejaVuSans-63" x="348.783203"/>
      <use xlink:href="#DejaVuSans-74" x="403.763672"/>
      <use xlink:href="#DejaVuSans-20" x="442.972656"/>
      <use xlink:href="#DejaVuSans-57" x="474.759766"/>
      <use xlink:href="#DejaVuSans-65" x="567.761719"/>
      <use xlink:href="#DejaVuSans-69" x="629.285156"/>
      <use xlink:href="#DejaVuSans-67" x="657.068359"/>
      <use xlink:href="#DejaVuSans-68" x="720.544922"/>
      <use xlink:href="#DejaVuSans-74" x="783.923828"/>
      <use xlink:href="#DejaVuSans-20" x="823.132812"/>
      <use xlink:href="#DejaVuSans-56" x="854.919922"/>
      <use xlink:href="#DejaVuSans-61" x="915.578125"/>
      <use xlink:href="#DejaVuSans-6c" x="976.857422"/>
      <use xlink:href="#DejaVuSans-75" x="1004.640625"/>
      <use xlink:href="#DejaVuSans-65" x="1068.019531"/>
      <use xlink:href="#DejaVuSans-73" x="1129.542969"/>
     </g>
    </g>
    <g id="line2d_16">
     <path d="M 259.555938 69.248562 
L 269.555938 69.248562 
L 279.555938 69.248562 
" style="fill: none; stroke: #ff0000; stroke-width: 0.8; stroke-linecap: square"/>
    </g>
    <g id="text_16">
     <!-- True Weight Value -->
     <g transform="translate(287.555938 72.748562) scale(0.1 -0.1)">
      <use xlink:href="#DejaVuSans-54"/>
      <use xlink:href="#DejaVuSans-72" x="46.333984"/>
      <use xlink:href="#DejaVuSans-75" x="87.447266"/>
      <use xlink:href="#DejaVuSans-65" x="150.826172"/>
      <use xlink:href="#DejaVuSans-20" x="212.349609"/>
      <use xlink:href="#DejaVuSans-57" x="244.136719"/>
      <use xlink:href="#DejaVuSans-65" x="337.138672"/>
      <use xlink:href="#DejaVuSans-69" x="398.662109"/>
      <use xlink:href="#DejaVuSans-67" x="426.445312"/>
      <use xlink:href="#DejaVuSans-68" x="489.921875"/>
      <use xlink:href="#DejaVuSans-74" x="553.300781"/>
      <use xlink:href="#DejaVuSans-20" x="592.509766"/>
      <use xlink:href="#DejaVuSans-56" x="624.296875"/>
      <use xlink:href="#DejaVuSans-61" x="684.955078"/>
      <use xlink:href="#DejaVuSans-6c" x="746.234375"/>
      <use xlink:href="#DejaVuSans-75" x="774.017578"/>
      <use xlink:href="#DejaVuSans-65" x="837.396484"/>
     </g>
    </g>
   </g>
  </g>
 </g>
 <defs>
  <clipPath id="p6439f24baf">
   <rect x="57.6" y="41.472" width="357.12" height="266.112"/>
  </clipPath>
 </defs>
</svg>
