<?xml version="1.0" encoding="utf-8" standalone="no"?>
<!DOCTYPE svg PUBLIC "-//W3C//DTD SVG 1.1//EN"
  "http://www.w3.org/Graphics/SVG/1.1/DTD/svg11.dtd">
<svg xmlns:xlink="http://www.w3.org/1999/xlink" width="460.8pt" height="345.6pt" viewBox="0 0 460.8 345.6" xmlns="http://www.w3.org/2000/svg" version="1.1">
 <metadata>
  <rdf:RDF xmlns:dc="http://purl.org/dc/elements/1.1/" xmlns:cc="http://creativecommons.org/ns#" xmlns:rdf="http://www.w3.org/1999/02/22-rdf-syntax-ns#">
   <cc:Work>
    <dc:type rdf:resource="http://purl.org/dc/dcmitype/StillImage"/>
    <dc:date>2025-03-15T18:13:08.391483</dc:date>
    <dc:format>image/svg+xml</dc:format>
    <dc:creator>
     <cc:Agent>
      <dc:title>Matplotlib v3.6.3, https://matplotlib.org/</dc:title>
     </cc:Agent>
    </dc:creator>
   </cc:Work>
  </rdf:RDF>
 </metadata>
 <defs>
  <style type="text/css">*{stroke-linejoin: round; stroke-linecap: butt}</style>
 </defs>
 <g id="figure_1">
  <g id="patch_1">
   <path d="M 0 345.6 
L 460.8 345.6 
L 460.8 0 
L 0 0 
z
" style="fill: #ffffff"/>
  </g>
  <g id="axes_1">
   <g id="patch_2">
    <path d="M 57.6 307.584 
L 414.72 307.584 
L 414.72 41.472 
L 57.6 41.472 
z
" style="fill: #ffffff"/>
   </g>
   <g id="matplotlib.axis_1">
    <g id="xtick_1">
     <g id="line2d_1">
      <defs>
       <path id="m1a04c211a0" d="M 0 0 
L 0 3.5 
" style="stroke: #000000; stroke-width: 0.8"/>
      </defs>
      <g>
       <use xlink:href="#m1a04c211a0" x="73.819741" y="307.584" style="stroke: #000000; stroke-width: 0.8"/>
      </g>
     </g>
     <g id="text_1">
      <!-- 0 -->
      <g transform="translate(70.638491 322.182437) scale(0.1 -0.1)">
       <defs>
        <path id="DejaVuSans-30" d="M 2034 4250 
Q 1547 4250 1301 3770 
Q 1056 3291 1056 2328 
Q 1056 1369 1301 889 
Q 1547 409 2034 409 
Q 2525 409 2770 889 
Q 3016 1369 3016 2328 
Q 3016 3291 2770 3770 
Q 2525 4250 2034 4250 
z
M 2034 4750 
Q 2819 4750 3233 4129 
Q 3647 3509 3647 2328 
Q 3647 1150 3233 529 
Q 2819 -91 2034 -91 
Q 1250 -91 836 529 
Q 422 1150 422 2328 
Q 422 3509 836 4129 
Q 1250 4750 2034 4750 
z
" transform="scale(0.015625)"/>
       </defs>
       <use xlink:href="#DejaVuSans-30"/>
      </g>
     </g>
    </g>
    <g id="xtick_2">
     <g id="line2d_2">
      <g>
       <use xlink:href="#m1a04c211a0" x="138.753247" y="307.584" style="stroke: #000000; stroke-width: 0.8"/>
      </g>
     </g>
     <g id="text_2">
      <!-- 10000 -->
      <g transform="translate(122.846997 322.182437) scale(0.1 -0.1)">
       <defs>
        <path id="DejaVuSans-31" d="M 794 531 
L 1825 531 
L 1825 4091 
L 703 3866 
L 703 4441 
L 1819 4666 
L 2450 4666 
L 2450 531 
L 3481 531 
L 3481 0 
L 794 0 
L 794 531 
z
" transform="scale(0.015625)"/>
       </defs>
       <use xlink:href="#DejaVuSans-31"/>
       <use xlink:href="#DejaVuSans-30" x="63.623047"/>
       <use xlink:href="#DejaVuSans-30" x="127.246094"/>
       <use xlink:href="#DejaVuSans-30" x="190.869141"/>
       <use xlink:href="#DejaVuSans-30" x="254.492188"/>
      </g>
     </g>
    </g>
    <g id="xtick_3">
     <g id="line2d_3">
      <g>
       <use xlink:href="#m1a04c211a0" x="203.686753" y="307.584" style="stroke: #000000; stroke-width: 0.8"/>
      </g>
     </g>
     <g id="text_3">
      <!-- 20000 -->
      <g transform="translate(187.780503 322.182437) scale(0.1 -0.1)">
       <defs>
        <path id="DejaVuSans-32" d="M 1228 531 
L 3431 531 
L 3431 0 
L 469 0 
L 469 531 
Q 828 903 1448 1529 
Q 2069 2156 2228 2338 
Q 2531 2678 2651 2914 
Q 2772 3150 2772 3378 
Q 2772 3750 2511 3984 
Q 2250 4219 1831 4219 
Q 1534 4219 1204 4116 
Q 875 4013 500 3803 
L 500 4441 
Q 881 4594 1212 4672 
Q 1544 4750 1819 4750 
Q 2544 4750 2975 4387 
Q 3406 4025 3406 3419 
Q 3406 3131 3298 2873 
Q 3191 2616 2906 2266 
Q 2828 2175 2409 1742 
Q 1991 1309 1228 531 
z
" transform="scale(0.015625)"/>
       </defs>
       <use xlink:href="#DejaVuSans-32"/>
       <use xlink:href="#DejaVuSans-30" x="63.623047"/>
       <use xlink:href="#DejaVuSans-30" x="127.246094"/>
       <use xlink:href="#DejaVuSans-30" x="190.869141"/>
       <use xlink:href="#DejaVuSans-30" x="254.492188"/>
      </g>
     </g>
    </g>
    <g id="xtick_4">
     <g id="line2d_4">
      <g>
       <use xlink:href="#m1a04c211a0" x="268.62026" y="307.584" style="stroke: #000000; stroke-width: 0.8"/>
      </g>
     </g>
     <g id="text_4">
      <!-- 30000 -->
      <g transform="translate(252.71401 322.182437) scale(0.1 -0.1)">
       <defs>
        <path id="DejaVuSans-33" d="M 2597 2516 
Q 3050 2419 3304 2112 
Q 3559 1806 3559 1356 
Q 3559 666 3084 287 
Q 2609 -91 1734 -91 
Q 1441 -91 1130 -33 
Q 819 25 488 141 
L 488 750 
Q 750 597 1062 519 
Q 1375 441 1716 441 
Q 2309 441 2620 675 
Q 2931 909 2931 1356 
Q 2931 1769 2642 2001 
Q 2353 2234 1838 2234 
L 1294 2234 
L 1294 2753 
L 1863 2753 
Q 2328 2753 2575 2939 
Q 2822 3125 2822 3475 
Q 2822 3834 2567 4026 
Q 2313 4219 1838 4219 
Q 1578 4219 1281 4162 
Q 984 4106 628 3988 
L 628 4550 
Q 988 4650 1302 4700 
Q 1616 4750 1894 4750 
Q 2613 4750 3031 4423 
Q 3450 4097 3450 3541 
Q 3450 3153 3228 2886 
Q 3006 2619 2597 2516 
z
" transform="scale(0.015625)"/>
       </defs>
       <use xlink:href="#DejaVuSans-33"/>
       <use xlink:href="#DejaVuSans-30" x="63.623047"/>
       <use xlink:href="#DejaVuSans-30" x="127.246094"/>
       <use xlink:href="#DejaVuSans-30" x="190.869141"/>
       <use xlink:href="#DejaVuSans-30" x="254.492188"/>
      </g>
     </g>
    </g>
    <g id="xtick_5">
     <g id="line2d_5">
      <g>
       <use xlink:href="#m1a04c211a0" x="333.553766" y="307.584" style="stroke: #000000; stroke-width: 0.8"/>
      </g>
     </g>
     <g id="text_5">
      <!-- 40000 -->
      <g transform="translate(317.647516 322.182437) scale(0.1 -0.1)">
       <defs>
        <path id="DejaVuSans-34" d="M 2419 4116 
L 825 1625 
L 2419 1625 
L 2419 4116 
z
M 2253 4666 
L 3047 4666 
L 3047 1625 
L 3713 1625 
L 3713 1100 
L 3047 1100 
L 3047 0 
L 2419 0 
L 2419 1100 
L 313 1100 
L 313 1709 
L 2253 4666 
z
" transform="scale(0.015625)"/>
       </defs>
       <use xlink:href="#DejaVuSans-34"/>
       <use xlink:href="#DejaVuSans-30" x="63.623047"/>
       <use xlink:href="#DejaVuSans-30" x="127.246094"/>
       <use xlink:href="#DejaVuSans-30" x="190.869141"/>
       <use xlink:href="#DejaVuSans-30" x="254.492188"/>
      </g>
     </g>
    </g>
    <g id="xtick_6">
     <g id="line2d_6">
      <g>
       <use xlink:href="#m1a04c211a0" x="398.487273" y="307.584" style="stroke: #000000; stroke-width: 0.8"/>
      </g>
     </g>
     <g id="text_6">
      <!-- 50000 -->
      <g transform="translate(382.581023 322.182437) scale(0.1 -0.1)">
       <defs>
        <path id="DejaVuSans-35" d="M 691 4666 
L 3169 4666 
L 3169 4134 
L 1269 4134 
L 1269 2991 
Q 1406 3038 1543 3061 
Q 1681 3084 1819 3084 
Q 2600 3084 3056 2656 
Q 3513 2228 3513 1497 
Q 3513 744 3044 326 
Q 2575 -91 1722 -91 
Q 1428 -91 1123 -41 
Q 819 9 494 109 
L 494 744 
Q 775 591 1075 516 
Q 1375 441 1709 441 
Q 2250 441 2565 725 
Q 2881 1009 2881 1497 
Q 2881 1984 2565 2268 
Q 2250 2553 1709 2553 
Q 1456 2553 1204 2497 
Q 953 2441 691 2322 
L 691 4666 
z
" transform="scale(0.015625)"/>
       </defs>
       <use xlink:href="#DejaVuSans-35"/>
       <use xlink:href="#DejaVuSans-30" x="63.623047"/>
       <use xlink:href="#DejaVuSans-30" x="127.246094"/>
       <use xlink:href="#DejaVuSans-30" x="190.869141"/>
       <use xlink:href="#DejaVuSans-30" x="254.492188"/>
      </g>
     </g>
    </g>
    <g id="text_7">
     <!-- Number of Traces -->
     <g transform="translate(192.21 335.860562) scale(0.1 -0.1)">
      <defs>
       <path id="DejaVuSans-4e" d="M 628 4666 
L 1478 4666 
L 3547 763 
L 3547 4666 
L 4159 4666 
L 4159 0 
L 3309 0 
L 1241 3903 
L 1241 0 
L 628 0 
L 628 4666 
z
" transform="scale(0.015625)"/>
       <path id="DejaVuSans-75" d="M 544 1381 
L 544 3500 
L 1119 3500 
L 1119 1403 
Q 1119 906 1312 657 
Q 1506 409 1894 409 
Q 2359 409 2629 706 
Q 2900 1003 2900 1516 
L 2900 3500 
L 3475 3500 
L 3475 0 
L 2900 0 
L 2900 538 
Q 2691 219 2414 64 
Q 2138 -91 1772 -91 
Q 1169 -91 856 284 
Q 544 659 544 1381 
z
M 1991 3584 
L 1991 3584 
z
" transform="scale(0.015625)"/>
       <path id="DejaVuSans-6d" d="M 3328 2828 
Q 3544 3216 3844 3400 
Q 4144 3584 4550 3584 
Q 5097 3584 5394 3201 
Q 5691 2819 5691 2113 
L 5691 0 
L 5113 0 
L 5113 2094 
Q 5113 2597 4934 2840 
Q 4756 3084 4391 3084 
Q 3944 3084 3684 2787 
Q 3425 2491 3425 1978 
L 3425 0 
L 2847 0 
L 2847 2094 
Q 2847 2600 2669 2842 
Q 2491 3084 2119 3084 
Q 1678 3084 1418 2786 
Q 1159 2488 1159 1978 
L 1159 0 
L 581 0 
L 581 3500 
L 1159 3500 
L 1159 2956 
Q 1356 3278 1631 3431 
Q 1906 3584 2284 3584 
Q 2666 3584 2933 3390 
Q 3200 3197 3328 2828 
z
" transform="scale(0.015625)"/>
       <path id="DejaVuSans-62" d="M 3116 1747 
Q 3116 2381 2855 2742 
Q 2594 3103 2138 3103 
Q 1681 3103 1420 2742 
Q 1159 2381 1159 1747 
Q 1159 1113 1420 752 
Q 1681 391 2138 391 
Q 2594 391 2855 752 
Q 3116 1113 3116 1747 
z
M 1159 2969 
Q 1341 3281 1617 3432 
Q 1894 3584 2278 3584 
Q 2916 3584 3314 3078 
Q 3713 2572 3713 1747 
Q 3713 922 3314 415 
Q 2916 -91 2278 -91 
Q 1894 -91 1617 61 
Q 1341 213 1159 525 
L 1159 0 
L 581 0 
L 581 4863 
L 1159 4863 
L 1159 2969 
z
" transform="scale(0.015625)"/>
       <path id="DejaVuSans-65" d="M 3597 1894 
L 3597 1613 
L 953 1613 
Q 991 1019 1311 708 
Q 1631 397 2203 397 
Q 2534 397 2845 478 
Q 3156 559 3463 722 
L 3463 178 
Q 3153 47 2828 -22 
Q 2503 -91 2169 -91 
Q 1331 -91 842 396 
Q 353 884 353 1716 
Q 353 2575 817 3079 
Q 1281 3584 2069 3584 
Q 2775 3584 3186 3129 
Q 3597 2675 3597 1894 
z
M 3022 2063 
Q 3016 2534 2758 2815 
Q 2500 3097 2075 3097 
Q 1594 3097 1305 2825 
Q 1016 2553 972 2059 
L 3022 2063 
z
" transform="scale(0.015625)"/>
       <path id="DejaVuSans-72" d="M 2631 2963 
Q 2534 3019 2420 3045 
Q 2306 3072 2169 3072 
Q 1681 3072 1420 2755 
Q 1159 2438 1159 1844 
L 1159 0 
L 581 0 
L 581 3500 
L 1159 3500 
L 1159 2956 
Q 1341 3275 1631 3429 
Q 1922 3584 2338 3584 
Q 2397 3584 2469 3576 
Q 2541 3569 2628 3553 
L 2631 2963 
z
" transform="scale(0.015625)"/>
       <path id="DejaVuSans-20" transform="scale(0.015625)"/>
       <path id="DejaVuSans-6f" d="M 1959 3097 
Q 1497 3097 1228 2736 
Q 959 2375 959 1747 
Q 959 1119 1226 758 
Q 1494 397 1959 397 
Q 2419 397 2687 759 
Q 2956 1122 2956 1747 
Q 2956 2369 2687 2733 
Q 2419 3097 1959 3097 
z
M 1959 3584 
Q 2709 3584 3137 3096 
Q 3566 2609 3566 1747 
Q 3566 888 3137 398 
Q 2709 -91 1959 -91 
Q 1206 -91 779 398 
Q 353 888 353 1747 
Q 353 2609 779 3096 
Q 1206 3584 1959 3584 
z
" transform="scale(0.015625)"/>
       <path id="DejaVuSans-66" d="M 2375 4863 
L 2375 4384 
L 1825 4384 
Q 1516 4384 1395 4259 
Q 1275 4134 1275 3809 
L 1275 3500 
L 2222 3500 
L 2222 3053 
L 1275 3053 
L 1275 0 
L 697 0 
L 697 3053 
L 147 3053 
L 147 3500 
L 697 3500 
L 697 3744 
Q 697 4328 969 4595 
Q 1241 4863 1831 4863 
L 2375 4863 
z
" transform="scale(0.015625)"/>
       <path id="DejaVuSans-54" d="M -19 4666 
L 3928 4666 
L 3928 4134 
L 2272 4134 
L 2272 0 
L 1638 0 
L 1638 4134 
L -19 4134 
L -19 4666 
z
" transform="scale(0.015625)"/>
       <path id="DejaVuSans-61" d="M 2194 1759 
Q 1497 1759 1228 1600 
Q 959 1441 959 1056 
Q 959 750 1161 570 
Q 1363 391 1709 391 
Q 2188 391 2477 730 
Q 2766 1069 2766 1631 
L 2766 1759 
L 2194 1759 
z
M 3341 1997 
L 3341 0 
L 2766 0 
L 2766 531 
Q 2569 213 2275 61 
Q 1981 -91 1556 -91 
Q 1019 -91 701 211 
Q 384 513 384 1019 
Q 384 1609 779 1909 
Q 1175 2209 1959 2209 
L 2766 2209 
L 2766 2266 
Q 2766 2663 2505 2880 
Q 2244 3097 1772 3097 
Q 1472 3097 1187 3025 
Q 903 2953 641 2809 
L 641 3341 
Q 956 3463 1253 3523 
Q 1550 3584 1831 3584 
Q 2591 3584 2966 3190 
Q 3341 2797 3341 1997 
z
" transform="scale(0.015625)"/>
       <path id="DejaVuSans-63" d="M 3122 3366 
L 3122 2828 
Q 2878 2963 2633 3030 
Q 2388 3097 2138 3097 
Q 1578 3097 1268 2742 
Q 959 2388 959 1747 
Q 959 1106 1268 751 
Q 1578 397 2138 397 
Q 2388 397 2633 464 
Q 2878 531 3122 666 
L 3122 134 
Q 2881 22 2623 -34 
Q 2366 -91 2075 -91 
Q 1284 -91 818 406 
Q 353 903 353 1747 
Q 353 2603 823 3093 
Q 1294 3584 2113 3584 
Q 2378 3584 2631 3529 
Q 2884 3475 3122 3366 
z
" transform="scale(0.015625)"/>
       <path id="DejaVuSans-73" d="M 2834 3397 
L 2834 2853 
Q 2591 2978 2328 3040 
Q 2066 3103 1784 3103 
Q 1356 3103 1142 2972 
Q 928 2841 928 2578 
Q 928 2378 1081 2264 
Q 1234 2150 1697 2047 
L 1894 2003 
Q 2506 1872 2764 1633 
Q 3022 1394 3022 966 
Q 3022 478 2636 193 
Q 2250 -91 1575 -91 
Q 1294 -91 989 -36 
Q 684 19 347 128 
L 347 722 
Q 666 556 975 473 
Q 1284 391 1588 391 
Q 1994 391 2212 530 
Q 2431 669 2431 922 
Q 2431 1156 2273 1281 
Q 2116 1406 1581 1522 
L 1381 1569 
Q 847 1681 609 1914 
Q 372 2147 372 2553 
Q 372 3047 722 3315 
Q 1072 3584 1716 3584 
Q 2034 3584 2315 3537 
Q 2597 3491 2834 3397 
z
" transform="scale(0.015625)"/>
      </defs>
      <use xlink:href="#DejaVuSans-4e"/>
      <use xlink:href="#DejaVuSans-75" x="74.804688"/>
      <use xlink:href="#DejaVuSans-6d" x="138.183594"/>
      <use xlink:href="#DejaVuSans-62" x="235.595703"/>
      <use xlink:href="#DejaVuSans-65" x="299.072266"/>
      <use xlink:href="#DejaVuSans-72" x="360.595703"/>
      <use xlink:href="#DejaVuSans-20" x="401.708984"/>
      <use xlink:href="#DejaVuSans-6f" x="433.496094"/>
      <use xlink:href="#DejaVuSans-66" x="494.677734"/>
      <use xlink:href="#DejaVuSans-20" x="529.882812"/>
      <use xlink:href="#DejaVuSans-54" x="561.669922"/>
      <use xlink:href="#DejaVuSans-72" x="608.003906"/>
      <use xlink:href="#DejaVuSans-61" x="649.117188"/>
      <use xlink:href="#DejaVuSans-63" x="710.396484"/>
      <use xlink:href="#DejaVuSans-65" x="765.376953"/>
      <use xlink:href="#DejaVuSans-73" x="826.900391"/>
     </g>
    </g>
   </g>
   <g id="matplotlib.axis_2">
    <g id="ytick_1">
     <g id="line2d_7">
      <defs>
       <path id="m18366b1e04" d="M 0 0 
L -3.5 0 
" style="stroke: #000000; stroke-width: 0.8"/>
      </defs>
      <g>
       <use xlink:href="#m18366b1e04" x="57.6" y="307.584" style="stroke: #000000; stroke-width: 0.8"/>
      </g>
     </g>
     <g id="text_8">
      <!-- 0.0 -->
      <g transform="translate(34.696875 311.383219) scale(0.1 -0.1)">
       <defs>
        <path id="DejaVuSans-2e" d="M 684 794 
L 1344 794 
L 1344 0 
L 684 0 
L 684 794 
z
" transform="scale(0.015625)"/>
       </defs>
       <use xlink:href="#DejaVuSans-30"/>
       <use xlink:href="#DejaVuSans-2e" x="63.623047"/>
       <use xlink:href="#DejaVuSans-30" x="95.410156"/>
      </g>
     </g>
    </g>
    <g id="ytick_2">
     <g id="line2d_8">
      <g>
       <use xlink:href="#m18366b1e04" x="57.6" y="254.3616" style="stroke: #000000; stroke-width: 0.8"/>
      </g>
     </g>
     <g id="text_9">
      <!-- 0.2 -->
      <g transform="translate(34.696875 258.160819) scale(0.1 -0.1)">
       <use xlink:href="#DejaVuSans-30"/>
       <use xlink:href="#DejaVuSans-2e" x="63.623047"/>
       <use xlink:href="#DejaVuSans-32" x="95.410156"/>
      </g>
     </g>
    </g>
    <g id="ytick_3">
     <g id="line2d_9">
      <g>
       <use xlink:href="#m18366b1e04" x="57.6" y="201.1392" style="stroke: #000000; stroke-width: 0.8"/>
      </g>
     </g>
     <g id="text_10">
      <!-- 0.4 -->
      <g transform="translate(34.696875 204.938419) scale(0.1 -0.1)">
       <use xlink:href="#DejaVuSans-30"/>
       <use xlink:href="#DejaVuSans-2e" x="63.623047"/>
       <use xlink:href="#DejaVuSans-34" x="95.410156"/>
      </g>
     </g>
    </g>
    <g id="ytick_4">
     <g id="line2d_10">
      <g>
       <use xlink:href="#m18366b1e04" x="57.6" y="147.9168" style="stroke: #000000; stroke-width: 0.8"/>
      </g>
     </g>
     <g id="text_11">
      <!-- 0.6 -->
      <g transform="translate(34.696875 151.716019) scale(0.1 -0.1)">
       <defs>
        <path id="DejaVuSans-36" d="M 2113 2584 
Q 1688 2584 1439 2293 
Q 1191 2003 1191 1497 
Q 1191 994 1439 701 
Q 1688 409 2113 409 
Q 2538 409 2786 701 
Q 3034 994 3034 1497 
Q 3034 2003 2786 2293 
Q 2538 2584 2113 2584 
z
M 3366 4563 
L 3366 3988 
Q 3128 4100 2886 4159 
Q 2644 4219 2406 4219 
Q 1781 4219 1451 3797 
Q 1122 3375 1075 2522 
Q 1259 2794 1537 2939 
Q 1816 3084 2150 3084 
Q 2853 3084 3261 2657 
Q 3669 2231 3669 1497 
Q 3669 778 3244 343 
Q 2819 -91 2113 -91 
Q 1303 -91 875 529 
Q 447 1150 447 2328 
Q 447 3434 972 4092 
Q 1497 4750 2381 4750 
Q 2619 4750 2861 4703 
Q 3103 4656 3366 4563 
z
" transform="scale(0.015625)"/>
       </defs>
       <use xlink:href="#DejaVuSans-30"/>
       <use xlink:href="#DejaVuSans-2e" x="63.623047"/>
       <use xlink:href="#DejaVuSans-36" x="95.410156"/>
      </g>
     </g>
    </g>
    <g id="ytick_5">
     <g id="line2d_11">
      <g>
       <use xlink:href="#m18366b1e04" x="57.6" y="94.6944" style="stroke: #000000; stroke-width: 0.8"/>
      </g>
     </g>
     <g id="text_12">
      <!-- 0.8 -->
      <g transform="translate(34.696875 98.493619) scale(0.1 -0.1)">
       <defs>
        <path id="DejaVuSans-38" d="M 2034 2216 
Q 1584 2216 1326 1975 
Q 1069 1734 1069 1313 
Q 1069 891 1326 650 
Q 1584 409 2034 409 
Q 2484 409 2743 651 
Q 3003 894 3003 1313 
Q 3003 1734 2745 1975 
Q 2488 2216 2034 2216 
z
M 1403 2484 
Q 997 2584 770 2862 
Q 544 3141 544 3541 
Q 544 4100 942 4425 
Q 1341 4750 2034 4750 
Q 2731 4750 3128 4425 
Q 3525 4100 3525 3541 
Q 3525 3141 3298 2862 
Q 3072 2584 2669 2484 
Q 3125 2378 3379 2068 
Q 3634 1759 3634 1313 
Q 3634 634 3220 271 
Q 2806 -91 2034 -91 
Q 1263 -91 848 271 
Q 434 634 434 1313 
Q 434 1759 690 2068 
Q 947 2378 1403 2484 
z
M 1172 3481 
Q 1172 3119 1398 2916 
Q 1625 2713 2034 2713 
Q 2441 2713 2670 2916 
Q 2900 3119 2900 3481 
Q 2900 3844 2670 4047 
Q 2441 4250 2034 4250 
Q 1625 4250 1398 4047 
Q 1172 3844 1172 3481 
z
" transform="scale(0.015625)"/>
       </defs>
       <use xlink:href="#DejaVuSans-30"/>
       <use xlink:href="#DejaVuSans-2e" x="63.623047"/>
       <use xlink:href="#DejaVuSans-38" x="95.410156"/>
      </g>
     </g>
    </g>
    <g id="ytick_6">
     <g id="line2d_12">
      <g>
       <use xlink:href="#m18366b1e04" x="57.6" y="41.472" style="stroke: #000000; stroke-width: 0.8"/>
      </g>
     </g>
     <g id="text_13">
      <!-- 1.0 -->
      <g transform="translate(34.696875 45.271219) scale(0.1 -0.1)">
       <use xlink:href="#DejaVuSans-31"/>
       <use xlink:href="#DejaVuSans-2e" x="63.623047"/>
       <use xlink:href="#DejaVuSans-30" x="95.410156"/>
      </g>
     </g>
    </g>
    <g id="text_14">
     <!-- Highest Correlation Coefficient -->
     <g transform="translate(28.617187 251.288937) rotate(-90) scale(0.1 -0.1)">
      <defs>
       <path id="DejaVuSans-48" d="M 628 4666 
L 1259 4666 
L 1259 2753 
L 3553 2753 
L 3553 4666 
L 4184 4666 
L 4184 0 
L 3553 0 
L 3553 2222 
L 1259 2222 
L 1259 0 
L 628 0 
L 628 4666 
z
" transform="scale(0.015625)"/>
       <path id="DejaVuSans-69" d="M 603 3500 
L 1178 3500 
L 1178 0 
L 603 0 
L 603 3500 
z
M 603 4863 
L 1178 4863 
L 1178 4134 
L 603 4134 
L 603 4863 
z
" transform="scale(0.015625)"/>
       <path id="DejaVuSans-67" d="M 2906 1791 
Q 2906 2416 2648 2759 
Q 2391 3103 1925 3103 
Q 1463 3103 1205 2759 
Q 947 2416 947 1791 
Q 947 1169 1205 825 
Q 1463 481 1925 481 
Q 2391 481 2648 825 
Q 2906 1169 2906 1791 
z
M 3481 434 
Q 3481 -459 3084 -895 
Q 2688 -1331 1869 -1331 
Q 1566 -1331 1297 -1286 
Q 1028 -1241 775 -1147 
L 775 -588 
Q 1028 -725 1275 -790 
Q 1522 -856 1778 -856 
Q 2344 -856 2625 -561 
Q 2906 -266 2906 331 
L 2906 616 
Q 2728 306 2450 153 
Q 2172 0 1784 0 
Q 1141 0 747 490 
Q 353 981 353 1791 
Q 353 2603 747 3093 
Q 1141 3584 1784 3584 
Q 2172 3584 2450 3431 
Q 2728 3278 2906 2969 
L 2906 3500 
L 3481 3500 
L 3481 434 
z
" transform="scale(0.015625)"/>
       <path id="DejaVuSans-68" d="M 3513 2113 
L 3513 0 
L 2938 0 
L 2938 2094 
Q 2938 2591 2744 2837 
Q 2550 3084 2163 3084 
Q 1697 3084 1428 2787 
Q 1159 2491 1159 1978 
L 1159 0 
L 581 0 
L 581 4863 
L 1159 4863 
L 1159 2956 
Q 1366 3272 1645 3428 
Q 1925 3584 2291 3584 
Q 2894 3584 3203 3211 
Q 3513 2838 3513 2113 
z
" transform="scale(0.015625)"/>
       <path id="DejaVuSans-74" d="M 1172 4494 
L 1172 3500 
L 2356 3500 
L 2356 3053 
L 1172 3053 
L 1172 1153 
Q 1172 725 1289 603 
Q 1406 481 1766 481 
L 2356 481 
L 2356 0 
L 1766 0 
Q 1100 0 847 248 
Q 594 497 594 1153 
L 594 3053 
L 172 3053 
L 172 3500 
L 594 3500 
L 594 4494 
L 1172 4494 
z
" transform="scale(0.015625)"/>
       <path id="DejaVuSans-43" d="M 4122 4306 
L 4122 3641 
Q 3803 3938 3442 4084 
Q 3081 4231 2675 4231 
Q 1875 4231 1450 3742 
Q 1025 3253 1025 2328 
Q 1025 1406 1450 917 
Q 1875 428 2675 428 
Q 3081 428 3442 575 
Q 3803 722 4122 1019 
L 4122 359 
Q 3791 134 3420 21 
Q 3050 -91 2638 -91 
Q 1578 -91 968 557 
Q 359 1206 359 2328 
Q 359 3453 968 4101 
Q 1578 4750 2638 4750 
Q 3056 4750 3426 4639 
Q 3797 4528 4122 4306 
z
" transform="scale(0.015625)"/>
       <path id="DejaVuSans-6c" d="M 603 4863 
L 1178 4863 
L 1178 0 
L 603 0 
L 603 4863 
z
" transform="scale(0.015625)"/>
       <path id="DejaVuSans-6e" d="M 3513 2113 
L 3513 0 
L 2938 0 
L 2938 2094 
Q 2938 2591 2744 2837 
Q 2550 3084 2163 3084 
Q 1697 3084 1428 2787 
Q 1159 2491 1159 1978 
L 1159 0 
L 581 0 
L 581 3500 
L 1159 3500 
L 1159 2956 
Q 1366 3272 1645 3428 
Q 1925 3584 2291 3584 
Q 2894 3584 3203 3211 
Q 3513 2838 3513 2113 
z
" transform="scale(0.015625)"/>
      </defs>
      <use xlink:href="#DejaVuSans-48"/>
      <use xlink:href="#DejaVuSans-69" x="75.195312"/>
      <use xlink:href="#DejaVuSans-67" x="102.978516"/>
      <use xlink:href="#DejaVuSans-68" x="166.455078"/>
      <use xlink:href="#DejaVuSans-65" x="229.833984"/>
      <use xlink:href="#DejaVuSans-73" x="291.357422"/>
      <use xlink:href="#DejaVuSans-74" x="343.457031"/>
      <use xlink:href="#DejaVuSans-20" x="382.666016"/>
      <use xlink:href="#DejaVuSans-43" x="414.453125"/>
      <use xlink:href="#DejaVuSans-6f" x="484.277344"/>
      <use xlink:href="#DejaVuSans-72" x="545.458984"/>
      <use xlink:href="#DejaVuSans-72" x="584.822266"/>
      <use xlink:href="#DejaVuSans-65" x="623.685547"/>
      <use xlink:href="#DejaVuSans-6c" x="685.208984"/>
      <use xlink:href="#DejaVuSans-61" x="712.992188"/>
      <use xlink:href="#DejaVuSans-74" x="774.271484"/>
      <use xlink:href="#DejaVuSans-69" x="813.480469"/>
      <use xlink:href="#DejaVuSans-6f" x="841.263672"/>
      <use xlink:href="#DejaVuSans-6e" x="902.445312"/>
      <use xlink:href="#DejaVuSans-20" x="965.824219"/>
      <use xlink:href="#DejaVuSans-43" x="997.611328"/>
      <use xlink:href="#DejaVuSans-6f" x="1067.435547"/>
      <use xlink:href="#DejaVuSans-65" x="1128.617188"/>
      <use xlink:href="#DejaVuSans-66" x="1190.140625"/>
      <use xlink:href="#DejaVuSans-66" x="1225.345703"/>
      <use xlink:href="#DejaVuSans-69" x="1260.550781"/>
      <use xlink:href="#DejaVuSans-63" x="1288.333984"/>
      <use xlink:href="#DejaVuSans-69" x="1343.314453"/>
      <use xlink:href="#DejaVuSans-65" x="1371.097656"/>
      <use xlink:href="#DejaVuSans-6e" x="1432.621094"/>
      <use xlink:href="#DejaVuSans-74" x="1496"/>
     </g>
    </g>
   </g>
   <g id="line2d_13">
    <path d="M 73.832727 41.472 
L 73.852207 41.472 
L 73.878181 44.284355 
L 73.884674 44.47634 
L 74.111941 133.576589 
L 74.306742 166.865399 
L 74.404142 165.130585 
L 74.436609 162.938869 
L 74.469076 167.031977 
L 74.598943 177.923514 
L 74.72881 177.522801 
L 74.858677 185.77113 
L 75.118411 179.607253 
L 75.508012 188.163392 
L 75.637879 183.927165 
L 75.767746 183.894607 
L 75.897613 186.543254 
L 76.02748 186.813564 
L 76.157347 190.651412 
L 76.287214 189.603882 
L 76.546948 195.313462 
L 76.676815 192.824178 
L 76.936549 197.105544 
L 77.066416 195.521305 
L 77.196283 197.843617 
L 77.32615 197.570011 
L 77.585884 194.582055 
L 77.715751 194.426553 
L 77.975485 191.765476 
L 78.235219 194.18089 
L 78.365086 193.442235 
L 78.494953 195.362824 
L 78.62482 195.216717 
L 78.754687 197.736592 
L 78.884554 197.803215 
L 79.014421 195.212302 
L 79.144288 194.938093 
L 79.274155 194.083335 
L 79.404022 194.012797 
L 79.533889 194.277248 
L 79.663756 192.917267 
L 79.793623 193.089109 
L 79.92349 195.690897 
L 80.313091 194.772836 
L 80.702692 196.969956 
L 80.832559 196.688739 
L 80.962426 196.848929 
L 81.092293 198.821688 
L 81.22216 198.030284 
L 81.352027 197.986026 
L 81.481894 197.270128 
L 81.611761 197.783386 
L 81.741628 197.800736 
L 82.131229 195.062783 
L 82.261096 194.802375 
L 82.390963 195.115364 
L 82.52083 194.9257 
L 82.650697 197.102174 
L 82.780564 196.827467 
L 82.910431 197.068218 
L 83.040298 196.482377 
L 83.300033 197.909182 
L 83.4299 197.377294 
L 83.559767 198.796256 
L 83.689634 198.296079 
L 83.819501 198.713724 
L 84.079235 197.240949 
L 84.209102 197.998081 
L 84.338969 198.090953 
L 84.468836 199.046755 
L 84.598703 198.937892 
L 84.858437 200.094176 
L 84.988304 199.656735 
L 85.248038 200.220938 
L 85.377905 200.097547 
L 85.507772 200.715212 
L 85.637639 200.27046 
L 85.767506 201.365022 
L 86.157107 200.38909 
L 86.676575 202.355483 
L 86.806442 202.019403 
L 86.936309 202.77998 
L 87.196043 202.197814 
L 87.585644 204.176381 
L 87.715511 203.768844 
L 87.845378 203.804156 
L 87.975245 204.140918 
L 88.105112 203.439669 
L 88.234979 203.811792 
L 88.494713 202.874848 
L 88.62458 203.39135 
L 88.754447 202.844199 
L 88.884314 202.840787 
L 89.014181 202.655361 
L 89.144048 202.097344 
L 89.273915 202.080706 
L 89.533649 202.663801 
L 89.663516 202.382448 
L 89.92325 202.302177 
L 90.053117 202.56041 
L 90.312851 201.58029 
L 90.442718 201.498122 
L 90.572585 201.947921 
L 90.702452 201.621175 
L 90.832319 201.738768 
L 90.962186 201.597549 
L 91.092053 200.755186 
L 91.22192 200.778094 
L 91.481654 202.004647 
L 91.871255 202.806639 
L 92.001122 202.613077 
L 92.130989 202.149016 
L 92.390723 202.11822 
L 92.650457 201.620238 
L 92.780324 201.857394 
L 92.910191 201.707654 
L 93.169925 201.920897 
L 93.299793 201.619175 
L 93.559527 201.974706 
L 93.689394 201.934753 
L 93.819261 201.519684 
L 93.949128 201.505544 
L 94.338729 201.01619 
L 94.598463 201.055967 
L 94.72833 201.195354 
L 95.117931 200.859238 
L 95.507532 201.464512 
L 95.637399 201.44291 
L 96.027 200.540742 
L 96.156867 200.916548 
L 96.286734 200.606641 
L 96.546468 201.166359 
L 96.676335 201.026059 
L 96.806202 201.129581 
L 96.936069 200.832179 
L 97.195803 200.847551 
L 97.32567 200.817697 
L 97.585404 200.585681 
L 97.715271 200.754995 
L 97.845138 201.167034 
L 97.975005 200.873869 
L 98.104872 200.961164 
L 98.364606 200.222535 
L 98.494473 200.299645 
L 98.62434 200.231381 
L 98.754207 200.437588 
L 99.013941 200.167818 
L 99.143808 200.496391 
L 99.273675 200.127865 
L 99.403542 200.208715 
L 99.663276 200.091117 
L 99.92301 200.436308 
L 100.052877 200.409579 
L 100.312611 200.749634 
L 100.442478 200.506141 
L 100.702212 200.772142 
L 100.832079 201.086087 
L 101.091813 201.109007 
L 101.22168 201.346955 
L 101.611281 200.374422 
L 101.871015 200.048503 
L 102.000882 200.017073 
L 102.130749 200.125593 
L 102.260616 199.73349 
L 102.52035 199.70011 
L 102.780084 199.313067 
L 103.169685 199.942874 
L 103.299552 199.681925 
L 103.42942 200.379704 
L 103.559287 200.24003 
L 103.689154 200.737732 
L 103.948888 200.555474 
L 104.338489 201.116195 
L 104.72809 200.437433 
L 104.987824 200.505118 
L 105.507292 200.023822 
L 105.767026 199.531178 
L 106.02676 199.971838 
L 106.156627 200.043052 
L 106.286494 199.899572 
L 106.416361 200.081949 
L 106.676095 200.031404 
L 106.935829 200.412797 
L 107.585164 199.743756 
L 107.715031 199.819037 
L 108.234499 199.539279 
L 108.494233 199.809308 
L 108.753967 199.303289 
L 108.883834 199.366844 
L 109.143568 199.58741 
L 109.273435 199.310233 
L 109.403302 199.438128 
L 109.533169 199.379496 
L 109.663036 199.454215 
L 109.792903 199.298546 
L 110.052637 199.296029 
L 110.312371 199.341253 
L 110.442238 199.163641 
L 110.572105 199.285425 
L 110.831839 199.085682 
L 110.961706 199.149376 
L 111.351307 199.739312 
L 111.481174 199.418759 
L 111.611041 199.416284 
L 111.870775 199.271543 
L 112.260376 199.725747 
L 112.649977 199.733668 
L 112.779844 199.484115 
L 112.909711 199.525618 
L 113.169445 199.41436 
L 113.559047 199.749923 
L 113.818781 199.628354 
L 113.948648 199.66444 
L 114.208382 199.375998 
L 114.338249 199.332603 
L 114.597983 199.043083 
L 114.72785 199.200133 
L 114.987584 198.958204 
L 115.117451 199.016814 
L 115.377185 198.514513 
L 115.507052 198.469056 
L 116.02652 199.08128 
L 116.286254 198.751423 
L 116.416121 198.917184 
L 116.545988 198.743489 
L 116.675855 198.948754 
L 117.065456 198.693183 
L 117.195323 198.756095 
L 117.32519 198.484155 
L 117.584924 198.527847 
L 117.844658 198.717519 
L 118.364126 198.241224 
L 118.753727 198.294409 
L 119.013461 198.582377 
L 119.273195 198.388084 
L 119.532929 198.516148 
L 119.792663 198.557627 
L 120.052397 198.723762 
L 120.441998 198.538732 
L 120.701732 198.550619 
L 120.961466 198.338421 
L 121.351067 198.495931 
L 122.260136 198.00676 
L 122.51987 198.428733 
L 122.649737 198.510511 
L 123.039338 198.25614 
L 123.558806 198.510622 
L 123.688674 198.416453 
L 123.948408 198.405644 
L 124.208142 198.917908 
L 124.338009 199.198177 
L 124.597743 199.088505 
L 124.72761 198.919226 
L 124.857477 199.016601 
L 124.987344 199.26594 
L 125.247078 198.961352 
L 125.506812 199.319618 
L 125.896413 199.517593 
L 126.156147 199.689529 
L 126.286014 199.431128 
L 126.415881 199.455934 
L 126.545748 199.661448 
L 127.065216 199.599883 
L 127.32495 199.934899 
L 127.454817 200.00791 
L 127.584684 199.928326 
L 127.714551 200.124468 
L 127.844418 200.054954 
L 127.974285 200.204294 
L 128.363886 199.864751 
L 128.493753 199.831637 
L 128.753487 200.160355 
L 129.013221 200.116373 
L 129.272955 199.827537 
L 129.402822 199.962658 
L 129.662556 199.79265 
L 129.92229 199.739496 
L 130.311891 199.854519 
L 130.441758 199.871691 
L 130.571625 200.122559 
L 130.701492 200.022232 
L 130.831359 200.124006 
L 130.961226 199.960096 
L 131.350827 200.205166 
L 131.480694 200.249483 
L 131.870295 199.775805 
L 132.259896 200.030809 
L 133.039098 199.741255 
L 133.298832 199.930505 
L 133.558566 199.881713 
L 133.818301 199.792335 
L 133.948168 199.827628 
L 134.207902 200.138721 
L 134.337769 200.281115 
L 134.597503 200.131483 
L 134.987104 200.186479 
L 135.246838 199.935077 
L 135.376705 199.937139 
L 135.896173 199.57038 
L 136.02604 199.525907 
L 136.155907 199.26798 
L 136.415641 199.362146 
L 136.675375 199.411172 
L 136.935109 199.260854 
L 137.064976 199.425869 
L 137.32471 199.303563 
L 137.454577 199.458806 
L 137.584444 199.402795 
L 137.844178 199.546938 
L 137.974045 199.449038 
L 138.103912 199.525949 
L 138.62338 199.318641 
L 138.753247 199.389668 
L 139.402582 198.420737 
L 140.051917 198.58382 
L 141.350587 199.180425 
L 143.298592 199.182475 
L 143.947928 198.766463 
L 144.597263 198.826225 
L 145.246598 198.633732 
L 145.895933 198.881415 
L 146.545268 198.778066 
L 147.194603 198.401268 
L 149.142608 198.633679 
L 149.791943 198.915036 
L 151.090613 199.10549 
L 151.739948 199.210992 
L 152.389283 199.108174 
L 153.038618 198.84289 
L 153.687953 198.84151 
L 155.635959 198.051655 
L 156.934629 198.378223 
L 158.882634 198.073428 
L 159.531969 198.355291 
L 160.181304 198.091492 
L 161.479974 197.91862 
L 162.778644 198.150214 
L 163.427979 198.0437 
L 164.077315 198.065171 
L 164.72665 197.938696 
L 166.02532 198.11789 
L 166.674655 198.125505 
L 167.32399 198.594207 
L 171.22 198.657756 
L 172.51867 198.568931 
L 173.81734 198.883193 
L 174.466676 199.00112 
L 175.116011 198.871996 
L 176.414681 198.886262 
L 177.713351 198.402442 
L 179.012021 198.650965 
L 179.661356 198.929476 
L 180.310691 198.91006 
L 180.960026 198.707112 
L 181.609361 198.835736 
L 182.258696 198.801834 
L 183.557366 198.515674 
L 184.856037 198.413701 
L 185.505372 198.39979 
L 186.154707 198.646526 
L 186.804042 198.741329 
L 188.752047 198.604655 
L 189.401382 198.686703 
L 190.050717 198.581644 
L 194.596063 198.674833 
L 195.245398 198.904143 
L 195.894733 198.857242 
L 196.544068 198.933304 
L 197.193403 199.195866 
L 197.842738 199.089557 
L 199.141408 199.267039 
L 199.790743 199.279959 
L 201.089413 199.451303 
L 203.037418 199.50087 
L 204.985424 199.970875 
L 206.933429 199.539957 
L 207.582764 199.46347 
L 208.232099 199.581451 
L 208.881434 199.461662 
L 210.829439 199.623857 
L 214.076114 199.806168 
L 214.72545 199.475746 
L 215.374785 199.370926 
L 216.02412 199.430843 
L 216.673455 199.211019 
L 222.51747 199.482781 
L 223.166805 199.325939 
L 223.81614 199.44963 
L 225.764146 199.24627 
L 227.062816 199.360341 
L 228.361486 199.21309 
L 230.309491 199.105648 
L 230.958826 198.920826 
L 232.906831 199.215848 
L 234.205501 199.231917 
L 234.854837 199.195132 
L 238.101512 199.5794 
L 240.698852 199.605188 
L 241.997522 199.475271 
L 243.945527 199.494683 
L 245.244198 199.508918 
L 246.542868 200.007721 
L 248.490873 199.878676 
L 249.789543 199.916371 
L 250.438878 200.097096 
L 251.088213 200.09248 
L 251.737548 199.918733 
L 254.334888 200.083896 
L 254.984224 200.092939 
L 255.633559 199.965419 
L 258.230899 200.057129 
L 260.828239 200.041971 
L 261.477574 199.949865 
L 263.425579 199.99355 
L 265.373585 200.099086 
L 266.02292 200.193912 
L 269.91893 199.984838 
L 271.866935 200.00401 
L 272.51627 200.149761 
L 273.81494 200.104959 
L 276.412281 199.877117 
L 277.061616 200.035523 
L 280.957626 199.836085 
L 282.256296 199.976292 
L 282.905631 199.861577 
L 284.204301 199.925709 
L 284.853636 199.865931 
L 286.152307 199.929044 
L 288.100312 199.942781 
L 288.749647 200.00277 
L 290.048317 199.945855 
L 290.697652 199.954283 
L 291.996322 200.107758 
L 295.242998 200.18819 
L 296.541668 200.078178 
L 299.788343 200.082674 
L 301.087013 200.061505 
L 302.385683 200.177123 
L 303.035018 200.069258 
L 306.281694 200.139586 
L 308.879034 200.239542 
L 309.528369 200.388677 
L 310.827039 200.402716 
L 312.125709 200.235627 
L 313.424379 200.399032 
L 314.073714 200.266163 
L 317.32039 200.390307 
L 317.969725 200.597279 
L 319.268395 200.662124 
L 321.2164 200.554732 
L 323.164405 200.617518 
L 324.463075 200.596578 
L 325.761746 200.75299 
L 330.956426 200.765759 
L 331.605761 200.626427 
L 333.553766 200.726261 
L 336.800442 200.752741 
L 338.099112 200.65094 
L 345.891133 200.555907 
L 347.189803 200.69577 
L 347.839138 200.602 
L 349.137808 200.696967 
L 350.436478 200.650239 
L 351.085813 200.716434 
L 351.735148 200.621382 
L 354.332488 200.670009 
L 355.631158 200.485109 
L 357.579164 200.602516 
L 360.176504 200.510417 
L 360.825839 200.420956 
L 362.773844 200.458728 
L 363.423179 200.370576 
L 365.371184 200.579268 
L 373.163205 200.712501 
L 375.11121 200.826048 
L 377.059216 200.893561 
L 378.357886 200.889489 
L 379.656556 200.842694 
L 380.955226 200.891728 
L 383.552566 200.935467 
L 384.851236 201.016486 
L 387.448577 200.942683 
L 390.695252 200.857071 
L 391.344587 200.746858 
L 393.292592 200.789618 
L 394.591262 200.645969 
L 398.487273 200.890168 
L 398.487273 200.890168 
" clip-path="url(#pa049cdedc1)" style="fill: none; stroke: #808080; stroke-width: 0.8; stroke-linecap: square"/>
   </g>
   <g id="line2d_14">
    <path d="M 73.832727 41.472 
L 73.839221 41.472 
L 73.852207 43.210733 
L 74.079475 168.691575 
L 74.241808 189.299614 
L 74.274275 189.267072 
L 74.306742 198.223193 
L 74.371675 186.488343 
L 74.436609 200.385038 
L 74.469076 194.052119 
L 74.858677 223.306833 
L 74.988544 222.609884 
L 75.118411 224.244585 
L 75.248278 228.352641 
L 75.378145 225.994019 
L 75.508012 230.711196 
L 75.767746 221.774226 
L 75.897613 231.628114 
L 76.157347 234.72841 
L 76.287214 242.22112 
L 76.417081 242.341034 
L 76.676815 249.655131 
L 76.806682 253.28287 
L 76.936549 253.616203 
L 77.066416 253.562891 
L 77.196283 253.734312 
L 77.456017 252.090605 
L 77.585884 251.453218 
L 77.715751 247.158717 
L 77.845618 246.653928 
L 78.235219 251.242676 
L 78.494953 250.829981 
L 78.754687 254.365583 
L 79.014421 249.696348 
L 79.144288 250.602175 
L 79.404022 248.895303 
L 79.663756 253.326598 
L 79.793623 253.276272 
L 79.92349 253.217696 
L 80.053357 251.644089 
L 80.183224 252.363134 
L 80.313091 251.86434 
L 80.442958 251.948354 
L 80.962426 255.882936 
L 81.092293 253.264765 
L 81.352027 256.960288 
L 81.481894 255.769255 
L 81.611761 256.183298 
L 82.001362 255.444932 
L 82.131229 256.062037 
L 82.390963 255.119724 
L 82.650697 256.469472 
L 82.780564 255.781031 
L 83.040298 256.451864 
L 83.170165 256.309099 
L 83.300033 255.510388 
L 83.559767 256.482007 
L 83.689634 256.660205 
L 83.819501 257.164583 
L 83.949368 256.940095 
L 84.079235 255.807539 
L 84.338969 257.200442 
L 84.598703 255.703924 
L 84.72857 256.62912 
L 84.858437 256.145096 
L 84.988304 257.223554 
L 85.118171 257.233269 
L 85.248038 257.043986 
L 85.377905 256.503315 
L 85.507772 257.040866 
L 85.637639 256.737783 
L 86.02724 256.836367 
L 86.157107 257.991707 
L 86.286974 258.071415 
L 86.416841 258.306177 
L 86.546708 258.801532 
L 86.676575 258.272569 
L 86.806442 259.618779 
L 86.936309 259.471538 
L 87.066176 260.180902 
L 87.196043 259.783101 
L 87.585644 260.240999 
L 87.845378 258.964521 
L 88.105112 260.10486 
L 88.234979 260.369342 
L 88.494713 261.376619 
L 88.62458 261.168886 
L 88.754447 261.966113 
L 88.884314 261.837883 
L 89.014181 261.500223 
L 89.403782 262.565512 
L 89.533649 262.601886 
L 89.663516 262.48273 
L 89.793383 262.57708 
L 89.92325 263.287237 
L 90.053117 263.302547 
L 90.182984 262.769007 
L 90.312851 262.709922 
L 90.702452 261.208968 
L 90.962186 262.991535 
L 91.22192 262.02087 
L 91.351787 262.398248 
L 91.481654 261.629869 
L 91.611521 261.745556 
L 91.741388 261.433092 
L 92.001122 262.114795 
L 92.130989 261.125129 
L 92.260856 261.565775 
L 92.390723 261.506857 
L 92.52059 261.690179 
L 92.780324 261.359411 
L 93.169925 262.706107 
L 93.42966 262.09616 
L 93.559527 261.916562 
L 93.689394 261.963206 
L 93.819261 261.804829 
L 94.078995 262.459764 
L 94.208862 262.48614 
L 94.338729 262.777734 
L 94.468596 262.631422 
L 94.72833 261.848165 
L 94.858197 261.834857 
L 94.988064 262.161917 
L 95.247798 262.212561 
L 95.507532 262.350387 
L 95.637399 262.602639 
L 95.897133 261.263308 
L 96.027 261.503215 
L 96.156867 261.433901 
L 96.546468 262.138254 
L 96.676335 262.05951 
L 97.195803 263.123099 
L 97.32567 263.003994 
L 97.455537 262.920171 
L 97.715271 263.519219 
L 97.845138 263.406374 
L 98.234739 263.960295 
L 98.364606 263.630677 
L 98.494473 263.843897 
L 98.754207 263.260055 
L 98.884074 263.412036 
L 99.143808 263.188839 
L 99.273675 263.366459 
L 99.533409 263.917992 
L 99.663276 264.066793 
L 99.92301 263.495331 
L 100.312611 264.160567 
L 100.442478 264.241225 
L 100.572345 263.992866 
L 100.702212 264.095779 
L 100.832079 264.010706 
L 101.091813 264.373426 
L 101.351547 264.215848 
L 101.481414 263.197119 
L 101.611281 263.219554 
L 102.260616 262.536172 
L 102.390483 262.844759 
L 103.299552 262.526029 
L 103.559287 262.762089 
L 103.819021 262.583784 
L 103.948888 262.704008 
L 104.338489 262.017169 
L 104.987824 262.958159 
L 105.117691 262.954089 
L 105.247558 262.786478 
L 105.507292 263.047655 
L 105.637159 263.02634 
L 105.767026 263.243898 
L 106.286494 262.563 
L 106.416361 262.64206 
L 106.676095 262.560863 
L 106.935829 262.409893 
L 107.065696 262.364613 
L 107.32543 262.563182 
L 107.585164 262.366919 
L 107.715031 262.441103 
L 107.974765 261.948694 
L 108.234499 262.260723 
L 108.753967 262.047207 
L 108.883834 261.71424 
L 109.013701 261.924084 
L 109.403302 261.425292 
L 109.533169 261.576395 
L 109.663036 261.481112 
L 109.92277 261.764138 
L 110.312371 261.537948 
L 110.442238 261.135509 
L 110.572105 261.352393 
L 110.961706 261.090479 
L 111.22144 261.337358 
L 111.481174 261.072098 
L 112.000642 261.229323 
L 112.130509 260.964729 
L 112.390243 261.042224 
L 112.52011 260.767443 
L 112.649977 260.811861 
L 112.909711 261.24418 
L 113.299312 260.955164 
L 113.429179 261.161455 
L 113.559047 261.069824 
L 113.818781 260.803404 
L 113.948648 260.77581 
L 114.078515 260.614243 
L 114.208382 260.687737 
L 114.597983 260.264167 
L 114.72785 260.176455 
L 114.987584 259.403099 
L 115.117451 259.672766 
L 115.377185 259.252767 
L 115.896653 258.485346 
L 116.02652 258.602758 
L 116.286254 258.58172 
L 116.545988 258.855027 
L 116.805722 259.026879 
L 116.935589 258.928547 
L 117.32519 259.11075 
L 118.493993 257.617089 
L 118.753727 257.723833 
L 119.273195 256.91749 
L 119.532929 256.893914 
L 120.052397 256.882307 
L 120.182264 257.054227 
L 120.441998 257.080417 
L 120.831599 257.287351 
L 121.091333 257.576063 
L 121.2212 257.3992 
L 121.351067 257.517971 
L 121.610801 256.910902 
L 121.870535 257.0862 
L 122.130269 257.24462 
L 122.51987 257.046988 
L 122.779604 257.338402 
L 123.169205 256.650601 
L 123.428939 256.411665 
L 123.558806 256.456836 
L 123.688674 256.274305 
L 123.818541 256.295226 
L 124.078275 256.56906 
L 124.208142 256.523368 
L 124.597743 256.715887 
L 124.857477 256.495353 
L 124.987344 256.686392 
L 125.376945 256.654704 
L 125.896413 256.906938 
L 126.02628 256.851297 
L 126.286014 257.157291 
L 126.545748 257.190381 
L 126.805482 257.439778 
L 126.935349 257.423678 
L 127.065216 257.668907 
L 127.195083 257.579481 
L 127.32495 257.808819 
L 127.974285 257.561549 
L 128.234019 257.570527 
L 128.493753 257.297259 
L 129.013221 257.27108 
L 129.143088 257.421338 
L 129.272955 257.270731 
L 129.92229 257.740385 
L 130.441758 257.61278 
L 131.091093 258.02174 
L 131.22096 258.011982 
L 131.610561 257.472053 
L 131.870295 257.345001 
L 132.000162 257.434075 
L 132.259896 257.270001 
L 132.389763 257.415124 
L 132.51963 257.387648 
L 132.649497 257.552583 
L 132.909231 257.367143 
L 133.168965 256.964877 
L 133.428699 256.87843 
L 133.688434 257.224358 
L 134.337769 256.962858 
L 134.597503 256.747939 
L 134.72737 256.692206 
L 134.857237 256.823838 
L 135.116971 256.658818 
L 135.246838 256.907005 
L 135.376705 256.774632 
L 135.506572 256.841195 
L 135.636439 256.608415 
L 136.02604 256.719699 
L 136.155907 256.822131 
L 136.285774 256.690662 
L 136.545508 256.796082 
L 137.454577 256.959073 
L 137.714311 256.72913 
L 138.62338 257.035757 
L 138.753247 256.798446 
L 139.402582 253.459183 
L 140.051917 253.52115 
L 141.350587 253.276612 
L 143.298592 253.603956 
L 144.597263 253.463428 
L 145.895933 253.5848 
L 146.545268 253.239875 
L 147.843938 253.546575 
L 148.493273 253.411409 
L 149.142608 253.646992 
L 150.441278 253.857844 
L 151.090613 253.63783 
L 152.389283 253.522595 
L 153.687953 253.505521 
L 154.337289 253.841179 
L 154.986624 253.852703 
L 155.635959 253.740588 
L 156.285294 253.85784 
L 157.583964 253.691601 
L 159.531969 253.704542 
L 160.181304 253.599333 
L 161.479974 253.820515 
L 162.129309 253.618982 
L 163.427979 253.638424 
L 166.02532 253.2725 
L 168.62266 253.124089 
L 170.570665 253.577679 
L 171.22 253.434437 
L 173.168005 253.838359 
L 174.466676 253.829634 
L 175.116011 253.539905 
L 175.765346 253.453449 
L 177.064016 253.663187 
L 177.713351 253.49229 
L 179.012021 253.54699 
L 179.661356 253.684356 
L 180.310691 253.98918 
L 180.960026 254.103026 
L 184.206702 254.117652 
L 184.856037 253.848583 
L 189.401382 254.380548 
L 190.050717 254.088352 
L 191.998722 253.990483 
L 193.297392 254.125047 
L 195.894733 254.514615 
L 197.193403 254.835891 
L 197.842738 254.645074 
L 201.089413 254.720283 
L 201.738748 254.599036 
L 203.037418 254.77455 
L 204.336088 254.956673 
L 205.634759 254.853014 
L 206.284094 254.925691 
L 207.582764 254.767738 
L 208.881434 254.806454 
L 215.374785 254.999943 
L 217.32279 254.925104 
L 217.972125 255.077847 
L 219.270795 255.082766 
L 220.569465 255.002748 
L 221.868135 254.924153 
L 222.51747 255.018284 
L 223.166805 254.880656 
L 224.465475 254.976499 
L 226.413481 255.276149 
L 227.712151 255.23791 
L 228.361486 255.331359 
L 229.010821 255.278003 
L 230.309491 254.901585 
L 233.556166 254.469006 
L 234.205501 254.721154 
L 237.452177 254.641486 
L 238.750847 254.51507 
L 239.400182 254.377186 
L 240.698852 254.592715 
L 241.348187 254.523128 
L 241.997522 254.339575 
L 242.646857 254.499551 
L 243.296192 254.495137 
L 245.244198 254.140847 
L 245.893533 254.09547 
L 246.542868 254.275706 
L 247.192203 254.191497 
L 247.841538 254.340488 
L 250.438878 254.258004 
L 251.737548 254.008727 
L 253.036218 254.096911 
L 254.334888 254.016977 
L 255.633559 253.789284 
L 258.230899 253.727385 
L 258.880234 253.706363 
L 260.178904 253.474306 
L 264.724249 253.638552 
L 265.373585 253.763737 
L 267.32159 253.739022 
L 267.970925 253.584993 
L 270.568265 253.389413 
L 271.2176 253.54182 
L 272.51627 253.471133 
L 273.165605 253.534761 
L 275.113611 253.286061 
L 277.061616 253.202705 
L 279.009621 253.301685 
L 281.606961 253.194674 
L 282.905631 253.341309 
L 283.554966 253.483787 
L 290.697652 253.463242 
L 291.996322 253.49581 
L 293.294992 253.392572 
L 295.242998 253.630815 
L 295.892333 253.506352 
L 296.541668 253.524293 
L 297.840338 253.37602 
L 299.139008 253.354773 
L 301.087013 253.270862 
L 304.983023 253.457148 
L 305.632359 253.377301 
L 307.580364 253.570549 
L 308.229699 253.715417 
L 308.879034 253.613111 
L 314.723049 253.80873 
L 316.671055 253.717364 
L 320.567065 253.588297 
L 321.865735 253.697348 
L 324.463075 253.552743 
L 345.241797 254.160101 
L 345.891133 254.112754 
L 346.540468 254.207264 
L 351.735148 254.042833 
L 363.423179 254.1173 
L 365.371184 254.184751 
L 367.31919 254.018898 
L 369.267195 254.127833 
L 370.565865 254.049221 
L 371.864535 254.012193 
L 372.51387 253.936307 
L 374.461875 253.961885 
L 375.11121 253.958535 
L 375.760545 254.068287 
L 377.059216 254.072263 
L 378.357886 254.17431 
L 380.955226 254.230632 
L 382.903231 254.43041 
L 384.201901 254.424428 
L 385.500571 254.410625 
L 388.097912 254.213129 
L 391.344587 254.303748 
L 394.591262 254.423928 
L 395.240597 254.378208 
L 395.889932 254.507141 
L 398.487273 254.4193 
L 398.487273 254.4193 
" clip-path="url(#pa049cdedc1)" style="fill: none; stroke: #ff0000; stroke-width: 0.8; stroke-linecap: square"/>
   </g>
   <g id="patch_3">
    <path d="M 57.6 307.584 
L 57.6 41.472 
" style="fill: none; stroke: #000000; stroke-width: 0.8; stroke-linejoin: miter; stroke-linecap: square"/>
   </g>
   <g id="patch_4">
    <path d="M 414.72 307.584 
L 414.72 41.472 
" style="fill: none; stroke: #000000; stroke-width: 0.8; stroke-linejoin: miter; stroke-linecap: square"/>
   </g>
   <g id="patch_5">
    <path d="M 57.6 307.584 
L 414.72 307.584 
" style="fill: none; stroke: #000000; stroke-width: 0.8; stroke-linejoin: miter; stroke-linecap: square"/>
   </g>
   <g id="patch_6">
    <path d="M 57.6 41.472 
L 414.72 41.472 
" style="fill: none; stroke: #000000; stroke-width: 0.8; stroke-linejoin: miter; stroke-linecap: square"/>
   </g>
   <g id="legend_1">
    <g id="patch_7">
     <path d="M 257.555938 78.82825 
L 407.72 78.82825 
Q 409.72 78.82825 409.72 76.82825 
L 409.72 48.472 
Q 409.72 46.472 407.72 46.472 
L 257.555938 46.472 
Q 255.555938 46.472 255.555938 48.472 
L 255.555938 76.82825 
Q 255.555938 78.82825 257.555938 78.82825 
z
" style="fill: #ffffff; opacity: 0.8; stroke: #cccccc; stroke-linejoin: miter"/>
    </g>
    <g id="line2d_15">
     <path d="M 259.555938 54.570437 
L 269.555938 54.570437 
L 279.555938 54.570437 
" style="fill: none; stroke: #808080; stroke-width: 0.8; stroke-linecap: square"/>
    </g>
    <g id="text_15">
     <!-- Incorrect Weight Values -->
     <g transform="translate(287.555938 58.070437) scale(0.1 -0.1)">
      <defs>
       <path id="DejaVuSans-49" d="M 628 4666 
L 1259 4666 
L 1259 0 
L 628 0 
L 628 4666 
z
" transform="scale(0.015625)"/>
       <path id="DejaVuSans-57" d="M 213 4666 
L 850 4666 
L 1831 722 
L 2809 4666 
L 3519 4666 
L 4500 722 
L 5478 4666 
L 6119 4666 
L 4947 0 
L 4153 0 
L 3169 4050 
L 2175 0 
L 1381 0 
L 213 4666 
z
" transform="scale(0.015625)"/>
       <path id="DejaVuSans-56" d="M 1831 0 
L 50 4666 
L 709 4666 
L 2188 738 
L 3669 4666 
L 4325 4666 
L 2547 0 
L 1831 0 
z
" transform="scale(0.015625)"/>
      </defs>
      <use xlink:href="#DejaVuSans-49"/>
      <use xlink:href="#DejaVuSans-6e" x="29.492188"/>
      <use xlink:href="#DejaVuSans-63" x="92.871094"/>
      <use xlink:href="#DejaVuSans-6f" x="147.851562"/>
      <use xlink:href="#DejaVuSans-72" x="209.033203"/>
      <use xlink:href="#DejaVuSans-72" x="248.396484"/>
      <use xlink:href="#DejaVuSans-65" x="287.259766"/>
      <use xlink:href="#DejaVuSans-63" x="348.783203"/>
      <use xlink:href="#DejaVuSans-74" x="403.763672"/>
      <use xlink:href="#DejaVuSans-20" x="442.972656"/>
      <use xlink:href="#DejaVuSans-57" x="474.759766"/>
      <use xlink:href="#DejaVuSans-65" x="567.761719"/>
      <use xlink:href="#DejaVuSans-69" x="629.285156"/>
      <use xlink:href="#DejaVuSans-67" x="657.068359"/>
      <use xlink:href="#DejaVuSans-68" x="720.544922"/>
      <use xlink:href="#DejaVuSans-74" x="783.923828"/>
      <use xlink:href="#DejaVuSans-20" x="823.132812"/>
      <use xlink:href="#DejaVuSans-56" x="854.919922"/>
      <use xlink:href="#DejaVuSans-61" x="915.578125"/>
      <use xlink:href="#DejaVuSans-6c" x="976.857422"/>
      <use xlink:href="#DejaVuSans-75" x="1004.640625"/>
      <use xlink:href="#DejaVuSans-65" x="1068.019531"/>
      <use xlink:href="#DejaVuSans-73" x="1129.542969"/>
     </g>
    </g>
    <g id="line2d_16">
     <path d="M 259.555938 69.248562 
L 269.555938 69.248562 
L 279.555938 69.248562 
" style="fill: none; stroke: #ff0000; stroke-width: 0.8; stroke-linecap: square"/>
    </g>
    <g id="text_16">
     <!-- True Weight Value -->
     <g transform="translate(287.555938 72.748562) scale(0.1 -0.1)">
      <use xlink:href="#DejaVuSans-54"/>
      <use xlink:href="#DejaVuSans-72" x="46.333984"/>
      <use xlink:href="#DejaVuSans-75" x="87.447266"/>
      <use xlink:href="#DejaVuSans-65" x="150.826172"/>
      <use xlink:href="#DejaVuSans-20" x="212.349609"/>
      <use xlink:href="#DejaVuSans-57" x="244.136719"/>
      <use xlink:href="#DejaVuSans-65" x="337.138672"/>
      <use xlink:href="#DejaVuSans-69" x="398.662109"/>
      <use xlink:href="#DejaVuSans-67" x="426.445312"/>
      <use xlink:href="#DejaVuSans-68" x="489.921875"/>
      <use xlink:href="#DejaVuSans-74" x="553.300781"/>
      <use xlink:href="#DejaVuSans-20" x="592.509766"/>
      <use xlink:href="#DejaVuSans-56" x="624.296875"/>
      <use xlink:href="#DejaVuSans-61" x="684.955078"/>
      <use xlink:href="#DejaVuSans-6c" x="746.234375"/>
      <use xlink:href="#DejaVuSans-75" x="774.017578"/>
      <use xlink:href="#DejaVuSans-65" x="837.396484"/>
     </g>
    </g>
   </g>
  </g>
 </g>
 <defs>
  <clipPath id="pa049cdedc1">
   <rect x="57.6" y="41.472" width="357.12" height="266.112"/>
  </clipPath>
 </defs>
</svg>
