<?xml version="1.0" encoding="utf-8" standalone="no"?>
<!DOCTYPE svg PUBLIC "-//W3C//DTD SVG 1.1//EN"
  "http://www.w3.org/Graphics/SVG/1.1/DTD/svg11.dtd">
<svg xmlns:xlink="http://www.w3.org/1999/xlink" width="460.8pt" height="345.6pt" viewBox="0 0 460.8 345.6" xmlns="http://www.w3.org/2000/svg" version="1.1">
 <metadata>
  <rdf:RDF xmlns:dc="http://purl.org/dc/elements/1.1/" xmlns:cc="http://creativecommons.org/ns#" xmlns:rdf="http://www.w3.org/1999/02/22-rdf-syntax-ns#">
   <cc:Work>
    <dc:type rdf:resource="http://purl.org/dc/dcmitype/StillImage"/>
    <dc:date>2025-03-19T21:23:41.220195</dc:date>
    <dc:format>image/svg+xml</dc:format>
    <dc:creator>
     <cc:Agent>
      <dc:title>Matplotlib v3.6.3, https://matplotlib.org/</dc:title>
     </cc:Agent>
    </dc:creator>
   </cc:Work>
  </rdf:RDF>
 </metadata>
 <defs>
  <style type="text/css">*{stroke-linejoin: round; stroke-linecap: butt}</style>
 </defs>
 <g id="figure_1">
  <g id="patch_1">
   <path d="M 0 345.6 
L 460.8 345.6 
L 460.8 0 
L 0 0 
z
" style="fill: #ffffff"/>
  </g>
  <g id="axes_1">
   <g id="patch_2">
    <path d="M 57.6 307.584 
L 414.72 307.584 
L 414.72 41.472 
L 57.6 41.472 
z
" style="fill: #ffffff"/>
   </g>
   <g id="matplotlib.axis_1">
    <g id="xtick_1">
     <g id="line2d_1">
      <defs>
       <path id="m9706a5d0e0" d="M 0 0 
L 0 3.5 
" style="stroke: #000000; stroke-width: 0.8"/>
      </defs>
      <g>
       <use xlink:href="#m9706a5d0e0" x="67.194809" y="307.584" style="stroke: #000000; stroke-width: 0.8"/>
      </g>
     </g>
     <g id="text_1">
      <!-- 1000 -->
      <g transform="translate(54.469809 322.182437) scale(0.1 -0.1)">
       <defs>
        <path id="DejaVuSans-31" d="M 794 531 
L 1825 531 
L 1825 4091 
L 703 3866 
L 703 4441 
L 1819 4666 
L 2450 4666 
L 2450 531 
L 3481 531 
L 3481 0 
L 794 0 
L 794 531 
z
" transform="scale(0.015625)"/>
        <path id="DejaVuSans-30" d="M 2034 4250 
Q 1547 4250 1301 3770 
Q 1056 3291 1056 2328 
Q 1056 1369 1301 889 
Q 1547 409 2034 409 
Q 2525 409 2770 889 
Q 3016 1369 3016 2328 
Q 3016 3291 2770 3770 
Q 2525 4250 2034 4250 
z
M 2034 4750 
Q 2819 4750 3233 4129 
Q 3647 3509 3647 2328 
Q 3647 1150 3233 529 
Q 2819 -91 2034 -91 
Q 1250 -91 836 529 
Q 422 1150 422 2328 
Q 422 3509 836 4129 
Q 1250 4750 2034 4750 
z
" transform="scale(0.015625)"/>
       </defs>
       <use xlink:href="#DejaVuSans-31"/>
       <use xlink:href="#DejaVuSans-30" x="63.623047"/>
       <use xlink:href="#DejaVuSans-30" x="127.246094"/>
       <use xlink:href="#DejaVuSans-30" x="190.869141"/>
      </g>
     </g>
    </g>
    <g id="xtick_2">
     <g id="line2d_2">
      <g>
       <use xlink:href="#m9706a5d0e0" x="127.53952" y="307.584" style="stroke: #000000; stroke-width: 0.8"/>
      </g>
     </g>
     <g id="text_2">
      <!-- 1100 -->
      <g transform="translate(114.81452 322.182437) scale(0.1 -0.1)">
       <use xlink:href="#DejaVuSans-31"/>
       <use xlink:href="#DejaVuSans-31" x="63.623047"/>
       <use xlink:href="#DejaVuSans-30" x="127.246094"/>
       <use xlink:href="#DejaVuSans-30" x="190.869141"/>
      </g>
     </g>
    </g>
    <g id="xtick_3">
     <g id="line2d_3">
      <g>
       <use xlink:href="#m9706a5d0e0" x="187.884231" y="307.584" style="stroke: #000000; stroke-width: 0.8"/>
      </g>
     </g>
     <g id="text_3">
      <!-- 1200 -->
      <g transform="translate(175.159231 322.182437) scale(0.1 -0.1)">
       <defs>
        <path id="DejaVuSans-32" d="M 1228 531 
L 3431 531 
L 3431 0 
L 469 0 
L 469 531 
Q 828 903 1448 1529 
Q 2069 2156 2228 2338 
Q 2531 2678 2651 2914 
Q 2772 3150 2772 3378 
Q 2772 3750 2511 3984 
Q 2250 4219 1831 4219 
Q 1534 4219 1204 4116 
Q 875 4013 500 3803 
L 500 4441 
Q 881 4594 1212 4672 
Q 1544 4750 1819 4750 
Q 2544 4750 2975 4387 
Q 3406 4025 3406 3419 
Q 3406 3131 3298 2873 
Q 3191 2616 2906 2266 
Q 2828 2175 2409 1742 
Q 1991 1309 1228 531 
z
" transform="scale(0.015625)"/>
       </defs>
       <use xlink:href="#DejaVuSans-31"/>
       <use xlink:href="#DejaVuSans-32" x="63.623047"/>
       <use xlink:href="#DejaVuSans-30" x="127.246094"/>
       <use xlink:href="#DejaVuSans-30" x="190.869141"/>
      </g>
     </g>
    </g>
    <g id="xtick_4">
     <g id="line2d_4">
      <g>
       <use xlink:href="#m9706a5d0e0" x="248.228942" y="307.584" style="stroke: #000000; stroke-width: 0.8"/>
      </g>
     </g>
     <g id="text_4">
      <!-- 1300 -->
      <g transform="translate(235.503942 322.182437) scale(0.1 -0.1)">
       <defs>
        <path id="DejaVuSans-33" d="M 2597 2516 
Q 3050 2419 3304 2112 
Q 3559 1806 3559 1356 
Q 3559 666 3084 287 
Q 2609 -91 1734 -91 
Q 1441 -91 1130 -33 
Q 819 25 488 141 
L 488 750 
Q 750 597 1062 519 
Q 1375 441 1716 441 
Q 2309 441 2620 675 
Q 2931 909 2931 1356 
Q 2931 1769 2642 2001 
Q 2353 2234 1838 2234 
L 1294 2234 
L 1294 2753 
L 1863 2753 
Q 2328 2753 2575 2939 
Q 2822 3125 2822 3475 
Q 2822 3834 2567 4026 
Q 2313 4219 1838 4219 
Q 1578 4219 1281 4162 
Q 984 4106 628 3988 
L 628 4550 
Q 988 4650 1302 4700 
Q 1616 4750 1894 4750 
Q 2613 4750 3031 4423 
Q 3450 4097 3450 3541 
Q 3450 3153 3228 2886 
Q 3006 2619 2597 2516 
z
" transform="scale(0.015625)"/>
       </defs>
       <use xlink:href="#DejaVuSans-31"/>
       <use xlink:href="#DejaVuSans-33" x="63.623047"/>
       <use xlink:href="#DejaVuSans-30" x="127.246094"/>
       <use xlink:href="#DejaVuSans-30" x="190.869141"/>
      </g>
     </g>
    </g>
    <g id="xtick_5">
     <g id="line2d_5">
      <g>
       <use xlink:href="#m9706a5d0e0" x="308.573653" y="307.584" style="stroke: #000000; stroke-width: 0.8"/>
      </g>
     </g>
     <g id="text_5">
      <!-- 1400 -->
      <g transform="translate(295.848653 322.182437) scale(0.1 -0.1)">
       <defs>
        <path id="DejaVuSans-34" d="M 2419 4116 
L 825 1625 
L 2419 1625 
L 2419 4116 
z
M 2253 4666 
L 3047 4666 
L 3047 1625 
L 3713 1625 
L 3713 1100 
L 3047 1100 
L 3047 0 
L 2419 0 
L 2419 1100 
L 313 1100 
L 313 1709 
L 2253 4666 
z
" transform="scale(0.015625)"/>
       </defs>
       <use xlink:href="#DejaVuSans-31"/>
       <use xlink:href="#DejaVuSans-34" x="63.623047"/>
       <use xlink:href="#DejaVuSans-30" x="127.246094"/>
       <use xlink:href="#DejaVuSans-30" x="190.869141"/>
      </g>
     </g>
    </g>
    <g id="xtick_6">
     <g id="line2d_6">
      <g>
       <use xlink:href="#m9706a5d0e0" x="368.918364" y="307.584" style="stroke: #000000; stroke-width: 0.8"/>
      </g>
     </g>
     <g id="text_6">
      <!-- 1500 -->
      <g transform="translate(356.193364 322.182437) scale(0.1 -0.1)">
       <defs>
        <path id="DejaVuSans-35" d="M 691 4666 
L 3169 4666 
L 3169 4134 
L 1269 4134 
L 1269 2991 
Q 1406 3038 1543 3061 
Q 1681 3084 1819 3084 
Q 2600 3084 3056 2656 
Q 3513 2228 3513 1497 
Q 3513 744 3044 326 
Q 2575 -91 1722 -91 
Q 1428 -91 1123 -41 
Q 819 9 494 109 
L 494 744 
Q 775 591 1075 516 
Q 1375 441 1709 441 
Q 2250 441 2565 725 
Q 2881 1009 2881 1497 
Q 2881 1984 2565 2268 
Q 2250 2553 1709 2553 
Q 1456 2553 1204 2497 
Q 953 2441 691 2322 
L 691 4666 
z
" transform="scale(0.015625)"/>
       </defs>
       <use xlink:href="#DejaVuSans-31"/>
       <use xlink:href="#DejaVuSans-35" x="63.623047"/>
       <use xlink:href="#DejaVuSans-30" x="127.246094"/>
       <use xlink:href="#DejaVuSans-30" x="190.869141"/>
      </g>
     </g>
    </g>
   </g>
   <g id="matplotlib.axis_2">
    <g id="ytick_1">
     <g id="line2d_7">
      <defs>
       <path id="ma3d172852a" d="M 0 0 
L -3.5 0 
" style="stroke: #000000; stroke-width: 0.8"/>
      </defs>
      <g>
       <use xlink:href="#ma3d172852a" x="57.6" y="295.880882" style="stroke: #000000; stroke-width: 0.8"/>
      </g>
     </g>
     <g id="text_7">
      <!-- 0.1 -->
      <g transform="translate(34.696875 299.6801) scale(0.1 -0.1)">
       <defs>
        <path id="DejaVuSans-2e" d="M 684 794 
L 1344 794 
L 1344 0 
L 684 0 
L 684 794 
z
" transform="scale(0.015625)"/>
       </defs>
       <use xlink:href="#DejaVuSans-30"/>
       <use xlink:href="#DejaVuSans-2e" x="63.623047"/>
       <use xlink:href="#DejaVuSans-31" x="95.410156"/>
      </g>
     </g>
    </g>
    <g id="ytick_2">
     <g id="line2d_8">
      <g>
       <use xlink:href="#ma3d172852a" x="57.6" y="263.034029" style="stroke: #000000; stroke-width: 0.8"/>
      </g>
     </g>
     <g id="text_8">
      <!-- 0.2 -->
      <g transform="translate(34.696875 266.833248) scale(0.1 -0.1)">
       <use xlink:href="#DejaVuSans-30"/>
       <use xlink:href="#DejaVuSans-2e" x="63.623047"/>
       <use xlink:href="#DejaVuSans-32" x="95.410156"/>
      </g>
     </g>
    </g>
    <g id="ytick_3">
     <g id="line2d_9">
      <g>
       <use xlink:href="#ma3d172852a" x="57.6" y="230.187177" style="stroke: #000000; stroke-width: 0.8"/>
      </g>
     </g>
     <g id="text_9">
      <!-- 0.3 -->
      <g transform="translate(34.696875 233.986396) scale(0.1 -0.1)">
       <use xlink:href="#DejaVuSans-30"/>
       <use xlink:href="#DejaVuSans-2e" x="63.623047"/>
       <use xlink:href="#DejaVuSans-33" x="95.410156"/>
      </g>
     </g>
    </g>
    <g id="ytick_4">
     <g id="line2d_10">
      <g>
       <use xlink:href="#ma3d172852a" x="57.6" y="197.340325" style="stroke: #000000; stroke-width: 0.8"/>
      </g>
     </g>
     <g id="text_10">
      <!-- 0.4 -->
      <g transform="translate(34.696875 201.139544) scale(0.1 -0.1)">
       <use xlink:href="#DejaVuSans-30"/>
       <use xlink:href="#DejaVuSans-2e" x="63.623047"/>
       <use xlink:href="#DejaVuSans-34" x="95.410156"/>
      </g>
     </g>
    </g>
    <g id="ytick_5">
     <g id="line2d_11">
      <g>
       <use xlink:href="#ma3d172852a" x="57.6" y="164.493473" style="stroke: #000000; stroke-width: 0.8"/>
      </g>
     </g>
     <g id="text_11">
      <!-- 0.5 -->
      <g transform="translate(34.696875 168.292691) scale(0.1 -0.1)">
       <use xlink:href="#DejaVuSans-30"/>
       <use xlink:href="#DejaVuSans-2e" x="63.623047"/>
       <use xlink:href="#DejaVuSans-35" x="95.410156"/>
      </g>
     </g>
    </g>
    <g id="ytick_6">
     <g id="line2d_12">
      <g>
       <use xlink:href="#ma3d172852a" x="57.6" y="131.64662" style="stroke: #000000; stroke-width: 0.8"/>
      </g>
     </g>
     <g id="text_12">
      <!-- 0.6 -->
      <g transform="translate(34.696875 135.445839) scale(0.1 -0.1)">
       <defs>
        <path id="DejaVuSans-36" d="M 2113 2584 
Q 1688 2584 1439 2293 
Q 1191 2003 1191 1497 
Q 1191 994 1439 701 
Q 1688 409 2113 409 
Q 2538 409 2786 701 
Q 3034 994 3034 1497 
Q 3034 2003 2786 2293 
Q 2538 2584 2113 2584 
z
M 3366 4563 
L 3366 3988 
Q 3128 4100 2886 4159 
Q 2644 4219 2406 4219 
Q 1781 4219 1451 3797 
Q 1122 3375 1075 2522 
Q 1259 2794 1537 2939 
Q 1816 3084 2150 3084 
Q 2853 3084 3261 2657 
Q 3669 2231 3669 1497 
Q 3669 778 3244 343 
Q 2819 -91 2113 -91 
Q 1303 -91 875 529 
Q 447 1150 447 2328 
Q 447 3434 972 4092 
Q 1497 4750 2381 4750 
Q 2619 4750 2861 4703 
Q 3103 4656 3366 4563 
z
" transform="scale(0.015625)"/>
       </defs>
       <use xlink:href="#DejaVuSans-30"/>
       <use xlink:href="#DejaVuSans-2e" x="63.623047"/>
       <use xlink:href="#DejaVuSans-36" x="95.410156"/>
      </g>
     </g>
    </g>
    <g id="ytick_7">
     <g id="line2d_13">
      <g>
       <use xlink:href="#ma3d172852a" x="57.6" y="98.799768" style="stroke: #000000; stroke-width: 0.8"/>
      </g>
     </g>
     <g id="text_13">
      <!-- 0.7 -->
      <g transform="translate(34.696875 102.598987) scale(0.1 -0.1)">
       <defs>
        <path id="DejaVuSans-37" d="M 525 4666 
L 3525 4666 
L 3525 4397 
L 1831 0 
L 1172 0 
L 2766 4134 
L 525 4134 
L 525 4666 
z
" transform="scale(0.015625)"/>
       </defs>
       <use xlink:href="#DejaVuSans-30"/>
       <use xlink:href="#DejaVuSans-2e" x="63.623047"/>
       <use xlink:href="#DejaVuSans-37" x="95.410156"/>
      </g>
     </g>
    </g>
    <g id="ytick_8">
     <g id="line2d_14">
      <g>
       <use xlink:href="#ma3d172852a" x="57.6" y="65.952916" style="stroke: #000000; stroke-width: 0.8"/>
      </g>
     </g>
     <g id="text_14">
      <!-- 0.8 -->
      <g transform="translate(34.696875 69.752135) scale(0.1 -0.1)">
       <defs>
        <path id="DejaVuSans-38" d="M 2034 2216 
Q 1584 2216 1326 1975 
Q 1069 1734 1069 1313 
Q 1069 891 1326 650 
Q 1584 409 2034 409 
Q 2484 409 2743 651 
Q 3003 894 3003 1313 
Q 3003 1734 2745 1975 
Q 2488 2216 2034 2216 
z
M 1403 2484 
Q 997 2584 770 2862 
Q 544 3141 544 3541 
Q 544 4100 942 4425 
Q 1341 4750 2034 4750 
Q 2731 4750 3128 4425 
Q 3525 4100 3525 3541 
Q 3525 3141 3298 2862 
Q 3072 2584 2669 2484 
Q 3125 2378 3379 2068 
Q 3634 1759 3634 1313 
Q 3634 634 3220 271 
Q 2806 -91 2034 -91 
Q 1263 -91 848 271 
Q 434 634 434 1313 
Q 434 1759 690 2068 
Q 947 2378 1403 2484 
z
M 1172 3481 
Q 1172 3119 1398 2916 
Q 1625 2713 2034 2713 
Q 2441 2713 2670 2916 
Q 2900 3119 2900 3481 
Q 2900 3844 2670 4047 
Q 2441 4250 2034 4250 
Q 1625 4250 1398 4047 
Q 1172 3844 1172 3481 
z
" transform="scale(0.015625)"/>
       </defs>
       <use xlink:href="#DejaVuSans-30"/>
       <use xlink:href="#DejaVuSans-2e" x="63.623047"/>
       <use xlink:href="#DejaVuSans-38" x="95.410156"/>
      </g>
     </g>
    </g>
   </g>
   <g id="line2d_15">
    <path d="M 73.832727 245.799434 
L 74.436174 259.905881 
L 75.039621 231.558844 
L 75.643069 236.369151 
L 76.849963 267.026795 
L 77.45341 244.328538 
L 78.056857 228.323759 
L 78.660304 241.350841 
L 79.263751 223.237908 
L 79.867198 291.554707 
L 80.470645 261.800678 
L 81.074093 254.440909 
L 81.67754 235.760201 
L 82.280987 283.011753 
L 82.884434 274.832072 
L 84.091328 247.734977 
L 84.694775 291.624336 
L 85.298222 263.206106 
L 85.901669 255.328414 
L 86.505117 249.214445 
L 87.108564 263.410197 
L 87.712011 248.232838 
L 88.315458 250.36628 
L 88.918905 245.362276 
L 89.522352 278.197167 
L 90.729246 252.355177 
L 91.332693 258.412366 
L 91.936141 120.564076 
L 92.539588 177.955933 
L 93.143035 139.900094 
L 93.746482 183.433386 
L 94.349929 75.774062 
L 95.556823 82.608284 
L 96.16027 89.691813 
L 96.763717 80.661838 
L 97.970612 82.95875 
L 98.574059 85.836464 
L 99.177506 73.795075 
L 99.780953 74.873864 
L 100.3844 76.892313 
L 100.987847 80.409189 
L 101.591294 71.183084 
L 102.194741 73.741916 
L 102.798189 77.343634 
L 103.401636 86.945323 
L 104.005083 82.961554 
L 105.211977 146.79021 
L 105.815424 232.560296 
L 106.418871 144.755149 
L 107.022318 245.153935 
L 107.625765 279.652972 
L 108.229213 244.010759 
L 108.83266 285.474437 
L 109.436107 263.653729 
L 110.039554 157.742294 
L 110.643001 108.709172 
L 111.246448 216.442114 
L 111.849895 144.206258 
L 112.453342 123.621642 
L 113.056789 96.906949 
L 113.660237 148.146109 
L 114.263684 102.711891 
L 114.867131 89.675375 
L 115.470578 83.920554 
L 116.074025 182.363296 
L 116.677472 150.396941 
L 117.884366 116.586949 
L 118.487813 167.782612 
L 119.091261 140.050263 
L 119.694708 129.778856 
L 120.298155 122.537066 
L 120.901602 171.253141 
L 121.505049 143.375678 
L 122.108496 132.506735 
L 122.711943 124.098027 
L 123.31539 198.659891 
L 124.522285 183.074195 
L 125.125732 167.628174 
L 125.729179 183.274281 
L 126.332626 172.583578 
L 126.936073 165.919146 
L 127.53952 154.51572 
L 128.142967 172.18553 
L 128.746414 162.563691 
L 129.349861 150.555106 
L 129.953309 130.74597 
L 130.556756 156.672368 
L 131.160203 141.305515 
L 131.76365 129.672811 
L 132.367097 129.623961 
L 132.970544 167.955092 
L 133.573991 144.558136 
L 134.177438 133.311487 
L 134.780885 126.732208 
L 135.384333 167.360206 
L 136.591227 192.361004 
L 137.194674 220.485094 
L 137.798121 175.321826 
L 138.401568 189.810634 
L 139.005015 198.495249 
L 139.608462 224.595245 
L 140.211909 195.531096 
L 140.815357 209.05524 
L 141.418804 249.420589 
L 142.022251 263.632831 
L 142.625698 295.488 
L 143.229145 260.433312 
L 144.436039 117.273377 
L 145.039486 206.474363 
L 145.642933 218.385598 
L 146.246381 238.769983 
L 146.849828 274.762974 
L 147.453275 255.838202 
L 148.056722 267.115362 
L 148.660169 265.854763 
L 149.263616 261.311214 
L 149.867063 271.700969 
L 150.47051 268.143719 
L 151.677405 161.357391 
L 152.280852 164.025071 
L 152.884299 168.503746 
L 153.487746 189.363003 
L 154.091193 234.651903 
L 154.69464 189.692902 
L 155.298087 232.37503 
L 155.901534 258.943581 
L 156.504981 244.435651 
L 157.108429 188.889667 
L 158.315323 176.565248 
L 158.91877 165.343545 
L 159.522217 182.644213 
L 160.729111 177.785651 
L 161.332558 176.746234 
L 161.936005 232.989894 
L 162.539453 202.267323 
L 163.1429 202.150877 
L 163.746347 202.152581 
L 164.349794 187.929257 
L 164.953241 190.168672 
L 165.556688 189.692615 
L 166.160135 198.423854 
L 167.367029 157.71318 
L 167.970477 152.796899 
L 168.573924 154.270651 
L 169.177371 245.733915 
L 169.780818 244.364453 
L 170.384265 236.601588 
L 170.987712 230.397362 
L 171.591159 243.8341 
L 172.194606 216.510532 
L 172.798053 203.648809 
L 173.401501 185.725988 
L 174.004948 233.547083 
L 174.608395 151.789356 
L 175.211842 150.750126 
L 175.815289 156.071218 
L 176.418736 154.946162 
L 177.022183 220.344535 
L 177.62563 231.551906 
L 178.229077 239.391515 
L 178.832525 192.991561 
L 179.435972 212.624517 
L 180.642866 230.636712 
L 181.246313 245.696121 
L 181.84976 228.2024 
L 182.453207 227.689811 
L 183.056654 223.680126 
L 183.660101 184.897765 
L 184.263548 186.658929 
L 185.470443 175.807328 
L 186.07389 181.499547 
L 186.677337 167.320848 
L 187.884231 154.269078 
L 188.487678 150.211 
L 189.694572 157.655811 
L 190.29802 167.457994 
L 190.901467 168.92721 
L 191.504914 163.306909 
L 192.108361 165.778727 
L 192.711808 170.417003 
L 193.315255 243.964052 
L 193.918702 241.226596 
L 195.125596 225.955614 
L 195.729044 224.168905 
L 196.332491 228.766149 
L 196.935938 230.539211 
L 197.539385 233.30929 
L 198.142832 218.77008 
L 198.746279 225.600757 
L 199.349726 235.963059 
L 199.953173 251.42419 
L 200.55662 203.795833 
L 201.763515 204.366302 
L 202.366962 205.500918 
L 202.970409 204.070756 
L 203.573856 204.398873 
L 204.78075 208.43266 
L 205.384197 232.248074 
L 205.987644 233.713347 
L 206.591092 235.748445 
L 207.194539 235.38272 
L 207.797986 248.375432 
L 208.401433 231.539254 
L 209.608327 222.094772 
L 210.211774 241.698156 
L 210.815221 239.562513 
L 211.418668 242.956624 
L 212.022116 250.127901 
L 212.625563 279.465947 
L 213.22901 261.234929 
L 214.435904 241.666702 
L 215.039351 259.68139 
L 215.642798 254.353123 
L 216.246245 244.841412 
L 216.849692 232.80833 
L 217.45314 235.740353 
L 218.056587 241.617917 
L 218.660034 239.598158 
L 219.263481 241.017739 
L 219.866928 210.724872 
L 220.470375 215.775627 
L 221.073822 216.77331 
L 221.677269 226.489515 
L 222.280716 264.714058 
L 222.884164 265.065196 
L 223.487611 264.989129 
L 224.091058 265.200982 
L 224.694505 266.654167 
L 225.297952 266.610461 
L 225.901399 261.41609 
L 226.504846 246.335259 
L 227.108293 219.19253 
L 227.71174 210.623407 
L 228.315188 208.458883 
L 228.918635 206.910766 
L 229.522082 219.793384 
L 230.125529 220.569596 
L 230.728976 231.521405 
L 231.332423 237.185434 
L 231.93587 250.715511 
L 232.539317 208.485451 
L 233.142764 215.919926 
L 233.746212 224.799499 
L 234.349659 220.946497 
L 234.953106 215.396403 
L 235.556553 221.025795 
L 236.16 236.902944 
L 236.763447 214.370668 
L 237.366894 226.304927 
L 237.970341 209.928256 
L 238.573788 204.331207 
L 239.177236 247.258917 
L 239.780683 228.976897 
L 240.38413 227.44805 
L 240.987577 223.197264 
L 241.591024 227.952646 
L 242.194471 205.318273 
L 242.797918 207.273362 
L 243.401365 212.50795 
L 244.004812 260.945787 
L 244.60826 240.3557 
L 245.211707 239.89746 
L 245.815154 249.076765 
L 246.418601 214.345159 
L 247.022048 269.169059 
L 247.625495 269.048129 
L 248.228942 260.907766 
L 248.832389 212.671592 
L 249.435836 213.072668 
L 250.039284 215.625662 
L 250.642731 219.002128 
L 251.246178 206.190977 
L 251.849625 213.546043 
L 252.453072 217.23796 
L 253.056519 222.033579 
L 253.659966 241.950463 
L 254.263413 270.654683 
L 254.86686 265.711436 
L 255.470308 251.190146 
L 256.073755 266.931237 
L 256.677202 279.527941 
L 257.280649 230.848588 
L 257.884096 213.427433 
L 258.487543 268.089433 
L 259.09099 257.043355 
L 259.694437 257.498164 
L 260.297884 257.294601 
L 260.901332 262.904662 
L 262.711673 270.811372 
L 263.31512 247.6233 
L 263.918567 282.837542 
L 264.522014 281.05723 
L 265.125461 278.381127 
L 265.728908 248.734606 
L 266.332356 163.181001 
L 266.935803 163.32989 
L 267.53925 171.067754 
L 268.142697 267.042056 
L 268.746144 267.598926 
L 269.349591 271.518527 
L 269.953038 276.965403 
L 270.556485 201.282351 
L 271.159932 202.711615 
L 271.76338 203.734632 
L 272.366827 208.571721 
L 272.970274 212.493908 
L 273.573721 213.595658 
L 274.177168 211.855067 
L 274.780615 212.397719 
L 275.384062 207.157678 
L 275.987509 217.270334 
L 276.590956 206.965867 
L 277.194404 203.576027 
L 277.797851 209.326239 
L 278.401298 254.141995 
L 279.004745 250.340787 
L 279.608192 252.208221 
L 280.211639 206.213531 
L 280.815086 197.707974 
L 281.418533 248.757586 
L 282.02198 232.526198 
L 282.625428 268.547792 
L 283.228875 271.895005 
L 283.832322 272.491028 
L 284.435769 272.759137 
L 285.039216 273.339543 
L 285.642663 273.189799 
L 286.24611 273.527994 
L 286.849557 274.39535 
L 287.453004 224.875458 
L 288.056452 220.284324 
L 288.659899 227.632368 
L 289.263346 227.567777 
L 289.866793 249.760468 
L 290.47024 257.118272 
L 291.073687 244.699598 
L 291.677134 227.255663 
L 292.280581 253.005238 
L 292.884028 246.462575 
L 294.090923 229.487704 
L 294.69437 272.874491 
L 295.297817 273.688274 
L 295.901264 265.415319 
L 296.504711 258.737707 
L 297.108158 222.512883 
L 297.711605 227.741892 
L 298.315052 223.010958 
L 298.918499 220.90982 
L 299.521947 206.372624 
L 300.125394 232.225919 
L 300.728841 225.908245 
L 301.332288 218.1078 
L 301.935735 211.996934 
L 302.539182 237.784339 
L 303.142629 234.286449 
L 303.746076 228.644719 
L 304.349523 214.661129 
L 304.952971 261.321599 
L 305.556418 249.82201 
L 306.159865 241.125793 
L 306.763312 269.154333 
L 307.366759 266.962529 
L 307.970206 267.080686 
L 308.573653 266.984564 
L 309.1771 278.670864 
L 309.780547 266.110218 
L 310.383995 264.540182 
L 310.987442 265.877221 
L 311.590889 225.618507 
L 312.194336 232.444511 
L 312.797783 236.836117 
L 313.40123 230.914967 
L 314.004677 192.318461 
L 314.608124 190.953824 
L 315.211571 186.196428 
L 315.815019 188.864679 
L 316.418466 260.193064 
L 317.021913 172.059276 
L 317.62536 165.858278 
L 318.228807 163.789448 
L 318.832254 241.367641 
L 319.435701 266.556753 
L 320.039148 266.917251 
L 320.642595 267.784807 
L 321.246043 272.348884 
L 321.84949 271.297811 
L 322.452937 273.165565 
L 323.056384 273.602606 
L 323.659831 281.151141 
L 324.263278 280.803334 
L 324.866725 279.678968 
L 325.470172 277.66922 
L 326.073619 279.906072 
L 326.677067 180.903528 
L 327.280514 179.317546 
L 327.883961 190.496778 
L 328.487408 241.991514 
L 329.090855 266.486068 
L 329.694302 263.965942 
L 330.297749 262.282935 
L 330.901196 265.916126 
L 332.108091 265.539131 
L 332.711538 265.597855 
L 333.314985 267.042654 
L 333.918432 270.083882 
L 334.521879 269.03472 
L 335.125326 267.190682 
L 335.728773 265.856122 
L 336.33222 234.905598 
L 336.935667 235.967317 
L 337.539115 244.098217 
L 338.142562 222.888079 
L 338.746009 257.852161 
L 339.349456 260.313259 
L 339.952903 258.641019 
L 340.55635 233.805454 
L 341.159797 218.946392 
L 342.366691 216.275228 
L 342.970139 206.910575 
L 343.573586 203.302038 
L 344.177033 202.961475 
L 345.383927 203.441053 
L 345.987374 204.545631 
L 346.590821 204.751055 
L 347.194268 205.632519 
L 347.797715 207.676771 
L 348.401163 220.295618 
L 349.00461 219.562007 
L 349.608057 220.552746 
L 350.211504 268.297157 
L 350.814951 251.640396 
L 351.418398 231.734696 
L 352.021845 229.425465 
L 352.625292 243.79237 
L 353.228739 268.356093 
L 353.832187 270.057145 
L 354.435634 271.234569 
L 355.039081 274.533942 
L 355.642528 270.083342 
L 356.245975 270.025438 
L 356.849422 269.355757 
L 357.452869 272.43273 
L 358.056316 280.593334 
L 358.659763 273.603567 
L 359.263211 267.980802 
L 359.866658 233.774371 
L 361.073552 249.540383 
L 361.676999 254.736569 
L 362.280446 239.287113 
L 362.883893 209.922647 
L 363.48734 220.985716 
L 364.090787 228.593898 
L 364.694235 208.787666 
L 365.297682 208.833205 
L 365.901129 213.477737 
L 366.504576 221.005534 
L 367.108023 207.169707 
L 367.71147 213.378615 
L 368.314917 222.404508 
L 368.918364 237.471476 
L 369.521811 258.777974 
L 370.125259 269.504019 
L 370.728706 272.876599 
L 371.332153 270.600559 
L 371.9356 192.78084 
L 372.539047 227.510033 
L 373.142494 224.241813 
L 373.745941 228.593198 
L 374.349388 271.374748 
L 374.952835 275.427456 
L 375.556283 270.584398 
L 376.15973 267.362454 
L 376.763177 281.745824 
L 377.366624 269.437996 
L 377.970071 260.857904 
L 378.573518 249.225115 
L 379.176965 271.035036 
L 379.780412 261.000841 
L 380.383859 257.087665 
L 380.987307 250.205554 
L 381.590754 251.341431 
L 382.194201 264.256192 
L 382.797648 265.555378 
L 383.401095 274.043409 
L 384.004542 284.443265 
L 384.607989 263.707576 
L 385.814883 258.281743 
L 386.418331 246.144874 
L 387.021778 237.958674 
L 387.625225 235.057496 
L 388.228672 233.477676 
L 388.832119 206.582601 
L 389.435566 214.131541 
L 390.039013 215.784415 
L 390.64246 221.01565 
L 391.245907 194.527515 
L 391.849355 187.087919 
L 392.452802 199.959201 
L 393.056249 224.502785 
L 393.659696 206.493561 
L 394.263143 226.450486 
L 394.86659 225.854933 
L 395.470037 224.485083 
L 396.073484 238.997552 
L 396.676931 248.540819 
L 397.883826 255.343464 
L 398.487273 243.019365 
L 398.487273 243.019365 
" clip-path="url(#pfa92d055ec)" style="fill: none; stroke: #ff0000; stroke-width: 1.5; stroke-linecap: square"/>
   </g>
   <g id="line2d_16">
    <path d="M 73.832727 246.851197 
L 74.436174 260.338529 
L 75.039621 230.90091 
L 75.643069 235.185599 
L 76.246516 249.255133 
L 76.849963 272.703268 
L 77.45341 242.118331 
L 78.056857 225.120056 
L 78.660304 237.439411 
L 79.263751 230.614949 
L 79.867198 294.11235 
L 80.470645 269.231562 
L 81.074093 262.297822 
L 81.67754 245.041399 
L 82.280987 280.22239 
L 82.884434 276.086009 
L 83.487881 269.910932 
L 84.091328 256.308788 
L 84.694775 286.692328 
L 85.298222 270.031443 
L 85.901669 266.366077 
L 86.505117 257.2132 
L 87.108564 265.250681 
L 87.712011 250.743291 
L 88.315458 247.527657 
L 88.918905 246.55564 
L 89.522352 280.067271 
L 90.125799 258.95092 
L 90.729246 250.814387 
L 91.332693 259.445344 
L 91.936141 123.384915 
L 92.539588 179.330688 
L 93.143035 140.651907 
L 93.746482 182.958999 
L 94.349929 78.506421 
L 95.556823 84.80298 
L 96.16027 91.712519 
L 96.763717 83.020147 
L 97.367165 83.896734 
L 97.970612 85.055403 
L 98.574059 87.74743 
L 99.177506 75.989643 
L 99.780953 76.981146 
L 100.3844 78.809425 
L 100.987847 82.187015 
L 101.591294 73.461268 
L 102.194741 75.996234 
L 102.798189 79.360487 
L 103.401636 88.695957 
L 104.005083 85.252385 
L 105.211977 147.803793 
L 105.815424 232.675433 
L 106.418871 150.681323 
L 107.022318 249.393958 
L 107.625765 275.748016 
L 108.229213 243.911856 
L 108.83266 282.921653 
L 109.436107 260.015622 
L 110.039554 157.166124 
L 110.643001 110.933131 
L 111.246448 211.843723 
L 111.849895 140.752639 
L 112.453342 122.826512 
L 113.056789 97.795294 
L 113.660237 149.661676 
L 114.263684 104.635631 
L 114.867131 93.110706 
L 115.470578 87.300198 
L 116.074025 177.203244 
L 116.677472 146.006449 
L 117.884366 116.318708 
L 118.487813 163.594026 
L 119.091261 137.501355 
L 119.694708 128.686008 
L 120.298155 122.846079 
L 120.901602 167.748814 
L 121.505049 140.589127 
L 122.108496 131.339582 
L 122.711943 124.888128 
L 123.31539 152.891533 
L 124.522285 140.326215 
L 125.125732 128.797851 
L 125.729179 136.362116 
L 126.332626 127.860185 
L 126.936073 122.911115 
L 127.53952 115.369536 
L 128.142967 131.122557 
L 129.349861 116.107343 
L 129.953309 103.43279 
L 130.556756 127.530113 
L 131.160203 118.765879 
L 131.76365 114.615665 
L 132.367097 122.179333 
L 132.970544 153.085038 
L 133.573991 133.204269 
L 134.177438 127.809611 
L 134.780885 129.534643 
L 135.384333 146.267847 
L 136.591227 150.673646 
L 137.194674 162.89182 
L 137.798121 165.714712 
L 138.401568 171.63432 
L 139.005015 176.064728 
L 139.608462 191.679877 
L 140.211909 190.107188 
L 140.815357 195.117435 
L 142.022251 239.389577 
L 142.625698 205.883661 
L 143.229145 206.947368 
L 143.832592 170.406177 
L 144.436039 118.520472 
L 145.039486 147.379307 
L 145.642933 145.267371 
L 146.246381 158.605244 
L 146.849828 195.125039 
L 147.453275 56.930361 
L 148.056722 53.568 
L 148.660169 58.61921 
L 149.263616 78.281353 
L 149.867063 169.889232 
L 150.47051 204.396661 
L 151.073957 188.14063 
L 151.677405 156.547845 
L 152.280852 159.599415 
L 152.884299 160.770974 
L 153.487746 168.24386 
L 154.091193 203.689683 
L 154.69464 183.797257 
L 155.298087 217.176171 
L 155.901534 242.11975 
L 156.504981 247.204931 
L 157.108429 159.037355 
L 157.711876 155.679593 
L 158.315323 161.035569 
L 158.91877 162.006721 
L 159.522217 152.441948 
L 160.125664 152.363383 
L 160.729111 152.593841 
L 161.332558 156.394148 
L 161.936005 151.829005 
L 162.539453 162.596384 
L 163.746347 161.715021 
L 164.349794 159.595454 
L 165.556688 164.220559 
L 166.160135 169.657882 
L 166.763582 157.52131 
L 167.367029 153.624705 
L 167.970477 161.995927 
L 168.573924 175.452507 
L 169.177371 115.023554 
L 169.780818 106.65542 
L 170.384265 109.642478 
L 170.987712 100.592599 
L 172.194606 135.801981 
L 172.798053 189.69325 
L 173.401501 215.163845 
L 174.004948 186.705971 
L 174.608395 178.711255 
L 175.211842 182.277971 
L 175.815289 178.94408 
L 176.418736 163.902319 
L 177.022183 220.366206 
L 177.62563 237.812023 
L 178.229077 249.099371 
L 178.832525 124.465994 
L 179.435972 75.04393 
L 180.039419 71.149096 
L 180.642866 69.984846 
L 181.246313 62.215527 
L 181.84976 120.950029 
L 183.660101 208.448213 
L 184.263548 167.154939 
L 184.866996 164.702696 
L 185.470443 160.237815 
L 186.07389 144.130724 
L 186.677337 164.444499 
L 187.280784 176.146268 
L 187.884231 190.497035 
L 188.487678 175.117392 
L 189.091125 185.829614 
L 189.694572 190.544317 
L 190.29802 201.412991 
L 190.901467 183.637895 
L 191.504914 194.242197 
L 192.108361 199.222067 
L 192.711808 183.359839 
L 193.315255 198.376982 
L 193.918702 155.356772 
L 194.522149 152.826716 
L 195.125596 146.988213 
L 195.729044 205.36316 
L 196.332491 219.525621 
L 196.935938 223.76389 
L 197.539385 230.226804 
L 198.142832 198.815138 
L 198.746279 160.124759 
L 199.349726 147.01416 
L 199.953173 138.903634 
L 200.55662 168.401167 
L 201.160068 165.359227 
L 202.366962 164.13799 
L 202.970409 164.878442 
L 204.177303 163.548983 
L 204.78075 163.911133 
L 205.384197 134.455667 
L 206.591092 134.290458 
L 207.194539 135.45885 
L 207.797986 137.377813 
L 209.00488 162.291068 
L 209.608327 184.768917 
L 210.211774 153.096083 
L 210.815221 182.549613 
L 211.418668 199.088315 
L 212.022116 224.550063 
L 212.625563 227.786221 
L 213.22901 259.058469 
L 213.832457 257.971413 
L 214.435904 248.602246 
L 215.039351 263.171335 
L 215.642798 262.598172 
L 216.246245 250.725047 
L 216.849692 229.411135 
L 217.45314 169.538667 
L 218.056587 154.614081 
L 219.263481 136.011048 
L 219.866928 179.54774 
L 221.073822 165.04529 
L 221.677269 161.10515 
L 222.280716 133.061793 
L 222.884164 148.048346 
L 224.091058 159.646251 
L 224.694505 162.920382 
L 225.297952 142.994283 
L 225.901399 139.483408 
L 226.504846 138.565883 
L 227.71174 169.736731 
L 228.315188 169.786586 
L 228.918635 170.606453 
L 229.522082 169.556371 
L 230.125529 164.756897 
L 230.728976 155.599059 
L 231.332423 150.811115 
L 231.93587 164.378468 
L 234.349659 229.879941 
L 234.953106 199.87346 
L 235.556553 202.959325 
L 236.16 212.0263 
L 236.763447 199.335734 
L 237.366894 237.886409 
L 237.970341 226.191617 
L 238.573788 229.041211 
L 239.177236 248.411813 
L 239.780683 225.460261 
L 240.38413 223.965399 
L 240.987577 216.399184 
L 241.591024 225.643263 
L 242.194471 168.723416 
L 242.797918 166.173472 
L 243.401365 157.279615 
L 244.004812 257.73241 
L 244.60826 244.243951 
L 245.211707 242.999704 
L 245.815154 250.683439 
L 246.418601 234.96462 
L 247.022048 183.510929 
L 247.625495 150.532939 
L 248.228942 140.946655 
L 248.832389 171.283355 
L 249.435836 171.506221 
L 250.039284 170.807315 
L 250.642731 167.105366 
L 251.246178 182.160375 
L 251.849625 181.974171 
L 253.056519 187.788455 
L 253.659966 250.363445 
L 255.470308 214.295052 
L 256.073755 155.094288 
L 256.677202 218.778494 
L 257.280649 226.937647 
L 257.884096 230.171403 
L 258.487543 141.768209 
L 259.09099 132.10761 
L 259.694437 134.436884 
L 260.297884 138.124007 
L 260.901332 169.442574 
L 261.504779 172.417763 
L 262.108226 173.746959 
L 262.711673 175.820594 
L 263.31512 162.510068 
L 263.918567 228.369459 
L 264.522014 206.282381 
L 265.125461 195.174595 
L 265.728908 232.629832 
L 266.332356 164.362173 
L 266.935803 169.32796 
L 267.53925 181.291017 
L 268.142697 136.780249 
L 269.953038 190.643784 
L 270.556485 180.080551 
L 271.159932 183.476523 
L 271.76338 188.292109 
L 272.366827 194.75804 
L 272.970274 195.544127 
L 273.573721 200.703669 
L 274.177168 197.513094 
L 274.780615 198.627925 
L 275.384062 180.566894 
L 275.987509 177.274341 
L 276.590956 167.26853 
L 277.194404 164.293671 
L 277.797851 198.29979 
L 278.401298 267.034361 
L 279.004745 262.570617 
L 279.608192 259.718768 
L 280.211639 199.158514 
L 280.815086 197.694076 
L 281.418533 249.690684 
L 282.02198 231.745434 
L 283.228875 185.458715 
L 283.832322 186.96816 
L 284.435769 185.812266 
L 285.039216 198.936131 
L 286.849557 208.989814 
L 287.453004 223.600549 
L 288.056452 228.649713 
L 288.659899 239.862201 
L 289.263346 241.887154 
L 289.866793 253.897513 
L 290.47024 234.148774 
L 291.073687 218.606279 
L 291.677134 212.808191 
L 292.280581 133.398921 
L 294.090923 154.046709 
L 294.69437 174.151459 
L 295.297817 211.168028 
L 297.108158 236.492032 
L 297.711605 220.713019 
L 298.315052 209.784717 
L 298.918499 202.198778 
L 299.521947 218.311238 
L 300.125394 205.359716 
L 300.728841 199.405154 
L 301.332288 195.657491 
L 301.935735 196.841179 
L 302.539182 242.136251 
L 303.142629 243.557633 
L 303.746076 241.038577 
L 304.349523 161.962532 
L 306.159865 219.475508 
L 306.763312 178.134175 
L 307.366759 155.075338 
L 307.970206 151.878245 
L 308.573653 147.88158 
L 309.1771 200.979596 
L 309.780547 236.302176 
L 310.383995 242.768334 
L 310.987442 245.588428 
L 311.590889 217.034262 
L 312.194336 232.323976 
L 312.797783 239.266551 
L 313.40123 241.81844 
L 314.004677 177.181338 
L 315.211571 168.379649 
L 315.815019 167.541031 
L 316.418466 138.381075 
L 317.021913 185.86985 
L 317.62536 173.302998 
L 318.228807 166.768755 
L 318.832254 191.691101 
L 319.435701 178.693407 
L 320.039148 176.129378 
L 320.642595 174.08709 
L 321.84949 162.91229 
L 322.452937 166.203465 
L 323.056384 166.736316 
L 323.659831 228.595584 
L 324.263278 225.389303 
L 324.866725 216.758764 
L 325.470172 206.204215 
L 326.073619 204.469102 
L 326.677067 168.661782 
L 327.280514 175.232779 
L 327.883961 194.38969 
L 328.487408 198.413539 
L 329.090855 144.661691 
L 329.694302 144.151914 
L 330.297749 146.558359 
L 330.901196 140.320397 
L 331.504643 146.433095 
L 333.314985 158.48294 
L 333.918432 155.743183 
L 334.521879 159.082924 
L 335.125326 161.236708 
L 335.728773 156.454388 
L 336.33222 196.887117 
L 336.935667 214.390683 
L 337.539115 239.721701 
L 338.142562 185.426026 
L 338.746009 234.007076 
L 339.349456 239.669009 
L 339.952903 241.900441 
L 340.55635 230.022806 
L 341.159797 197.735718 
L 342.366691 185.995645 
L 342.970139 164.439508 
L 343.573586 169.174168 
L 344.177033 169.301073 
L 344.78048 171.825568 
L 345.383927 170.662002 
L 345.987374 175.42951 
L 346.590821 178.148121 
L 347.194268 181.544023 
L 347.797715 171.410765 
L 348.401163 169.012069 
L 349.00461 164.441335 
L 349.608057 168.506188 
L 350.211504 168.33239 
L 350.814951 137.363136 
L 351.418398 164.785693 
L 352.021845 204.538011 
L 352.625292 147.569083 
L 353.228739 153.905752 
L 354.435634 173.735609 
L 355.039081 182.981086 
L 355.642528 157.53306 
L 356.245975 155.614179 
L 356.849422 149.627107 
L 357.452869 186.53916 
L 358.056316 232.528697 
L 358.659763 247.817607 
L 359.263211 255.461438 
L 359.866658 213.119364 
L 360.470105 243.231358 
L 361.073552 255.151162 
L 361.676999 262.573541 
L 362.280446 242.464689 
L 362.883893 165.713744 
L 363.48734 158.933209 
L 364.090787 164.871208 
L 364.694235 168.396319 
L 365.297682 188.887798 
L 365.901129 197.620529 
L 366.504576 211.210117 
L 367.108023 182.865071 
L 367.71147 162.768973 
L 368.314917 147.013404 
L 368.918364 135.126767 
L 369.521811 134.442179 
L 370.125259 166.68675 
L 370.728706 183.306693 
L 371.332153 196.712772 
L 371.9356 165.095434 
L 373.142494 147.966126 
L 373.745941 142.953012 
L 374.349388 204.851116 
L 374.952835 233.574319 
L 376.15973 251.721212 
L 376.763177 216.245749 
L 377.366624 244.694986 
L 377.970071 257.316731 
L 378.573518 254.62115 
L 379.176965 231.222423 
L 379.780412 236.291083 
L 380.383859 228.061756 
L 380.987307 228.868174 
L 381.590754 255.836525 
L 382.194201 259.568912 
L 382.797648 262.580974 
L 383.401095 266.951088 
L 384.004542 226.09837 
L 384.607989 146.59537 
L 385.211436 136.075673 
L 385.814883 130.514158 
L 386.418331 139.778426 
L 387.021778 136.500747 
L 387.625225 137.11178 
L 388.228672 136.136304 
L 388.832119 179.756626 
L 389.435566 203.237369 
L 390.039013 206.412455 
L 390.64246 215.755688 
L 391.245907 189.927644 
L 392.452802 220.494979 
L 393.056249 185.113566 
L 393.659696 168.61033 
L 394.263143 215.695339 
L 394.86659 221.826294 
L 395.470037 225.31684 
L 396.073484 245.988461 
L 396.676931 260.274086 
L 397.883826 268.508575 
L 398.487273 251.731615 
L 398.487273 251.731615 
" clip-path="url(#pfa92d055ec)" style="fill: none; stroke: #808080; stroke-width: 1.5; stroke-linecap: square"/>
   </g>
   <g id="patch_3">
    <path d="M 57.6 307.584 
L 57.6 41.472 
" style="fill: none; stroke: #000000; stroke-width: 0.8; stroke-linejoin: miter; stroke-linecap: square"/>
   </g>
   <g id="patch_4">
    <path d="M 414.72 307.584 
L 414.72 41.472 
" style="fill: none; stroke: #000000; stroke-width: 0.8; stroke-linejoin: miter; stroke-linecap: square"/>
   </g>
   <g id="patch_5">
    <path d="M 57.6 307.584 
L 414.72 307.584 
" style="fill: none; stroke: #000000; stroke-width: 0.8; stroke-linejoin: miter; stroke-linecap: square"/>
   </g>
   <g id="patch_6">
    <path d="M 57.6 41.472 
L 414.72 41.472 
" style="fill: none; stroke: #000000; stroke-width: 0.8; stroke-linejoin: miter; stroke-linecap: square"/>
   </g>
  </g>
 </g>
 <defs>
  <clipPath id="pfa92d055ec">
   <rect x="57.6" y="41.472" width="357.12" height="266.112"/>
  </clipPath>
 </defs>
</svg>
