<?xml version="1.0" encoding="utf-8" standalone="no"?>
<!DOCTYPE svg PUBLIC "-//W3C//DTD SVG 1.1//EN"
  "http://www.w3.org/Graphics/SVG/1.1/DTD/svg11.dtd">
<svg xmlns:xlink="http://www.w3.org/1999/xlink" width="460.8pt" height="345.6pt" viewBox="0 0 460.8 345.6" xmlns="http://www.w3.org/2000/svg" version="1.1">
 <metadata>
  <rdf:RDF xmlns:dc="http://purl.org/dc/elements/1.1/" xmlns:cc="http://creativecommons.org/ns#" xmlns:rdf="http://www.w3.org/1999/02/22-rdf-syntax-ns#">
   <cc:Work>
    <dc:type rdf:resource="http://purl.org/dc/dcmitype/StillImage"/>
    <dc:date>2025-03-19T21:30:48.135465</dc:date>
    <dc:format>image/svg+xml</dc:format>
    <dc:creator>
     <cc:Agent>
      <dc:title>Matplotlib v3.6.3, https://matplotlib.org/</dc:title>
     </cc:Agent>
    </dc:creator>
   </cc:Work>
  </rdf:RDF>
 </metadata>
 <defs>
  <style type="text/css">*{stroke-linejoin: round; stroke-linecap: butt}</style>
 </defs>
 <g id="figure_1">
  <g id="patch_1">
   <path d="M 0 345.6 
L 460.8 345.6 
L 460.8 0 
L 0 0 
z
" style="fill: #ffffff"/>
  </g>
  <g id="axes_1">
   <g id="patch_2">
    <path d="M 57.6 307.584 
L 414.72 307.584 
L 414.72 41.472 
L 57.6 41.472 
z
" style="fill: #ffffff"/>
   </g>
   <g id="matplotlib.axis_1">
    <g id="xtick_1">
     <g id="line2d_1">
      <defs>
       <path id="mf578b64d2b" d="M 0 0 
L 0 3.5 
" style="stroke: #000000; stroke-width: 0.8"/>
      </defs>
      <g>
       <use xlink:href="#mf578b64d2b" x="80.076084" y="307.584" style="stroke: #000000; stroke-width: 0.8"/>
      </g>
     </g>
     <g id="text_1">
      <!-- 500 -->
      <g transform="translate(70.532334 322.182437) scale(0.1 -0.1)">
       <defs>
        <path id="DejaVuSans-35" d="M 691 4666 
L 3169 4666 
L 3169 4134 
L 1269 4134 
L 1269 2991 
Q 1406 3038 1543 3061 
Q 1681 3084 1819 3084 
Q 2600 3084 3056 2656 
Q 3513 2228 3513 1497 
Q 3513 744 3044 326 
Q 2575 -91 1722 -91 
Q 1428 -91 1123 -41 
Q 819 9 494 109 
L 494 744 
Q 775 591 1075 516 
Q 1375 441 1709 441 
Q 2250 441 2565 725 
Q 2881 1009 2881 1497 
Q 2881 1984 2565 2268 
Q 2250 2553 1709 2553 
Q 1456 2553 1204 2497 
Q 953 2441 691 2322 
L 691 4666 
z
" transform="scale(0.015625)"/>
        <path id="DejaVuSans-30" d="M 2034 4250 
Q 1547 4250 1301 3770 
Q 1056 3291 1056 2328 
Q 1056 1369 1301 889 
Q 1547 409 2034 409 
Q 2525 409 2770 889 
Q 3016 1369 3016 2328 
Q 3016 3291 2770 3770 
Q 2525 4250 2034 4250 
z
M 2034 4750 
Q 2819 4750 3233 4129 
Q 3647 3509 3647 2328 
Q 3647 1150 3233 529 
Q 2819 -91 2034 -91 
Q 1250 -91 836 529 
Q 422 1150 422 2328 
Q 422 3509 836 4129 
Q 1250 4750 2034 4750 
z
" transform="scale(0.015625)"/>
       </defs>
       <use xlink:href="#DejaVuSans-35"/>
       <use xlink:href="#DejaVuSans-30" x="63.623047"/>
       <use xlink:href="#DejaVuSans-30" x="127.246094"/>
      </g>
     </g>
    </g>
    <g id="xtick_2">
     <g id="line2d_2">
      <g>
       <use xlink:href="#mf578b64d2b" x="142.50965" y="307.584" style="stroke: #000000; stroke-width: 0.8"/>
      </g>
     </g>
     <g id="text_2">
      <!-- 600 -->
      <g transform="translate(132.9659 322.182437) scale(0.1 -0.1)">
       <defs>
        <path id="DejaVuSans-36" d="M 2113 2584 
Q 1688 2584 1439 2293 
Q 1191 2003 1191 1497 
Q 1191 994 1439 701 
Q 1688 409 2113 409 
Q 2538 409 2786 701 
Q 3034 994 3034 1497 
Q 3034 2003 2786 2293 
Q 2538 2584 2113 2584 
z
M 3366 4563 
L 3366 3988 
Q 3128 4100 2886 4159 
Q 2644 4219 2406 4219 
Q 1781 4219 1451 3797 
Q 1122 3375 1075 2522 
Q 1259 2794 1537 2939 
Q 1816 3084 2150 3084 
Q 2853 3084 3261 2657 
Q 3669 2231 3669 1497 
Q 3669 778 3244 343 
Q 2819 -91 2113 -91 
Q 1303 -91 875 529 
Q 447 1150 447 2328 
Q 447 3434 972 4092 
Q 1497 4750 2381 4750 
Q 2619 4750 2861 4703 
Q 3103 4656 3366 4563 
z
" transform="scale(0.015625)"/>
       </defs>
       <use xlink:href="#DejaVuSans-36"/>
       <use xlink:href="#DejaVuSans-30" x="63.623047"/>
       <use xlink:href="#DejaVuSans-30" x="127.246094"/>
      </g>
     </g>
    </g>
    <g id="xtick_3">
     <g id="line2d_3">
      <g>
       <use xlink:href="#mf578b64d2b" x="204.943217" y="307.584" style="stroke: #000000; stroke-width: 0.8"/>
      </g>
     </g>
     <g id="text_3">
      <!-- 700 -->
      <g transform="translate(195.399467 322.182437) scale(0.1 -0.1)">
       <defs>
        <path id="DejaVuSans-37" d="M 525 4666 
L 3525 4666 
L 3525 4397 
L 1831 0 
L 1172 0 
L 2766 4134 
L 525 4134 
L 525 4666 
z
" transform="scale(0.015625)"/>
       </defs>
       <use xlink:href="#DejaVuSans-37"/>
       <use xlink:href="#DejaVuSans-30" x="63.623047"/>
       <use xlink:href="#DejaVuSans-30" x="127.246094"/>
      </g>
     </g>
    </g>
    <g id="xtick_4">
     <g id="line2d_4">
      <g>
       <use xlink:href="#mf578b64d2b" x="267.376783" y="307.584" style="stroke: #000000; stroke-width: 0.8"/>
      </g>
     </g>
     <g id="text_4">
      <!-- 800 -->
      <g transform="translate(257.833033 322.182437) scale(0.1 -0.1)">
       <defs>
        <path id="DejaVuSans-38" d="M 2034 2216 
Q 1584 2216 1326 1975 
Q 1069 1734 1069 1313 
Q 1069 891 1326 650 
Q 1584 409 2034 409 
Q 2484 409 2743 651 
Q 3003 894 3003 1313 
Q 3003 1734 2745 1975 
Q 2488 2216 2034 2216 
z
M 1403 2484 
Q 997 2584 770 2862 
Q 544 3141 544 3541 
Q 544 4100 942 4425 
Q 1341 4750 2034 4750 
Q 2731 4750 3128 4425 
Q 3525 4100 3525 3541 
Q 3525 3141 3298 2862 
Q 3072 2584 2669 2484 
Q 3125 2378 3379 2068 
Q 3634 1759 3634 1313 
Q 3634 634 3220 271 
Q 2806 -91 2034 -91 
Q 1263 -91 848 271 
Q 434 634 434 1313 
Q 434 1759 690 2068 
Q 947 2378 1403 2484 
z
M 1172 3481 
Q 1172 3119 1398 2916 
Q 1625 2713 2034 2713 
Q 2441 2713 2670 2916 
Q 2900 3119 2900 3481 
Q 2900 3844 2670 4047 
Q 2441 4250 2034 4250 
Q 1625 4250 1398 4047 
Q 1172 3844 1172 3481 
z
" transform="scale(0.015625)"/>
       </defs>
       <use xlink:href="#DejaVuSans-38"/>
       <use xlink:href="#DejaVuSans-30" x="63.623047"/>
       <use xlink:href="#DejaVuSans-30" x="127.246094"/>
      </g>
     </g>
    </g>
    <g id="xtick_5">
     <g id="line2d_5">
      <g>
       <use xlink:href="#mf578b64d2b" x="329.81035" y="307.584" style="stroke: #000000; stroke-width: 0.8"/>
      </g>
     </g>
     <g id="text_5">
      <!-- 900 -->
      <g transform="translate(320.2666 322.182437) scale(0.1 -0.1)">
       <defs>
        <path id="DejaVuSans-39" d="M 703 97 
L 703 672 
Q 941 559 1184 500 
Q 1428 441 1663 441 
Q 2288 441 2617 861 
Q 2947 1281 2994 2138 
Q 2813 1869 2534 1725 
Q 2256 1581 1919 1581 
Q 1219 1581 811 2004 
Q 403 2428 403 3163 
Q 403 3881 828 4315 
Q 1253 4750 1959 4750 
Q 2769 4750 3195 4129 
Q 3622 3509 3622 2328 
Q 3622 1225 3098 567 
Q 2575 -91 1691 -91 
Q 1453 -91 1209 -44 
Q 966 3 703 97 
z
M 1959 2075 
Q 2384 2075 2632 2365 
Q 2881 2656 2881 3163 
Q 2881 3666 2632 3958 
Q 2384 4250 1959 4250 
Q 1534 4250 1286 3958 
Q 1038 3666 1038 3163 
Q 1038 2656 1286 2365 
Q 1534 2075 1959 2075 
z
" transform="scale(0.015625)"/>
       </defs>
       <use xlink:href="#DejaVuSans-39"/>
       <use xlink:href="#DejaVuSans-30" x="63.623047"/>
       <use xlink:href="#DejaVuSans-30" x="127.246094"/>
      </g>
     </g>
    </g>
    <g id="xtick_6">
     <g id="line2d_6">
      <g>
       <use xlink:href="#mf578b64d2b" x="392.243916" y="307.584" style="stroke: #000000; stroke-width: 0.8"/>
      </g>
     </g>
     <g id="text_6">
      <!-- 1000 -->
      <g transform="translate(379.518916 322.182437) scale(0.1 -0.1)">
       <defs>
        <path id="DejaVuSans-31" d="M 794 531 
L 1825 531 
L 1825 4091 
L 703 3866 
L 703 4441 
L 1819 4666 
L 2450 4666 
L 2450 531 
L 3481 531 
L 3481 0 
L 794 0 
L 794 531 
z
" transform="scale(0.015625)"/>
       </defs>
       <use xlink:href="#DejaVuSans-31"/>
       <use xlink:href="#DejaVuSans-30" x="63.623047"/>
       <use xlink:href="#DejaVuSans-30" x="127.246094"/>
       <use xlink:href="#DejaVuSans-30" x="190.869141"/>
      </g>
     </g>
    </g>
   </g>
   <g id="matplotlib.axis_2">
    <g id="ytick_1">
     <g id="line2d_7">
      <defs>
       <path id="m0353b0ac84" d="M 0 0 
L -3.5 0 
" style="stroke: #000000; stroke-width: 0.8"/>
      </defs>
      <g>
       <use xlink:href="#m0353b0ac84" x="57.6" y="255.721183" style="stroke: #000000; stroke-width: 0.8"/>
      </g>
     </g>
     <g id="text_7">
      <!-- 0.2 -->
      <g transform="translate(34.696875 259.520402) scale(0.1 -0.1)">
       <defs>
        <path id="DejaVuSans-2e" d="M 684 794 
L 1344 794 
L 1344 0 
L 684 0 
L 684 794 
z
" transform="scale(0.015625)"/>
        <path id="DejaVuSans-32" d="M 1228 531 
L 3431 531 
L 3431 0 
L 469 0 
L 469 531 
Q 828 903 1448 1529 
Q 2069 2156 2228 2338 
Q 2531 2678 2651 2914 
Q 2772 3150 2772 3378 
Q 2772 3750 2511 3984 
Q 2250 4219 1831 4219 
Q 1534 4219 1204 4116 
Q 875 4013 500 3803 
L 500 4441 
Q 881 4594 1212 4672 
Q 1544 4750 1819 4750 
Q 2544 4750 2975 4387 
Q 3406 4025 3406 3419 
Q 3406 3131 3298 2873 
Q 3191 2616 2906 2266 
Q 2828 2175 2409 1742 
Q 1991 1309 1228 531 
z
" transform="scale(0.015625)"/>
       </defs>
       <use xlink:href="#DejaVuSans-30"/>
       <use xlink:href="#DejaVuSans-2e" x="63.623047"/>
       <use xlink:href="#DejaVuSans-32" x="95.410156"/>
      </g>
     </g>
    </g>
    <g id="ytick_2">
     <g id="line2d_8">
      <g>
       <use xlink:href="#m0353b0ac84" x="57.6" y="201.122958" style="stroke: #000000; stroke-width: 0.8"/>
      </g>
     </g>
     <g id="text_8">
      <!-- 0.4 -->
      <g transform="translate(34.696875 204.922177) scale(0.1 -0.1)">
       <defs>
        <path id="DejaVuSans-34" d="M 2419 4116 
L 825 1625 
L 2419 1625 
L 2419 4116 
z
M 2253 4666 
L 3047 4666 
L 3047 1625 
L 3713 1625 
L 3713 1100 
L 3047 1100 
L 3047 0 
L 2419 0 
L 2419 1100 
L 313 1100 
L 313 1709 
L 2253 4666 
z
" transform="scale(0.015625)"/>
       </defs>
       <use xlink:href="#DejaVuSans-30"/>
       <use xlink:href="#DejaVuSans-2e" x="63.623047"/>
       <use xlink:href="#DejaVuSans-34" x="95.410156"/>
      </g>
     </g>
    </g>
    <g id="ytick_3">
     <g id="line2d_9">
      <g>
       <use xlink:href="#m0353b0ac84" x="57.6" y="146.524733" style="stroke: #000000; stroke-width: 0.8"/>
      </g>
     </g>
     <g id="text_9">
      <!-- 0.6 -->
      <g transform="translate(34.696875 150.323952) scale(0.1 -0.1)">
       <use xlink:href="#DejaVuSans-30"/>
       <use xlink:href="#DejaVuSans-2e" x="63.623047"/>
       <use xlink:href="#DejaVuSans-36" x="95.410156"/>
      </g>
     </g>
    </g>
    <g id="ytick_4">
     <g id="line2d_10">
      <g>
       <use xlink:href="#m0353b0ac84" x="57.6" y="91.926508" style="stroke: #000000; stroke-width: 0.8"/>
      </g>
     </g>
     <g id="text_10">
      <!-- 0.8 -->
      <g transform="translate(34.696875 95.725727) scale(0.1 -0.1)">
       <use xlink:href="#DejaVuSans-30"/>
       <use xlink:href="#DejaVuSans-2e" x="63.623047"/>
       <use xlink:href="#DejaVuSans-38" x="95.410156"/>
      </g>
     </g>
    </g>
   </g>
   <g id="line2d_11">
    <path d="M 73.832727 269.574608 
L 74.457063 273.029197 
L 75.081399 280.918963 
L 75.705734 154.057963 
L 76.33007 156.824579 
L 76.954406 171.134165 
L 78.203077 249.039358 
L 78.827413 250.780033 
L 79.451748 249.722962 
L 80.076084 251.311973 
L 80.70042 241.60656 
L 81.324755 253.195999 
L 81.949091 256.43837 
L 82.573427 269.751206 
L 83.197762 224.011732 
L 83.822098 219.196633 
L 84.446434 231.551736 
L 85.070769 254.28067 
L 85.695105 181.070367 
L 86.319441 186.582034 
L 86.943776 175.455305 
L 87.568112 200.340043 
L 88.192448 148.32699 
L 88.816783 148.498012 
L 89.441119 151.687567 
L 90.065455 153.571579 
L 90.68979 152.989074 
L 91.314126 153.676918 
L 91.938462 157.143121 
L 92.562797 163.043915 
L 93.187133 145.285459 
L 93.811469 147.217075 
L 94.435804 148.587064 
L 95.06014 156.685367 
L 95.684476 146.117375 
L 96.308811 149.705948 
L 96.933147 158.67946 
L 98.181818 218.418466 
L 98.806154 252.414933 
L 99.43049 253.222275 
L 100.054825 261.081034 
L 100.679161 253.435938 
L 101.303497 234.308023 
L 101.927832 229.686303 
L 102.552168 229.630147 
L 103.176503 255.509474 
L 103.800839 241.453746 
L 104.425175 239.705569 
L 105.04951 240.10598 
L 105.673846 244.515345 
L 106.298182 247.52414 
L 106.922517 256.22316 
L 107.546853 267.660544 
L 108.171189 88.607959 
L 108.795524 82.924781 
L 109.41986 100.394753 
L 110.044196 141.311479 
L 110.668531 142.628333 
L 111.292867 169.517258 
L 112.541538 258.056036 
L 113.165874 171.036417 
L 113.79021 161.446356 
L 114.414545 205.485842 
L 115.038881 235.057963 
L 115.663217 210.544365 
L 116.287552 228.704458 
L 116.911888 239.661196 
L 117.536224 245.387854 
L 118.160559 264.27998 
L 118.784895 252.221944 
L 119.409231 248.86385 
L 120.033566 233.797054 
L 120.657902 260.711844 
L 121.282238 269.489154 
L 121.906573 266.029477 
L 122.530909 257.320428 
L 123.155245 272.064022 
L 123.77958 228.54096 
L 124.403916 207.129507 
L 125.028252 202.562844 
L 125.652587 204.732808 
L 126.276923 208.59102 
L 126.901259 213.853335 
L 127.525594 223.956472 
L 128.14993 267.63376 
L 129.398601 236.973402 
L 130.022937 223.561557 
L 130.647273 213.6604 
L 131.271608 210.300263 
L 131.895944 212.193653 
L 132.52028 226.81145 
L 133.144615 251.080689 
L 133.768951 267.103124 
L 135.017622 259.93195 
L 135.641958 269.65244 
L 136.266294 233.919261 
L 136.890629 220.330076 
L 137.514965 215.806674 
L 138.139301 251.276577 
L 138.763636 213.672375 
L 139.387972 210.641852 
L 140.012308 203.423123 
L 140.636643 270.816458 
L 141.260979 258.045802 
L 141.885315 257.889243 
L 142.50965 246.345553 
L 143.133986 53.568 
L 143.758322 63.001831 
L 144.382657 75.390913 
L 145.006993 114.6396 
L 145.631329 54.817353 
L 146.88 74.787074 
L 147.504336 107.112262 
L 148.128671 71.116618 
L 148.753007 73.296882 
L 149.377343 98.027452 
L 150.001678 151.454467 
L 150.626014 157.610948 
L 151.25035 176.24514 
L 151.874685 243.057552 
L 152.499021 259.883452 
L 153.123357 286.317249 
L 154.372028 220.90808 
L 154.996364 192.554819 
L 155.620699 281.937443 
L 156.245035 271.246891 
L 156.869371 243.647261 
L 157.493706 205.386948 
L 158.118042 279.979123 
L 158.742378 266.814833 
L 159.366713 232.521987 
L 159.991049 207.610293 
L 160.615385 263.759972 
L 161.23972 259.991778 
L 161.864056 265.237001 
L 162.488392 246.10781 
L 163.112727 135.861915 
L 163.737063 124.657603 
L 164.361399 126.779506 
L 164.985734 132.948922 
L 165.61007 89.151908 
L 166.234406 99.5341 
L 166.858741 118.769299 
L 167.483077 165.882902 
L 168.107413 125.012863 
L 168.731748 130.217027 
L 169.356084 180.725354 
L 169.98042 244.03165 
L 170.604755 280.554547 
L 171.229091 273.293967 
L 171.853427 268.559178 
L 172.477762 217.496312 
L 173.102098 206.798218 
L 173.726434 203.175024 
L 174.350769 246.373097 
L 174.975105 270.682791 
L 175.599441 60.450887 
L 176.223776 57.001169 
L 176.848112 65.53898 
L 177.472448 89.605187 
L 178.096783 104.324408 
L 178.721119 115.885648 
L 179.345455 181.003232 
L 179.96979 268.159507 
L 180.594126 160.005814 
L 181.218462 243.660181 
L 181.842797 277.612329 
L 182.467133 263.325753 
L 183.091469 270.372366 
L 183.715804 274.206464 
L 184.964476 211.023615 
L 185.588811 262.005137 
L 186.213147 272.032171 
L 186.837483 276.700361 
L 187.461818 212.080527 
L 188.086154 242.706323 
L 188.71049 267.148546 
L 189.334825 275.954669 
L 189.959161 222.607286 
L 190.583497 255.766207 
L 191.207832 271.072552 
L 191.832168 257.920244 
L 192.456503 211.225133 
L 193.080839 242.922321 
L 193.705175 259.617762 
L 194.32951 281.780334 
L 194.953846 227.421875 
L 195.578182 61.317772 
L 196.202517 69.124068 
L 196.826853 101.692053 
L 197.451189 193.147276 
L 198.075524 68.964847 
L 198.69986 59.006639 
L 199.324196 76.294684 
L 199.948531 130.727431 
L 201.197203 87.247291 
L 201.821538 121.142981 
L 202.445874 213.967414 
L 203.07021 204.255988 
L 203.694545 252.299557 
L 204.318881 274.81618 
L 204.943217 213.915749 
L 205.567552 216.121274 
L 206.191888 161.350679 
L 206.816224 142.861411 
L 207.440559 147.875377 
L 208.064895 60.882603 
L 208.689231 64.21302 
L 209.313566 77.891333 
L 209.937902 132.718199 
L 210.562238 135.038955 
L 211.186573 256.717081 
L 211.810909 295.488 
L 212.435245 248.975918 
L 213.05958 256.845762 
L 213.683916 286.000173 
L 214.308252 231.11055 
L 214.932587 189.120693 
L 215.556923 225.242983 
L 216.181259 151.694425 
L 216.805594 138.095835 
L 217.42993 128.765632 
L 218.054266 233.581436 
L 218.678601 172.078482 
L 219.302937 151.927856 
L 219.927273 146.077365 
L 220.551608 244.004053 
L 221.175944 182.696327 
L 221.80028 153.021789 
L 222.424615 144.936571 
L 223.048951 70.833296 
L 223.673287 67.164121 
L 224.297622 75.464467 
L 224.921958 119.794353 
L 225.546294 122.828551 
L 226.170629 240.441957 
L 226.794965 292.664897 
L 227.419301 239.504116 
L 228.043636 248.263615 
L 228.667972 169.044452 
L 229.292308 149.475435 
L 229.916643 142.417215 
L 230.540979 151.716253 
L 231.165315 127.900995 
L 231.78965 130.861826 
L 232.413986 151.013728 
L 233.038322 155.962738 
L 233.662657 117.112169 
L 234.286993 115.732439 
L 234.911329 127.103642 
L 235.535664 134.271929 
L 236.16 120.80613 
L 236.784336 125.463493 
L 237.408671 150.981668 
L 238.033007 114.365262 
L 238.657343 141.24986 
L 239.281678 143.271958 
L 239.906014 163.368035 
L 240.53035 214.948025 
L 241.154685 197.51163 
L 241.779021 186.168323 
L 242.403357 187.917341 
L 243.027692 67.492188 
L 243.652028 62.391666 
L 244.276364 70.398354 
L 244.900699 98.234806 
L 245.525035 61.933902 
L 246.149371 64.793381 
L 246.773706 71.838761 
L 247.398042 100.003753 
L 248.022378 103.191612 
L 249.271049 272.439591 
L 249.895385 271.959284 
L 251.144056 207.172909 
L 251.768392 184.850003 
L 252.392727 180.82435 
L 253.017063 170.402129 
L 253.641399 124.732103 
L 254.265734 117.377383 
L 254.89007 118.544482 
L 255.514406 162.34532 
L 256.138741 109.715363 
L 256.763077 111.419739 
L 257.387413 128.037235 
L 258.011748 110.459258 
L 258.636084 119.972262 
L 259.26042 123.894683 
L 259.884755 141.272888 
L 260.509091 107.073689 
L 261.133427 119.372836 
L 261.757762 123.970935 
L 262.382098 143.269761 
L 263.006434 108.89576 
L 263.630769 130.727832 
L 264.255105 130.030746 
L 264.879441 149.383713 
L 265.503776 153.654521 
L 266.128112 111.393733 
L 266.752448 110.550035 
L 267.376783 118.606983 
L 268.001119 168.024135 
L 268.625455 119.430822 
L 269.874126 112.897053 
L 270.498462 169.833208 
L 271.122797 119.241893 
L 271.747133 119.685033 
L 272.371469 132.069154 
L 272.995804 185.996942 
L 273.62014 126.009349 
L 274.868811 119.983435 
L 275.493147 180.673296 
L 276.117483 126.506587 
L 276.741818 125.512389 
L 277.366154 145.312695 
L 277.99049 123.29994 
L 278.614825 143.916142 
L 279.239161 149.053446 
L 279.863497 168.048813 
L 280.487832 168.384907 
L 281.112168 127.742777 
L 281.736503 125.856402 
L 282.360839 129.387904 
L 282.985175 134.80367 
L 283.60951 135.843891 
L 284.233846 141.351359 
L 284.858182 162.988604 
L 285.482517 129.444809 
L 286.106853 147.084148 
L 286.731189 151.52063 
L 287.355524 168.983418 
L 287.97986 205.841095 
L 288.604196 144.073354 
L 289.228531 138.357784 
L 289.852867 136.92658 
L 290.477203 198.503552 
L 291.101538 142.351953 
L 291.725874 140.665951 
L 292.35021 163.01955 
L 292.974545 148.608833 
L 294.223217 161.315267 
L 295.471888 203.00145 
L 296.096224 149.224318 
L 296.720559 144.671275 
L 297.344895 145.975086 
L 297.969231 243.17982 
L 298.593566 179.245039 
L 299.217902 167.202509 
L 299.842238 144.483796 
L 300.466573 221.924377 
L 301.090909 163.919503 
L 302.33958 152.177543 
L 302.963916 213.575144 
L 303.588252 164.41348 
L 304.212587 159.366642 
L 304.836923 152.823835 
L 305.461259 188.405803 
L 306.085594 161.161193 
L 306.70993 163.298995 
L 307.334266 184.766212 
L 307.958601 189.35645 
L 308.582937 159.867134 
L 309.207273 157.949268 
L 309.831608 169.096623 
L 310.455944 166.889934 
L 311.08028 168.261542 
L 311.704615 171.680561 
L 312.328951 194.720128 
L 312.953287 190.08013 
L 313.577622 161.325415 
L 314.201958 159.713151 
L 314.826294 170.484225 
L 315.450629 174.426948 
L 316.074965 170.258851 
L 316.699301 179.32679 
L 317.323636 195.685305 
L 317.947972 215.276964 
L 318.572308 167.194873 
L 319.196643 165.633109 
L 319.820979 173.163066 
L 320.445315 245.339452 
L 321.06965 188.391544 
L 321.693986 178.47383 
L 322.318322 170.607542 
L 322.942657 240.773781 
L 323.566993 190.431538 
L 324.191329 182.653455 
L 324.815664 177.465732 
L 325.44 256.17578 
L 326.064336 203.925277 
L 326.688671 192.991315 
L 327.313007 175.509003 
L 327.937343 219.916397 
L 328.561678 184.672768 
L 329.186014 189.711532 
L 329.81035 208.222659 
L 330.434685 232.068505 
L 331.059021 182.236919 
L 331.683357 181.43655 
L 332.307692 189.588346 
L 332.932028 233.300002 
L 333.556364 187.043325 
L 334.180699 180.708299 
L 334.805035 186.000174 
L 335.429371 238.587416 
L 336.053706 192.365496 
L 336.678042 188.613688 
L 337.302378 191.354974 
L 337.926713 236.187294 
L 338.551049 191.414572 
L 339.175385 188.760797 
L 339.79972 188.935964 
L 340.424056 242.261199 
L 341.048392 198.211587 
L 341.672727 191.428658 
L 342.297063 210.07123 
L 342.921399 271.855742 
L 343.545734 244.664571 
L 344.17007 225.588099 
L 344.794406 199.589462 
L 345.418741 221.526734 
L 346.043077 198.157472 
L 346.667413 203.204354 
L 347.291748 223.013925 
L 347.916084 221.406149 
L 348.54042 194.39416 
L 349.164755 195.849459 
L 349.789091 206.825564 
L 350.413427 205.878044 
L 351.037762 205.815706 
L 351.662098 211.604453 
L 352.286434 232.025175 
L 353.535105 202.121067 
L 354.159441 202.835334 
L 354.783776 214.774761 
L 355.408112 204.981412 
L 356.032448 211.082098 
L 356.656783 220.008388 
L 357.281119 236.462473 
L 357.905455 212.224422 
L 358.52979 231.838042 
L 359.154126 234.859902 
L 359.778462 244.444877 
L 360.402797 242.98462 
L 361.027133 208.430581 
L 361.651469 206.399826 
L 362.275804 209.544078 
L 362.90014 220.503344 
L 363.524476 212.037721 
L 364.148811 215.221682 
L 364.773147 236.610022 
L 365.397483 263.067941 
L 366.021818 222.751765 
L 366.646154 211.636196 
L 367.27049 214.70692 
L 367.894825 255.65171 
L 368.519161 219.865765 
L 369.143497 215.28521 
L 369.767832 215.268614 
L 370.392168 268.022881 
L 371.016503 230.528245 
L 371.640839 222.485604 
L 372.265175 215.961882 
L 372.88951 261.659596 
L 373.513846 225.229812 
L 374.138182 223.80962 
L 374.762517 221.068448 
L 375.386853 243.843211 
L 376.011189 218.80659 
L 376.635524 225.482 
L 377.25986 241.085851 
L 377.884196 262.955101 
L 378.508531 223.557997 
L 379.132867 221.120123 
L 379.757203 227.714516 
L 380.381538 255.87628 
L 381.005874 226.384414 
L 381.63021 221.171027 
L 382.254545 227.521142 
L 382.878881 254.396086 
L 383.503217 225.724084 
L 384.127552 223.774322 
L 384.751888 227.994628 
L 385.376224 267.120752 
L 386.000559 229.194381 
L 386.624895 231.415822 
L 387.249231 225.623943 
L 387.873566 281.965622 
L 388.497902 247.259035 
L 389.122238 235.458375 
L 389.746573 239.628239 
L 390.370909 228.814326 
L 390.995245 245.270366 
L 391.61958 249.282748 
L 392.243916 260.053922 
L 392.868252 259.356608 
L 393.492587 232.193768 
L 394.116923 229.306491 
L 394.741259 239.605216 
L 395.365594 235.279494 
L 395.98993 245.242229 
L 396.614266 245.441119 
L 397.238601 260.170557 
L 397.862937 233.013547 
L 398.487273 249.952506 
L 398.487273 249.952506 
" clip-path="url(#pb55ec26c0c)" style="fill: none; stroke: #ff0000; stroke-width: 1.5; stroke-linecap: square"/>
   </g>
   <g id="line2d_12">
    <path d="M 73.832727 268.053106 
L 74.457063 274.548801 
L 75.081399 285.342337 
L 75.705734 153.369102 
L 76.33007 155.152426 
L 76.954406 167.955905 
L 77.578741 201.640378 
L 78.203077 256.529879 
L 78.827413 255.224984 
L 79.451748 253.203712 
L 80.076084 252.784881 
L 80.70042 268.203386 
L 81.324755 269.088555 
L 81.949091 267.973342 
L 82.573427 261.989164 
L 83.197762 231.331377 
L 83.822098 224.773622 
L 84.446434 233.692712 
L 85.070769 252.777328 
L 85.695105 183.448696 
L 86.319441 187.648293 
L 86.943776 174.799475 
L 87.568112 198.038016 
L 88.192448 148.962084 
L 88.816783 148.950376 
L 89.441119 151.82834 
L 90.065455 153.310103 
L 90.68979 153.756088 
L 91.314126 154.058371 
L 91.938462 157.208573 
L 92.562797 162.410536 
L 93.187133 148.339578 
L 93.811469 149.979337 
L 94.435804 151.001116 
L 95.06014 158.369869 
L 95.684476 158.159067 
L 96.308811 162.15577 
L 96.933147 170.245599 
L 97.557483 196.224049 
L 98.181818 229.064182 
L 98.806154 243.317687 
L 99.43049 250.08684 
L 100.054825 263.085219 
L 100.679161 251.560925 
L 101.303497 233.237426 
L 101.927832 230.919394 
L 102.552168 233.068046 
L 103.176503 254.396422 
L 103.800839 241.61073 
L 104.425175 241.775475 
L 105.04951 244.840748 
L 105.673846 245.901798 
L 106.298182 248.292172 
L 106.922517 256.180687 
L 107.546853 269.797728 
L 108.171189 96.355231 
L 108.795524 90.259648 
L 109.41986 106.415008 
L 110.044196 144.172167 
L 110.668531 151.127696 
L 111.292867 176.377309 
L 112.541538 257.717276 
L 113.165874 177.706593 
L 113.79021 167.795617 
L 114.414545 208.486254 
L 115.038881 236.134083 
L 115.663217 214.393978 
L 116.287552 230.314298 
L 116.911888 242.560677 
L 117.536224 251.666039 
L 118.160559 268.243555 
L 118.784895 261.607148 
L 119.409231 256.690743 
L 120.033566 242.190143 
L 120.657902 262.212175 
L 121.282238 270.591205 
L 121.906573 270.957309 
L 122.530909 264.105531 
L 123.155245 274.476822 
L 123.77958 234.797541 
L 124.403916 214.984368 
L 125.028252 210.174678 
L 125.652587 212.493111 
L 126.901259 221.300661 
L 127.525594 230.38126 
L 128.14993 272.928485 
L 130.022937 232.127721 
L 130.647273 221.787841 
L 131.271608 218.456094 
L 131.895944 219.718658 
L 132.52028 233.494875 
L 133.144615 257.910704 
L 133.768951 274.027912 
L 134.393287 268.548329 
L 135.017622 265.156624 
L 135.641958 273.238717 
L 136.266294 239.998583 
L 136.890629 227.583416 
L 137.514965 223.903417 
L 138.139301 255.89539 
L 138.763636 220.855073 
L 139.387972 217.952909 
L 140.012308 211.150608 
L 140.636643 274.005683 
L 141.260979 264.837298 
L 141.885315 263.486523 
L 142.50965 252.273934 
L 143.133986 57.408575 
L 143.758322 66.00339 
L 144.382657 77.593663 
L 145.006993 115.690886 
L 145.631329 57.80153 
L 146.88 76.54644 
L 147.504336 107.678475 
L 148.128671 72.828583 
L 148.753007 74.540297 
L 149.377343 98.121259 
L 150.001678 148.920243 
L 150.626014 155.84808 
L 151.25035 171.997429 
L 151.874685 237.814718 
L 152.499021 270.125896 
L 153.123357 290.489829 
L 154.996364 199.736811 
L 155.620699 286.864066 
L 156.245035 281.659768 
L 156.869371 250.596154 
L 157.493706 212.722801 
L 158.118042 286.573907 
L 158.742378 274.137748 
L 159.366713 240.34531 
L 159.991049 215.27456 
L 160.615385 261.892112 
L 161.23972 264.619822 
L 161.864056 271.407543 
L 162.488392 252.041388 
L 163.112727 135.947672 
L 163.737063 125.306187 
L 164.361399 128.172365 
L 164.985734 135.622767 
L 165.61007 90.397668 
L 166.234406 99.965637 
L 166.858741 118.554596 
L 167.483077 164.256924 
L 168.107413 123.975202 
L 168.731748 128.369695 
L 169.356084 177.115218 
L 169.98042 241.869525 
L 170.604755 278.856354 
L 171.229091 278.613899 
L 171.853427 273.776248 
L 172.477762 223.562665 
L 173.102098 204.565878 
L 173.726434 199.168196 
L 174.975105 279.465406 
L 175.599441 60.059935 
L 176.223776 56.264448 
L 176.848112 63.93548 
L 177.472448 86.87492 
L 178.096783 103.111796 
L 178.721119 113.025185 
L 179.345455 176.568306 
L 179.96979 272.138898 
L 180.594126 158.90707 
L 181.218462 241.545554 
L 181.842797 282.070312 
L 182.467133 266.627896 
L 183.091469 270.609654 
L 183.715804 276.70583 
L 184.964476 214.138563 
L 185.588811 264.630676 
L 186.213147 269.155072 
L 186.837483 277.115762 
L 187.461818 213.712379 
L 188.71049 269.624644 
L 189.334825 278.971018 
L 189.959161 226.774611 
L 190.583497 255.708762 
L 191.207832 269.565514 
L 191.832168 260.749083 
L 192.456503 215.343051 
L 193.080839 246.555583 
L 193.705175 262.515152 
L 194.32951 281.417841 
L 194.953846 229.985693 
L 195.578182 71.97949 
L 196.202517 79.354078 
L 196.826853 111.468823 
L 197.451189 198.583004 
L 198.075524 79.375096 
L 198.69986 70.141104 
L 199.324196 86.591824 
L 199.948531 139.444554 
L 201.197203 96.685884 
L 201.821538 129.245803 
L 202.445874 218.713053 
L 203.07021 208.774985 
L 203.694545 255.608357 
L 204.318881 275.376536 
L 204.943217 216.93212 
L 205.567552 218.356447 
L 206.191888 166.189467 
L 206.816224 148.841393 
L 207.440559 153.183908 
L 208.064895 71.890482 
L 208.689231 74.824291 
L 209.313566 88.300883 
L 209.937902 141.067114 
L 210.562238 143.588977 
L 211.186573 259.764363 
L 211.810909 294.760812 
L 212.435245 250.481833 
L 213.05958 260.297455 
L 213.683916 285.194354 
L 214.308252 233.097015 
L 214.932587 192.921468 
L 215.556923 228.063101 
L 216.181259 157.138785 
L 216.805594 144.333328 
L 217.42993 134.964654 
L 218.054266 236.252676 
L 218.678601 177.046085 
L 219.302937 157.271374 
L 219.927273 152.095853 
L 220.551608 246.130992 
L 221.175944 186.034098 
L 221.80028 157.640307 
L 222.424615 150.921522 
L 223.048951 79.951026 
L 223.673287 76.478266 
L 224.297622 84.583064 
L 224.921958 126.804811 
L 225.546294 129.847175 
L 226.170629 243.250744 
L 226.794965 292.359093 
L 227.419301 241.715795 
L 228.043636 250.812849 
L 228.667972 174.124687 
L 229.292308 155.872711 
L 229.916643 149.055315 
L 230.540979 157.66035 
L 231.165315 134.510488 
L 231.78965 138.044819 
L 232.413986 157.213622 
L 233.038322 162.152394 
L 233.662657 124.934366 
L 234.286993 123.392401 
L 234.911329 134.326318 
L 235.535664 140.62989 
L 236.16 127.998092 
L 236.784336 132.401405 
L 237.408671 157.095929 
L 238.033007 121.685513 
L 238.657343 148.042417 
L 239.281678 149.937559 
L 239.906014 169.345759 
L 240.53035 218.435099 
L 241.154685 202.202984 
L 241.779021 191.421285 
L 242.403357 192.989947 
L 243.027692 77.439498 
L 243.652028 72.561512 
L 244.276364 80.464366 
L 244.900699 107.31268 
L 245.525035 72.715447 
L 246.149371 75.629758 
L 246.773706 82.406868 
L 247.398042 109.483418 
L 248.022378 112.180071 
L 249.271049 274.979905 
L 249.895385 273.298696 
L 251.144056 211.055619 
L 251.768392 189.626706 
L 252.392727 186.17879 
L 253.017063 176.220387 
L 253.641399 131.783068 
L 254.265734 124.938073 
L 254.89007 126.6411 
L 255.514406 167.72321 
L 256.138741 117.775402 
L 256.763077 119.185124 
L 257.387413 135.908223 
L 258.011748 118.520961 
L 258.636084 127.22314 
L 259.26042 132.046794 
L 259.884755 147.913973 
L 260.509091 115.339819 
L 261.133427 127.072647 
L 261.757762 131.961261 
L 262.382098 150.06678 
L 263.006434 117.443282 
L 263.630769 138.048753 
L 264.255105 137.929791 
L 264.879441 156.033758 
L 265.503776 159.784107 
L 266.128112 119.841783 
L 266.752448 118.589471 
L 267.376783 126.824935 
L 268.001119 173.738856 
L 268.625455 127.522259 
L 269.874126 121.689231 
L 270.498462 175.170518 
L 271.122797 126.926317 
L 271.747133 128.149236 
L 272.371469 139.000584 
L 272.995804 190.764431 
L 273.62014 133.651361 
L 274.868811 128.316378 
L 275.493147 186.342615 
L 276.117483 133.936855 
L 276.741818 132.844858 
L 277.366154 151.935058 
L 277.99049 131.083213 
L 278.614825 150.82383 
L 279.239161 155.77747 
L 279.863497 174.256829 
L 280.487832 173.483268 
L 281.112168 135.0397 
L 281.736503 133.399373 
L 282.360839 137.485407 
L 282.985175 142.455624 
L 283.60951 143.661028 
L 284.233846 148.68355 
L 284.858182 170.024218 
L 285.482517 137.050111 
L 286.106853 154.105583 
L 286.731189 158.273814 
L 287.355524 175.328516 
L 287.97986 209.910369 
L 288.604196 151.579782 
L 289.228531 145.722759 
L 289.852867 145.055616 
L 290.477203 203.085493 
L 291.101538 149.438055 
L 291.725874 148.497115 
L 292.35021 169.077163 
L 292.974545 155.061788 
L 294.223217 167.694558 
L 295.471888 207.115103 
L 296.096224 156.12236 
L 296.720559 151.708507 
L 297.344895 153.027766 
L 297.969231 245.64443 
L 298.593566 184.988168 
L 299.217902 173.332336 
L 299.842238 151.660757 
L 300.466573 225.532663 
L 301.090909 170.102042 
L 302.33958 159.228082 
L 302.963916 218.052898 
L 303.588252 171.300775 
L 304.836923 160.060846 
L 305.461259 193.838519 
L 306.085594 167.920718 
L 306.70993 169.904022 
L 307.334266 190.551207 
L 307.958601 194.450724 
L 308.582937 167.519025 
L 309.207273 164.26303 
L 309.831608 175.829358 
L 310.455944 173.334068 
L 311.08028 175.169357 
L 311.704615 178.205809 
L 312.328951 200.968324 
L 312.953287 195.612656 
L 313.577622 168.29014 
L 314.201958 166.893923 
L 314.826294 177.049849 
L 315.450629 180.875548 
L 316.074965 176.778669 
L 316.699301 185.970752 
L 317.947972 219.235324 
L 318.572308 173.519602 
L 319.196643 172.594222 
L 319.820979 180.133022 
L 320.445315 247.602748 
L 321.06965 193.727399 
L 321.693986 184.573429 
L 322.318322 177.359997 
L 322.942657 243.235815 
L 323.566993 195.464802 
L 324.191329 188.150956 
L 324.815664 183.794293 
L 325.44 258.349459 
L 326.064336 209.762228 
L 326.688671 198.757126 
L 327.313007 181.98041 
L 327.937343 223.670812 
L 328.561678 190.928065 
L 329.186014 195.47343 
L 329.81035 213.215877 
L 330.434685 235.458489 
L 331.059021 188.629267 
L 331.683357 187.532457 
L 332.307692 195.367877 
L 332.932028 236.952237 
L 333.556364 193.487804 
L 334.180699 187.522089 
L 334.805035 191.840617 
L 335.429371 241.741175 
L 336.053706 197.902832 
L 336.678042 194.192001 
L 337.302378 197.033381 
L 337.926713 239.281625 
L 338.551049 197.505845 
L 339.175385 195.020585 
L 339.79972 195.513558 
L 340.424056 245.435323 
L 341.048392 204.227178 
L 341.672727 197.048696 
L 342.297063 215.652663 
L 342.921399 273.602646 
L 343.545734 247.699285 
L 344.17007 230.10553 
L 344.794406 205.62683 
L 345.418741 226.222151 
L 346.043077 203.71197 
L 346.667413 208.592189 
L 347.291748 227.703327 
L 347.916084 225.807116 
L 348.54042 200.469369 
L 349.164755 202.271431 
L 349.789091 212.56756 
L 350.413427 210.303261 
L 351.037762 211.211494 
L 351.662098 216.563114 
L 352.286434 236.418046 
L 353.535105 208.758827 
L 354.159441 208.30192 
L 354.783776 220.168242 
L 355.408112 209.049419 
L 356.656783 224.920467 
L 357.281119 240.625719 
L 357.905455 216.802395 
L 358.52979 236.522371 
L 359.154126 239.435775 
L 359.778462 247.92157 
L 360.402797 245.705065 
L 361.027133 213.667259 
L 361.651469 212.075595 
L 362.275804 214.856454 
L 362.90014 225.658771 
L 363.524476 218.145732 
L 364.148811 220.870862 
L 364.773147 240.977921 
L 365.397483 265.087745 
L 366.021818 227.623721 
L 366.646154 216.141375 
L 367.27049 220.575042 
L 367.894825 258.464789 
L 368.519161 225.375632 
L 369.143497 220.580775 
L 369.767832 220.922857 
L 370.392168 269.636408 
L 371.016503 234.674731 
L 371.640839 227.004547 
L 372.265175 221.522225 
L 372.88951 263.692319 
L 373.513846 229.246648 
L 374.138182 228.66712 
L 374.762517 226.412081 
L 375.386853 246.513137 
L 376.011189 223.504334 
L 376.635524 230.441097 
L 377.25986 245.124683 
L 377.884196 264.629388 
L 378.508531 227.403843 
L 379.132867 226.176215 
L 379.757203 232.679629 
L 380.381538 258.017988 
L 381.005874 230.971871 
L 381.63021 225.90699 
L 382.254545 232.516638 
L 382.878881 257.102754 
L 383.503217 231.115122 
L 384.127552 229.118827 
L 384.751888 232.905001 
L 385.376224 269.046908 
L 386.000559 234.486683 
L 386.624895 235.670812 
L 387.249231 230.012353 
L 387.873566 283.527358 
L 388.497902 250.39378 
L 389.122238 239.854732 
L 389.746573 243.747719 
L 390.370909 233.204977 
L 390.995245 249.048482 
L 391.61958 252.818067 
L 392.243916 262.729549 
L 392.868252 262.193445 
L 393.492587 236.59059 
L 394.116923 233.494069 
L 394.741259 243.766494 
L 395.365594 239.189827 
L 395.98993 249.127041 
L 396.614266 248.705256 
L 397.238601 264.058741 
L 397.862937 237.074592 
L 398.487273 252.843944 
L 398.487273 252.843944 
" clip-path="url(#pb55ec26c0c)" style="fill: none; stroke: #808080; stroke-width: 1.5; stroke-linecap: square"/>
   </g>
   <g id="patch_3">
    <path d="M 57.6 307.584 
L 57.6 41.472 
" style="fill: none; stroke: #000000; stroke-width: 0.8; stroke-linejoin: miter; stroke-linecap: square"/>
   </g>
   <g id="patch_4">
    <path d="M 414.72 307.584 
L 414.72 41.472 
" style="fill: none; stroke: #000000; stroke-width: 0.8; stroke-linejoin: miter; stroke-linecap: square"/>
   </g>
   <g id="patch_5">
    <path d="M 57.6 307.584 
L 414.72 307.584 
" style="fill: none; stroke: #000000; stroke-width: 0.8; stroke-linejoin: miter; stroke-linecap: square"/>
   </g>
   <g id="patch_6">
    <path d="M 57.6 41.472 
L 414.72 41.472 
" style="fill: none; stroke: #000000; stroke-width: 0.8; stroke-linejoin: miter; stroke-linecap: square"/>
   </g>
  </g>
 </g>
 <defs>
  <clipPath id="pb55ec26c0c">
   <rect x="57.6" y="41.472" width="357.12" height="266.112"/>
  </clipPath>
 </defs>
</svg>
