<?xml version="1.0" encoding="utf-8" standalone="no"?>
<!DOCTYPE svg PUBLIC "-//W3C//DTD SVG 1.1//EN"
  "http://www.w3.org/Graphics/SVG/1.1/DTD/svg11.dtd">
<svg xmlns:xlink="http://www.w3.org/1999/xlink" width="460.8pt" height="345.6pt" viewBox="0 0 460.8 345.6" xmlns="http://www.w3.org/2000/svg" version="1.1">
 <metadata>
  <rdf:RDF xmlns:dc="http://purl.org/dc/elements/1.1/" xmlns:cc="http://creativecommons.org/ns#" xmlns:rdf="http://www.w3.org/1999/02/22-rdf-syntax-ns#">
   <cc:Work>
    <dc:type rdf:resource="http://purl.org/dc/dcmitype/StillImage"/>
    <dc:date>2025-03-10T17:24:59.336277</dc:date>
    <dc:format>image/svg+xml</dc:format>
    <dc:creator>
     <cc:Agent>
      <dc:title>Matplotlib v3.6.3, https://matplotlib.org/</dc:title>
     </cc:Agent>
    </dc:creator>
   </cc:Work>
  </rdf:RDF>
 </metadata>
 <defs>
  <style type="text/css">*{stroke-linejoin: round; stroke-linecap: butt}</style>
 </defs>
 <g id="figure_1">
  <g id="patch_1">
   <path d="M 0 345.6 
L 460.8 345.6 
L 460.8 0 
L 0 0 
z
" style="fill: #ffffff"/>
  </g>
  <g id="axes_1">
   <g id="patch_2">
    <path d="M 57.6 307.584 
L 414.72 307.584 
L 414.72 41.472 
L 57.6 41.472 
z
" style="fill: #ffffff"/>
   </g>
   <g id="matplotlib.axis_1">
    <g id="xtick_1">
     <g id="line2d_1">
      <defs>
       <path id="m67310324e9" d="M 0 0 
L 0 3.5 
" style="stroke: #000000; stroke-width: 0.8"/>
      </defs>
      <g>
       <use xlink:href="#m67310324e9" x="73.767783" y="307.584" style="stroke: #000000; stroke-width: 0.8"/>
      </g>
     </g>
     <g id="text_1">
      <!-- 0 -->
      <g transform="translate(70.586533 322.182437) scale(0.1 -0.1)">
       <defs>
        <path id="DejaVuSans-30" d="M 2034 4250 
Q 1547 4250 1301 3770 
Q 1056 3291 1056 2328 
Q 1056 1369 1301 889 
Q 1547 409 2034 409 
Q 2525 409 2770 889 
Q 3016 1369 3016 2328 
Q 3016 3291 2770 3770 
Q 2525 4250 2034 4250 
z
M 2034 4750 
Q 2819 4750 3233 4129 
Q 3647 3509 3647 2328 
Q 3647 1150 3233 529 
Q 2819 -91 2034 -91 
Q 1250 -91 836 529 
Q 422 1150 422 2328 
Q 422 3509 836 4129 
Q 1250 4750 2034 4750 
z
" transform="scale(0.015625)"/>
       </defs>
       <use xlink:href="#DejaVuSans-30"/>
      </g>
     </g>
    </g>
    <g id="xtick_2">
     <g id="line2d_2">
      <g>
       <use xlink:href="#m67310324e9" x="138.711681" y="307.584" style="stroke: #000000; stroke-width: 0.8"/>
      </g>
     </g>
     <g id="text_2">
      <!-- 2000 -->
      <g transform="translate(125.986681 322.182437) scale(0.1 -0.1)">
       <defs>
        <path id="DejaVuSans-32" d="M 1228 531 
L 3431 531 
L 3431 0 
L 469 0 
L 469 531 
Q 828 903 1448 1529 
Q 2069 2156 2228 2338 
Q 2531 2678 2651 2914 
Q 2772 3150 2772 3378 
Q 2772 3750 2511 3984 
Q 2250 4219 1831 4219 
Q 1534 4219 1204 4116 
Q 875 4013 500 3803 
L 500 4441 
Q 881 4594 1212 4672 
Q 1544 4750 1819 4750 
Q 2544 4750 2975 4387 
Q 3406 4025 3406 3419 
Q 3406 3131 3298 2873 
Q 3191 2616 2906 2266 
Q 2828 2175 2409 1742 
Q 1991 1309 1228 531 
z
" transform="scale(0.015625)"/>
       </defs>
       <use xlink:href="#DejaVuSans-32"/>
       <use xlink:href="#DejaVuSans-30" x="63.623047"/>
       <use xlink:href="#DejaVuSans-30" x="127.246094"/>
       <use xlink:href="#DejaVuSans-30" x="190.869141"/>
      </g>
     </g>
    </g>
    <g id="xtick_3">
     <g id="line2d_3">
      <g>
       <use xlink:href="#m67310324e9" x="203.655579" y="307.584" style="stroke: #000000; stroke-width: 0.8"/>
      </g>
     </g>
     <g id="text_3">
      <!-- 4000 -->
      <g transform="translate(190.930579 322.182437) scale(0.1 -0.1)">
       <defs>
        <path id="DejaVuSans-34" d="M 2419 4116 
L 825 1625 
L 2419 1625 
L 2419 4116 
z
M 2253 4666 
L 3047 4666 
L 3047 1625 
L 3713 1625 
L 3713 1100 
L 3047 1100 
L 3047 0 
L 2419 0 
L 2419 1100 
L 313 1100 
L 313 1709 
L 2253 4666 
z
" transform="scale(0.015625)"/>
       </defs>
       <use xlink:href="#DejaVuSans-34"/>
       <use xlink:href="#DejaVuSans-30" x="63.623047"/>
       <use xlink:href="#DejaVuSans-30" x="127.246094"/>
       <use xlink:href="#DejaVuSans-30" x="190.869141"/>
      </g>
     </g>
    </g>
    <g id="xtick_4">
     <g id="line2d_4">
      <g>
       <use xlink:href="#m67310324e9" x="268.599477" y="307.584" style="stroke: #000000; stroke-width: 0.8"/>
      </g>
     </g>
     <g id="text_4">
      <!-- 6000 -->
      <g transform="translate(255.874477 322.182437) scale(0.1 -0.1)">
       <defs>
        <path id="DejaVuSans-36" d="M 2113 2584 
Q 1688 2584 1439 2293 
Q 1191 2003 1191 1497 
Q 1191 994 1439 701 
Q 1688 409 2113 409 
Q 2538 409 2786 701 
Q 3034 994 3034 1497 
Q 3034 2003 2786 2293 
Q 2538 2584 2113 2584 
z
M 3366 4563 
L 3366 3988 
Q 3128 4100 2886 4159 
Q 2644 4219 2406 4219 
Q 1781 4219 1451 3797 
Q 1122 3375 1075 2522 
Q 1259 2794 1537 2939 
Q 1816 3084 2150 3084 
Q 2853 3084 3261 2657 
Q 3669 2231 3669 1497 
Q 3669 778 3244 343 
Q 2819 -91 2113 -91 
Q 1303 -91 875 529 
Q 447 1150 447 2328 
Q 447 3434 972 4092 
Q 1497 4750 2381 4750 
Q 2619 4750 2861 4703 
Q 3103 4656 3366 4563 
z
" transform="scale(0.015625)"/>
       </defs>
       <use xlink:href="#DejaVuSans-36"/>
       <use xlink:href="#DejaVuSans-30" x="63.623047"/>
       <use xlink:href="#DejaVuSans-30" x="127.246094"/>
       <use xlink:href="#DejaVuSans-30" x="190.869141"/>
      </g>
     </g>
    </g>
    <g id="xtick_5">
     <g id="line2d_5">
      <g>
       <use xlink:href="#m67310324e9" x="333.543375" y="307.584" style="stroke: #000000; stroke-width: 0.8"/>
      </g>
     </g>
     <g id="text_5">
      <!-- 8000 -->
      <g transform="translate(320.818375 322.182437) scale(0.1 -0.1)">
       <defs>
        <path id="DejaVuSans-38" d="M 2034 2216 
Q 1584 2216 1326 1975 
Q 1069 1734 1069 1313 
Q 1069 891 1326 650 
Q 1584 409 2034 409 
Q 2484 409 2743 651 
Q 3003 894 3003 1313 
Q 3003 1734 2745 1975 
Q 2488 2216 2034 2216 
z
M 1403 2484 
Q 997 2584 770 2862 
Q 544 3141 544 3541 
Q 544 4100 942 4425 
Q 1341 4750 2034 4750 
Q 2731 4750 3128 4425 
Q 3525 4100 3525 3541 
Q 3525 3141 3298 2862 
Q 3072 2584 2669 2484 
Q 3125 2378 3379 2068 
Q 3634 1759 3634 1313 
Q 3634 634 3220 271 
Q 2806 -91 2034 -91 
Q 1263 -91 848 271 
Q 434 634 434 1313 
Q 434 1759 690 2068 
Q 947 2378 1403 2484 
z
M 1172 3481 
Q 1172 3119 1398 2916 
Q 1625 2713 2034 2713 
Q 2441 2713 2670 2916 
Q 2900 3119 2900 3481 
Q 2900 3844 2670 4047 
Q 2441 4250 2034 4250 
Q 1625 4250 1398 4047 
Q 1172 3844 1172 3481 
z
" transform="scale(0.015625)"/>
       </defs>
       <use xlink:href="#DejaVuSans-38"/>
       <use xlink:href="#DejaVuSans-30" x="63.623047"/>
       <use xlink:href="#DejaVuSans-30" x="127.246094"/>
       <use xlink:href="#DejaVuSans-30" x="190.869141"/>
      </g>
     </g>
    </g>
    <g id="xtick_6">
     <g id="line2d_6">
      <g>
       <use xlink:href="#m67310324e9" x="398.487273" y="307.584" style="stroke: #000000; stroke-width: 0.8"/>
      </g>
     </g>
     <g id="text_6">
      <!-- 10000 -->
      <g transform="translate(382.581023 322.182437) scale(0.1 -0.1)">
       <defs>
        <path id="DejaVuSans-31" d="M 794 531 
L 1825 531 
L 1825 4091 
L 703 3866 
L 703 4441 
L 1819 4666 
L 2450 4666 
L 2450 531 
L 3481 531 
L 3481 0 
L 794 0 
L 794 531 
z
" transform="scale(0.015625)"/>
       </defs>
       <use xlink:href="#DejaVuSans-31"/>
       <use xlink:href="#DejaVuSans-30" x="63.623047"/>
       <use xlink:href="#DejaVuSans-30" x="127.246094"/>
       <use xlink:href="#DejaVuSans-30" x="190.869141"/>
       <use xlink:href="#DejaVuSans-30" x="254.492188"/>
      </g>
     </g>
    </g>
    <g id="text_7">
     <!-- Number of Traces -->
     <g transform="translate(192.21 335.860562) scale(0.1 -0.1)">
      <defs>
       <path id="DejaVuSans-4e" d="M 628 4666 
L 1478 4666 
L 3547 763 
L 3547 4666 
L 4159 4666 
L 4159 0 
L 3309 0 
L 1241 3903 
L 1241 0 
L 628 0 
L 628 4666 
z
" transform="scale(0.015625)"/>
       <path id="DejaVuSans-75" d="M 544 1381 
L 544 3500 
L 1119 3500 
L 1119 1403 
Q 1119 906 1312 657 
Q 1506 409 1894 409 
Q 2359 409 2629 706 
Q 2900 1003 2900 1516 
L 2900 3500 
L 3475 3500 
L 3475 0 
L 2900 0 
L 2900 538 
Q 2691 219 2414 64 
Q 2138 -91 1772 -91 
Q 1169 -91 856 284 
Q 544 659 544 1381 
z
M 1991 3584 
L 1991 3584 
z
" transform="scale(0.015625)"/>
       <path id="DejaVuSans-6d" d="M 3328 2828 
Q 3544 3216 3844 3400 
Q 4144 3584 4550 3584 
Q 5097 3584 5394 3201 
Q 5691 2819 5691 2113 
L 5691 0 
L 5113 0 
L 5113 2094 
Q 5113 2597 4934 2840 
Q 4756 3084 4391 3084 
Q 3944 3084 3684 2787 
Q 3425 2491 3425 1978 
L 3425 0 
L 2847 0 
L 2847 2094 
Q 2847 2600 2669 2842 
Q 2491 3084 2119 3084 
Q 1678 3084 1418 2786 
Q 1159 2488 1159 1978 
L 1159 0 
L 581 0 
L 581 3500 
L 1159 3500 
L 1159 2956 
Q 1356 3278 1631 3431 
Q 1906 3584 2284 3584 
Q 2666 3584 2933 3390 
Q 3200 3197 3328 2828 
z
" transform="scale(0.015625)"/>
       <path id="DejaVuSans-62" d="M 3116 1747 
Q 3116 2381 2855 2742 
Q 2594 3103 2138 3103 
Q 1681 3103 1420 2742 
Q 1159 2381 1159 1747 
Q 1159 1113 1420 752 
Q 1681 391 2138 391 
Q 2594 391 2855 752 
Q 3116 1113 3116 1747 
z
M 1159 2969 
Q 1341 3281 1617 3432 
Q 1894 3584 2278 3584 
Q 2916 3584 3314 3078 
Q 3713 2572 3713 1747 
Q 3713 922 3314 415 
Q 2916 -91 2278 -91 
Q 1894 -91 1617 61 
Q 1341 213 1159 525 
L 1159 0 
L 581 0 
L 581 4863 
L 1159 4863 
L 1159 2969 
z
" transform="scale(0.015625)"/>
       <path id="DejaVuSans-65" d="M 3597 1894 
L 3597 1613 
L 953 1613 
Q 991 1019 1311 708 
Q 1631 397 2203 397 
Q 2534 397 2845 478 
Q 3156 559 3463 722 
L 3463 178 
Q 3153 47 2828 -22 
Q 2503 -91 2169 -91 
Q 1331 -91 842 396 
Q 353 884 353 1716 
Q 353 2575 817 3079 
Q 1281 3584 2069 3584 
Q 2775 3584 3186 3129 
Q 3597 2675 3597 1894 
z
M 3022 2063 
Q 3016 2534 2758 2815 
Q 2500 3097 2075 3097 
Q 1594 3097 1305 2825 
Q 1016 2553 972 2059 
L 3022 2063 
z
" transform="scale(0.015625)"/>
       <path id="DejaVuSans-72" d="M 2631 2963 
Q 2534 3019 2420 3045 
Q 2306 3072 2169 3072 
Q 1681 3072 1420 2755 
Q 1159 2438 1159 1844 
L 1159 0 
L 581 0 
L 581 3500 
L 1159 3500 
L 1159 2956 
Q 1341 3275 1631 3429 
Q 1922 3584 2338 3584 
Q 2397 3584 2469 3576 
Q 2541 3569 2628 3553 
L 2631 2963 
z
" transform="scale(0.015625)"/>
       <path id="DejaVuSans-20" transform="scale(0.015625)"/>
       <path id="DejaVuSans-6f" d="M 1959 3097 
Q 1497 3097 1228 2736 
Q 959 2375 959 1747 
Q 959 1119 1226 758 
Q 1494 397 1959 397 
Q 2419 397 2687 759 
Q 2956 1122 2956 1747 
Q 2956 2369 2687 2733 
Q 2419 3097 1959 3097 
z
M 1959 3584 
Q 2709 3584 3137 3096 
Q 3566 2609 3566 1747 
Q 3566 888 3137 398 
Q 2709 -91 1959 -91 
Q 1206 -91 779 398 
Q 353 888 353 1747 
Q 353 2609 779 3096 
Q 1206 3584 1959 3584 
z
" transform="scale(0.015625)"/>
       <path id="DejaVuSans-66" d="M 2375 4863 
L 2375 4384 
L 1825 4384 
Q 1516 4384 1395 4259 
Q 1275 4134 1275 3809 
L 1275 3500 
L 2222 3500 
L 2222 3053 
L 1275 3053 
L 1275 0 
L 697 0 
L 697 3053 
L 147 3053 
L 147 3500 
L 697 3500 
L 697 3744 
Q 697 4328 969 4595 
Q 1241 4863 1831 4863 
L 2375 4863 
z
" transform="scale(0.015625)"/>
       <path id="DejaVuSans-54" d="M -19 4666 
L 3928 4666 
L 3928 4134 
L 2272 4134 
L 2272 0 
L 1638 0 
L 1638 4134 
L -19 4134 
L -19 4666 
z
" transform="scale(0.015625)"/>
       <path id="DejaVuSans-61" d="M 2194 1759 
Q 1497 1759 1228 1600 
Q 959 1441 959 1056 
Q 959 750 1161 570 
Q 1363 391 1709 391 
Q 2188 391 2477 730 
Q 2766 1069 2766 1631 
L 2766 1759 
L 2194 1759 
z
M 3341 1997 
L 3341 0 
L 2766 0 
L 2766 531 
Q 2569 213 2275 61 
Q 1981 -91 1556 -91 
Q 1019 -91 701 211 
Q 384 513 384 1019 
Q 384 1609 779 1909 
Q 1175 2209 1959 2209 
L 2766 2209 
L 2766 2266 
Q 2766 2663 2505 2880 
Q 2244 3097 1772 3097 
Q 1472 3097 1187 3025 
Q 903 2953 641 2809 
L 641 3341 
Q 956 3463 1253 3523 
Q 1550 3584 1831 3584 
Q 2591 3584 2966 3190 
Q 3341 2797 3341 1997 
z
" transform="scale(0.015625)"/>
       <path id="DejaVuSans-63" d="M 3122 3366 
L 3122 2828 
Q 2878 2963 2633 3030 
Q 2388 3097 2138 3097 
Q 1578 3097 1268 2742 
Q 959 2388 959 1747 
Q 959 1106 1268 751 
Q 1578 397 2138 397 
Q 2388 397 2633 464 
Q 2878 531 3122 666 
L 3122 134 
Q 2881 22 2623 -34 
Q 2366 -91 2075 -91 
Q 1284 -91 818 406 
Q 353 903 353 1747 
Q 353 2603 823 3093 
Q 1294 3584 2113 3584 
Q 2378 3584 2631 3529 
Q 2884 3475 3122 3366 
z
" transform="scale(0.015625)"/>
       <path id="DejaVuSans-73" d="M 2834 3397 
L 2834 2853 
Q 2591 2978 2328 3040 
Q 2066 3103 1784 3103 
Q 1356 3103 1142 2972 
Q 928 2841 928 2578 
Q 928 2378 1081 2264 
Q 1234 2150 1697 2047 
L 1894 2003 
Q 2506 1872 2764 1633 
Q 3022 1394 3022 966 
Q 3022 478 2636 193 
Q 2250 -91 1575 -91 
Q 1294 -91 989 -36 
Q 684 19 347 128 
L 347 722 
Q 666 556 975 473 
Q 1284 391 1588 391 
Q 1994 391 2212 530 
Q 2431 669 2431 922 
Q 2431 1156 2273 1281 
Q 2116 1406 1581 1522 
L 1381 1569 
Q 847 1681 609 1914 
Q 372 2147 372 2553 
Q 372 3047 722 3315 
Q 1072 3584 1716 3584 
Q 2034 3584 2315 3537 
Q 2597 3491 2834 3397 
z
" transform="scale(0.015625)"/>
      </defs>
      <use xlink:href="#DejaVuSans-4e"/>
      <use xlink:href="#DejaVuSans-75" x="74.804688"/>
      <use xlink:href="#DejaVuSans-6d" x="138.183594"/>
      <use xlink:href="#DejaVuSans-62" x="235.595703"/>
      <use xlink:href="#DejaVuSans-65" x="299.072266"/>
      <use xlink:href="#DejaVuSans-72" x="360.595703"/>
      <use xlink:href="#DejaVuSans-20" x="401.708984"/>
      <use xlink:href="#DejaVuSans-6f" x="433.496094"/>
      <use xlink:href="#DejaVuSans-66" x="494.677734"/>
      <use xlink:href="#DejaVuSans-20" x="529.882812"/>
      <use xlink:href="#DejaVuSans-54" x="561.669922"/>
      <use xlink:href="#DejaVuSans-72" x="608.003906"/>
      <use xlink:href="#DejaVuSans-61" x="649.117188"/>
      <use xlink:href="#DejaVuSans-63" x="710.396484"/>
      <use xlink:href="#DejaVuSans-65" x="765.376953"/>
      <use xlink:href="#DejaVuSans-73" x="826.900391"/>
     </g>
    </g>
   </g>
   <g id="matplotlib.axis_2">
    <g id="ytick_1">
     <g id="line2d_7">
      <defs>
       <path id="m0647e83206" d="M 0 0 
L -3.5 0 
" style="stroke: #000000; stroke-width: 0.8"/>
      </defs>
      <g>
       <use xlink:href="#m0647e83206" x="57.6" y="307.584" style="stroke: #000000; stroke-width: 0.8"/>
      </g>
     </g>
     <g id="text_8">
      <!-- 0.0 -->
      <g transform="translate(34.696875 311.383219) scale(0.1 -0.1)">
       <defs>
        <path id="DejaVuSans-2e" d="M 684 794 
L 1344 794 
L 1344 0 
L 684 0 
L 684 794 
z
" transform="scale(0.015625)"/>
       </defs>
       <use xlink:href="#DejaVuSans-30"/>
       <use xlink:href="#DejaVuSans-2e" x="63.623047"/>
       <use xlink:href="#DejaVuSans-30" x="95.410156"/>
      </g>
     </g>
    </g>
    <g id="ytick_2">
     <g id="line2d_8">
      <g>
       <use xlink:href="#m0647e83206" x="57.6" y="254.3616" style="stroke: #000000; stroke-width: 0.8"/>
      </g>
     </g>
     <g id="text_9">
      <!-- 0.2 -->
      <g transform="translate(34.696875 258.160819) scale(0.1 -0.1)">
       <use xlink:href="#DejaVuSans-30"/>
       <use xlink:href="#DejaVuSans-2e" x="63.623047"/>
       <use xlink:href="#DejaVuSans-32" x="95.410156"/>
      </g>
     </g>
    </g>
    <g id="ytick_3">
     <g id="line2d_9">
      <g>
       <use xlink:href="#m0647e83206" x="57.6" y="201.1392" style="stroke: #000000; stroke-width: 0.8"/>
      </g>
     </g>
     <g id="text_10">
      <!-- 0.4 -->
      <g transform="translate(34.696875 204.938419) scale(0.1 -0.1)">
       <use xlink:href="#DejaVuSans-30"/>
       <use xlink:href="#DejaVuSans-2e" x="63.623047"/>
       <use xlink:href="#DejaVuSans-34" x="95.410156"/>
      </g>
     </g>
    </g>
    <g id="ytick_4">
     <g id="line2d_10">
      <g>
       <use xlink:href="#m0647e83206" x="57.6" y="147.9168" style="stroke: #000000; stroke-width: 0.8"/>
      </g>
     </g>
     <g id="text_11">
      <!-- 0.6 -->
      <g transform="translate(34.696875 151.716019) scale(0.1 -0.1)">
       <use xlink:href="#DejaVuSans-30"/>
       <use xlink:href="#DejaVuSans-2e" x="63.623047"/>
       <use xlink:href="#DejaVuSans-36" x="95.410156"/>
      </g>
     </g>
    </g>
    <g id="ytick_5">
     <g id="line2d_11">
      <g>
       <use xlink:href="#m0647e83206" x="57.6" y="94.6944" style="stroke: #000000; stroke-width: 0.8"/>
      </g>
     </g>
     <g id="text_12">
      <!-- 0.8 -->
      <g transform="translate(34.696875 98.493619) scale(0.1 -0.1)">
       <use xlink:href="#DejaVuSans-30"/>
       <use xlink:href="#DejaVuSans-2e" x="63.623047"/>
       <use xlink:href="#DejaVuSans-38" x="95.410156"/>
      </g>
     </g>
    </g>
    <g id="ytick_6">
     <g id="line2d_12">
      <g>
       <use xlink:href="#m0647e83206" x="57.6" y="41.472" style="stroke: #000000; stroke-width: 0.8"/>
      </g>
     </g>
     <g id="text_13">
      <!-- 1.0 -->
      <g transform="translate(34.696875 45.271219) scale(0.1 -0.1)">
       <use xlink:href="#DejaVuSans-31"/>
       <use xlink:href="#DejaVuSans-2e" x="63.623047"/>
       <use xlink:href="#DejaVuSans-30" x="95.410156"/>
      </g>
     </g>
    </g>
    <g id="text_14">
     <!-- Highest Correlation Coefficient -->
     <g transform="translate(28.617187 251.288937) rotate(-90) scale(0.1 -0.1)">
      <defs>
       <path id="DejaVuSans-48" d="M 628 4666 
L 1259 4666 
L 1259 2753 
L 3553 2753 
L 3553 4666 
L 4184 4666 
L 4184 0 
L 3553 0 
L 3553 2222 
L 1259 2222 
L 1259 0 
L 628 0 
L 628 4666 
z
" transform="scale(0.015625)"/>
       <path id="DejaVuSans-69" d="M 603 3500 
L 1178 3500 
L 1178 0 
L 603 0 
L 603 3500 
z
M 603 4863 
L 1178 4863 
L 1178 4134 
L 603 4134 
L 603 4863 
z
" transform="scale(0.015625)"/>
       <path id="DejaVuSans-67" d="M 2906 1791 
Q 2906 2416 2648 2759 
Q 2391 3103 1925 3103 
Q 1463 3103 1205 2759 
Q 947 2416 947 1791 
Q 947 1169 1205 825 
Q 1463 481 1925 481 
Q 2391 481 2648 825 
Q 2906 1169 2906 1791 
z
M 3481 434 
Q 3481 -459 3084 -895 
Q 2688 -1331 1869 -1331 
Q 1566 -1331 1297 -1286 
Q 1028 -1241 775 -1147 
L 775 -588 
Q 1028 -725 1275 -790 
Q 1522 -856 1778 -856 
Q 2344 -856 2625 -561 
Q 2906 -266 2906 331 
L 2906 616 
Q 2728 306 2450 153 
Q 2172 0 1784 0 
Q 1141 0 747 490 
Q 353 981 353 1791 
Q 353 2603 747 3093 
Q 1141 3584 1784 3584 
Q 2172 3584 2450 3431 
Q 2728 3278 2906 2969 
L 2906 3500 
L 3481 3500 
L 3481 434 
z
" transform="scale(0.015625)"/>
       <path id="DejaVuSans-68" d="M 3513 2113 
L 3513 0 
L 2938 0 
L 2938 2094 
Q 2938 2591 2744 2837 
Q 2550 3084 2163 3084 
Q 1697 3084 1428 2787 
Q 1159 2491 1159 1978 
L 1159 0 
L 581 0 
L 581 4863 
L 1159 4863 
L 1159 2956 
Q 1366 3272 1645 3428 
Q 1925 3584 2291 3584 
Q 2894 3584 3203 3211 
Q 3513 2838 3513 2113 
z
" transform="scale(0.015625)"/>
       <path id="DejaVuSans-74" d="M 1172 4494 
L 1172 3500 
L 2356 3500 
L 2356 3053 
L 1172 3053 
L 1172 1153 
Q 1172 725 1289 603 
Q 1406 481 1766 481 
L 2356 481 
L 2356 0 
L 1766 0 
Q 1100 0 847 248 
Q 594 497 594 1153 
L 594 3053 
L 172 3053 
L 172 3500 
L 594 3500 
L 594 4494 
L 1172 4494 
z
" transform="scale(0.015625)"/>
       <path id="DejaVuSans-43" d="M 4122 4306 
L 4122 3641 
Q 3803 3938 3442 4084 
Q 3081 4231 2675 4231 
Q 1875 4231 1450 3742 
Q 1025 3253 1025 2328 
Q 1025 1406 1450 917 
Q 1875 428 2675 428 
Q 3081 428 3442 575 
Q 3803 722 4122 1019 
L 4122 359 
Q 3791 134 3420 21 
Q 3050 -91 2638 -91 
Q 1578 -91 968 557 
Q 359 1206 359 2328 
Q 359 3453 968 4101 
Q 1578 4750 2638 4750 
Q 3056 4750 3426 4639 
Q 3797 4528 4122 4306 
z
" transform="scale(0.015625)"/>
       <path id="DejaVuSans-6c" d="M 603 4863 
L 1178 4863 
L 1178 0 
L 603 0 
L 603 4863 
z
" transform="scale(0.015625)"/>
       <path id="DejaVuSans-6e" d="M 3513 2113 
L 3513 0 
L 2938 0 
L 2938 2094 
Q 2938 2591 2744 2837 
Q 2550 3084 2163 3084 
Q 1697 3084 1428 2787 
Q 1159 2491 1159 1978 
L 1159 0 
L 581 0 
L 581 3500 
L 1159 3500 
L 1159 2956 
Q 1366 3272 1645 3428 
Q 1925 3584 2291 3584 
Q 2894 3584 3203 3211 
Q 3513 2838 3513 2113 
z
" transform="scale(0.015625)"/>
      </defs>
      <use xlink:href="#DejaVuSans-48"/>
      <use xlink:href="#DejaVuSans-69" x="75.195312"/>
      <use xlink:href="#DejaVuSans-67" x="102.978516"/>
      <use xlink:href="#DejaVuSans-68" x="166.455078"/>
      <use xlink:href="#DejaVuSans-65" x="229.833984"/>
      <use xlink:href="#DejaVuSans-73" x="291.357422"/>
      <use xlink:href="#DejaVuSans-74" x="343.457031"/>
      <use xlink:href="#DejaVuSans-20" x="382.666016"/>
      <use xlink:href="#DejaVuSans-43" x="414.453125"/>
      <use xlink:href="#DejaVuSans-6f" x="484.277344"/>
      <use xlink:href="#DejaVuSans-72" x="545.458984"/>
      <use xlink:href="#DejaVuSans-72" x="584.822266"/>
      <use xlink:href="#DejaVuSans-65" x="623.685547"/>
      <use xlink:href="#DejaVuSans-6c" x="685.208984"/>
      <use xlink:href="#DejaVuSans-61" x="712.992188"/>
      <use xlink:href="#DejaVuSans-74" x="774.271484"/>
      <use xlink:href="#DejaVuSans-69" x="813.480469"/>
      <use xlink:href="#DejaVuSans-6f" x="841.263672"/>
      <use xlink:href="#DejaVuSans-6e" x="902.445312"/>
      <use xlink:href="#DejaVuSans-20" x="965.824219"/>
      <use xlink:href="#DejaVuSans-43" x="997.611328"/>
      <use xlink:href="#DejaVuSans-6f" x="1067.435547"/>
      <use xlink:href="#DejaVuSans-65" x="1128.617188"/>
      <use xlink:href="#DejaVuSans-66" x="1190.140625"/>
      <use xlink:href="#DejaVuSans-66" x="1225.345703"/>
      <use xlink:href="#DejaVuSans-69" x="1260.550781"/>
      <use xlink:href="#DejaVuSans-63" x="1288.333984"/>
      <use xlink:href="#DejaVuSans-69" x="1343.314453"/>
      <use xlink:href="#DejaVuSans-65" x="1371.097656"/>
      <use xlink:href="#DejaVuSans-6e" x="1432.621094"/>
      <use xlink:href="#DejaVuSans-74" x="1496"/>
     </g>
    </g>
   </g>
   <g id="line2d_13">
    <path d="M 73.832727 41.472 
L 73.930143 41.472 
L 73.995087 42.149518 
L 74.189919 55.456152 
L 74.222391 54.637015 
L 74.352278 67.595493 
L 74.38475 62.72662 
L 74.417222 79.833761 
L 74.741942 92.799882 
L 75.066661 126.303689 
L 75.229021 141.617625 
L 75.553741 142.272385 
L 76.20318 178.417702 
L 76.527899 175.311888 
L 76.852619 182.730751 
L 77.014978 186.071855 
L 77.664417 191.631267 
L 78.313856 201.329347 
L 78.963295 204.911455 
L 79.612734 212.465444 
L 80.262173 218.080047 
L 80.911612 221.436904 
L 81.561051 223.337571 
L 82.21049 227.016286 
L 84.158807 229.766689 
L 84.808246 231.527692 
L 85.457685 232.421847 
L 86.107124 236.51725 
L 86.756563 237.915642 
L 87.406002 241.949247 
L 88.055441 243.597318 
L 88.70488 243.702448 
L 89.354319 246.185652 
L 90.003758 242.782583 
L 90.653197 245.638277 
L 91.302636 245.716668 
L 91.952075 249.176828 
L 92.601514 246.213033 
L 93.250953 246.47392 
L 93.900392 243.909577 
L 94.549831 245.338023 
L 95.19927 244.235075 
L 95.848709 244.417779 
L 96.498148 244.378049 
L 97.147587 245.781988 
L 97.797026 245.603968 
L 98.446465 247.106398 
L 99.745343 248.723564 
L 100.394782 247.55163 
L 101.04422 247.23008 
L 101.693659 249.321196 
L 102.343098 248.006622 
L 102.992537 245.390224 
L 103.641976 247.331634 
L 104.291415 246.925637 
L 104.940854 246.898507 
L 105.590293 247.781078 
L 106.239732 249.20522 
L 106.889171 248.002921 
L 107.53861 248.543427 
L 108.188049 248.584649 
L 108.837488 249.904535 
L 109.486927 250.207238 
L 110.136366 250.136926 
L 110.785805 251.118535 
L 111.435244 251.4263 
L 112.084683 250.93294 
L 112.734122 252.974672 
L 113.383561 253.358164 
L 114.033 253.887937 
L 114.682439 253.696986 
L 115.331878 253.310797 
L 115.981317 253.560993 
L 116.630756 254.078071 
L 117.929634 252.506449 
L 118.579073 252.413141 
L 119.228512 252.895288 
L 119.877951 254.705005 
L 121.176829 256.080537 
L 121.826268 255.628687 
L 122.475707 254.472689 
L 123.125146 255.31781 
L 123.774585 255.530236 
L 124.424024 256.729489 
L 125.722902 254.106602 
L 127.02178 254.346955 
L 127.671219 255.444988 
L 128.320658 256.104541 
L 128.970097 255.89444 
L 129.619536 256.804813 
L 130.268975 257.361407 
L 130.918414 256.903983 
L 131.567852 256.68857 
L 132.217291 256.888057 
L 132.86673 256.773825 
L 133.516169 257.082165 
L 134.165608 256.242327 
L 134.815047 256.382255 
L 135.464486 256.356846 
L 136.113925 256.495852 
L 136.763364 256.058983 
L 137.412803 256.847404 
L 138.062242 256.394367 
L 138.711681 256.094252 
L 139.36112 256.57516 
L 140.659998 256.326782 
L 141.309437 256.326145 
L 141.958876 255.196976 
L 144.556632 256.083463 
L 145.206071 255.932457 
L 145.85551 255.582781 
L 146.504949 255.60246 
L 147.154388 255.762709 
L 147.803827 255.603788 
L 148.453266 255.786328 
L 149.102705 256.283026 
L 149.752144 255.944109 
L 150.401583 256.271818 
L 151.051022 256.989909 
L 151.700461 256.644635 
L 152.3499 256.627615 
L 152.999339 256.158425 
L 153.648778 256.284506 
L 154.298217 256.818208 
L 154.947656 256.899225 
L 155.597095 256.034471 
L 156.246534 256.305908 
L 156.895973 256.34072 
L 157.545412 256.009141 
L 158.194851 256.220952 
L 158.84429 256.123209 
L 159.493729 255.816085 
L 160.143168 256.013313 
L 160.792607 256.03413 
L 161.442046 256.298044 
L 162.091484 255.857281 
L 162.740923 256.251842 
L 164.039801 255.912108 
L 164.68924 256.229479 
L 165.338679 256.007882 
L 165.988118 256.925917 
L 166.637557 257.27275 
L 167.286996 257.163806 
L 167.936435 256.878802 
L 168.585874 256.933126 
L 169.884752 257.556968 
L 170.534191 258.515941 
L 171.833069 257.610063 
L 172.482508 257.483337 
L 173.131947 257.715001 
L 173.781386 257.628675 
L 174.430825 257.90744 
L 175.080264 258.313263 
L 175.729703 257.916205 
L 176.379142 258.486398 
L 177.028581 258.677022 
L 177.67802 258.137956 
L 179.626337 258.15819 
L 180.275776 257.764991 
L 180.925215 257.873511 
L 181.574654 257.726869 
L 182.224093 257.827053 
L 182.873532 257.649419 
L 183.522971 257.084706 
L 184.17241 256.82627 
L 184.821849 256.988143 
L 185.471288 256.776175 
L 186.120727 257.186863 
L 186.770166 257.18749 
L 188.069044 257.510248 
L 188.718483 257.269887 
L 189.367922 257.590079 
L 190.017361 258.062741 
L 190.6668 258.189854 
L 191.316239 258.528579 
L 191.965677 258.302297 
L 192.615116 258.446668 
L 193.264555 258.429654 
L 193.913994 258.554814 
L 194.563433 259.031798 
L 195.862311 259.547565 
L 196.51175 259.151276 
L 197.161189 259.451422 
L 198.460067 258.957545 
L 199.109506 258.750102 
L 199.758945 259.080005 
L 200.408384 259.078973 
L 201.707262 259.80408 
L 202.356701 260.030949 
L 204.954457 259.497711 
L 205.603896 259.847539 
L 206.902774 259.590021 
L 207.552213 259.377425 
L 208.201652 259.36546 
L 208.851091 259.163378 
L 209.50053 259.097948 
L 210.799408 258.232064 
L 212.747725 258.882702 
L 214.046603 258.580149 
L 214.696042 258.89555 
L 215.345481 258.848461 
L 215.99492 259.261322 
L 217.293798 259.411724 
L 218.592676 259.230351 
L 220.540993 259.741632 
L 221.839871 259.60756 
L 222.489309 260.010636 
L 223.138748 259.767239 
L 223.788187 259.948485 
L 225.087065 259.953947 
L 225.736504 259.725736 
L 226.385943 259.665428 
L 227.035382 259.749127 
L 227.684821 259.679303 
L 228.983699 260.080463 
L 229.633138 260.285819 
L 230.932016 260.25737 
L 232.230894 260.396477 
L 232.880333 260.669622 
L 233.529772 260.766495 
L 234.179211 260.640494 
L 234.82865 260.793676 
L 236.127528 260.565435 
L 236.776967 260.785877 
L 237.426406 260.640606 
L 238.725284 261.146236 
L 239.374723 261.01024 
L 240.024162 260.398703 
L 240.673601 260.397545 
L 241.32304 260.658896 
L 241.972479 260.764399 
L 242.621918 260.657119 
L 243.271357 260.935157 
L 244.570235 260.732441 
L 248.466869 261.582078 
L 249.116308 261.403449 
L 249.765747 261.539891 
L 251.714064 261.297866 
L 252.363503 261.59324 
L 253.012941 261.491839 
L 253.66238 261.786405 
L 254.311819 261.840131 
L 254.961258 261.557397 
L 255.610697 261.44464 
L 256.260136 261.507896 
L 256.909575 261.211428 
L 257.559014 261.49252 
L 258.857892 261.410828 
L 259.507331 261.509472 
L 260.806209 261.534314 
L 261.455648 261.220555 
L 262.105087 261.055545 
L 262.754526 261.147944 
L 263.403965 261.018164 
L 264.702843 261.14494 
L 265.352282 260.807146 
L 266.001721 260.910073 
L 266.65116 260.759591 
L 267.300599 260.94048 
L 268.599477 260.850618 
L 270.547794 260.715902 
L 271.846672 261.019508 
L 272.496111 260.891452 
L 274.444428 260.883523 
L 275.093867 260.781754 
L 275.743306 260.874347 
L 277.042184 260.385746 
L 278.341062 260.269617 
L 279.63994 259.507282 
L 280.289379 259.745358 
L 282.237696 259.176891 
L 282.887135 259.029899 
L 283.536573 259.026999 
L 284.186012 258.750907 
L 284.835451 258.863892 
L 285.48489 258.757322 
L 286.134329 258.785533 
L 286.783768 259.067014 
L 287.433207 259.00648 
L 288.732085 259.118127 
L 289.381524 258.994957 
L 290.030963 259.046115 
L 290.680402 259.212467 
L 291.329841 259.105081 
L 292.628719 258.653671 
L 293.278158 258.772658 
L 294.577036 258.231102 
L 295.875914 258.028162 
L 296.525353 257.693476 
L 297.174792 257.53285 
L 298.47367 257.579891 
L 301.071426 256.963395 
L 303.019743 256.997953 
L 303.669182 257.139947 
L 304.318621 257.028546 
L 304.96806 257.06334 
L 305.617499 257.248269 
L 306.916377 257.225164 
L 308.864694 257.407362 
L 310.163572 257.686117 
L 310.813011 257.534355 
L 311.46245 257.677771 
L 312.761328 257.171869 
L 314.709644 257.383276 
L 317.3074 257.145037 
L 318.606278 257.419201 
L 319.255717 257.091917 
L 319.905156 257.075838 
L 321.204034 256.686423 
L 322.502912 256.67352 
L 323.152351 256.470964 
L 323.80179 256.464023 
L 324.451229 256.681993 
L 327.698424 256.865967 
L 328.997302 256.71838 
L 329.646741 256.931764 
L 331.595058 256.84445 
L 335.491692 257.305793 
L 336.141131 257.410637 
L 336.79057 257.381312 
L 341.336643 258.022701 
L 342.635521 257.932519 
L 343.28496 257.695674 
L 345.882715 257.744125 
L 346.532154 257.516724 
L 347.831032 257.457751 
L 348.480471 257.327598 
L 349.779349 257.473655 
L 350.428788 257.674513 
L 351.078227 257.489124 
L 352.377105 257.706484 
L 353.675983 257.82695 
L 354.974861 257.874355 
L 356.923178 257.761825 
L 357.572617 257.839772 
L 358.222056 258.049576 
L 358.871495 258.04851 
L 359.520934 258.277995 
L 360.819812 258.277229 
L 362.11869 257.813255 
L 364.716446 257.86242 
L 365.365885 257.745109 
L 366.015324 257.760468 
L 366.664763 257.905544 
L 367.314202 257.812463 
L 367.963641 257.940458 
L 369.262519 257.846586 
L 370.561397 257.508153 
L 371.860275 257.424219 
L 373.159153 257.764038 
L 377.705225 257.156719 
L 378.354664 257.079654 
L 379.004103 257.204573 
L 379.653542 257.023338 
L 380.302981 256.97213 
L 380.95242 257.219249 
L 381.601859 257.029966 
L 382.251298 257.090379 
L 382.900737 256.905631 
L 384.199615 256.905704 
L 385.498493 257.097088 
L 386.147932 256.940342 
L 386.797371 257.108635 
L 388.096249 257.151363 
L 390.044566 257.226067 
L 393.291761 257.117649 
L 396.538956 257.267276 
L 397.837834 257.342535 
L 398.487273 257.145214 
L 398.487273 257.145214 
" clip-path="url(#p33c3687236)" style="fill: none; stroke: #808080; stroke-width: 0.8; stroke-linecap: square"/>
   </g>
   <g id="line2d_14">
    <path d="M 73.832727 41.472 
L 73.930143 41.506084 
L 73.995087 41.884686 
L 74.319807 62.866527 
L 74.417222 74.004464 
L 74.741942 108.148503 
L 75.229021 133.576589 
L 75.391381 138.500896 
L 75.553741 151.830655 
L 76.04082 159.030372 
L 76.20318 166.865399 
L 76.365539 166.820761 
L 76.527899 164.21151 
L 76.690259 165.130585 
L 76.852619 162.938869 
L 77.014978 167.031977 
L 77.664417 177.923514 
L 78.313856 177.522801 
L 78.963295 185.77113 
L 79.612734 182.288332 
L 80.262173 179.607253 
L 80.911612 182.797225 
L 81.561051 187.789593 
L 82.21049 188.163392 
L 82.859929 183.927165 
L 83.509368 183.894607 
L 84.158807 186.543254 
L 84.808246 186.813564 
L 85.457685 190.651412 
L 86.107124 189.603882 
L 86.756563 193.046814 
L 87.406002 195.313462 
L 88.055441 192.824178 
L 88.70488 196.350099 
L 89.354319 197.105544 
L 90.003758 195.521305 
L 90.653197 197.843617 
L 91.302636 197.570011 
L 92.601514 194.582055 
L 93.250953 194.426553 
L 93.900392 193.333509 
L 94.549831 191.765476 
L 95.19927 193.260848 
L 95.848709 194.18089 
L 96.498148 193.442235 
L 97.147587 195.362824 
L 97.797026 195.216717 
L 98.446465 197.736592 
L 99.095904 197.803215 
L 99.745343 195.212302 
L 100.394782 194.938093 
L 101.04422 194.083335 
L 101.693659 194.012797 
L 102.343098 194.277248 
L 102.992537 192.917267 
L 103.641976 193.089109 
L 104.291415 195.690897 
L 106.239732 194.772836 
L 106.889171 195.513873 
L 107.53861 195.97607 
L 108.188049 196.969956 
L 108.837488 196.688739 
L 109.486927 196.848929 
L 110.136366 198.821688 
L 110.785805 198.030284 
L 111.435244 197.986026 
L 112.084683 197.270128 
L 112.734122 197.783386 
L 113.383561 197.800736 
L 114.033 196.80564 
L 114.682439 196.663092 
L 115.331878 195.062783 
L 115.981317 194.802375 
L 116.630756 195.115364 
L 117.280195 194.9257 
L 117.929634 197.102174 
L 118.579073 196.827467 
L 119.228512 197.068218 
L 119.877951 196.482377 
L 120.52739 197.622833 
L 121.176829 197.909182 
L 121.826268 197.377294 
L 122.475707 198.796256 
L 123.125146 198.296079 
L 123.774585 198.713724 
L 125.073463 197.240949 
L 125.722902 197.998081 
L 126.372341 198.090953 
L 127.02178 199.046755 
L 127.671219 198.937892 
L 128.320658 199.896612 
L 128.970097 200.094176 
L 129.619536 199.656735 
L 130.918414 200.220938 
L 131.567852 200.097547 
L 132.217291 200.715212 
L 132.86673 200.27046 
L 133.516169 201.365022 
L 135.464486 200.38909 
L 136.113925 200.883734 
L 136.763364 201.055604 
L 138.062242 202.355483 
L 138.711681 202.019403 
L 139.36112 202.77998 
L 140.010559 202.400995 
L 140.659998 202.197814 
L 141.309437 202.93674 
L 141.958876 203.334484 
L 142.608315 204.176381 
L 143.257754 203.768844 
L 143.907193 203.804156 
L 144.556632 204.140918 
L 145.206071 203.439669 
L 145.85551 203.811792 
L 147.154388 202.874848 
L 147.803827 203.39135 
L 148.453266 202.844199 
L 149.102705 202.840787 
L 149.752144 202.655361 
L 150.401583 202.097344 
L 151.051022 202.080706 
L 151.700461 202.576779 
L 152.3499 202.663801 
L 152.999339 202.382448 
L 154.298217 202.302177 
L 154.947656 202.56041 
L 155.597095 201.874105 
L 156.246534 201.58029 
L 156.895973 201.498122 
L 157.545412 201.947921 
L 158.194851 201.621175 
L 158.84429 201.738768 
L 159.493729 201.597549 
L 160.143168 200.755186 
L 160.792607 200.778094 
L 161.442046 201.60625 
L 162.740923 202.309006 
L 164.039801 202.806639 
L 164.68924 202.613077 
L 165.338679 202.149016 
L 166.637557 202.11822 
L 167.286996 201.722082 
L 167.936435 201.620238 
L 168.585874 201.857394 
L 169.235313 201.707654 
L 170.534191 201.920897 
L 171.18363 201.619175 
L 171.833069 201.874382 
L 172.482508 201.974706 
L 173.131947 201.934753 
L 173.781386 201.519684 
L 174.430825 201.505544 
L 175.080264 201.318596 
L 175.729703 200.969225 
L 178.327459 201.195354 
L 180.275776 200.859238 
L 181.574654 201.349749 
L 182.224093 201.464512 
L 182.873532 201.44291 
L 184.821849 200.540742 
L 185.471288 200.916548 
L 186.120727 200.606641 
L 186.770166 201.020759 
L 187.419605 201.166359 
L 188.069044 201.026059 
L 188.718483 201.129581 
L 189.367922 200.832179 
L 190.6668 200.847551 
L 191.316239 200.817697 
L 192.615116 200.585681 
L 193.264555 200.754995 
L 193.913994 201.167034 
L 194.563433 200.873869 
L 195.212872 200.961164 
L 195.862311 200.706711 
L 196.51175 200.222535 
L 197.161189 200.299645 
L 197.810628 200.231381 
L 198.460067 200.437588 
L 199.758945 200.167818 
L 200.408384 200.496391 
L 201.057823 200.127865 
L 201.707262 200.208715 
L 203.00614 200.091117 
L 204.305018 200.436308 
L 204.954457 200.409579 
L 205.603896 200.724261 
L 206.253335 200.749634 
L 206.902774 200.506141 
L 208.201652 200.772142 
L 208.851091 201.086087 
L 210.149969 201.109007 
L 210.799408 201.346955 
L 212.098286 200.437354 
L 212.747725 200.374422 
L 213.397164 200.097075 
L 214.696042 200.017073 
L 215.345481 200.125593 
L 215.99492 199.73349 
L 217.293798 199.70011 
L 218.592676 199.313067 
L 220.540993 199.942874 
L 221.190432 199.681925 
L 221.839871 200.379704 
L 222.489309 200.24003 
L 223.138748 200.737732 
L 224.437626 200.555474 
L 226.385943 201.116195 
L 228.33426 200.437433 
L 229.633138 200.505118 
L 232.230894 200.023822 
L 232.880333 199.712097 
L 233.529772 199.531178 
L 234.82865 199.971838 
L 235.478089 200.043052 
L 236.127528 199.899572 
L 236.776967 200.081949 
L 238.075845 200.031404 
L 238.725284 200.362268 
L 239.374723 200.412797 
L 242.621918 199.743756 
L 243.271357 199.819037 
L 245.219674 199.48416 
L 245.869113 199.539279 
L 246.518552 199.79592 
L 247.167991 199.809308 
L 248.466869 199.303289 
L 249.116308 199.366844 
L 249.765747 199.585484 
L 250.415186 199.58741 
L 251.064625 199.310233 
L 251.714064 199.438128 
L 252.363503 199.379496 
L 253.012941 199.454215 
L 253.66238 199.298546 
L 254.961258 199.296029 
L 256.260136 199.341253 
L 256.909575 199.163641 
L 257.559014 199.285425 
L 258.857892 199.085682 
L 259.507331 199.149376 
L 260.15677 199.409099 
L 260.806209 199.480549 
L 261.455648 199.739312 
L 262.105087 199.418759 
L 262.754526 199.416284 
L 263.403965 199.27742 
L 264.053404 199.271543 
L 264.702843 199.476167 
L 265.352282 199.529899 
L 266.001721 199.725747 
L 267.950038 199.733668 
L 268.599477 199.484115 
L 269.248916 199.525618 
L 269.898355 199.396464 
L 271.846672 199.516574 
L 272.496111 199.749923 
L 273.14555 199.611282 
L 274.444428 199.66444 
L 275.093867 199.427746 
L 276.392745 199.332603 
L 277.691623 199.043083 
L 278.341062 199.200133 
L 278.990501 198.965665 
L 280.289379 199.016814 
L 280.938818 198.660942 
L 282.237696 198.469056 
L 284.835451 199.08128 
L 286.134329 198.751423 
L 286.783768 198.917184 
L 287.433207 198.743489 
L 288.082646 198.948754 
L 290.030963 198.693183 
L 290.680402 198.756095 
L 291.329841 198.484155 
L 292.628719 198.527847 
L 293.927597 198.717519 
L 296.525353 198.241224 
L 298.47367 198.294409 
L 299.772548 198.582377 
L 301.071426 198.388084 
L 302.370304 198.516148 
L 303.669182 198.557627 
L 304.318621 198.702922 
L 306.266938 198.678282 
L 306.916377 198.538732 
L 308.215255 198.550619 
L 309.514133 198.338421 
L 311.46245 198.495931 
L 315.359083 198.076569 
L 316.008522 198.00676 
L 317.3074 198.428733 
L 317.956839 198.510511 
L 319.905156 198.25614 
L 322.502912 198.510622 
L 323.152351 198.416453 
L 323.80179 198.469027 
L 324.451229 198.405644 
L 325.100668 198.805015 
L 325.750107 198.917908 
L 326.399546 199.198177 
L 327.698424 199.088505 
L 328.347863 198.919226 
L 328.997302 199.016601 
L 329.646741 199.26594 
L 330.945619 198.961352 
L 331.595058 199.199899 
L 332.893936 199.350341 
L 335.491692 199.689529 
L 336.141131 199.431128 
L 336.79057 199.455934 
L 337.440009 199.661448 
L 340.037765 199.599883 
L 340.687204 199.853096 
L 341.986082 200.00791 
L 342.635521 199.928326 
L 343.28496 200.124468 
L 343.934399 200.054954 
L 344.583837 200.204294 
L 346.532154 199.864751 
L 347.181593 199.831637 
L 348.480471 200.160355 
L 349.779349 200.116373 
L 351.078227 199.827537 
L 351.727666 199.962658 
L 352.377105 199.816767 
L 355.6243 199.797087 
L 356.923178 199.871691 
L 357.572617 200.122559 
L 358.222056 200.022232 
L 358.871495 200.124006 
L 359.520934 199.960096 
L 361.469251 200.205166 
L 362.11869 200.249483 
L 364.067007 199.775805 
L 366.015324 200.030809 
L 368.61308 199.914739 
L 369.911958 199.741255 
L 370.561397 199.916182 
L 372.509714 199.881713 
L 373.808592 199.792335 
L 374.458031 199.827628 
L 375.107469 200.089719 
L 377.055786 200.168426 
L 379.004103 200.135156 
L 379.653542 200.186479 
L 380.95242 199.935077 
L 381.601859 199.937139 
L 384.199615 199.57038 
L 384.849054 199.525907 
L 385.498493 199.26798 
L 386.797371 199.362146 
L 387.44681 199.449787 
L 389.395127 199.260854 
L 390.044566 199.425869 
L 391.343444 199.303563 
L 391.992883 199.458806 
L 392.642322 199.402795 
L 393.9412 199.546938 
L 394.590639 199.449038 
L 395.240078 199.525949 
L 397.837834 199.318641 
L 398.487273 199.389668 
L 398.487273 199.389668 
" clip-path="url(#p33c3687236)" style="fill: none; stroke: #ff0000; stroke-width: 0.8; stroke-linecap: square"/>
   </g>
   <g id="patch_3">
    <path d="M 57.6 307.584 
L 57.6 41.472 
" style="fill: none; stroke: #000000; stroke-width: 0.8; stroke-linejoin: miter; stroke-linecap: square"/>
   </g>
   <g id="patch_4">
    <path d="M 414.72 307.584 
L 414.72 41.472 
" style="fill: none; stroke: #000000; stroke-width: 0.8; stroke-linejoin: miter; stroke-linecap: square"/>
   </g>
   <g id="patch_5">
    <path d="M 57.6 307.584 
L 414.72 307.584 
" style="fill: none; stroke: #000000; stroke-width: 0.8; stroke-linejoin: miter; stroke-linecap: square"/>
   </g>
   <g id="patch_6">
    <path d="M 57.6 41.472 
L 414.72 41.472 
" style="fill: none; stroke: #000000; stroke-width: 0.8; stroke-linejoin: miter; stroke-linecap: square"/>
   </g>
   <g id="legend_1">
    <g id="patch_7">
     <path d="M 257.555938 78.82825 
L 407.72 78.82825 
Q 409.72 78.82825 409.72 76.82825 
L 409.72 48.472 
Q 409.72 46.472 407.72 46.472 
L 257.555938 46.472 
Q 255.555938 46.472 255.555938 48.472 
L 255.555938 76.82825 
Q 255.555938 78.82825 257.555938 78.82825 
z
" style="fill: #ffffff; opacity: 0.8; stroke: #cccccc; stroke-linejoin: miter"/>
    </g>
    <g id="line2d_15">
     <path d="M 259.555938 54.570437 
L 269.555938 54.570437 
L 279.555938 54.570437 
" style="fill: none; stroke: #808080; stroke-width: 0.8; stroke-linecap: square"/>
    </g>
    <g id="text_15">
     <!-- Incorrect Weight Values -->
     <g transform="translate(287.555938 58.070437) scale(0.1 -0.1)">
      <defs>
       <path id="DejaVuSans-49" d="M 628 4666 
L 1259 4666 
L 1259 0 
L 628 0 
L 628 4666 
z
" transform="scale(0.015625)"/>
       <path id="DejaVuSans-57" d="M 213 4666 
L 850 4666 
L 1831 722 
L 2809 4666 
L 3519 4666 
L 4500 722 
L 5478 4666 
L 6119 4666 
L 4947 0 
L 4153 0 
L 3169 4050 
L 2175 0 
L 1381 0 
L 213 4666 
z
" transform="scale(0.015625)"/>
       <path id="DejaVuSans-56" d="M 1831 0 
L 50 4666 
L 709 4666 
L 2188 738 
L 3669 4666 
L 4325 4666 
L 2547 0 
L 1831 0 
z
" transform="scale(0.015625)"/>
      </defs>
      <use xlink:href="#DejaVuSans-49"/>
      <use xlink:href="#DejaVuSans-6e" x="29.492188"/>
      <use xlink:href="#DejaVuSans-63" x="92.871094"/>
      <use xlink:href="#DejaVuSans-6f" x="147.851562"/>
      <use xlink:href="#DejaVuSans-72" x="209.033203"/>
      <use xlink:href="#DejaVuSans-72" x="248.396484"/>
      <use xlink:href="#DejaVuSans-65" x="287.259766"/>
      <use xlink:href="#DejaVuSans-63" x="348.783203"/>
      <use xlink:href="#DejaVuSans-74" x="403.763672"/>
      <use xlink:href="#DejaVuSans-20" x="442.972656"/>
      <use xlink:href="#DejaVuSans-57" x="474.759766"/>
      <use xlink:href="#DejaVuSans-65" x="567.761719"/>
      <use xlink:href="#DejaVuSans-69" x="629.285156"/>
      <use xlink:href="#DejaVuSans-67" x="657.068359"/>
      <use xlink:href="#DejaVuSans-68" x="720.544922"/>
      <use xlink:href="#DejaVuSans-74" x="783.923828"/>
      <use xlink:href="#DejaVuSans-20" x="823.132812"/>
      <use xlink:href="#DejaVuSans-56" x="854.919922"/>
      <use xlink:href="#DejaVuSans-61" x="915.578125"/>
      <use xlink:href="#DejaVuSans-6c" x="976.857422"/>
      <use xlink:href="#DejaVuSans-75" x="1004.640625"/>
      <use xlink:href="#DejaVuSans-65" x="1068.019531"/>
      <use xlink:href="#DejaVuSans-73" x="1129.542969"/>
     </g>
    </g>
    <g id="line2d_16">
     <path d="M 259.555938 69.248562 
L 269.555938 69.248562 
L 279.555938 69.248562 
" style="fill: none; stroke: #ff0000; stroke-width: 0.8; stroke-linecap: square"/>
    </g>
    <g id="text_16">
     <!-- True Weight Value -->
     <g transform="translate(287.555938 72.748562) scale(0.1 -0.1)">
      <use xlink:href="#DejaVuSans-54"/>
      <use xlink:href="#DejaVuSans-72" x="46.333984"/>
      <use xlink:href="#DejaVuSans-75" x="87.447266"/>
      <use xlink:href="#DejaVuSans-65" x="150.826172"/>
      <use xlink:href="#DejaVuSans-20" x="212.349609"/>
      <use xlink:href="#DejaVuSans-57" x="244.136719"/>
      <use xlink:href="#DejaVuSans-65" x="337.138672"/>
      <use xlink:href="#DejaVuSans-69" x="398.662109"/>
      <use xlink:href="#DejaVuSans-67" x="426.445312"/>
      <use xlink:href="#DejaVuSans-68" x="489.921875"/>
      <use xlink:href="#DejaVuSans-74" x="553.300781"/>
      <use xlink:href="#DejaVuSans-20" x="592.509766"/>
      <use xlink:href="#DejaVuSans-56" x="624.296875"/>
      <use xlink:href="#DejaVuSans-61" x="684.955078"/>
      <use xlink:href="#DejaVuSans-6c" x="746.234375"/>
      <use xlink:href="#DejaVuSans-75" x="774.017578"/>
      <use xlink:href="#DejaVuSans-65" x="837.396484"/>
     </g>
    </g>
   </g>
  </g>
 </g>
 <defs>
  <clipPath id="p33c3687236">
   <rect x="57.6" y="41.472" width="357.12" height="266.112"/>
  </clipPath>
 </defs>
</svg>
